G75*
%MOIN*%
%OFA0B0*%
%FSLAX25Y25*%
%IPPOS*%
%LPD*%
%AMOC8*
5,1,8,0,0,1.08239X$1,22.5*
%
%ADD10C,0.00200*%
%ADD11C,0.00400*%
%ADD12C,0.00600*%
%ADD13R,0.07000X0.01500*%
%ADD14R,0.02000X0.05500*%
%ADD15C,0.02000*%
%ADD16C,0.02000*%
%ADD17R,0.42000X0.03000*%
%ADD18R,0.07500X0.02000*%
%ADD19R,0.03000X0.02000*%
%ADD20C,0.01000*%
%ADD21C,0.00500*%
D10*
X0044189Y0271700D02*
X0044922Y0271700D01*
X0044922Y0272922D01*
X0044556Y0272922D01*
X0043700Y0273411D02*
X0043702Y0273454D01*
X0043707Y0273496D01*
X0043717Y0273538D01*
X0043729Y0273578D01*
X0043746Y0273618D01*
X0043766Y0273655D01*
X0043788Y0273691D01*
X0043814Y0273725D01*
X0043843Y0273757D01*
X0043875Y0273786D01*
X0043909Y0273812D01*
X0043944Y0273834D01*
X0043982Y0273854D01*
X0044022Y0273871D01*
X0044062Y0273883D01*
X0044104Y0273893D01*
X0044146Y0273898D01*
X0044189Y0273900D01*
X0044922Y0273900D01*
X0046004Y0273900D02*
X0047226Y0271700D01*
X0047226Y0273900D01*
X0048308Y0273900D02*
X0048919Y0273900D01*
X0048308Y0273900D02*
X0048308Y0271700D01*
X0048919Y0271700D01*
X0048967Y0271702D01*
X0049015Y0271708D01*
X0049062Y0271717D01*
X0049108Y0271730D01*
X0049153Y0271747D01*
X0049196Y0271767D01*
X0049238Y0271790D01*
X0049278Y0271817D01*
X0049316Y0271846D01*
X0049351Y0271879D01*
X0049384Y0271914D01*
X0049413Y0271952D01*
X0049440Y0271992D01*
X0049463Y0272034D01*
X0049483Y0272077D01*
X0049500Y0272122D01*
X0049513Y0272168D01*
X0049522Y0272215D01*
X0049528Y0272263D01*
X0049530Y0272311D01*
X0049530Y0273289D01*
X0049528Y0273337D01*
X0049522Y0273385D01*
X0049513Y0273432D01*
X0049500Y0273478D01*
X0049483Y0273523D01*
X0049463Y0273566D01*
X0049440Y0273608D01*
X0049413Y0273648D01*
X0049384Y0273686D01*
X0049351Y0273721D01*
X0049316Y0273754D01*
X0049278Y0273783D01*
X0049238Y0273810D01*
X0049196Y0273833D01*
X0049153Y0273853D01*
X0049108Y0273870D01*
X0049062Y0273883D01*
X0049015Y0273892D01*
X0048967Y0273898D01*
X0048919Y0273900D01*
X0046004Y0273900D02*
X0046004Y0271700D01*
X0044189Y0271700D02*
X0044146Y0271702D01*
X0044104Y0271707D01*
X0044062Y0271717D01*
X0044022Y0271729D01*
X0043982Y0271746D01*
X0043945Y0271766D01*
X0043909Y0271788D01*
X0043875Y0271814D01*
X0043843Y0271843D01*
X0043814Y0271875D01*
X0043788Y0271909D01*
X0043766Y0271945D01*
X0043746Y0271982D01*
X0043729Y0272022D01*
X0043717Y0272062D01*
X0043707Y0272104D01*
X0043702Y0272146D01*
X0043700Y0272189D01*
X0043700Y0273411D01*
X0047200Y0284700D02*
X0047933Y0284700D01*
X0047976Y0284702D01*
X0048018Y0284707D01*
X0048060Y0284717D01*
X0048100Y0284729D01*
X0048140Y0284746D01*
X0048177Y0284766D01*
X0048213Y0284788D01*
X0048247Y0284814D01*
X0048279Y0284843D01*
X0048308Y0284875D01*
X0048334Y0284909D01*
X0048356Y0284944D01*
X0048376Y0284982D01*
X0048393Y0285022D01*
X0048405Y0285062D01*
X0048415Y0285104D01*
X0048420Y0285146D01*
X0048422Y0285189D01*
X0048422Y0285433D01*
X0048420Y0285476D01*
X0048415Y0285518D01*
X0048405Y0285560D01*
X0048393Y0285600D01*
X0048376Y0285640D01*
X0048356Y0285678D01*
X0048334Y0285713D01*
X0048308Y0285747D01*
X0048279Y0285779D01*
X0048247Y0285808D01*
X0048213Y0285834D01*
X0048178Y0285856D01*
X0048140Y0285876D01*
X0048100Y0285893D01*
X0048060Y0285905D01*
X0048018Y0285915D01*
X0047976Y0285920D01*
X0047933Y0285922D01*
X0047200Y0285922D01*
X0047200Y0286900D01*
X0048422Y0286900D01*
X0049238Y0286900D02*
X0049971Y0284700D01*
X0050704Y0286900D01*
X0050131Y0298200D02*
X0050864Y0300400D01*
X0049398Y0300400D02*
X0050131Y0298200D01*
X0048582Y0298200D02*
X0047360Y0298200D01*
X0048399Y0299422D01*
X0048032Y0300400D02*
X0047980Y0300398D01*
X0047928Y0300392D01*
X0047876Y0300383D01*
X0047826Y0300369D01*
X0047776Y0300352D01*
X0047728Y0300331D01*
X0047682Y0300307D01*
X0047638Y0300280D01*
X0047595Y0300249D01*
X0047555Y0300215D01*
X0047518Y0300179D01*
X0047484Y0300139D01*
X0047452Y0300097D01*
X0047424Y0300054D01*
X0047399Y0300008D01*
X0047377Y0299960D01*
X0047359Y0299911D01*
X0048399Y0299422D02*
X0048432Y0299456D01*
X0048462Y0299493D01*
X0048490Y0299533D01*
X0048514Y0299574D01*
X0048534Y0299617D01*
X0048551Y0299662D01*
X0048565Y0299708D01*
X0048574Y0299755D01*
X0048580Y0299802D01*
X0048582Y0299850D01*
X0048580Y0299895D01*
X0048574Y0299941D01*
X0048565Y0299985D01*
X0048552Y0300029D01*
X0048536Y0300071D01*
X0048516Y0300112D01*
X0048492Y0300151D01*
X0048466Y0300188D01*
X0048437Y0300223D01*
X0048405Y0300255D01*
X0048370Y0300284D01*
X0048333Y0300310D01*
X0048294Y0300334D01*
X0048253Y0300354D01*
X0048211Y0300370D01*
X0048167Y0300383D01*
X0048123Y0300392D01*
X0048077Y0300398D01*
X0048032Y0300400D01*
X0045811Y0300400D02*
X0045811Y0298200D01*
X0045200Y0298200D02*
X0046422Y0298200D01*
X0045200Y0299911D02*
X0045811Y0300400D01*
X0045811Y0311700D02*
X0045200Y0311700D01*
X0045200Y0313900D01*
X0045811Y0313900D01*
X0045854Y0313898D01*
X0045896Y0313893D01*
X0045938Y0313883D01*
X0045978Y0313871D01*
X0046018Y0313854D01*
X0046056Y0313834D01*
X0046091Y0313812D01*
X0046125Y0313786D01*
X0046157Y0313757D01*
X0046186Y0313725D01*
X0046212Y0313691D01*
X0046234Y0313656D01*
X0046254Y0313618D01*
X0046271Y0313578D01*
X0046283Y0313538D01*
X0046293Y0313496D01*
X0046298Y0313454D01*
X0046300Y0313411D01*
X0046298Y0313368D01*
X0046293Y0313326D01*
X0046283Y0313284D01*
X0046271Y0313244D01*
X0046254Y0313204D01*
X0046234Y0313167D01*
X0046212Y0313131D01*
X0046186Y0313097D01*
X0046157Y0313065D01*
X0046125Y0313036D01*
X0046091Y0313010D01*
X0046056Y0312988D01*
X0046018Y0312968D01*
X0045978Y0312951D01*
X0045938Y0312939D01*
X0045896Y0312929D01*
X0045854Y0312924D01*
X0045811Y0312922D01*
X0045200Y0312922D01*
X0045811Y0312922D02*
X0045859Y0312920D01*
X0045907Y0312914D01*
X0045954Y0312905D01*
X0046000Y0312892D01*
X0046045Y0312875D01*
X0046088Y0312855D01*
X0046130Y0312832D01*
X0046170Y0312805D01*
X0046208Y0312776D01*
X0046243Y0312743D01*
X0046276Y0312708D01*
X0046305Y0312670D01*
X0046332Y0312630D01*
X0046355Y0312588D01*
X0046375Y0312545D01*
X0046392Y0312500D01*
X0046405Y0312454D01*
X0046414Y0312407D01*
X0046420Y0312359D01*
X0046422Y0312311D01*
X0046420Y0312263D01*
X0046414Y0312215D01*
X0046405Y0312168D01*
X0046392Y0312122D01*
X0046375Y0312077D01*
X0046355Y0312034D01*
X0046332Y0311992D01*
X0046305Y0311952D01*
X0046276Y0311914D01*
X0046243Y0311879D01*
X0046208Y0311846D01*
X0046170Y0311817D01*
X0046130Y0311790D01*
X0046088Y0311767D01*
X0046045Y0311747D01*
X0046000Y0311730D01*
X0045954Y0311717D01*
X0045907Y0311708D01*
X0045859Y0311702D01*
X0045811Y0311700D01*
X0047133Y0311700D02*
X0047866Y0313900D01*
X0048600Y0311700D01*
X0048416Y0312250D02*
X0047316Y0312250D01*
X0049271Y0313900D02*
X0050494Y0313900D01*
X0049882Y0313900D02*
X0049882Y0311700D01*
X0010864Y0308900D02*
X0010131Y0306700D01*
X0009398Y0308900D01*
X0008399Y0307922D02*
X0007360Y0306700D01*
X0008582Y0306700D01*
X0007359Y0308411D02*
X0007377Y0308460D01*
X0007399Y0308508D01*
X0007424Y0308554D01*
X0007452Y0308597D01*
X0007484Y0308639D01*
X0007518Y0308679D01*
X0007555Y0308715D01*
X0007595Y0308749D01*
X0007638Y0308780D01*
X0007682Y0308807D01*
X0007728Y0308831D01*
X0007776Y0308852D01*
X0007826Y0308869D01*
X0007876Y0308883D01*
X0007928Y0308892D01*
X0007980Y0308898D01*
X0008032Y0308900D01*
X0008077Y0308898D01*
X0008123Y0308892D01*
X0008167Y0308883D01*
X0008211Y0308870D01*
X0008253Y0308854D01*
X0008294Y0308834D01*
X0008333Y0308810D01*
X0008370Y0308784D01*
X0008405Y0308755D01*
X0008437Y0308723D01*
X0008466Y0308688D01*
X0008492Y0308651D01*
X0008516Y0308612D01*
X0008536Y0308571D01*
X0008552Y0308529D01*
X0008565Y0308485D01*
X0008574Y0308441D01*
X0008580Y0308395D01*
X0008582Y0308350D01*
X0008580Y0308302D01*
X0008574Y0308255D01*
X0008565Y0308208D01*
X0008551Y0308162D01*
X0008534Y0308117D01*
X0008514Y0308074D01*
X0008490Y0308033D01*
X0008462Y0307993D01*
X0008432Y0307956D01*
X0008399Y0307922D01*
X0006422Y0306700D02*
X0005200Y0306700D01*
X0005811Y0306700D02*
X0005811Y0308900D01*
X0005200Y0308411D01*
D11*
X0120003Y0318800D02*
X0120003Y0323400D01*
X0122048Y0323400D01*
X0122048Y0321356D02*
X0120003Y0321356D01*
X0123789Y0320589D02*
X0126856Y0320589D01*
X0128844Y0322378D02*
X0130122Y0323400D01*
X0130122Y0318800D01*
X0128844Y0318800D02*
X0131400Y0318800D01*
X0164433Y0275997D02*
X0169633Y0274264D01*
X0169633Y0273686D01*
X0167900Y0274842D02*
X0164433Y0273686D01*
X0165300Y0271605D02*
X0167900Y0271605D01*
X0167900Y0270305D01*
X0167898Y0270243D01*
X0167892Y0270181D01*
X0167883Y0270119D01*
X0167869Y0270058D01*
X0167852Y0269999D01*
X0167832Y0269940D01*
X0167807Y0269882D01*
X0167780Y0269827D01*
X0167749Y0269773D01*
X0167714Y0269721D01*
X0167677Y0269671D01*
X0167636Y0269624D01*
X0167593Y0269579D01*
X0167547Y0269537D01*
X0167498Y0269498D01*
X0167447Y0269462D01*
X0167395Y0269429D01*
X0167340Y0269400D01*
X0167283Y0269374D01*
X0167225Y0269351D01*
X0167166Y0269333D01*
X0167105Y0269317D01*
X0167044Y0269306D01*
X0166982Y0269298D01*
X0166920Y0269294D01*
X0166858Y0269294D01*
X0166796Y0269298D01*
X0166734Y0269306D01*
X0166673Y0269317D01*
X0166612Y0269333D01*
X0166553Y0269351D01*
X0166495Y0269374D01*
X0166438Y0269400D01*
X0166384Y0269429D01*
X0166331Y0269462D01*
X0166280Y0269498D01*
X0166231Y0269537D01*
X0166185Y0269579D01*
X0166142Y0269624D01*
X0166101Y0269671D01*
X0166064Y0269721D01*
X0166029Y0269773D01*
X0165998Y0269827D01*
X0165971Y0269882D01*
X0165946Y0269940D01*
X0165926Y0269999D01*
X0165909Y0270058D01*
X0165895Y0270119D01*
X0165886Y0270181D01*
X0165880Y0270243D01*
X0165878Y0270305D01*
X0165878Y0271605D01*
X0165300Y0271605D02*
X0165243Y0271603D01*
X0165187Y0271598D01*
X0165131Y0271588D01*
X0165076Y0271575D01*
X0165021Y0271559D01*
X0164968Y0271539D01*
X0164917Y0271516D01*
X0164867Y0271489D01*
X0164818Y0271459D01*
X0164772Y0271426D01*
X0164728Y0271390D01*
X0164687Y0271351D01*
X0164648Y0271310D01*
X0164612Y0271266D01*
X0164579Y0271220D01*
X0164549Y0271172D01*
X0164522Y0271121D01*
X0164499Y0271070D01*
X0164479Y0271017D01*
X0164463Y0270962D01*
X0164450Y0270907D01*
X0164440Y0270851D01*
X0164435Y0270795D01*
X0164433Y0270738D01*
X0164433Y0269582D01*
X0167033Y0266701D02*
X0167090Y0266703D01*
X0167146Y0266708D01*
X0167202Y0266718D01*
X0167257Y0266731D01*
X0167312Y0266747D01*
X0167365Y0266767D01*
X0167416Y0266790D01*
X0167467Y0266817D01*
X0167515Y0266847D01*
X0167561Y0266880D01*
X0167605Y0266916D01*
X0167646Y0266955D01*
X0167685Y0266996D01*
X0167721Y0267040D01*
X0167754Y0267086D01*
X0167784Y0267135D01*
X0167811Y0267185D01*
X0167834Y0267236D01*
X0167854Y0267289D01*
X0167870Y0267344D01*
X0167883Y0267399D01*
X0167893Y0267455D01*
X0167898Y0267511D01*
X0167900Y0267568D01*
X0167033Y0266702D02*
X0162700Y0266702D01*
X0165589Y0264573D02*
X0166167Y0264573D01*
X0166167Y0262262D01*
X0165589Y0262262D02*
X0167033Y0262262D01*
X0167090Y0262264D01*
X0167146Y0262269D01*
X0167202Y0262279D01*
X0167257Y0262292D01*
X0167312Y0262308D01*
X0167365Y0262328D01*
X0167416Y0262351D01*
X0167467Y0262378D01*
X0167515Y0262408D01*
X0167561Y0262441D01*
X0167605Y0262477D01*
X0167646Y0262516D01*
X0167685Y0262557D01*
X0167721Y0262601D01*
X0167754Y0262647D01*
X0167784Y0262696D01*
X0167811Y0262746D01*
X0167834Y0262797D01*
X0167854Y0262850D01*
X0167870Y0262905D01*
X0167883Y0262960D01*
X0167893Y0263016D01*
X0167898Y0263072D01*
X0167900Y0263129D01*
X0167900Y0264573D01*
X0165589Y0264574D02*
X0165522Y0264572D01*
X0165455Y0264566D01*
X0165388Y0264556D01*
X0165322Y0264543D01*
X0165257Y0264525D01*
X0165194Y0264504D01*
X0165131Y0264479D01*
X0165070Y0264451D01*
X0165011Y0264419D01*
X0164954Y0264384D01*
X0164899Y0264345D01*
X0164846Y0264304D01*
X0164796Y0264259D01*
X0164748Y0264211D01*
X0164703Y0264161D01*
X0164662Y0264108D01*
X0164623Y0264053D01*
X0164588Y0263996D01*
X0164556Y0263937D01*
X0164528Y0263876D01*
X0164503Y0263813D01*
X0164482Y0263750D01*
X0164464Y0263685D01*
X0164451Y0263619D01*
X0164441Y0263552D01*
X0164435Y0263485D01*
X0164433Y0263418D01*
X0164435Y0263351D01*
X0164441Y0263284D01*
X0164451Y0263217D01*
X0164464Y0263151D01*
X0164482Y0263086D01*
X0164503Y0263023D01*
X0164528Y0262960D01*
X0164556Y0262899D01*
X0164588Y0262840D01*
X0164623Y0262783D01*
X0164662Y0262728D01*
X0164703Y0262675D01*
X0164748Y0262625D01*
X0164796Y0262577D01*
X0164846Y0262532D01*
X0164899Y0262491D01*
X0164954Y0262452D01*
X0165011Y0262417D01*
X0165070Y0262385D01*
X0165131Y0262357D01*
X0165194Y0262332D01*
X0165257Y0262311D01*
X0165322Y0262293D01*
X0165388Y0262280D01*
X0165455Y0262270D01*
X0165522Y0262264D01*
X0165589Y0262262D01*
X0167900Y0260189D02*
X0165589Y0259033D01*
X0165589Y0258744D02*
X0165589Y0257300D01*
X0165588Y0258744D02*
X0165586Y0258820D01*
X0165580Y0258895D01*
X0165570Y0258970D01*
X0165556Y0259044D01*
X0165539Y0259118D01*
X0165517Y0259190D01*
X0165492Y0259261D01*
X0165463Y0259331D01*
X0165431Y0259400D01*
X0165395Y0259466D01*
X0165355Y0259530D01*
X0165312Y0259593D01*
X0165266Y0259653D01*
X0165217Y0259710D01*
X0165165Y0259765D01*
X0165110Y0259817D01*
X0165053Y0259866D01*
X0164993Y0259912D01*
X0164930Y0259955D01*
X0164866Y0259995D01*
X0164800Y0260031D01*
X0164731Y0260063D01*
X0164661Y0260092D01*
X0164590Y0260117D01*
X0164518Y0260139D01*
X0164444Y0260156D01*
X0164370Y0260170D01*
X0164295Y0260180D01*
X0164220Y0260186D01*
X0164144Y0260188D01*
X0164068Y0260186D01*
X0163993Y0260180D01*
X0163918Y0260170D01*
X0163844Y0260156D01*
X0163770Y0260139D01*
X0163698Y0260117D01*
X0163627Y0260092D01*
X0163557Y0260063D01*
X0163488Y0260031D01*
X0163422Y0259995D01*
X0163358Y0259955D01*
X0163295Y0259912D01*
X0163235Y0259866D01*
X0163178Y0259817D01*
X0163123Y0259765D01*
X0163071Y0259710D01*
X0163022Y0259653D01*
X0162976Y0259593D01*
X0162933Y0259530D01*
X0162893Y0259466D01*
X0162857Y0259400D01*
X0162825Y0259331D01*
X0162796Y0259261D01*
X0162771Y0259190D01*
X0162749Y0259118D01*
X0162732Y0259044D01*
X0162718Y0258970D01*
X0162708Y0258895D01*
X0162702Y0258820D01*
X0162700Y0258744D01*
X0162700Y0257300D01*
X0167900Y0257300D01*
D12*
X0021600Y0115600D02*
X0021600Y0106600D01*
X0031600Y0106600D01*
X0031600Y0115600D01*
X0030600Y0116600D01*
X0031600Y0117600D01*
X0031600Y0125600D01*
X0030600Y0126600D01*
X0031600Y0127600D01*
X0031600Y0135600D01*
X0030600Y0136600D01*
X0031600Y0137600D01*
X0031600Y0145600D01*
X0030600Y0146600D01*
X0031600Y0147600D01*
X0031600Y0155600D01*
X0030600Y0156600D01*
X0031600Y0157600D01*
X0031600Y0165600D01*
X0030600Y0166600D01*
X0031600Y0167600D01*
X0031600Y0175600D01*
X0030600Y0176600D01*
X0031600Y0177600D01*
X0031600Y0185600D01*
X0030600Y0186600D01*
X0031600Y0187600D01*
X0031600Y0195600D01*
X0030600Y0196600D01*
X0031600Y0197600D01*
X0031600Y0205600D01*
X0030600Y0206600D01*
X0031600Y0207600D01*
X0031600Y0215600D01*
X0030600Y0216600D01*
X0031600Y0217600D01*
X0031600Y0225600D01*
X0030600Y0226600D01*
X0031600Y0227600D01*
X0031600Y0235600D01*
X0030600Y0236600D01*
X0031600Y0237600D01*
X0031600Y0245600D01*
X0030600Y0246600D01*
X0031600Y0247600D01*
X0031600Y0256600D01*
X0021600Y0256600D01*
X0021600Y0247600D01*
X0022600Y0246600D01*
X0021600Y0245600D01*
X0021600Y0237600D01*
X0022600Y0236600D01*
X0021600Y0235600D01*
X0021600Y0227600D01*
X0022600Y0226600D01*
X0021600Y0225600D01*
X0021600Y0217600D01*
X0022600Y0216600D01*
X0021600Y0215600D01*
X0021600Y0207600D01*
X0022600Y0206600D01*
X0021600Y0205600D01*
X0021600Y0197600D01*
X0022600Y0196600D01*
X0021600Y0195600D01*
X0021600Y0187600D01*
X0022600Y0186600D01*
X0021600Y0185600D01*
X0021600Y0177600D01*
X0022600Y0176600D01*
X0021600Y0175600D01*
X0021600Y0167600D01*
X0022600Y0166600D01*
X0021600Y0165600D01*
X0021600Y0157600D01*
X0022600Y0156600D01*
X0021600Y0155600D01*
X0021600Y0147600D01*
X0022600Y0146600D01*
X0021600Y0145600D01*
X0021600Y0137600D01*
X0022600Y0136600D01*
X0021600Y0135600D01*
X0021600Y0127600D01*
X0022600Y0126600D01*
X0021600Y0125600D01*
X0021600Y0117600D01*
X0022600Y0116600D01*
X0021600Y0115600D01*
X0041100Y0114600D02*
X0041100Y0119600D01*
X0043600Y0122100D01*
X0041100Y0124600D01*
X0041100Y0129600D01*
X0043600Y0132100D01*
X0041100Y0134600D01*
X0041100Y0139600D01*
X0043600Y0142100D01*
X0048600Y0142100D01*
X0051100Y0139600D01*
X0051100Y0134600D01*
X0048600Y0132100D01*
X0051100Y0129600D01*
X0051100Y0124600D01*
X0048600Y0122100D01*
X0051100Y0119600D01*
X0051100Y0114600D01*
X0048600Y0112100D01*
X0043600Y0112100D01*
X0041100Y0114600D01*
X0080600Y0148100D02*
X0081600Y0148100D01*
X0082100Y0148600D01*
X0091100Y0148600D01*
X0091600Y0148100D01*
X0092600Y0148100D01*
X0092660Y0148102D01*
X0092721Y0148107D01*
X0092780Y0148116D01*
X0092839Y0148129D01*
X0092898Y0148145D01*
X0092955Y0148165D01*
X0093010Y0148188D01*
X0093065Y0148215D01*
X0093117Y0148244D01*
X0093168Y0148277D01*
X0093217Y0148313D01*
X0093263Y0148351D01*
X0093307Y0148393D01*
X0093349Y0148437D01*
X0093387Y0148483D01*
X0093423Y0148532D01*
X0093456Y0148583D01*
X0093485Y0148635D01*
X0093512Y0148690D01*
X0093535Y0148745D01*
X0093555Y0148802D01*
X0093571Y0148861D01*
X0093584Y0148920D01*
X0093593Y0148979D01*
X0093598Y0149040D01*
X0093600Y0149100D01*
X0093600Y0154100D02*
X0093598Y0154160D01*
X0093593Y0154221D01*
X0093584Y0154280D01*
X0093571Y0154339D01*
X0093555Y0154398D01*
X0093535Y0154455D01*
X0093512Y0154510D01*
X0093485Y0154565D01*
X0093456Y0154617D01*
X0093423Y0154668D01*
X0093387Y0154717D01*
X0093349Y0154763D01*
X0093307Y0154807D01*
X0093263Y0154849D01*
X0093217Y0154887D01*
X0093168Y0154923D01*
X0093117Y0154956D01*
X0093065Y0154985D01*
X0093010Y0155012D01*
X0092955Y0155035D01*
X0092898Y0155055D01*
X0092839Y0155071D01*
X0092780Y0155084D01*
X0092721Y0155093D01*
X0092660Y0155098D01*
X0092600Y0155100D01*
X0091600Y0155100D01*
X0091100Y0154600D01*
X0082100Y0154600D01*
X0081600Y0155100D01*
X0080600Y0155100D01*
X0080540Y0155098D01*
X0080479Y0155093D01*
X0080420Y0155084D01*
X0080361Y0155071D01*
X0080302Y0155055D01*
X0080245Y0155035D01*
X0080190Y0155012D01*
X0080135Y0154985D01*
X0080083Y0154956D01*
X0080032Y0154923D01*
X0079983Y0154887D01*
X0079937Y0154849D01*
X0079893Y0154807D01*
X0079851Y0154763D01*
X0079813Y0154717D01*
X0079777Y0154668D01*
X0079744Y0154617D01*
X0079715Y0154565D01*
X0079688Y0154510D01*
X0079665Y0154455D01*
X0079645Y0154398D01*
X0079629Y0154339D01*
X0079616Y0154280D01*
X0079607Y0154221D01*
X0079602Y0154160D01*
X0079600Y0154100D01*
X0080600Y0158100D02*
X0081600Y0158100D01*
X0082100Y0158600D01*
X0091100Y0158600D01*
X0091600Y0158100D01*
X0092600Y0158100D01*
X0092660Y0158102D01*
X0092721Y0158107D01*
X0092780Y0158116D01*
X0092839Y0158129D01*
X0092898Y0158145D01*
X0092955Y0158165D01*
X0093010Y0158188D01*
X0093065Y0158215D01*
X0093117Y0158244D01*
X0093168Y0158277D01*
X0093217Y0158313D01*
X0093263Y0158351D01*
X0093307Y0158393D01*
X0093349Y0158437D01*
X0093387Y0158483D01*
X0093423Y0158532D01*
X0093456Y0158583D01*
X0093485Y0158635D01*
X0093512Y0158690D01*
X0093535Y0158745D01*
X0093555Y0158802D01*
X0093571Y0158861D01*
X0093584Y0158920D01*
X0093593Y0158979D01*
X0093598Y0159040D01*
X0093600Y0159100D01*
X0093600Y0164100D02*
X0093598Y0164160D01*
X0093593Y0164221D01*
X0093584Y0164280D01*
X0093571Y0164339D01*
X0093555Y0164398D01*
X0093535Y0164455D01*
X0093512Y0164510D01*
X0093485Y0164565D01*
X0093456Y0164617D01*
X0093423Y0164668D01*
X0093387Y0164717D01*
X0093349Y0164763D01*
X0093307Y0164807D01*
X0093263Y0164849D01*
X0093217Y0164887D01*
X0093168Y0164923D01*
X0093117Y0164956D01*
X0093065Y0164985D01*
X0093010Y0165012D01*
X0092955Y0165035D01*
X0092898Y0165055D01*
X0092839Y0165071D01*
X0092780Y0165084D01*
X0092721Y0165093D01*
X0092660Y0165098D01*
X0092600Y0165100D01*
X0091600Y0165100D01*
X0091100Y0164600D01*
X0082100Y0164600D01*
X0081600Y0165100D01*
X0080600Y0165100D01*
X0080540Y0165098D01*
X0080479Y0165093D01*
X0080420Y0165084D01*
X0080361Y0165071D01*
X0080302Y0165055D01*
X0080245Y0165035D01*
X0080190Y0165012D01*
X0080135Y0164985D01*
X0080083Y0164956D01*
X0080032Y0164923D01*
X0079983Y0164887D01*
X0079937Y0164849D01*
X0079893Y0164807D01*
X0079851Y0164763D01*
X0079813Y0164717D01*
X0079777Y0164668D01*
X0079744Y0164617D01*
X0079715Y0164565D01*
X0079688Y0164510D01*
X0079665Y0164455D01*
X0079645Y0164398D01*
X0079629Y0164339D01*
X0079616Y0164280D01*
X0079607Y0164221D01*
X0079602Y0164160D01*
X0079600Y0164100D01*
X0080600Y0168100D02*
X0081600Y0168100D01*
X0082100Y0168600D01*
X0091100Y0168600D01*
X0091600Y0168100D01*
X0092600Y0168100D01*
X0092660Y0168102D01*
X0092721Y0168107D01*
X0092780Y0168116D01*
X0092839Y0168129D01*
X0092898Y0168145D01*
X0092955Y0168165D01*
X0093010Y0168188D01*
X0093065Y0168215D01*
X0093117Y0168244D01*
X0093168Y0168277D01*
X0093217Y0168313D01*
X0093263Y0168351D01*
X0093307Y0168393D01*
X0093349Y0168437D01*
X0093387Y0168483D01*
X0093423Y0168532D01*
X0093456Y0168583D01*
X0093485Y0168635D01*
X0093512Y0168690D01*
X0093535Y0168745D01*
X0093555Y0168802D01*
X0093571Y0168861D01*
X0093584Y0168920D01*
X0093593Y0168979D01*
X0093598Y0169040D01*
X0093600Y0169100D01*
X0093600Y0174100D02*
X0093598Y0174160D01*
X0093593Y0174221D01*
X0093584Y0174280D01*
X0093571Y0174339D01*
X0093555Y0174398D01*
X0093535Y0174455D01*
X0093512Y0174510D01*
X0093485Y0174565D01*
X0093456Y0174617D01*
X0093423Y0174668D01*
X0093387Y0174717D01*
X0093349Y0174763D01*
X0093307Y0174807D01*
X0093263Y0174849D01*
X0093217Y0174887D01*
X0093168Y0174923D01*
X0093117Y0174956D01*
X0093065Y0174985D01*
X0093010Y0175012D01*
X0092955Y0175035D01*
X0092898Y0175055D01*
X0092839Y0175071D01*
X0092780Y0175084D01*
X0092721Y0175093D01*
X0092660Y0175098D01*
X0092600Y0175100D01*
X0091600Y0175100D01*
X0091100Y0174600D01*
X0082100Y0174600D01*
X0081600Y0175100D01*
X0080600Y0175100D01*
X0080540Y0175098D01*
X0080479Y0175093D01*
X0080420Y0175084D01*
X0080361Y0175071D01*
X0080302Y0175055D01*
X0080245Y0175035D01*
X0080190Y0175012D01*
X0080135Y0174985D01*
X0080083Y0174956D01*
X0080032Y0174923D01*
X0079983Y0174887D01*
X0079937Y0174849D01*
X0079893Y0174807D01*
X0079851Y0174763D01*
X0079813Y0174717D01*
X0079777Y0174668D01*
X0079744Y0174617D01*
X0079715Y0174565D01*
X0079688Y0174510D01*
X0079665Y0174455D01*
X0079645Y0174398D01*
X0079629Y0174339D01*
X0079616Y0174280D01*
X0079607Y0174221D01*
X0079602Y0174160D01*
X0079600Y0174100D01*
X0080600Y0178100D02*
X0081600Y0178100D01*
X0082100Y0178600D01*
X0091100Y0178600D01*
X0091600Y0178100D01*
X0092600Y0178100D01*
X0092660Y0178102D01*
X0092721Y0178107D01*
X0092780Y0178116D01*
X0092839Y0178129D01*
X0092898Y0178145D01*
X0092955Y0178165D01*
X0093010Y0178188D01*
X0093065Y0178215D01*
X0093117Y0178244D01*
X0093168Y0178277D01*
X0093217Y0178313D01*
X0093263Y0178351D01*
X0093307Y0178393D01*
X0093349Y0178437D01*
X0093387Y0178483D01*
X0093423Y0178532D01*
X0093456Y0178583D01*
X0093485Y0178635D01*
X0093512Y0178690D01*
X0093535Y0178745D01*
X0093555Y0178802D01*
X0093571Y0178861D01*
X0093584Y0178920D01*
X0093593Y0178979D01*
X0093598Y0179040D01*
X0093600Y0179100D01*
X0093600Y0184100D02*
X0093598Y0184160D01*
X0093593Y0184221D01*
X0093584Y0184280D01*
X0093571Y0184339D01*
X0093555Y0184398D01*
X0093535Y0184455D01*
X0093512Y0184510D01*
X0093485Y0184565D01*
X0093456Y0184617D01*
X0093423Y0184668D01*
X0093387Y0184717D01*
X0093349Y0184763D01*
X0093307Y0184807D01*
X0093263Y0184849D01*
X0093217Y0184887D01*
X0093168Y0184923D01*
X0093117Y0184956D01*
X0093065Y0184985D01*
X0093010Y0185012D01*
X0092955Y0185035D01*
X0092898Y0185055D01*
X0092839Y0185071D01*
X0092780Y0185084D01*
X0092721Y0185093D01*
X0092660Y0185098D01*
X0092600Y0185100D01*
X0091600Y0185100D01*
X0091100Y0184600D01*
X0082100Y0184600D01*
X0081600Y0185100D01*
X0080600Y0185100D01*
X0080540Y0185098D01*
X0080479Y0185093D01*
X0080420Y0185084D01*
X0080361Y0185071D01*
X0080302Y0185055D01*
X0080245Y0185035D01*
X0080190Y0185012D01*
X0080135Y0184985D01*
X0080083Y0184956D01*
X0080032Y0184923D01*
X0079983Y0184887D01*
X0079937Y0184849D01*
X0079893Y0184807D01*
X0079851Y0184763D01*
X0079813Y0184717D01*
X0079777Y0184668D01*
X0079744Y0184617D01*
X0079715Y0184565D01*
X0079688Y0184510D01*
X0079665Y0184455D01*
X0079645Y0184398D01*
X0079629Y0184339D01*
X0079616Y0184280D01*
X0079607Y0184221D01*
X0079602Y0184160D01*
X0079600Y0184100D01*
X0080600Y0188100D02*
X0081600Y0188100D01*
X0082100Y0188600D01*
X0091100Y0188600D01*
X0091600Y0188100D01*
X0092600Y0188100D01*
X0092660Y0188102D01*
X0092721Y0188107D01*
X0092780Y0188116D01*
X0092839Y0188129D01*
X0092898Y0188145D01*
X0092955Y0188165D01*
X0093010Y0188188D01*
X0093065Y0188215D01*
X0093117Y0188244D01*
X0093168Y0188277D01*
X0093217Y0188313D01*
X0093263Y0188351D01*
X0093307Y0188393D01*
X0093349Y0188437D01*
X0093387Y0188483D01*
X0093423Y0188532D01*
X0093456Y0188583D01*
X0093485Y0188635D01*
X0093512Y0188690D01*
X0093535Y0188745D01*
X0093555Y0188802D01*
X0093571Y0188861D01*
X0093584Y0188920D01*
X0093593Y0188979D01*
X0093598Y0189040D01*
X0093600Y0189100D01*
X0093600Y0194100D02*
X0093598Y0194160D01*
X0093593Y0194221D01*
X0093584Y0194280D01*
X0093571Y0194339D01*
X0093555Y0194398D01*
X0093535Y0194455D01*
X0093512Y0194510D01*
X0093485Y0194565D01*
X0093456Y0194617D01*
X0093423Y0194668D01*
X0093387Y0194717D01*
X0093349Y0194763D01*
X0093307Y0194807D01*
X0093263Y0194849D01*
X0093217Y0194887D01*
X0093168Y0194923D01*
X0093117Y0194956D01*
X0093065Y0194985D01*
X0093010Y0195012D01*
X0092955Y0195035D01*
X0092898Y0195055D01*
X0092839Y0195071D01*
X0092780Y0195084D01*
X0092721Y0195093D01*
X0092660Y0195098D01*
X0092600Y0195100D01*
X0091600Y0195100D01*
X0091100Y0194600D01*
X0082100Y0194600D01*
X0081600Y0195100D01*
X0080600Y0195100D01*
X0080540Y0195098D01*
X0080479Y0195093D01*
X0080420Y0195084D01*
X0080361Y0195071D01*
X0080302Y0195055D01*
X0080245Y0195035D01*
X0080190Y0195012D01*
X0080135Y0194985D01*
X0080083Y0194956D01*
X0080032Y0194923D01*
X0079983Y0194887D01*
X0079937Y0194849D01*
X0079893Y0194807D01*
X0079851Y0194763D01*
X0079813Y0194717D01*
X0079777Y0194668D01*
X0079744Y0194617D01*
X0079715Y0194565D01*
X0079688Y0194510D01*
X0079665Y0194455D01*
X0079645Y0194398D01*
X0079629Y0194339D01*
X0079616Y0194280D01*
X0079607Y0194221D01*
X0079602Y0194160D01*
X0079600Y0194100D01*
X0080600Y0198100D02*
X0081600Y0198100D01*
X0082100Y0198600D01*
X0091100Y0198600D01*
X0091600Y0198100D01*
X0092600Y0198100D01*
X0092660Y0198102D01*
X0092721Y0198107D01*
X0092780Y0198116D01*
X0092839Y0198129D01*
X0092898Y0198145D01*
X0092955Y0198165D01*
X0093010Y0198188D01*
X0093065Y0198215D01*
X0093117Y0198244D01*
X0093168Y0198277D01*
X0093217Y0198313D01*
X0093263Y0198351D01*
X0093307Y0198393D01*
X0093349Y0198437D01*
X0093387Y0198483D01*
X0093423Y0198532D01*
X0093456Y0198583D01*
X0093485Y0198635D01*
X0093512Y0198690D01*
X0093535Y0198745D01*
X0093555Y0198802D01*
X0093571Y0198861D01*
X0093584Y0198920D01*
X0093593Y0198979D01*
X0093598Y0199040D01*
X0093600Y0199100D01*
X0093600Y0204100D02*
X0093598Y0204160D01*
X0093593Y0204221D01*
X0093584Y0204280D01*
X0093571Y0204339D01*
X0093555Y0204398D01*
X0093535Y0204455D01*
X0093512Y0204510D01*
X0093485Y0204565D01*
X0093456Y0204617D01*
X0093423Y0204668D01*
X0093387Y0204717D01*
X0093349Y0204763D01*
X0093307Y0204807D01*
X0093263Y0204849D01*
X0093217Y0204887D01*
X0093168Y0204923D01*
X0093117Y0204956D01*
X0093065Y0204985D01*
X0093010Y0205012D01*
X0092955Y0205035D01*
X0092898Y0205055D01*
X0092839Y0205071D01*
X0092780Y0205084D01*
X0092721Y0205093D01*
X0092660Y0205098D01*
X0092600Y0205100D01*
X0091600Y0205100D01*
X0091100Y0204600D01*
X0082100Y0204600D01*
X0081600Y0205100D01*
X0080600Y0205100D01*
X0080540Y0205098D01*
X0080479Y0205093D01*
X0080420Y0205084D01*
X0080361Y0205071D01*
X0080302Y0205055D01*
X0080245Y0205035D01*
X0080190Y0205012D01*
X0080135Y0204985D01*
X0080083Y0204956D01*
X0080032Y0204923D01*
X0079983Y0204887D01*
X0079937Y0204849D01*
X0079893Y0204807D01*
X0079851Y0204763D01*
X0079813Y0204717D01*
X0079777Y0204668D01*
X0079744Y0204617D01*
X0079715Y0204565D01*
X0079688Y0204510D01*
X0079665Y0204455D01*
X0079645Y0204398D01*
X0079629Y0204339D01*
X0079616Y0204280D01*
X0079607Y0204221D01*
X0079602Y0204160D01*
X0079600Y0204100D01*
X0080600Y0208100D02*
X0081600Y0208100D01*
X0082100Y0208600D01*
X0091100Y0208600D01*
X0091600Y0208100D01*
X0092600Y0208100D01*
X0092660Y0208102D01*
X0092721Y0208107D01*
X0092780Y0208116D01*
X0092839Y0208129D01*
X0092898Y0208145D01*
X0092955Y0208165D01*
X0093010Y0208188D01*
X0093065Y0208215D01*
X0093117Y0208244D01*
X0093168Y0208277D01*
X0093217Y0208313D01*
X0093263Y0208351D01*
X0093307Y0208393D01*
X0093349Y0208437D01*
X0093387Y0208483D01*
X0093423Y0208532D01*
X0093456Y0208583D01*
X0093485Y0208635D01*
X0093512Y0208690D01*
X0093535Y0208745D01*
X0093555Y0208802D01*
X0093571Y0208861D01*
X0093584Y0208920D01*
X0093593Y0208979D01*
X0093598Y0209040D01*
X0093600Y0209100D01*
X0093600Y0214100D02*
X0093598Y0214160D01*
X0093593Y0214221D01*
X0093584Y0214280D01*
X0093571Y0214339D01*
X0093555Y0214398D01*
X0093535Y0214455D01*
X0093512Y0214510D01*
X0093485Y0214565D01*
X0093456Y0214617D01*
X0093423Y0214668D01*
X0093387Y0214717D01*
X0093349Y0214763D01*
X0093307Y0214807D01*
X0093263Y0214849D01*
X0093217Y0214887D01*
X0093168Y0214923D01*
X0093117Y0214956D01*
X0093065Y0214985D01*
X0093010Y0215012D01*
X0092955Y0215035D01*
X0092898Y0215055D01*
X0092839Y0215071D01*
X0092780Y0215084D01*
X0092721Y0215093D01*
X0092660Y0215098D01*
X0092600Y0215100D01*
X0091600Y0215100D01*
X0091100Y0214600D01*
X0082100Y0214600D01*
X0081600Y0215100D01*
X0080600Y0215100D01*
X0080540Y0215098D01*
X0080479Y0215093D01*
X0080420Y0215084D01*
X0080361Y0215071D01*
X0080302Y0215055D01*
X0080245Y0215035D01*
X0080190Y0215012D01*
X0080135Y0214985D01*
X0080083Y0214956D01*
X0080032Y0214923D01*
X0079983Y0214887D01*
X0079937Y0214849D01*
X0079893Y0214807D01*
X0079851Y0214763D01*
X0079813Y0214717D01*
X0079777Y0214668D01*
X0079744Y0214617D01*
X0079715Y0214565D01*
X0079688Y0214510D01*
X0079665Y0214455D01*
X0079645Y0214398D01*
X0079629Y0214339D01*
X0079616Y0214280D01*
X0079607Y0214221D01*
X0079602Y0214160D01*
X0079600Y0214100D01*
X0079600Y0209100D02*
X0079602Y0209040D01*
X0079607Y0208979D01*
X0079616Y0208920D01*
X0079629Y0208861D01*
X0079645Y0208802D01*
X0079665Y0208745D01*
X0079688Y0208690D01*
X0079715Y0208635D01*
X0079744Y0208583D01*
X0079777Y0208532D01*
X0079813Y0208483D01*
X0079851Y0208437D01*
X0079893Y0208393D01*
X0079937Y0208351D01*
X0079983Y0208313D01*
X0080032Y0208277D01*
X0080083Y0208244D01*
X0080135Y0208215D01*
X0080190Y0208188D01*
X0080245Y0208165D01*
X0080302Y0208145D01*
X0080361Y0208129D01*
X0080420Y0208116D01*
X0080479Y0208107D01*
X0080540Y0208102D01*
X0080600Y0208100D01*
X0079600Y0199100D02*
X0079602Y0199040D01*
X0079607Y0198979D01*
X0079616Y0198920D01*
X0079629Y0198861D01*
X0079645Y0198802D01*
X0079665Y0198745D01*
X0079688Y0198690D01*
X0079715Y0198635D01*
X0079744Y0198583D01*
X0079777Y0198532D01*
X0079813Y0198483D01*
X0079851Y0198437D01*
X0079893Y0198393D01*
X0079937Y0198351D01*
X0079983Y0198313D01*
X0080032Y0198277D01*
X0080083Y0198244D01*
X0080135Y0198215D01*
X0080190Y0198188D01*
X0080245Y0198165D01*
X0080302Y0198145D01*
X0080361Y0198129D01*
X0080420Y0198116D01*
X0080479Y0198107D01*
X0080540Y0198102D01*
X0080600Y0198100D01*
X0079600Y0189100D02*
X0079602Y0189040D01*
X0079607Y0188979D01*
X0079616Y0188920D01*
X0079629Y0188861D01*
X0079645Y0188802D01*
X0079665Y0188745D01*
X0079688Y0188690D01*
X0079715Y0188635D01*
X0079744Y0188583D01*
X0079777Y0188532D01*
X0079813Y0188483D01*
X0079851Y0188437D01*
X0079893Y0188393D01*
X0079937Y0188351D01*
X0079983Y0188313D01*
X0080032Y0188277D01*
X0080083Y0188244D01*
X0080135Y0188215D01*
X0080190Y0188188D01*
X0080245Y0188165D01*
X0080302Y0188145D01*
X0080361Y0188129D01*
X0080420Y0188116D01*
X0080479Y0188107D01*
X0080540Y0188102D01*
X0080600Y0188100D01*
X0079600Y0179100D02*
X0079602Y0179040D01*
X0079607Y0178979D01*
X0079616Y0178920D01*
X0079629Y0178861D01*
X0079645Y0178802D01*
X0079665Y0178745D01*
X0079688Y0178690D01*
X0079715Y0178635D01*
X0079744Y0178583D01*
X0079777Y0178532D01*
X0079813Y0178483D01*
X0079851Y0178437D01*
X0079893Y0178393D01*
X0079937Y0178351D01*
X0079983Y0178313D01*
X0080032Y0178277D01*
X0080083Y0178244D01*
X0080135Y0178215D01*
X0080190Y0178188D01*
X0080245Y0178165D01*
X0080302Y0178145D01*
X0080361Y0178129D01*
X0080420Y0178116D01*
X0080479Y0178107D01*
X0080540Y0178102D01*
X0080600Y0178100D01*
X0079600Y0169100D02*
X0079602Y0169040D01*
X0079607Y0168979D01*
X0079616Y0168920D01*
X0079629Y0168861D01*
X0079645Y0168802D01*
X0079665Y0168745D01*
X0079688Y0168690D01*
X0079715Y0168635D01*
X0079744Y0168583D01*
X0079777Y0168532D01*
X0079813Y0168483D01*
X0079851Y0168437D01*
X0079893Y0168393D01*
X0079937Y0168351D01*
X0079983Y0168313D01*
X0080032Y0168277D01*
X0080083Y0168244D01*
X0080135Y0168215D01*
X0080190Y0168188D01*
X0080245Y0168165D01*
X0080302Y0168145D01*
X0080361Y0168129D01*
X0080420Y0168116D01*
X0080479Y0168107D01*
X0080540Y0168102D01*
X0080600Y0168100D01*
X0079600Y0159100D02*
X0079602Y0159040D01*
X0079607Y0158979D01*
X0079616Y0158920D01*
X0079629Y0158861D01*
X0079645Y0158802D01*
X0079665Y0158745D01*
X0079688Y0158690D01*
X0079715Y0158635D01*
X0079744Y0158583D01*
X0079777Y0158532D01*
X0079813Y0158483D01*
X0079851Y0158437D01*
X0079893Y0158393D01*
X0079937Y0158351D01*
X0079983Y0158313D01*
X0080032Y0158277D01*
X0080083Y0158244D01*
X0080135Y0158215D01*
X0080190Y0158188D01*
X0080245Y0158165D01*
X0080302Y0158145D01*
X0080361Y0158129D01*
X0080420Y0158116D01*
X0080479Y0158107D01*
X0080540Y0158102D01*
X0080600Y0158100D01*
X0079600Y0149100D02*
X0079602Y0149040D01*
X0079607Y0148979D01*
X0079616Y0148920D01*
X0079629Y0148861D01*
X0079645Y0148802D01*
X0079665Y0148745D01*
X0079688Y0148690D01*
X0079715Y0148635D01*
X0079744Y0148583D01*
X0079777Y0148532D01*
X0079813Y0148483D01*
X0079851Y0148437D01*
X0079893Y0148393D01*
X0079937Y0148351D01*
X0079983Y0148313D01*
X0080032Y0148277D01*
X0080083Y0148244D01*
X0080135Y0148215D01*
X0080190Y0148188D01*
X0080245Y0148165D01*
X0080302Y0148145D01*
X0080361Y0148129D01*
X0080420Y0148116D01*
X0080479Y0148107D01*
X0080540Y0148102D01*
X0080600Y0148100D01*
X0141600Y0147600D02*
X0142600Y0146600D01*
X0141600Y0145600D01*
X0141600Y0137600D01*
X0142600Y0136600D01*
X0141600Y0135600D01*
X0141600Y0127600D01*
X0142600Y0126600D01*
X0141600Y0125600D01*
X0141600Y0117600D01*
X0142600Y0116600D01*
X0141600Y0115600D01*
X0141600Y0106600D01*
X0151600Y0106600D01*
X0151600Y0115600D01*
X0150600Y0116600D01*
X0151600Y0117600D01*
X0151600Y0125600D01*
X0150600Y0126600D01*
X0151600Y0127600D01*
X0151600Y0135600D01*
X0150600Y0136600D01*
X0151600Y0137600D01*
X0151600Y0145600D01*
X0150600Y0146600D01*
X0151600Y0147600D01*
X0151600Y0155600D01*
X0150600Y0156600D01*
X0151600Y0157600D01*
X0151600Y0165600D01*
X0150600Y0166600D01*
X0151600Y0167600D01*
X0151600Y0175600D01*
X0150600Y0176600D01*
X0151600Y0177600D01*
X0151600Y0185600D01*
X0150600Y0186600D01*
X0151600Y0187600D01*
X0151600Y0195600D01*
X0150600Y0196600D01*
X0151600Y0197600D01*
X0151600Y0205600D01*
X0150600Y0206600D01*
X0151600Y0207600D01*
X0151600Y0215600D01*
X0150600Y0216600D01*
X0151600Y0217600D01*
X0151600Y0225600D01*
X0150600Y0226600D01*
X0151600Y0227600D01*
X0151600Y0235600D01*
X0150600Y0236600D01*
X0151600Y0237600D01*
X0151600Y0245600D01*
X0150600Y0246600D01*
X0151600Y0247600D01*
X0151600Y0256600D01*
X0141600Y0256600D01*
X0141600Y0247600D01*
X0142600Y0246600D01*
X0141600Y0245600D01*
X0141600Y0237600D01*
X0142600Y0236600D01*
X0141600Y0235600D01*
X0141600Y0227600D01*
X0142600Y0226600D01*
X0141600Y0225600D01*
X0141600Y0217600D01*
X0142600Y0216600D01*
X0141600Y0215600D01*
X0141600Y0207600D01*
X0142600Y0206600D01*
X0141600Y0205600D01*
X0141600Y0197600D01*
X0142600Y0196600D01*
X0141600Y0195600D01*
X0141600Y0187600D01*
X0142600Y0186600D01*
X0141600Y0185600D01*
X0141600Y0177600D01*
X0142600Y0176600D01*
X0141600Y0175600D01*
X0141600Y0167600D01*
X0142600Y0166600D01*
X0141600Y0165600D01*
X0141600Y0157600D01*
X0142600Y0156600D01*
X0141600Y0155600D01*
X0141600Y0147600D01*
X0055100Y0240600D02*
X0055100Y0241600D01*
X0054600Y0242100D01*
X0054600Y0251100D01*
X0055100Y0251600D01*
X0055100Y0252600D01*
X0055098Y0252660D01*
X0055093Y0252721D01*
X0055084Y0252780D01*
X0055071Y0252839D01*
X0055055Y0252898D01*
X0055035Y0252955D01*
X0055012Y0253010D01*
X0054985Y0253065D01*
X0054956Y0253117D01*
X0054923Y0253168D01*
X0054887Y0253217D01*
X0054849Y0253263D01*
X0054807Y0253307D01*
X0054763Y0253349D01*
X0054717Y0253387D01*
X0054668Y0253423D01*
X0054617Y0253456D01*
X0054565Y0253485D01*
X0054510Y0253512D01*
X0054455Y0253535D01*
X0054398Y0253555D01*
X0054339Y0253571D01*
X0054280Y0253584D01*
X0054221Y0253593D01*
X0054160Y0253598D01*
X0054100Y0253600D01*
X0049100Y0253600D02*
X0049040Y0253598D01*
X0048979Y0253593D01*
X0048920Y0253584D01*
X0048861Y0253571D01*
X0048802Y0253555D01*
X0048745Y0253535D01*
X0048690Y0253512D01*
X0048635Y0253485D01*
X0048583Y0253456D01*
X0048532Y0253423D01*
X0048483Y0253387D01*
X0048437Y0253349D01*
X0048393Y0253307D01*
X0048351Y0253263D01*
X0048313Y0253217D01*
X0048277Y0253168D01*
X0048244Y0253117D01*
X0048215Y0253065D01*
X0048188Y0253010D01*
X0048165Y0252955D01*
X0048145Y0252898D01*
X0048129Y0252839D01*
X0048116Y0252780D01*
X0048107Y0252721D01*
X0048102Y0252660D01*
X0048100Y0252600D01*
X0048100Y0251600D01*
X0048600Y0251100D01*
X0048600Y0242100D01*
X0048100Y0241600D01*
X0048100Y0240600D01*
X0048102Y0240540D01*
X0048107Y0240479D01*
X0048116Y0240420D01*
X0048129Y0240361D01*
X0048145Y0240302D01*
X0048165Y0240245D01*
X0048188Y0240190D01*
X0048215Y0240135D01*
X0048244Y0240083D01*
X0048277Y0240032D01*
X0048313Y0239983D01*
X0048351Y0239937D01*
X0048393Y0239893D01*
X0048437Y0239851D01*
X0048483Y0239813D01*
X0048532Y0239777D01*
X0048583Y0239744D01*
X0048635Y0239715D01*
X0048690Y0239688D01*
X0048745Y0239665D01*
X0048802Y0239645D01*
X0048861Y0239629D01*
X0048920Y0239616D01*
X0048979Y0239607D01*
X0049040Y0239602D01*
X0049100Y0239600D01*
X0054100Y0239600D02*
X0054160Y0239602D01*
X0054221Y0239607D01*
X0054280Y0239616D01*
X0054339Y0239629D01*
X0054398Y0239645D01*
X0054455Y0239665D01*
X0054510Y0239688D01*
X0054565Y0239715D01*
X0054617Y0239744D01*
X0054668Y0239777D01*
X0054717Y0239813D01*
X0054763Y0239851D01*
X0054807Y0239893D01*
X0054849Y0239937D01*
X0054887Y0239983D01*
X0054923Y0240032D01*
X0054956Y0240083D01*
X0054985Y0240135D01*
X0055012Y0240190D01*
X0055035Y0240245D01*
X0055055Y0240302D01*
X0055071Y0240361D01*
X0055084Y0240420D01*
X0055093Y0240479D01*
X0055098Y0240540D01*
X0055100Y0240600D01*
X0054100Y0269100D02*
X0059100Y0269100D01*
X0061600Y0271600D01*
X0064100Y0269100D01*
X0069100Y0269100D01*
X0071600Y0271600D01*
X0074100Y0269100D01*
X0079100Y0269100D01*
X0081600Y0271600D01*
X0084100Y0269100D01*
X0089100Y0269100D01*
X0091600Y0271600D01*
X0094100Y0269100D01*
X0099100Y0269100D01*
X0101600Y0271600D01*
X0104100Y0269100D01*
X0109100Y0269100D01*
X0111600Y0271600D01*
X0114100Y0269100D01*
X0119100Y0269100D01*
X0121600Y0271600D01*
X0121600Y0276600D01*
X0119100Y0279100D01*
X0114100Y0279100D01*
X0111600Y0276600D01*
X0109100Y0279100D01*
X0104100Y0279100D01*
X0101600Y0276600D01*
X0099100Y0279100D01*
X0094100Y0279100D01*
X0091600Y0276600D01*
X0089100Y0279100D01*
X0084100Y0279100D01*
X0081600Y0276600D01*
X0079100Y0279100D01*
X0074100Y0279100D01*
X0071600Y0276600D01*
X0069100Y0279100D01*
X0064100Y0279100D01*
X0061600Y0276600D01*
X0059100Y0279100D01*
X0054100Y0279100D01*
X0051600Y0276600D01*
X0051600Y0271600D01*
X0054100Y0269100D01*
X0054100Y0282600D02*
X0051600Y0285100D01*
X0051600Y0290100D01*
X0054100Y0292600D01*
X0059100Y0292600D01*
X0061600Y0290100D01*
X0064100Y0292600D01*
X0069100Y0292600D01*
X0071600Y0290100D01*
X0074100Y0292600D01*
X0079100Y0292600D01*
X0081600Y0290100D01*
X0084100Y0292600D01*
X0089100Y0292600D01*
X0091600Y0290100D01*
X0094100Y0292600D01*
X0099100Y0292600D01*
X0101600Y0290100D01*
X0104100Y0292600D01*
X0109100Y0292600D01*
X0111600Y0290100D01*
X0114100Y0292600D01*
X0119100Y0292600D01*
X0121600Y0290100D01*
X0121600Y0285100D01*
X0119100Y0282600D01*
X0114100Y0282600D01*
X0111600Y0285100D01*
X0109100Y0282600D01*
X0104100Y0282600D01*
X0101600Y0285100D01*
X0099100Y0282600D01*
X0094100Y0282600D01*
X0091600Y0285100D01*
X0089100Y0282600D01*
X0084100Y0282600D01*
X0081600Y0285100D01*
X0079100Y0282600D01*
X0074100Y0282600D01*
X0071600Y0285100D01*
X0069100Y0282600D01*
X0064100Y0282600D01*
X0061600Y0285100D01*
X0059100Y0282600D01*
X0054100Y0282600D01*
X0054100Y0296100D02*
X0051600Y0298600D01*
X0051600Y0303600D01*
X0054100Y0306100D01*
X0059100Y0306100D01*
X0061600Y0303600D01*
X0064100Y0306100D01*
X0069100Y0306100D01*
X0071600Y0303600D01*
X0074100Y0306100D01*
X0079100Y0306100D01*
X0081600Y0303600D01*
X0084100Y0306100D01*
X0089100Y0306100D01*
X0091600Y0303600D01*
X0094100Y0306100D01*
X0099100Y0306100D01*
X0101600Y0303600D01*
X0104100Y0306100D01*
X0109100Y0306100D01*
X0111600Y0303600D01*
X0114100Y0306100D01*
X0119100Y0306100D01*
X0121600Y0303600D01*
X0121600Y0298600D01*
X0119100Y0296100D01*
X0114100Y0296100D01*
X0111600Y0298600D01*
X0109100Y0296100D01*
X0104100Y0296100D01*
X0101600Y0298600D01*
X0099100Y0296100D01*
X0094100Y0296100D01*
X0091600Y0298600D01*
X0089100Y0296100D01*
X0084100Y0296100D01*
X0081600Y0298600D01*
X0079100Y0296100D01*
X0074100Y0296100D01*
X0071600Y0298600D01*
X0069100Y0296100D01*
X0064100Y0296100D01*
X0061600Y0298600D01*
X0059100Y0296100D01*
X0054100Y0296100D01*
X0054100Y0310100D02*
X0051600Y0312600D01*
X0051600Y0317600D01*
X0054100Y0320100D01*
X0059100Y0320100D01*
X0061600Y0317600D01*
X0064100Y0320100D01*
X0069100Y0320100D01*
X0071600Y0317600D01*
X0074100Y0320100D01*
X0079100Y0320100D01*
X0081600Y0317600D01*
X0084100Y0320100D01*
X0089100Y0320100D01*
X0091600Y0317600D01*
X0094100Y0320100D01*
X0099100Y0320100D01*
X0101600Y0317600D01*
X0104100Y0320100D01*
X0109100Y0320100D01*
X0111600Y0317600D01*
X0114100Y0320100D01*
X0119100Y0320100D01*
X0121600Y0317600D01*
X0121600Y0312600D01*
X0119100Y0310100D01*
X0114100Y0310100D01*
X0111600Y0312600D01*
X0109100Y0310100D01*
X0104100Y0310100D01*
X0101600Y0312600D01*
X0099100Y0310100D01*
X0094100Y0310100D01*
X0091600Y0312600D01*
X0089100Y0310100D01*
X0084100Y0310100D01*
X0081600Y0312600D01*
X0079100Y0310100D01*
X0074100Y0310100D01*
X0071600Y0312600D01*
X0069100Y0310100D01*
X0064100Y0310100D01*
X0061600Y0312600D01*
X0059100Y0310100D01*
X0054100Y0310100D01*
X0060600Y0328100D02*
X0061600Y0328100D01*
X0062100Y0328600D01*
X0071100Y0328600D01*
X0071600Y0328100D01*
X0072600Y0328100D01*
X0072660Y0328102D01*
X0072721Y0328107D01*
X0072780Y0328116D01*
X0072839Y0328129D01*
X0072898Y0328145D01*
X0072955Y0328165D01*
X0073010Y0328188D01*
X0073065Y0328215D01*
X0073117Y0328244D01*
X0073168Y0328277D01*
X0073217Y0328313D01*
X0073263Y0328351D01*
X0073307Y0328393D01*
X0073349Y0328437D01*
X0073387Y0328483D01*
X0073423Y0328532D01*
X0073456Y0328583D01*
X0073485Y0328635D01*
X0073512Y0328690D01*
X0073535Y0328745D01*
X0073555Y0328802D01*
X0073571Y0328861D01*
X0073584Y0328920D01*
X0073593Y0328979D01*
X0073598Y0329040D01*
X0073600Y0329100D01*
X0073600Y0334100D02*
X0073598Y0334160D01*
X0073593Y0334221D01*
X0073584Y0334280D01*
X0073571Y0334339D01*
X0073555Y0334398D01*
X0073535Y0334455D01*
X0073512Y0334510D01*
X0073485Y0334565D01*
X0073456Y0334617D01*
X0073423Y0334668D01*
X0073387Y0334717D01*
X0073349Y0334763D01*
X0073307Y0334807D01*
X0073263Y0334849D01*
X0073217Y0334887D01*
X0073168Y0334923D01*
X0073117Y0334956D01*
X0073065Y0334985D01*
X0073010Y0335012D01*
X0072955Y0335035D01*
X0072898Y0335055D01*
X0072839Y0335071D01*
X0072780Y0335084D01*
X0072721Y0335093D01*
X0072660Y0335098D01*
X0072600Y0335100D01*
X0071600Y0335100D01*
X0071100Y0334600D01*
X0062100Y0334600D01*
X0061600Y0335100D01*
X0060600Y0335100D01*
X0060540Y0335098D01*
X0060479Y0335093D01*
X0060420Y0335084D01*
X0060361Y0335071D01*
X0060302Y0335055D01*
X0060245Y0335035D01*
X0060190Y0335012D01*
X0060135Y0334985D01*
X0060083Y0334956D01*
X0060032Y0334923D01*
X0059983Y0334887D01*
X0059937Y0334849D01*
X0059893Y0334807D01*
X0059851Y0334763D01*
X0059813Y0334717D01*
X0059777Y0334668D01*
X0059744Y0334617D01*
X0059715Y0334565D01*
X0059688Y0334510D01*
X0059665Y0334455D01*
X0059645Y0334398D01*
X0059629Y0334339D01*
X0059616Y0334280D01*
X0059607Y0334221D01*
X0059602Y0334160D01*
X0059600Y0334100D01*
X0059600Y0329100D02*
X0059602Y0329040D01*
X0059607Y0328979D01*
X0059616Y0328920D01*
X0059629Y0328861D01*
X0059645Y0328802D01*
X0059665Y0328745D01*
X0059688Y0328690D01*
X0059715Y0328635D01*
X0059744Y0328583D01*
X0059777Y0328532D01*
X0059813Y0328483D01*
X0059851Y0328437D01*
X0059893Y0328393D01*
X0059937Y0328351D01*
X0059983Y0328313D01*
X0060032Y0328277D01*
X0060083Y0328244D01*
X0060135Y0328215D01*
X0060190Y0328188D01*
X0060245Y0328165D01*
X0060302Y0328145D01*
X0060361Y0328129D01*
X0060420Y0328116D01*
X0060479Y0328107D01*
X0060540Y0328102D01*
X0060600Y0328100D01*
X0045100Y0330600D02*
X0038100Y0330600D01*
X0038100Y0342600D01*
X0045100Y0342600D01*
X0045100Y0330600D01*
X0043600Y0333100D02*
X0041600Y0337100D01*
X0043600Y0337100D01*
X0043600Y0336100D01*
X0041600Y0337100D02*
X0041600Y0331600D01*
X0039600Y0333100D02*
X0041600Y0337100D01*
X0039600Y0337100D01*
X0041600Y0337100D02*
X0041600Y0338600D01*
X0047100Y0340600D02*
X0046600Y0352100D01*
X0036100Y0356600D02*
X0036100Y0346600D01*
X0036098Y0346540D01*
X0036093Y0346479D01*
X0036084Y0346420D01*
X0036071Y0346361D01*
X0036055Y0346302D01*
X0036035Y0346245D01*
X0036012Y0346190D01*
X0035985Y0346135D01*
X0035956Y0346083D01*
X0035923Y0346032D01*
X0035887Y0345983D01*
X0035849Y0345937D01*
X0035807Y0345893D01*
X0035763Y0345851D01*
X0035717Y0345813D01*
X0035668Y0345777D01*
X0035617Y0345744D01*
X0035565Y0345715D01*
X0035510Y0345688D01*
X0035455Y0345665D01*
X0035398Y0345645D01*
X0035339Y0345629D01*
X0035280Y0345616D01*
X0035221Y0345607D01*
X0035160Y0345602D01*
X0035100Y0345600D01*
X0018100Y0345600D01*
X0018040Y0345602D01*
X0017979Y0345607D01*
X0017920Y0345616D01*
X0017861Y0345629D01*
X0017802Y0345645D01*
X0017745Y0345665D01*
X0017690Y0345688D01*
X0017635Y0345715D01*
X0017583Y0345744D01*
X0017532Y0345777D01*
X0017483Y0345813D01*
X0017437Y0345851D01*
X0017393Y0345893D01*
X0017351Y0345937D01*
X0017313Y0345983D01*
X0017277Y0346032D01*
X0017244Y0346083D01*
X0017215Y0346135D01*
X0017188Y0346190D01*
X0017165Y0346245D01*
X0017145Y0346302D01*
X0017129Y0346361D01*
X0017116Y0346420D01*
X0017107Y0346479D01*
X0017102Y0346540D01*
X0017100Y0346600D01*
X0017100Y0356600D01*
X0017102Y0356660D01*
X0017107Y0356721D01*
X0017116Y0356780D01*
X0017129Y0356839D01*
X0017145Y0356898D01*
X0017165Y0356955D01*
X0017188Y0357010D01*
X0017215Y0357065D01*
X0017244Y0357117D01*
X0017277Y0357168D01*
X0017313Y0357217D01*
X0017351Y0357263D01*
X0017393Y0357307D01*
X0017437Y0357349D01*
X0017483Y0357387D01*
X0017532Y0357423D01*
X0017583Y0357456D01*
X0017635Y0357485D01*
X0017690Y0357512D01*
X0017745Y0357535D01*
X0017802Y0357555D01*
X0017861Y0357571D01*
X0017920Y0357584D01*
X0017979Y0357593D01*
X0018040Y0357598D01*
X0018100Y0357600D01*
X0035100Y0357600D01*
X0035160Y0357598D01*
X0035221Y0357593D01*
X0035280Y0357584D01*
X0035339Y0357571D01*
X0035398Y0357555D01*
X0035455Y0357535D01*
X0035510Y0357512D01*
X0035565Y0357485D01*
X0035617Y0357456D01*
X0035668Y0357423D01*
X0035717Y0357387D01*
X0035763Y0357349D01*
X0035807Y0357307D01*
X0035849Y0357263D01*
X0035887Y0357217D01*
X0035923Y0357168D01*
X0035956Y0357117D01*
X0035985Y0357065D01*
X0036012Y0357010D01*
X0036035Y0356955D01*
X0036055Y0356898D01*
X0036071Y0356839D01*
X0036084Y0356780D01*
X0036093Y0356721D01*
X0036098Y0356660D01*
X0036100Y0356600D01*
X0028100Y0351600D02*
X0027600Y0351600D01*
X0025600Y0351600D02*
X0025100Y0351600D01*
X0047100Y0340600D02*
X0048100Y0339600D01*
X0085100Y0339600D01*
X0086100Y0340600D01*
X0086600Y0352100D01*
X0090100Y0355100D02*
X0090100Y0345100D01*
X0090102Y0345040D01*
X0090107Y0344979D01*
X0090116Y0344920D01*
X0090129Y0344861D01*
X0090145Y0344802D01*
X0090165Y0344745D01*
X0090188Y0344690D01*
X0090215Y0344635D01*
X0090244Y0344583D01*
X0090277Y0344532D01*
X0090313Y0344483D01*
X0090351Y0344437D01*
X0090393Y0344393D01*
X0090437Y0344351D01*
X0090483Y0344313D01*
X0090532Y0344277D01*
X0090583Y0344244D01*
X0090635Y0344215D01*
X0090690Y0344188D01*
X0090745Y0344165D01*
X0090802Y0344145D01*
X0090861Y0344129D01*
X0090920Y0344116D01*
X0090979Y0344107D01*
X0091040Y0344102D01*
X0091100Y0344100D01*
X0108100Y0344100D01*
X0108160Y0344102D01*
X0108221Y0344107D01*
X0108280Y0344116D01*
X0108339Y0344129D01*
X0108398Y0344145D01*
X0108455Y0344165D01*
X0108510Y0344188D01*
X0108565Y0344215D01*
X0108617Y0344244D01*
X0108668Y0344277D01*
X0108717Y0344313D01*
X0108763Y0344351D01*
X0108807Y0344393D01*
X0108849Y0344437D01*
X0108887Y0344483D01*
X0108923Y0344532D01*
X0108956Y0344583D01*
X0108985Y0344635D01*
X0109012Y0344690D01*
X0109035Y0344745D01*
X0109055Y0344802D01*
X0109071Y0344861D01*
X0109084Y0344920D01*
X0109093Y0344979D01*
X0109098Y0345040D01*
X0109100Y0345100D01*
X0109100Y0355100D01*
X0109098Y0355160D01*
X0109093Y0355221D01*
X0109084Y0355280D01*
X0109071Y0355339D01*
X0109055Y0355398D01*
X0109035Y0355455D01*
X0109012Y0355510D01*
X0108985Y0355565D01*
X0108956Y0355617D01*
X0108923Y0355668D01*
X0108887Y0355717D01*
X0108849Y0355763D01*
X0108807Y0355807D01*
X0108763Y0355849D01*
X0108717Y0355887D01*
X0108668Y0355923D01*
X0108617Y0355956D01*
X0108565Y0355985D01*
X0108510Y0356012D01*
X0108455Y0356035D01*
X0108398Y0356055D01*
X0108339Y0356071D01*
X0108280Y0356084D01*
X0108221Y0356093D01*
X0108160Y0356098D01*
X0108100Y0356100D01*
X0091100Y0356100D01*
X0091040Y0356098D01*
X0090979Y0356093D01*
X0090920Y0356084D01*
X0090861Y0356071D01*
X0090802Y0356055D01*
X0090745Y0356035D01*
X0090690Y0356012D01*
X0090635Y0355985D01*
X0090583Y0355956D01*
X0090532Y0355923D01*
X0090483Y0355887D01*
X0090437Y0355849D01*
X0090393Y0355807D01*
X0090351Y0355763D01*
X0090313Y0355717D01*
X0090277Y0355668D01*
X0090244Y0355617D01*
X0090215Y0355565D01*
X0090188Y0355510D01*
X0090165Y0355455D01*
X0090145Y0355398D01*
X0090129Y0355339D01*
X0090116Y0355280D01*
X0090107Y0355221D01*
X0090102Y0355160D01*
X0090100Y0355100D01*
X0098100Y0350100D02*
X0098600Y0350100D01*
X0100600Y0350100D02*
X0101100Y0350100D01*
X0135600Y0355100D02*
X0135600Y0338100D01*
X0135602Y0338040D01*
X0135607Y0337979D01*
X0135616Y0337920D01*
X0135629Y0337861D01*
X0135645Y0337802D01*
X0135665Y0337745D01*
X0135688Y0337690D01*
X0135715Y0337635D01*
X0135744Y0337583D01*
X0135777Y0337532D01*
X0135813Y0337483D01*
X0135851Y0337437D01*
X0135893Y0337393D01*
X0135937Y0337351D01*
X0135983Y0337313D01*
X0136032Y0337277D01*
X0136083Y0337244D01*
X0136135Y0337215D01*
X0136190Y0337188D01*
X0136245Y0337165D01*
X0136302Y0337145D01*
X0136361Y0337129D01*
X0136420Y0337116D01*
X0136479Y0337107D01*
X0136540Y0337102D01*
X0136600Y0337100D01*
X0146600Y0337100D01*
X0146660Y0337102D01*
X0146721Y0337107D01*
X0146780Y0337116D01*
X0146839Y0337129D01*
X0146898Y0337145D01*
X0146955Y0337165D01*
X0147010Y0337188D01*
X0147065Y0337215D01*
X0147117Y0337244D01*
X0147168Y0337277D01*
X0147217Y0337313D01*
X0147263Y0337351D01*
X0147307Y0337393D01*
X0147349Y0337437D01*
X0147387Y0337483D01*
X0147423Y0337532D01*
X0147456Y0337583D01*
X0147485Y0337635D01*
X0147512Y0337690D01*
X0147535Y0337745D01*
X0147555Y0337802D01*
X0147571Y0337861D01*
X0147584Y0337920D01*
X0147593Y0337979D01*
X0147598Y0338040D01*
X0147600Y0338100D01*
X0147600Y0355100D01*
X0147598Y0355160D01*
X0147593Y0355221D01*
X0147584Y0355280D01*
X0147571Y0355339D01*
X0147555Y0355398D01*
X0147535Y0355455D01*
X0147512Y0355510D01*
X0147485Y0355565D01*
X0147456Y0355617D01*
X0147423Y0355668D01*
X0147387Y0355717D01*
X0147349Y0355763D01*
X0147307Y0355807D01*
X0147263Y0355849D01*
X0147217Y0355887D01*
X0147168Y0355923D01*
X0147117Y0355956D01*
X0147065Y0355985D01*
X0147010Y0356012D01*
X0146955Y0356035D01*
X0146898Y0356055D01*
X0146839Y0356071D01*
X0146780Y0356084D01*
X0146721Y0356093D01*
X0146660Y0356098D01*
X0146600Y0356100D01*
X0136600Y0356100D01*
X0136540Y0356098D01*
X0136479Y0356093D01*
X0136420Y0356084D01*
X0136361Y0356071D01*
X0136302Y0356055D01*
X0136245Y0356035D01*
X0136190Y0356012D01*
X0136135Y0355985D01*
X0136083Y0355956D01*
X0136032Y0355923D01*
X0135983Y0355887D01*
X0135937Y0355849D01*
X0135893Y0355807D01*
X0135851Y0355763D01*
X0135813Y0355717D01*
X0135777Y0355668D01*
X0135744Y0355617D01*
X0135715Y0355565D01*
X0135688Y0355510D01*
X0135665Y0355455D01*
X0135645Y0355398D01*
X0135629Y0355339D01*
X0135616Y0355280D01*
X0135607Y0355221D01*
X0135602Y0355160D01*
X0135600Y0355100D01*
X0141600Y0348100D02*
X0141600Y0347600D01*
X0141600Y0345600D02*
X0141600Y0345100D01*
X0142600Y0335553D02*
X0142600Y0333974D01*
X0148100Y0333348D02*
X0148100Y0316852D01*
X0142600Y0316226D02*
X0142600Y0314647D01*
X0134100Y0313600D02*
X0134100Y0308600D01*
X0131600Y0306100D01*
X0134100Y0303600D01*
X0134100Y0298600D01*
X0131600Y0296100D01*
X0134100Y0293600D01*
X0134100Y0288600D01*
X0131600Y0286100D01*
X0134100Y0283600D01*
X0134100Y0278600D01*
X0131600Y0276100D01*
X0126600Y0276100D01*
X0124100Y0278600D01*
X0124100Y0283600D01*
X0126600Y0286100D01*
X0124100Y0288600D01*
X0124100Y0293600D01*
X0126600Y0296100D01*
X0124100Y0298600D01*
X0124100Y0303600D01*
X0126600Y0306100D01*
X0124100Y0308600D01*
X0124100Y0313600D01*
X0126600Y0316100D01*
X0131600Y0316100D01*
X0134100Y0313600D01*
X0139600Y0302100D02*
X0145600Y0302100D01*
X0145660Y0302098D01*
X0145721Y0302093D01*
X0145780Y0302084D01*
X0145839Y0302071D01*
X0145898Y0302055D01*
X0145955Y0302035D01*
X0146010Y0302012D01*
X0146065Y0301985D01*
X0146117Y0301956D01*
X0146168Y0301923D01*
X0146217Y0301887D01*
X0146263Y0301849D01*
X0146307Y0301807D01*
X0146349Y0301763D01*
X0146387Y0301717D01*
X0146423Y0301668D01*
X0146456Y0301617D01*
X0146485Y0301565D01*
X0146512Y0301510D01*
X0146535Y0301455D01*
X0146555Y0301398D01*
X0146571Y0301339D01*
X0146584Y0301280D01*
X0146593Y0301221D01*
X0146598Y0301160D01*
X0146600Y0301100D01*
X0146600Y0290100D01*
X0146598Y0290040D01*
X0146593Y0289979D01*
X0146584Y0289920D01*
X0146571Y0289861D01*
X0146555Y0289802D01*
X0146535Y0289745D01*
X0146512Y0289690D01*
X0146485Y0289635D01*
X0146456Y0289583D01*
X0146423Y0289532D01*
X0146387Y0289483D01*
X0146349Y0289437D01*
X0146307Y0289393D01*
X0146263Y0289351D01*
X0146217Y0289313D01*
X0146168Y0289277D01*
X0146117Y0289244D01*
X0146065Y0289215D01*
X0146010Y0289188D01*
X0145955Y0289165D01*
X0145898Y0289145D01*
X0145839Y0289129D01*
X0145780Y0289116D01*
X0145721Y0289107D01*
X0145660Y0289102D01*
X0145600Y0289100D01*
X0139600Y0289100D01*
X0139540Y0289102D01*
X0139479Y0289107D01*
X0139420Y0289116D01*
X0139361Y0289129D01*
X0139302Y0289145D01*
X0139245Y0289165D01*
X0139190Y0289188D01*
X0139135Y0289215D01*
X0139083Y0289244D01*
X0139032Y0289277D01*
X0138983Y0289313D01*
X0138937Y0289351D01*
X0138893Y0289393D01*
X0138851Y0289437D01*
X0138813Y0289483D01*
X0138777Y0289532D01*
X0138744Y0289583D01*
X0138715Y0289635D01*
X0138688Y0289690D01*
X0138665Y0289745D01*
X0138645Y0289802D01*
X0138629Y0289861D01*
X0138616Y0289920D01*
X0138607Y0289979D01*
X0138602Y0290040D01*
X0138600Y0290100D01*
X0138600Y0301100D01*
X0138602Y0301160D01*
X0138607Y0301221D01*
X0138616Y0301280D01*
X0138629Y0301339D01*
X0138645Y0301398D01*
X0138665Y0301455D01*
X0138688Y0301510D01*
X0138715Y0301565D01*
X0138744Y0301617D01*
X0138777Y0301668D01*
X0138813Y0301717D01*
X0138851Y0301763D01*
X0138893Y0301807D01*
X0138937Y0301849D01*
X0138983Y0301887D01*
X0139032Y0301923D01*
X0139083Y0301956D01*
X0139135Y0301985D01*
X0139190Y0302012D01*
X0139245Y0302035D01*
X0139302Y0302055D01*
X0139361Y0302071D01*
X0139420Y0302084D01*
X0139479Y0302093D01*
X0139540Y0302098D01*
X0139600Y0302100D01*
X0142600Y0323974D02*
X0142600Y0326226D01*
X0148100Y0333348D02*
X0147898Y0333503D01*
X0147693Y0333653D01*
X0147484Y0333799D01*
X0147271Y0333939D01*
X0147056Y0334073D01*
X0146836Y0334203D01*
X0146614Y0334327D01*
X0146389Y0334446D01*
X0146161Y0334559D01*
X0145931Y0334667D01*
X0145698Y0334769D01*
X0145462Y0334866D01*
X0145225Y0334957D01*
X0144985Y0335042D01*
X0144743Y0335121D01*
X0144499Y0335194D01*
X0144254Y0335261D01*
X0144007Y0335322D01*
X0143758Y0335378D01*
X0143509Y0335427D01*
X0143258Y0335470D01*
X0143006Y0335507D01*
X0142753Y0335538D01*
X0142500Y0335563D01*
X0142246Y0335582D01*
X0141992Y0335595D01*
X0141738Y0335601D01*
X0141483Y0335601D01*
X0141229Y0335595D01*
X0140975Y0335583D01*
X0140721Y0335565D01*
X0140467Y0335541D01*
X0140215Y0335510D01*
X0139963Y0335474D01*
X0139712Y0335431D01*
X0139462Y0335382D01*
X0139214Y0335327D01*
X0138967Y0335266D01*
X0138721Y0335200D01*
X0138477Y0335127D01*
X0138235Y0335048D01*
X0137995Y0334964D01*
X0137757Y0334874D01*
X0137522Y0334778D01*
X0137288Y0334676D01*
X0137057Y0334569D01*
X0136829Y0334456D01*
X0136604Y0334337D01*
X0136382Y0334214D01*
X0136162Y0334084D01*
X0135946Y0333950D01*
X0135734Y0333810D01*
X0135524Y0333666D01*
X0135319Y0333516D01*
X0135116Y0333361D01*
X0134918Y0333202D01*
X0134724Y0333037D01*
X0134534Y0332868D01*
X0134347Y0332695D01*
X0134166Y0332517D01*
X0133988Y0332334D01*
X0133815Y0332148D01*
X0133646Y0331957D01*
X0133483Y0331762D01*
X0133324Y0331564D01*
X0133169Y0331361D01*
X0133020Y0331155D01*
X0132876Y0330945D01*
X0132737Y0330732D01*
X0132603Y0330516D01*
X0132475Y0330296D01*
X0132351Y0330073D01*
X0132234Y0329848D01*
X0132121Y0329619D01*
X0132015Y0329388D01*
X0131914Y0329155D01*
X0131818Y0328919D01*
X0131729Y0328681D01*
X0131645Y0328440D01*
X0131567Y0328198D01*
X0131567Y0322002D02*
X0131645Y0321760D01*
X0131729Y0321519D01*
X0131818Y0321281D01*
X0131914Y0321045D01*
X0132015Y0320812D01*
X0132121Y0320581D01*
X0132234Y0320352D01*
X0132351Y0320127D01*
X0132475Y0319904D01*
X0132603Y0319684D01*
X0132737Y0319468D01*
X0132876Y0319255D01*
X0133020Y0319045D01*
X0133169Y0318839D01*
X0133324Y0318636D01*
X0133483Y0318438D01*
X0133646Y0318243D01*
X0133815Y0318052D01*
X0133988Y0317866D01*
X0134166Y0317683D01*
X0134347Y0317505D01*
X0134534Y0317332D01*
X0134724Y0317163D01*
X0134918Y0316998D01*
X0135116Y0316839D01*
X0135319Y0316684D01*
X0135524Y0316534D01*
X0135734Y0316390D01*
X0135946Y0316250D01*
X0136162Y0316116D01*
X0136382Y0315986D01*
X0136604Y0315863D01*
X0136829Y0315744D01*
X0137057Y0315631D01*
X0137288Y0315524D01*
X0137522Y0315422D01*
X0137757Y0315326D01*
X0137995Y0315236D01*
X0138235Y0315152D01*
X0138477Y0315073D01*
X0138721Y0315000D01*
X0138967Y0314934D01*
X0139214Y0314873D01*
X0139462Y0314818D01*
X0139712Y0314769D01*
X0139963Y0314726D01*
X0140215Y0314690D01*
X0140467Y0314659D01*
X0140721Y0314635D01*
X0140975Y0314617D01*
X0141229Y0314605D01*
X0141483Y0314599D01*
X0141738Y0314599D01*
X0141992Y0314605D01*
X0142246Y0314618D01*
X0142500Y0314637D01*
X0142753Y0314662D01*
X0143006Y0314693D01*
X0143258Y0314730D01*
X0143509Y0314773D01*
X0143758Y0314822D01*
X0144007Y0314878D01*
X0144254Y0314939D01*
X0144499Y0315006D01*
X0144743Y0315079D01*
X0144985Y0315158D01*
X0145225Y0315243D01*
X0145462Y0315334D01*
X0145698Y0315431D01*
X0145931Y0315533D01*
X0146161Y0315641D01*
X0146389Y0315754D01*
X0146614Y0315873D01*
X0146836Y0315997D01*
X0147056Y0316127D01*
X0147271Y0316261D01*
X0147484Y0316401D01*
X0147693Y0316547D01*
X0147898Y0316697D01*
X0148100Y0316852D01*
X0043600Y0333100D02*
X0039600Y0333100D01*
D13*
X0041600Y0340350D03*
D14*
X0041600Y0345350D03*
X0041600Y0327850D03*
D15*
X0031600Y0336100D02*
X0031600Y0337100D01*
X0046100Y0221600D02*
X0047100Y0221600D01*
X0047100Y0211600D02*
X0046100Y0211600D01*
X0046100Y0201600D02*
X0047100Y0201600D01*
X0047100Y0191600D02*
X0046100Y0191600D01*
X0046100Y0181600D02*
X0047100Y0181600D01*
X0047100Y0171600D02*
X0046100Y0171600D01*
X0046100Y0161600D02*
X0047100Y0161600D01*
X0047100Y0151600D02*
X0046100Y0151600D01*
D16*
X0048900Y0342000D03*
D17*
X0066600Y0355100D03*
D18*
X0049350Y0352600D03*
X0083850Y0352600D03*
D19*
X0071600Y0352600D03*
X0061600Y0352600D03*
D20*
X0027600Y0351600D02*
X0027600Y0354600D01*
X0025600Y0354600D02*
X0025600Y0351600D01*
X0025600Y0348600D01*
X0027600Y0348600D02*
X0027600Y0351600D01*
X0098600Y0350100D02*
X0098600Y0347100D01*
X0100600Y0347100D02*
X0100600Y0350100D01*
X0100600Y0353100D01*
X0098600Y0353100D02*
X0098600Y0350100D01*
X0111600Y0353600D02*
X0111600Y0361100D01*
X0131600Y0361100D01*
X0131600Y0353600D01*
X0111600Y0353600D01*
X0111600Y0336100D01*
X0131600Y0336100D01*
X0131600Y0353600D01*
X0138600Y0347600D02*
X0141600Y0347600D01*
X0144600Y0347600D01*
X0144600Y0345600D02*
X0141600Y0345600D01*
X0138600Y0345600D01*
X0134100Y0277600D02*
X0151600Y0277600D01*
X0151600Y0257600D01*
X0134100Y0257600D01*
X0134100Y0277600D01*
X0151600Y0277600D02*
X0159100Y0277600D01*
X0159100Y0257600D01*
X0151600Y0257600D01*
D21*
X0152850Y0252100D02*
X0157350Y0252100D01*
X0157350Y0250850D02*
X0157350Y0253350D01*
X0153850Y0250850D02*
X0152850Y0252100D01*
X0130350Y0272350D02*
X0126850Y0273350D01*
X0129350Y0274100D02*
X0131350Y0274100D01*
X0130350Y0274850D02*
X0130350Y0272350D01*
X0116600Y0280850D02*
X0117850Y0285350D01*
X0115350Y0285350D01*
X0115350Y0284850D01*
X0116600Y0294350D02*
X0117850Y0298850D01*
X0115350Y0298850D01*
X0115350Y0298350D01*
X0116350Y0307850D02*
X0118850Y0307850D01*
X0117600Y0307850D02*
X0117600Y0312350D01*
X0116350Y0311350D01*
X0116350Y0321850D02*
X0118850Y0321850D01*
X0117600Y0321850D02*
X0117600Y0326350D01*
X0116350Y0325350D01*
X0114631Y0328403D02*
X0111679Y0330844D01*
X0108726Y0328403D01*
X0104789Y0328403D01*
X0101600Y0331631D01*
X0101600Y0335569D01*
X0104789Y0338797D01*
X0108726Y0338797D01*
X0111745Y0336250D01*
X0114631Y0338797D01*
X0118569Y0338797D01*
X0121797Y0336356D01*
X0124474Y0338797D01*
X0128411Y0338797D01*
X0131600Y0335569D01*
X0131600Y0331631D01*
X0128411Y0328403D01*
X0124474Y0328403D01*
X0121797Y0330844D01*
X0118569Y0328403D01*
X0114631Y0328403D01*
X0114206Y0333600D02*
X0114208Y0333698D01*
X0114214Y0333795D01*
X0114224Y0333892D01*
X0114238Y0333989D01*
X0114256Y0334085D01*
X0114277Y0334180D01*
X0114303Y0334274D01*
X0114332Y0334368D01*
X0114366Y0334459D01*
X0114403Y0334550D01*
X0114443Y0334639D01*
X0114487Y0334726D01*
X0114535Y0334811D01*
X0114586Y0334894D01*
X0114641Y0334975D01*
X0114698Y0335054D01*
X0114759Y0335131D01*
X0114823Y0335204D01*
X0114890Y0335275D01*
X0114960Y0335344D01*
X0115032Y0335409D01*
X0115107Y0335472D01*
X0115185Y0335531D01*
X0115265Y0335587D01*
X0115347Y0335640D01*
X0115431Y0335689D01*
X0115518Y0335735D01*
X0115605Y0335778D01*
X0115695Y0335816D01*
X0115786Y0335851D01*
X0115879Y0335883D01*
X0115973Y0335910D01*
X0116067Y0335934D01*
X0116163Y0335954D01*
X0116259Y0335970D01*
X0116356Y0335982D01*
X0116454Y0335990D01*
X0116551Y0335994D01*
X0116649Y0335994D01*
X0116746Y0335990D01*
X0116844Y0335982D01*
X0116941Y0335970D01*
X0117037Y0335954D01*
X0117133Y0335934D01*
X0117227Y0335910D01*
X0117321Y0335883D01*
X0117414Y0335851D01*
X0117505Y0335816D01*
X0117595Y0335778D01*
X0117682Y0335735D01*
X0117769Y0335689D01*
X0117853Y0335640D01*
X0117935Y0335587D01*
X0118015Y0335531D01*
X0118093Y0335472D01*
X0118168Y0335409D01*
X0118240Y0335344D01*
X0118310Y0335275D01*
X0118377Y0335204D01*
X0118441Y0335131D01*
X0118502Y0335054D01*
X0118559Y0334975D01*
X0118614Y0334894D01*
X0118665Y0334811D01*
X0118713Y0334726D01*
X0118757Y0334639D01*
X0118797Y0334550D01*
X0118834Y0334459D01*
X0118868Y0334368D01*
X0118897Y0334274D01*
X0118923Y0334180D01*
X0118944Y0334085D01*
X0118962Y0333989D01*
X0118976Y0333892D01*
X0118986Y0333795D01*
X0118992Y0333698D01*
X0118994Y0333600D01*
X0118992Y0333502D01*
X0118986Y0333405D01*
X0118976Y0333308D01*
X0118962Y0333211D01*
X0118944Y0333115D01*
X0118923Y0333020D01*
X0118897Y0332926D01*
X0118868Y0332832D01*
X0118834Y0332741D01*
X0118797Y0332650D01*
X0118757Y0332561D01*
X0118713Y0332474D01*
X0118665Y0332389D01*
X0118614Y0332306D01*
X0118559Y0332225D01*
X0118502Y0332146D01*
X0118441Y0332069D01*
X0118377Y0331996D01*
X0118310Y0331925D01*
X0118240Y0331856D01*
X0118168Y0331791D01*
X0118093Y0331728D01*
X0118015Y0331669D01*
X0117935Y0331613D01*
X0117853Y0331560D01*
X0117769Y0331511D01*
X0117682Y0331465D01*
X0117595Y0331422D01*
X0117505Y0331384D01*
X0117414Y0331349D01*
X0117321Y0331317D01*
X0117227Y0331290D01*
X0117133Y0331266D01*
X0117037Y0331246D01*
X0116941Y0331230D01*
X0116844Y0331218D01*
X0116746Y0331210D01*
X0116649Y0331206D01*
X0116551Y0331206D01*
X0116454Y0331210D01*
X0116356Y0331218D01*
X0116259Y0331230D01*
X0116163Y0331246D01*
X0116067Y0331266D01*
X0115973Y0331290D01*
X0115879Y0331317D01*
X0115786Y0331349D01*
X0115695Y0331384D01*
X0115605Y0331422D01*
X0115518Y0331465D01*
X0115431Y0331511D01*
X0115347Y0331560D01*
X0115265Y0331613D01*
X0115185Y0331669D01*
X0115107Y0331728D01*
X0115032Y0331791D01*
X0114960Y0331856D01*
X0114890Y0331925D01*
X0114823Y0331996D01*
X0114759Y0332069D01*
X0114698Y0332146D01*
X0114641Y0332225D01*
X0114586Y0332306D01*
X0114535Y0332389D01*
X0114487Y0332474D01*
X0114443Y0332561D01*
X0114403Y0332650D01*
X0114366Y0332741D01*
X0114332Y0332832D01*
X0114303Y0332926D01*
X0114277Y0333020D01*
X0114256Y0333115D01*
X0114238Y0333211D01*
X0114224Y0333308D01*
X0114214Y0333405D01*
X0114208Y0333502D01*
X0114206Y0333600D01*
X0126850Y0319100D02*
X0131350Y0319100D01*
X0131350Y0317850D02*
X0131350Y0320350D01*
X0127850Y0317850D02*
X0126850Y0319100D01*
X0057850Y0308350D02*
X0056600Y0303850D01*
X0055350Y0307850D02*
X0055350Y0308350D01*
X0057850Y0308350D01*
X0057850Y0294350D02*
X0055350Y0294350D01*
X0055350Y0293850D01*
X0057850Y0294350D02*
X0056600Y0289850D01*
X0055600Y0280850D02*
X0055600Y0276350D01*
X0054350Y0276350D02*
X0056850Y0276350D01*
X0054350Y0279850D02*
X0055600Y0280850D01*
X0055600Y0267350D02*
X0055600Y0262850D01*
X0054350Y0262850D02*
X0056850Y0262850D01*
X0054350Y0266350D02*
X0055600Y0267350D01*
X0020350Y0253350D02*
X0020350Y0251850D01*
X0020350Y0253350D02*
X0020348Y0253410D01*
X0020343Y0253471D01*
X0020334Y0253530D01*
X0020321Y0253589D01*
X0020305Y0253648D01*
X0020285Y0253705D01*
X0020262Y0253760D01*
X0020235Y0253815D01*
X0020206Y0253867D01*
X0020173Y0253918D01*
X0020137Y0253967D01*
X0020099Y0254013D01*
X0020057Y0254057D01*
X0020013Y0254099D01*
X0019967Y0254137D01*
X0019918Y0254173D01*
X0019867Y0254206D01*
X0019815Y0254235D01*
X0019760Y0254262D01*
X0019705Y0254285D01*
X0019648Y0254305D01*
X0019589Y0254321D01*
X0019530Y0254334D01*
X0019471Y0254343D01*
X0019410Y0254348D01*
X0019350Y0254350D01*
X0018850Y0254350D01*
X0018790Y0254348D01*
X0018729Y0254343D01*
X0018670Y0254334D01*
X0018611Y0254321D01*
X0018552Y0254305D01*
X0018495Y0254285D01*
X0018440Y0254262D01*
X0018385Y0254235D01*
X0018333Y0254206D01*
X0018282Y0254173D01*
X0018233Y0254137D01*
X0018187Y0254099D01*
X0018143Y0254057D01*
X0018101Y0254013D01*
X0018063Y0253967D01*
X0018027Y0253918D01*
X0017994Y0253867D01*
X0017965Y0253815D01*
X0017938Y0253760D01*
X0017915Y0253705D01*
X0017895Y0253648D01*
X0017879Y0253589D01*
X0017866Y0253530D01*
X0017857Y0253471D01*
X0017852Y0253410D01*
X0017850Y0253350D01*
X0017850Y0251850D01*
X0015850Y0251850D01*
X0015850Y0254350D01*
X0015850Y0248600D02*
X0020350Y0248600D01*
X0020350Y0247350D02*
X0020350Y0249850D01*
X0016850Y0247350D02*
X0015850Y0248600D01*
X0043850Y0145600D02*
X0048350Y0145600D01*
X0048350Y0144350D02*
X0048350Y0146850D01*
X0044850Y0144350D02*
X0043850Y0145600D01*
X0020350Y0112350D02*
X0020350Y0109850D01*
X0020350Y0111100D02*
X0015850Y0111100D01*
X0016850Y0109850D01*
X0152850Y0110100D02*
X0157350Y0110100D01*
X0157350Y0108850D02*
X0157350Y0111350D01*
X0157350Y0113350D02*
X0157350Y0114850D01*
X0157348Y0114910D01*
X0157343Y0114971D01*
X0157334Y0115030D01*
X0157321Y0115089D01*
X0157305Y0115148D01*
X0157285Y0115205D01*
X0157262Y0115260D01*
X0157235Y0115315D01*
X0157206Y0115367D01*
X0157173Y0115418D01*
X0157137Y0115467D01*
X0157099Y0115513D01*
X0157057Y0115557D01*
X0157013Y0115599D01*
X0156967Y0115637D01*
X0156918Y0115673D01*
X0156867Y0115706D01*
X0156815Y0115735D01*
X0156760Y0115762D01*
X0156705Y0115785D01*
X0156648Y0115805D01*
X0156589Y0115821D01*
X0156530Y0115834D01*
X0156471Y0115843D01*
X0156410Y0115848D01*
X0156350Y0115850D01*
X0155850Y0115850D01*
X0155790Y0115848D01*
X0155729Y0115843D01*
X0155670Y0115834D01*
X0155611Y0115821D01*
X0155552Y0115805D01*
X0155495Y0115785D01*
X0155440Y0115762D01*
X0155385Y0115735D01*
X0155333Y0115706D01*
X0155282Y0115673D01*
X0155233Y0115637D01*
X0155187Y0115599D01*
X0155143Y0115557D01*
X0155101Y0115513D01*
X0155063Y0115467D01*
X0155027Y0115418D01*
X0154994Y0115367D01*
X0154965Y0115315D01*
X0154938Y0115260D01*
X0154915Y0115205D01*
X0154895Y0115148D01*
X0154879Y0115089D01*
X0154866Y0115030D01*
X0154857Y0114971D01*
X0154852Y0114910D01*
X0154850Y0114850D01*
X0154850Y0113350D01*
X0152850Y0113350D01*
X0152850Y0115850D01*
X0152850Y0110100D02*
X0153850Y0108850D01*
M02*
