G75*
%MOIN*%
%OFA0B0*%
%FSLAX25Y25*%
%IPPOS*%
%LPD*%
%AMOC8*
5,1,8,0,0,1.08239X$1,22.5*
%
%ADD10C,0.00600*%
%ADD11R,0.01500X0.07000*%
%ADD12R,0.05500X0.02000*%
%ADD13C,0.01000*%
%ADD14C,0.02000*%
%ADD15R,0.42000X0.03000*%
%ADD16R,0.07500X0.02000*%
%ADD17R,0.03000X0.02000*%
%ADD18R,0.02000X0.10000*%
%ADD19R,0.07500X0.03000*%
D10*
X0138500Y0225000D02*
X0137500Y0226000D01*
X0137000Y0237500D01*
X0132000Y0245500D02*
X0132000Y0253000D01*
X0131874Y0253002D01*
X0131749Y0253008D01*
X0131624Y0253018D01*
X0131499Y0253032D01*
X0131374Y0253049D01*
X0131250Y0253071D01*
X0131127Y0253096D01*
X0131005Y0253126D01*
X0130884Y0253159D01*
X0130764Y0253196D01*
X0130645Y0253236D01*
X0130528Y0253281D01*
X0130411Y0253329D01*
X0130297Y0253381D01*
X0130184Y0253436D01*
X0130073Y0253495D01*
X0129964Y0253557D01*
X0129857Y0253623D01*
X0129752Y0253692D01*
X0129649Y0253764D01*
X0129548Y0253839D01*
X0129450Y0253918D01*
X0129355Y0254000D01*
X0129262Y0254084D01*
X0129172Y0254172D01*
X0129084Y0254262D01*
X0129000Y0254355D01*
X0128918Y0254450D01*
X0128839Y0254548D01*
X0128764Y0254649D01*
X0128692Y0254752D01*
X0128623Y0254857D01*
X0128557Y0254964D01*
X0128495Y0255073D01*
X0128436Y0255184D01*
X0128381Y0255297D01*
X0128329Y0255411D01*
X0128281Y0255528D01*
X0128236Y0255645D01*
X0128196Y0255764D01*
X0128159Y0255884D01*
X0128126Y0256005D01*
X0128096Y0256127D01*
X0128071Y0256250D01*
X0128049Y0256374D01*
X0128032Y0256499D01*
X0128018Y0256624D01*
X0128008Y0256749D01*
X0128002Y0256874D01*
X0128000Y0257000D01*
X0128002Y0257126D01*
X0128008Y0257251D01*
X0128018Y0257376D01*
X0128032Y0257501D01*
X0128049Y0257626D01*
X0128071Y0257750D01*
X0128096Y0257873D01*
X0128126Y0257995D01*
X0128159Y0258116D01*
X0128196Y0258236D01*
X0128236Y0258355D01*
X0128281Y0258472D01*
X0128329Y0258589D01*
X0128381Y0258703D01*
X0128436Y0258816D01*
X0128495Y0258927D01*
X0128557Y0259036D01*
X0128623Y0259143D01*
X0128692Y0259248D01*
X0128764Y0259351D01*
X0128839Y0259452D01*
X0128918Y0259550D01*
X0129000Y0259645D01*
X0129084Y0259738D01*
X0129172Y0259828D01*
X0129262Y0259916D01*
X0129355Y0260000D01*
X0129450Y0260082D01*
X0129548Y0260161D01*
X0129649Y0260236D01*
X0129752Y0260308D01*
X0129857Y0260377D01*
X0129964Y0260443D01*
X0130073Y0260505D01*
X0130184Y0260564D01*
X0130297Y0260619D01*
X0130411Y0260671D01*
X0130528Y0260719D01*
X0130645Y0260764D01*
X0130764Y0260804D01*
X0130884Y0260841D01*
X0131005Y0260874D01*
X0131127Y0260904D01*
X0131250Y0260929D01*
X0131374Y0260951D01*
X0131499Y0260968D01*
X0131624Y0260982D01*
X0131749Y0260992D01*
X0131874Y0260998D01*
X0132000Y0261000D01*
X0132000Y0268500D01*
X0112000Y0268500D01*
X0112000Y0245500D01*
X0132000Y0245500D01*
X0149000Y0242000D02*
X0149000Y0252000D01*
X0165000Y0252000D01*
X0165000Y0242000D01*
X0149000Y0242000D01*
X0154500Y0247000D02*
X0157000Y0247000D01*
X0157000Y0244500D01*
X0157000Y0247000D02*
X0157000Y0249500D01*
X0157000Y0247000D02*
X0161000Y0249500D01*
X0161000Y0244500D01*
X0157000Y0247000D01*
X0163000Y0247000D01*
X0177000Y0237500D02*
X0176500Y0226000D01*
X0175500Y0225000D01*
X0138500Y0225000D01*
X0138500Y0281000D02*
X0138500Y0282000D01*
X0139000Y0282500D01*
X0139000Y0291500D01*
X0138500Y0292000D01*
X0138500Y0293000D01*
X0138502Y0293060D01*
X0138507Y0293121D01*
X0138516Y0293180D01*
X0138529Y0293239D01*
X0138545Y0293298D01*
X0138565Y0293355D01*
X0138588Y0293410D01*
X0138615Y0293465D01*
X0138644Y0293517D01*
X0138677Y0293568D01*
X0138713Y0293617D01*
X0138751Y0293663D01*
X0138793Y0293707D01*
X0138837Y0293749D01*
X0138883Y0293787D01*
X0138932Y0293823D01*
X0138983Y0293856D01*
X0139035Y0293885D01*
X0139090Y0293912D01*
X0139145Y0293935D01*
X0139202Y0293955D01*
X0139261Y0293971D01*
X0139320Y0293984D01*
X0139379Y0293993D01*
X0139440Y0293998D01*
X0139500Y0294000D01*
X0144500Y0294000D02*
X0144560Y0293998D01*
X0144621Y0293993D01*
X0144680Y0293984D01*
X0144739Y0293971D01*
X0144798Y0293955D01*
X0144855Y0293935D01*
X0144910Y0293912D01*
X0144965Y0293885D01*
X0145017Y0293856D01*
X0145068Y0293823D01*
X0145117Y0293787D01*
X0145163Y0293749D01*
X0145207Y0293707D01*
X0145249Y0293663D01*
X0145287Y0293617D01*
X0145323Y0293568D01*
X0145356Y0293517D01*
X0145385Y0293465D01*
X0145412Y0293410D01*
X0145435Y0293355D01*
X0145455Y0293298D01*
X0145471Y0293239D01*
X0145484Y0293180D01*
X0145493Y0293121D01*
X0145498Y0293060D01*
X0145500Y0293000D01*
X0145500Y0292000D01*
X0145000Y0291500D01*
X0145000Y0282500D01*
X0145500Y0282000D01*
X0145500Y0281000D01*
X0145498Y0280940D01*
X0145493Y0280879D01*
X0145484Y0280820D01*
X0145471Y0280761D01*
X0145455Y0280702D01*
X0145435Y0280645D01*
X0145412Y0280590D01*
X0145385Y0280535D01*
X0145356Y0280483D01*
X0145323Y0280432D01*
X0145287Y0280383D01*
X0145249Y0280337D01*
X0145207Y0280293D01*
X0145163Y0280251D01*
X0145117Y0280213D01*
X0145068Y0280177D01*
X0145017Y0280144D01*
X0144965Y0280115D01*
X0144910Y0280088D01*
X0144855Y0280065D01*
X0144798Y0280045D01*
X0144739Y0280029D01*
X0144680Y0280016D01*
X0144621Y0280007D01*
X0144560Y0280002D01*
X0144500Y0280000D01*
X0148500Y0281000D02*
X0148500Y0282000D01*
X0149000Y0282500D01*
X0149000Y0291500D01*
X0148500Y0292000D01*
X0148500Y0293000D01*
X0148502Y0293060D01*
X0148507Y0293121D01*
X0148516Y0293180D01*
X0148529Y0293239D01*
X0148545Y0293298D01*
X0148565Y0293355D01*
X0148588Y0293410D01*
X0148615Y0293465D01*
X0148644Y0293517D01*
X0148677Y0293568D01*
X0148713Y0293617D01*
X0148751Y0293663D01*
X0148793Y0293707D01*
X0148837Y0293749D01*
X0148883Y0293787D01*
X0148932Y0293823D01*
X0148983Y0293856D01*
X0149035Y0293885D01*
X0149090Y0293912D01*
X0149145Y0293935D01*
X0149202Y0293955D01*
X0149261Y0293971D01*
X0149320Y0293984D01*
X0149379Y0293993D01*
X0149440Y0293998D01*
X0149500Y0294000D01*
X0154500Y0294000D02*
X0154560Y0293998D01*
X0154621Y0293993D01*
X0154680Y0293984D01*
X0154739Y0293971D01*
X0154798Y0293955D01*
X0154855Y0293935D01*
X0154910Y0293912D01*
X0154965Y0293885D01*
X0155017Y0293856D01*
X0155068Y0293823D01*
X0155117Y0293787D01*
X0155163Y0293749D01*
X0155207Y0293707D01*
X0155249Y0293663D01*
X0155287Y0293617D01*
X0155323Y0293568D01*
X0155356Y0293517D01*
X0155385Y0293465D01*
X0155412Y0293410D01*
X0155435Y0293355D01*
X0155455Y0293298D01*
X0155471Y0293239D01*
X0155484Y0293180D01*
X0155493Y0293121D01*
X0155498Y0293060D01*
X0155500Y0293000D01*
X0155500Y0292000D01*
X0155000Y0291500D01*
X0155000Y0282500D01*
X0155500Y0282000D01*
X0155500Y0281000D01*
X0155498Y0280940D01*
X0155493Y0280879D01*
X0155484Y0280820D01*
X0155471Y0280761D01*
X0155455Y0280702D01*
X0155435Y0280645D01*
X0155412Y0280590D01*
X0155385Y0280535D01*
X0155356Y0280483D01*
X0155323Y0280432D01*
X0155287Y0280383D01*
X0155249Y0280337D01*
X0155207Y0280293D01*
X0155163Y0280251D01*
X0155117Y0280213D01*
X0155068Y0280177D01*
X0155017Y0280144D01*
X0154965Y0280115D01*
X0154910Y0280088D01*
X0154855Y0280065D01*
X0154798Y0280045D01*
X0154739Y0280029D01*
X0154680Y0280016D01*
X0154621Y0280007D01*
X0154560Y0280002D01*
X0154500Y0280000D01*
X0149500Y0280000D02*
X0149440Y0280002D01*
X0149379Y0280007D01*
X0149320Y0280016D01*
X0149261Y0280029D01*
X0149202Y0280045D01*
X0149145Y0280065D01*
X0149090Y0280088D01*
X0149035Y0280115D01*
X0148983Y0280144D01*
X0148932Y0280177D01*
X0148883Y0280213D01*
X0148837Y0280251D01*
X0148793Y0280293D01*
X0148751Y0280337D01*
X0148713Y0280383D01*
X0148677Y0280432D01*
X0148644Y0280483D01*
X0148615Y0280535D01*
X0148588Y0280590D01*
X0148565Y0280645D01*
X0148545Y0280702D01*
X0148529Y0280761D01*
X0148516Y0280820D01*
X0148507Y0280879D01*
X0148502Y0280940D01*
X0148500Y0281000D01*
X0139500Y0280000D02*
X0139440Y0280002D01*
X0139379Y0280007D01*
X0139320Y0280016D01*
X0139261Y0280029D01*
X0139202Y0280045D01*
X0139145Y0280065D01*
X0139090Y0280088D01*
X0139035Y0280115D01*
X0138983Y0280144D01*
X0138932Y0280177D01*
X0138883Y0280213D01*
X0138837Y0280251D01*
X0138793Y0280293D01*
X0138751Y0280337D01*
X0138713Y0280383D01*
X0138677Y0280432D01*
X0138644Y0280483D01*
X0138615Y0280535D01*
X0138588Y0280590D01*
X0138565Y0280645D01*
X0138545Y0280702D01*
X0138529Y0280761D01*
X0138516Y0280820D01*
X0138507Y0280879D01*
X0138502Y0280940D01*
X0138500Y0281000D01*
X0128000Y0283500D02*
X0127000Y0283500D01*
X0126500Y0284000D01*
X0117500Y0284000D01*
X0117000Y0283500D01*
X0116000Y0283500D01*
X0115940Y0283502D01*
X0115879Y0283507D01*
X0115820Y0283516D01*
X0115761Y0283529D01*
X0115702Y0283545D01*
X0115645Y0283565D01*
X0115590Y0283588D01*
X0115535Y0283615D01*
X0115483Y0283644D01*
X0115432Y0283677D01*
X0115383Y0283713D01*
X0115337Y0283751D01*
X0115293Y0283793D01*
X0115251Y0283837D01*
X0115213Y0283883D01*
X0115177Y0283932D01*
X0115144Y0283983D01*
X0115115Y0284035D01*
X0115088Y0284090D01*
X0115065Y0284145D01*
X0115045Y0284202D01*
X0115029Y0284261D01*
X0115016Y0284320D01*
X0115007Y0284379D01*
X0115002Y0284440D01*
X0115000Y0284500D01*
X0115000Y0289500D02*
X0115002Y0289560D01*
X0115007Y0289621D01*
X0115016Y0289680D01*
X0115029Y0289739D01*
X0115045Y0289798D01*
X0115065Y0289855D01*
X0115088Y0289910D01*
X0115115Y0289965D01*
X0115144Y0290017D01*
X0115177Y0290068D01*
X0115213Y0290117D01*
X0115251Y0290163D01*
X0115293Y0290207D01*
X0115337Y0290249D01*
X0115383Y0290287D01*
X0115432Y0290323D01*
X0115483Y0290356D01*
X0115535Y0290385D01*
X0115590Y0290412D01*
X0115645Y0290435D01*
X0115702Y0290455D01*
X0115761Y0290471D01*
X0115820Y0290484D01*
X0115879Y0290493D01*
X0115940Y0290498D01*
X0116000Y0290500D01*
X0117000Y0290500D01*
X0117500Y0290000D01*
X0126500Y0290000D01*
X0127000Y0290500D01*
X0128000Y0290500D01*
X0128060Y0290498D01*
X0128121Y0290493D01*
X0128180Y0290484D01*
X0128239Y0290471D01*
X0128298Y0290455D01*
X0128355Y0290435D01*
X0128410Y0290412D01*
X0128465Y0290385D01*
X0128517Y0290356D01*
X0128568Y0290323D01*
X0128617Y0290287D01*
X0128663Y0290249D01*
X0128707Y0290207D01*
X0128749Y0290163D01*
X0128787Y0290117D01*
X0128823Y0290068D01*
X0128856Y0290017D01*
X0128885Y0289965D01*
X0128912Y0289910D01*
X0128935Y0289855D01*
X0128955Y0289798D01*
X0128971Y0289739D01*
X0128984Y0289680D01*
X0128993Y0289621D01*
X0128998Y0289560D01*
X0129000Y0289500D01*
X0128000Y0293500D02*
X0127000Y0293500D01*
X0126500Y0294000D01*
X0117500Y0294000D01*
X0117000Y0293500D01*
X0116000Y0293500D01*
X0115940Y0293502D01*
X0115879Y0293507D01*
X0115820Y0293516D01*
X0115761Y0293529D01*
X0115702Y0293545D01*
X0115645Y0293565D01*
X0115590Y0293588D01*
X0115535Y0293615D01*
X0115483Y0293644D01*
X0115432Y0293677D01*
X0115383Y0293713D01*
X0115337Y0293751D01*
X0115293Y0293793D01*
X0115251Y0293837D01*
X0115213Y0293883D01*
X0115177Y0293932D01*
X0115144Y0293983D01*
X0115115Y0294035D01*
X0115088Y0294090D01*
X0115065Y0294145D01*
X0115045Y0294202D01*
X0115029Y0294261D01*
X0115016Y0294320D01*
X0115007Y0294379D01*
X0115002Y0294440D01*
X0115000Y0294500D01*
X0115000Y0299500D02*
X0115002Y0299560D01*
X0115007Y0299621D01*
X0115016Y0299680D01*
X0115029Y0299739D01*
X0115045Y0299798D01*
X0115065Y0299855D01*
X0115088Y0299910D01*
X0115115Y0299965D01*
X0115144Y0300017D01*
X0115177Y0300068D01*
X0115213Y0300117D01*
X0115251Y0300163D01*
X0115293Y0300207D01*
X0115337Y0300249D01*
X0115383Y0300287D01*
X0115432Y0300323D01*
X0115483Y0300356D01*
X0115535Y0300385D01*
X0115590Y0300412D01*
X0115645Y0300435D01*
X0115702Y0300455D01*
X0115761Y0300471D01*
X0115820Y0300484D01*
X0115879Y0300493D01*
X0115940Y0300498D01*
X0116000Y0300500D01*
X0117000Y0300500D01*
X0117500Y0300000D01*
X0126500Y0300000D01*
X0127000Y0300500D01*
X0128000Y0300500D01*
X0128060Y0300498D01*
X0128121Y0300493D01*
X0128180Y0300484D01*
X0128239Y0300471D01*
X0128298Y0300455D01*
X0128355Y0300435D01*
X0128410Y0300412D01*
X0128465Y0300385D01*
X0128517Y0300356D01*
X0128568Y0300323D01*
X0128617Y0300287D01*
X0128663Y0300249D01*
X0128707Y0300207D01*
X0128749Y0300163D01*
X0128787Y0300117D01*
X0128823Y0300068D01*
X0128856Y0300017D01*
X0128885Y0299965D01*
X0128912Y0299910D01*
X0128935Y0299855D01*
X0128955Y0299798D01*
X0128971Y0299739D01*
X0128984Y0299680D01*
X0128993Y0299621D01*
X0128998Y0299560D01*
X0129000Y0299500D01*
X0129000Y0294500D02*
X0128998Y0294440D01*
X0128993Y0294379D01*
X0128984Y0294320D01*
X0128971Y0294261D01*
X0128955Y0294202D01*
X0128935Y0294145D01*
X0128912Y0294090D01*
X0128885Y0294035D01*
X0128856Y0293983D01*
X0128823Y0293932D01*
X0128787Y0293883D01*
X0128749Y0293837D01*
X0128707Y0293793D01*
X0128663Y0293751D01*
X0128617Y0293713D01*
X0128568Y0293677D01*
X0128517Y0293644D01*
X0128465Y0293615D01*
X0128410Y0293588D01*
X0128355Y0293565D01*
X0128298Y0293545D01*
X0128239Y0293529D01*
X0128180Y0293516D01*
X0128121Y0293507D01*
X0128060Y0293502D01*
X0128000Y0293500D01*
X0129000Y0284500D02*
X0128998Y0284440D01*
X0128993Y0284379D01*
X0128984Y0284320D01*
X0128971Y0284261D01*
X0128955Y0284202D01*
X0128935Y0284145D01*
X0128912Y0284090D01*
X0128885Y0284035D01*
X0128856Y0283983D01*
X0128823Y0283932D01*
X0128787Y0283883D01*
X0128749Y0283837D01*
X0128707Y0283793D01*
X0128663Y0283751D01*
X0128617Y0283713D01*
X0128568Y0283677D01*
X0128517Y0283644D01*
X0128465Y0283615D01*
X0128410Y0283588D01*
X0128355Y0283565D01*
X0128298Y0283545D01*
X0128239Y0283529D01*
X0128180Y0283516D01*
X0128121Y0283507D01*
X0128060Y0283502D01*
X0128000Y0283500D01*
X0151000Y0303500D02*
X0151000Y0310500D01*
X0163000Y0310500D01*
X0163000Y0303500D01*
X0151000Y0303500D01*
X0155000Y0307000D02*
X0156500Y0307000D01*
X0156500Y0309000D01*
X0157500Y0309000D01*
X0156500Y0307000D02*
X0156500Y0305000D01*
X0156500Y0307000D02*
X0160500Y0309000D01*
X0160500Y0305000D01*
X0156500Y0307000D01*
X0162000Y0307000D01*
D11*
X0153250Y0307000D03*
D12*
X0148250Y0307000D03*
X0165750Y0307000D03*
D13*
X0092000Y0227000D02*
X0092000Y0219500D01*
X0112000Y0219500D01*
X0112000Y0227000D01*
X0092000Y0227000D01*
X0092000Y0244500D01*
X0112000Y0244500D01*
X0112000Y0227000D01*
X0139500Y0252000D02*
X0139500Y0272000D01*
X0157000Y0272000D01*
X0157000Y0252000D01*
X0139500Y0252000D01*
X0157000Y0252000D02*
X0164500Y0252000D01*
X0164500Y0272000D01*
X0157000Y0272000D01*
X0164500Y0252000D02*
X0164500Y0302000D01*
X0182000Y0302000D01*
X0182000Y0252000D01*
X0164500Y0252000D01*
X0182000Y0252000D02*
X0189500Y0252000D01*
X0189500Y0302000D01*
X0182000Y0302000D01*
X0112000Y0302000D02*
X0112000Y0294500D01*
X0092000Y0294500D01*
X0092000Y0302000D01*
X0112000Y0302000D01*
X0112000Y0319500D01*
X0092000Y0319500D01*
X0092000Y0302000D01*
D14*
X0139300Y0227400D03*
D15*
X0157000Y0240500D03*
D16*
X0139750Y0238000D03*
X0174250Y0238000D03*
D17*
X0162000Y0238000D03*
X0152000Y0238000D03*
D18*
X0151500Y0247000D03*
D19*
X0145250Y0247000D03*
X0168750Y0247000D03*
M02*
