G75*
%MOIN*%
%OFA0B0*%
%FSLAX25Y25*%
%IPPOS*%
%LPD*%
%AMOC8*
5,1,8,0,0,1.08239X$1,22.5*
%
%ADD10C,0.05200*%
%ADD11OC8,0.05200*%
%ADD12C,0.05937*%
%ADD13C,0.06000*%
%ADD14C,0.06600*%
%ADD15C,0.02000*%
D10*
X0117000Y0236800D02*
X0117000Y0242000D01*
X0127000Y0242000D02*
X0127000Y0236800D01*
X0127000Y0272000D02*
X0127000Y0277200D01*
X0117000Y0277200D02*
X0117000Y0272000D01*
X0139400Y0307000D02*
X0144600Y0307000D01*
X0169400Y0307000D02*
X0174600Y0307000D01*
D11*
X0152000Y0297000D03*
X0142000Y0297000D03*
X0132000Y0297000D03*
X0132000Y0287000D03*
X0142000Y0277000D03*
X0152000Y0277000D03*
X0112000Y0287000D03*
X0112000Y0297000D03*
D12*
X0107000Y0304031D02*
X0107000Y0309969D01*
X0097000Y0309969D02*
X0097000Y0304031D01*
X0149031Y0267000D02*
X0154969Y0267000D01*
X0154969Y0257000D02*
X0149031Y0257000D01*
X0174031Y0257000D02*
X0179969Y0257000D01*
X0179969Y0267000D02*
X0174031Y0267000D01*
X0174031Y0277000D02*
X0179969Y0277000D01*
X0179969Y0287000D02*
X0174031Y0287000D01*
X0174031Y0297000D02*
X0179969Y0297000D01*
X0107000Y0234969D02*
X0107000Y0229031D01*
X0097000Y0229031D02*
X0097000Y0234969D01*
D13*
X0127000Y0242000D02*
X0132000Y0247000D01*
X0137000Y0247000D01*
X0137000Y0262000D01*
X0142000Y0267000D01*
X0152000Y0267000D01*
X0177000Y0267000D01*
X0157000Y0252000D02*
X0157000Y0242000D01*
X0162000Y0247000D01*
X0157000Y0252000D01*
X0152000Y0257000D01*
X0152000Y0247000D01*
X0157000Y0242000D01*
X0157000Y0232000D01*
X0157000Y0242000D01*
X0162000Y0247000D02*
X0177000Y0247000D01*
X0167000Y0235000D02*
X0167000Y0229000D01*
X0157000Y0229000D02*
X0157000Y0235000D01*
X0147000Y0235000D02*
X0147000Y0229000D01*
X0137000Y0247000D02*
X0132000Y0252000D01*
X0132000Y0257000D01*
X0127000Y0252000D01*
X0127000Y0247000D01*
X0132000Y0247000D01*
X0127000Y0247000D02*
X0127000Y0242000D01*
X0132000Y0257000D02*
X0137000Y0262000D01*
D14*
X0137000Y0247000D03*
X0177000Y0247000D03*
D15*
X0092000Y0222000D02*
X0092000Y0311961D01*
X0092439Y0311961D01*
X0092396Y0311876D01*
X0092154Y0311132D01*
X0092031Y0310360D01*
X0092031Y0307000D01*
X0092031Y0303640D01*
X0092154Y0302868D01*
X0092396Y0302124D01*
X0092751Y0301427D01*
X0093210Y0300795D01*
X0093763Y0300242D01*
X0094396Y0299782D01*
X0095093Y0299427D01*
X0095837Y0299185D01*
X0096609Y0299063D01*
X0097000Y0299063D01*
X0097391Y0299063D01*
X0098163Y0299185D01*
X0098907Y0299427D01*
X0099604Y0299782D01*
X0100237Y0300242D01*
X0100790Y0300795D01*
X0101249Y0301427D01*
X0101604Y0302124D01*
X0101846Y0302868D01*
X0101968Y0303640D01*
X0101968Y0307000D01*
X0101968Y0310360D01*
X0101846Y0311132D01*
X0101604Y0311876D01*
X0101561Y0311961D01*
X0102439Y0311961D01*
X0102396Y0311876D01*
X0102154Y0311132D01*
X0102031Y0310360D01*
X0102031Y0307000D01*
X0102031Y0303640D01*
X0102154Y0302868D01*
X0102396Y0302124D01*
X0102751Y0301427D01*
X0103210Y0300795D01*
X0103763Y0300242D01*
X0104396Y0299782D01*
X0104966Y0299492D01*
X0100187Y0294713D01*
X0099287Y0293813D01*
X0098800Y0292637D01*
X0098800Y0281363D01*
X0099287Y0280187D01*
X0103800Y0275675D01*
X0103800Y0266363D01*
X0104287Y0265187D01*
X0113800Y0255675D01*
X0113800Y0245588D01*
X0112931Y0244719D01*
X0112200Y0242955D01*
X0112200Y0235845D01*
X0112931Y0234081D01*
X0113800Y0233212D01*
X0113800Y0231363D01*
X0114287Y0230187D01*
X0119287Y0225187D01*
X0120187Y0224287D01*
X0121363Y0223800D01*
X0142637Y0223800D01*
X0143813Y0224287D01*
X0144099Y0224573D01*
X0145966Y0223800D01*
X0148034Y0223800D01*
X0149946Y0224592D01*
X0151408Y0226054D01*
X0152000Y0227483D01*
X0152592Y0226054D01*
X0154054Y0224592D01*
X0155966Y0223800D01*
X0158034Y0223800D01*
X0159946Y0224592D01*
X0161408Y0226054D01*
X0162132Y0227802D01*
X0162366Y0227081D01*
X0162724Y0226379D01*
X0163186Y0225743D01*
X0163743Y0225186D01*
X0164379Y0224724D01*
X0165081Y0224366D01*
X0165829Y0224123D01*
X0166606Y0224000D01*
X0167000Y0224000D01*
X0167394Y0224000D01*
X0168171Y0224123D01*
X0168919Y0224366D01*
X0169621Y0224724D01*
X0170257Y0225186D01*
X0170814Y0225743D01*
X0171276Y0226379D01*
X0171634Y0227081D01*
X0171877Y0227829D01*
X0172000Y0228606D01*
X0172000Y0232000D01*
X0172000Y0235394D01*
X0171877Y0236171D01*
X0171634Y0236919D01*
X0171276Y0237621D01*
X0170814Y0238257D01*
X0170257Y0238814D01*
X0169621Y0239276D01*
X0168919Y0239634D01*
X0168171Y0239877D01*
X0167394Y0240000D01*
X0167000Y0240000D01*
X0167000Y0232000D01*
X0167000Y0232000D01*
X0172000Y0232000D01*
X0167000Y0232000D01*
X0167000Y0232000D01*
X0167000Y0240000D01*
X0166606Y0240000D01*
X0165829Y0239877D01*
X0165081Y0239634D01*
X0164379Y0239276D01*
X0163743Y0238814D01*
X0163186Y0238257D01*
X0162724Y0237621D01*
X0162366Y0236919D01*
X0162200Y0236407D01*
X0162200Y0239846D01*
X0164154Y0241800D01*
X0175182Y0241800D01*
X0175906Y0241500D01*
X0178094Y0241500D01*
X0180115Y0242337D01*
X0181663Y0243884D01*
X0182500Y0245906D01*
X0182500Y0248094D01*
X0181663Y0250115D01*
X0180115Y0251663D01*
X0179225Y0252031D01*
X0180360Y0252031D01*
X0181132Y0252154D01*
X0181876Y0252396D01*
X0182573Y0252751D01*
X0183205Y0253210D01*
X0183758Y0253763D01*
X0184218Y0254396D01*
X0184573Y0255093D01*
X0184815Y0255837D01*
X0184937Y0256609D01*
X0184937Y0257000D01*
X0184937Y0257391D01*
X0184815Y0258163D01*
X0184573Y0258907D01*
X0184218Y0259604D01*
X0183758Y0260237D01*
X0183205Y0260790D01*
X0182573Y0261249D01*
X0181876Y0261604D01*
X0181132Y0261846D01*
X0181060Y0261858D01*
X0182896Y0262618D01*
X0184350Y0264072D01*
X0185137Y0265972D01*
X0185137Y0268028D01*
X0184350Y0269928D01*
X0182896Y0271382D01*
X0181403Y0272000D01*
X0182896Y0272618D01*
X0184350Y0274072D01*
X0185137Y0275972D01*
X0185137Y0278028D01*
X0184350Y0279928D01*
X0182896Y0281382D01*
X0181403Y0282000D01*
X0182896Y0282618D01*
X0184350Y0284072D01*
X0185137Y0285972D01*
X0185137Y0288028D01*
X0184350Y0289928D01*
X0182896Y0291382D01*
X0181403Y0292000D01*
X0182896Y0292618D01*
X0184350Y0294072D01*
X0185137Y0295972D01*
X0185137Y0298028D01*
X0184350Y0299928D01*
X0182896Y0301382D01*
X0180997Y0302168D01*
X0173003Y0302168D01*
X0171104Y0301382D01*
X0169922Y0300200D01*
X0155588Y0300200D01*
X0153988Y0301800D01*
X0150012Y0301800D01*
X0148412Y0300200D01*
X0145588Y0300200D01*
X0145200Y0300588D01*
X0145200Y0302200D01*
X0145555Y0302200D01*
X0147319Y0302931D01*
X0148669Y0304281D01*
X0149400Y0306045D01*
X0149400Y0307955D01*
X0148669Y0309719D01*
X0147319Y0311069D01*
X0145555Y0311800D01*
X0138445Y0311800D01*
X0136681Y0311069D01*
X0135331Y0309719D01*
X0134600Y0307955D01*
X0134600Y0306045D01*
X0135331Y0304281D01*
X0136681Y0302931D01*
X0138445Y0302200D01*
X0138800Y0302200D01*
X0138800Y0300588D01*
X0137200Y0298988D01*
X0137200Y0295012D01*
X0140012Y0292200D01*
X0143988Y0292200D01*
X0145588Y0293800D01*
X0148412Y0293800D01*
X0150012Y0292200D01*
X0153988Y0292200D01*
X0155588Y0293800D01*
X0169922Y0293800D01*
X0171104Y0292618D01*
X0172597Y0292000D01*
X0171104Y0291382D01*
X0169922Y0290200D01*
X0135588Y0290200D01*
X0133988Y0291800D01*
X0130012Y0291800D01*
X0127200Y0288988D01*
X0127200Y0286325D01*
X0123813Y0289713D01*
X0122637Y0290200D01*
X0115588Y0290200D01*
X0113988Y0291800D01*
X0110012Y0291800D01*
X0107200Y0288988D01*
X0107200Y0285012D01*
X0110012Y0282200D01*
X0113988Y0282200D01*
X0115588Y0283800D01*
X0120675Y0283800D01*
X0123743Y0280731D01*
X0122931Y0279919D01*
X0122200Y0278155D01*
X0122200Y0271045D01*
X0122931Y0269281D01*
X0124281Y0267931D01*
X0126045Y0267200D01*
X0127955Y0267200D01*
X0129719Y0267931D01*
X0131069Y0269281D01*
X0131800Y0271045D01*
X0131800Y0278155D01*
X0131069Y0279919D01*
X0130200Y0280788D01*
X0130200Y0282200D01*
X0133988Y0282200D01*
X0135588Y0283800D01*
X0169922Y0283800D01*
X0171104Y0282618D01*
X0172597Y0282000D01*
X0171104Y0281382D01*
X0169922Y0280200D01*
X0155588Y0280200D01*
X0153988Y0281800D01*
X0150012Y0281800D01*
X0147200Y0278988D01*
X0147200Y0275012D01*
X0150012Y0272200D01*
X0153988Y0272200D01*
X0155588Y0273800D01*
X0169922Y0273800D01*
X0171104Y0272618D01*
X0172114Y0272200D01*
X0140966Y0272200D01*
X0139054Y0271408D01*
X0134054Y0266408D01*
X0132592Y0264946D01*
X0132592Y0264946D01*
X0129054Y0261408D01*
X0127592Y0259946D01*
X0127592Y0259946D01*
X0124054Y0256408D01*
X0122592Y0254946D01*
X0121800Y0253034D01*
X0121800Y0240966D01*
X0122200Y0240000D01*
X0122200Y0235845D01*
X0122931Y0234081D01*
X0124281Y0232731D01*
X0126045Y0232000D01*
X0127955Y0232000D01*
X0129719Y0232731D01*
X0131069Y0234081D01*
X0131800Y0235845D01*
X0131800Y0239446D01*
X0134154Y0241800D01*
X0135182Y0241800D01*
X0135906Y0241500D01*
X0138094Y0241500D01*
X0140115Y0242337D01*
X0141663Y0243884D01*
X0142500Y0245906D01*
X0142500Y0248094D01*
X0142200Y0248818D01*
X0142200Y0259846D01*
X0144154Y0261800D01*
X0147114Y0261800D01*
X0146104Y0261382D01*
X0144650Y0259928D01*
X0143863Y0258028D01*
X0143863Y0255972D01*
X0144650Y0254072D01*
X0146104Y0252618D01*
X0146800Y0252330D01*
X0146800Y0245966D01*
X0147592Y0244054D01*
X0151800Y0239846D01*
X0151800Y0237000D01*
X0151408Y0237946D01*
X0149946Y0239408D01*
X0148034Y0240200D01*
X0145966Y0240200D01*
X0144054Y0239408D01*
X0142592Y0237946D01*
X0141800Y0236034D01*
X0141800Y0231325D01*
X0140675Y0230200D01*
X0123325Y0230200D01*
X0120257Y0233269D01*
X0121069Y0234081D01*
X0121800Y0235845D01*
X0121800Y0242955D01*
X0121069Y0244719D01*
X0120200Y0245588D01*
X0120200Y0257637D01*
X0119713Y0258813D01*
X0110200Y0268325D01*
X0110200Y0277637D01*
X0109713Y0278813D01*
X0108813Y0279713D01*
X0105200Y0283325D01*
X0105200Y0290675D01*
X0108325Y0293800D01*
X0108412Y0293800D01*
X0110012Y0292200D01*
X0113988Y0292200D01*
X0116800Y0295012D01*
X0116800Y0298988D01*
X0113988Y0301800D01*
X0111439Y0301800D01*
X0111604Y0302124D01*
X0111846Y0302868D01*
X0111968Y0303640D01*
X0111968Y0307000D01*
X0111968Y0310360D01*
X0111846Y0311132D01*
X0111604Y0311876D01*
X0111561Y0311961D01*
X0185701Y0311961D01*
X0185701Y0222000D01*
X0092000Y0222000D01*
X0092000Y0223835D02*
X0121280Y0223835D01*
X0122000Y0227000D02*
X0142000Y0227000D01*
X0147000Y0232000D01*
X0141800Y0231829D02*
X0121697Y0231829D01*
X0120816Y0233827D02*
X0123184Y0233827D01*
X0122208Y0235826D02*
X0121792Y0235826D01*
X0121800Y0237824D02*
X0122200Y0237824D01*
X0122200Y0239823D02*
X0121800Y0239823D01*
X0121800Y0241821D02*
X0121800Y0241821D01*
X0121800Y0243820D02*
X0121442Y0243820D01*
X0121800Y0245818D02*
X0120200Y0245818D01*
X0120200Y0247817D02*
X0121800Y0247817D01*
X0121800Y0249815D02*
X0120200Y0249815D01*
X0120200Y0251814D02*
X0121800Y0251814D01*
X0122122Y0253812D02*
X0120200Y0253812D01*
X0120200Y0255811D02*
X0123457Y0255811D01*
X0125456Y0257809D02*
X0120128Y0257809D01*
X0118718Y0259808D02*
X0127454Y0259808D01*
X0129054Y0261408D02*
X0129054Y0261408D01*
X0129453Y0261806D02*
X0116719Y0261806D01*
X0114720Y0263805D02*
X0131451Y0263805D01*
X0133450Y0265803D02*
X0112722Y0265803D01*
X0110723Y0267802D02*
X0115107Y0267802D01*
X0115234Y0267737D02*
X0115923Y0267513D01*
X0116638Y0267400D01*
X0117000Y0267400D01*
X0117362Y0267400D01*
X0118077Y0267513D01*
X0118766Y0267737D01*
X0119411Y0268066D01*
X0119997Y0268491D01*
X0120509Y0269003D01*
X0120934Y0269589D01*
X0121263Y0270234D01*
X0121487Y0270923D01*
X0121600Y0271638D01*
X0121600Y0272000D01*
X0121600Y0277562D01*
X0121487Y0278277D01*
X0121263Y0278966D01*
X0120934Y0279611D01*
X0120509Y0280197D01*
X0119997Y0280709D01*
X0119411Y0281134D01*
X0118766Y0281463D01*
X0118077Y0281687D01*
X0117362Y0281800D01*
X0117000Y0281800D01*
X0117000Y0272000D01*
X0121600Y0272000D01*
X0117000Y0272000D01*
X0117000Y0272000D01*
X0117000Y0272000D01*
X0117000Y0267400D01*
X0117000Y0272000D01*
X0117000Y0272000D01*
X0117000Y0272000D01*
X0112400Y0272000D01*
X0112400Y0277562D01*
X0112513Y0278277D01*
X0112737Y0278966D01*
X0113066Y0279611D01*
X0113491Y0280197D01*
X0114003Y0280709D01*
X0114589Y0281134D01*
X0115234Y0281463D01*
X0115923Y0281687D01*
X0116638Y0281800D01*
X0117000Y0281800D01*
X0117000Y0272000D01*
X0112400Y0272000D01*
X0112400Y0271638D01*
X0112513Y0270923D01*
X0112737Y0270234D01*
X0113066Y0269589D01*
X0113491Y0269003D01*
X0114003Y0268491D01*
X0114589Y0268066D01*
X0115234Y0267737D01*
X0117000Y0267802D02*
X0117000Y0267802D01*
X0118893Y0267802D02*
X0124592Y0267802D01*
X0122716Y0269801D02*
X0121042Y0269801D01*
X0121600Y0271799D02*
X0122200Y0271799D01*
X0122200Y0273798D02*
X0121600Y0273798D01*
X0121600Y0275796D02*
X0122200Y0275796D01*
X0122200Y0277795D02*
X0121563Y0277795D01*
X0120802Y0279793D02*
X0122879Y0279793D01*
X0122683Y0281792D02*
X0117415Y0281792D01*
X0117000Y0281792D02*
X0117000Y0281792D01*
X0116585Y0281792D02*
X0106734Y0281792D01*
X0105200Y0283790D02*
X0108422Y0283790D01*
X0107200Y0285789D02*
X0105200Y0285789D01*
X0105200Y0287787D02*
X0107200Y0287787D01*
X0107997Y0289786D02*
X0105200Y0289786D01*
X0106310Y0291784D02*
X0109996Y0291784D01*
X0108429Y0293783D02*
X0108308Y0293783D01*
X0107000Y0297000D02*
X0102000Y0292000D01*
X0102000Y0282000D01*
X0107000Y0277000D01*
X0107000Y0267000D01*
X0117000Y0257000D01*
X0117000Y0242000D01*
X0117000Y0232000D01*
X0122000Y0227000D01*
X0118641Y0225833D02*
X0110818Y0225833D01*
X0110790Y0225795D02*
X0111249Y0226427D01*
X0111604Y0227124D01*
X0111846Y0227868D01*
X0111968Y0228640D01*
X0111968Y0232000D01*
X0111968Y0235360D01*
X0111846Y0236132D01*
X0111604Y0236876D01*
X0111249Y0237573D01*
X0110790Y0238205D01*
X0110237Y0238758D01*
X0109604Y0239218D01*
X0108907Y0239573D01*
X0108163Y0239815D01*
X0107391Y0239937D01*
X0107000Y0239937D01*
X0107000Y0232000D01*
X0107000Y0232000D01*
X0111968Y0232000D01*
X0107000Y0232000D01*
X0107000Y0232000D01*
X0107000Y0232000D01*
X0102031Y0232000D01*
X0102031Y0228640D01*
X0102154Y0227868D01*
X0102396Y0227124D01*
X0102751Y0226427D01*
X0103210Y0225795D01*
X0103763Y0225242D01*
X0104396Y0224782D01*
X0105093Y0224427D01*
X0105837Y0224185D01*
X0106609Y0224063D01*
X0107000Y0224063D01*
X0107391Y0224063D01*
X0108163Y0224185D01*
X0108907Y0224427D01*
X0109604Y0224782D01*
X0110237Y0225242D01*
X0110790Y0225795D01*
X0111834Y0227832D02*
X0116643Y0227832D01*
X0114644Y0229830D02*
X0111968Y0229830D01*
X0111968Y0231829D02*
X0113800Y0231829D01*
X0113184Y0233827D02*
X0111968Y0233827D01*
X0111895Y0235826D02*
X0112208Y0235826D01*
X0112200Y0237824D02*
X0111067Y0237824D01*
X0112200Y0239823D02*
X0108112Y0239823D01*
X0107000Y0239823D02*
X0107000Y0239823D01*
X0107000Y0239937D02*
X0106609Y0239937D01*
X0105837Y0239815D01*
X0105093Y0239573D01*
X0104396Y0239218D01*
X0103763Y0238758D01*
X0103210Y0238205D01*
X0102751Y0237573D01*
X0102396Y0236876D01*
X0102154Y0236132D01*
X0102031Y0235360D01*
X0102031Y0232000D01*
X0107000Y0232000D01*
X0107000Y0239937D01*
X0105888Y0239823D02*
X0098112Y0239823D01*
X0098163Y0239815D02*
X0097391Y0239937D01*
X0097000Y0239937D01*
X0097000Y0232000D01*
X0097000Y0232000D01*
X0101968Y0232000D01*
X0101968Y0235360D01*
X0101846Y0236132D01*
X0101604Y0236876D01*
X0101249Y0237573D01*
X0100790Y0238205D01*
X0100237Y0238758D01*
X0099604Y0239218D01*
X0098907Y0239573D01*
X0098163Y0239815D01*
X0097000Y0239823D02*
X0097000Y0239823D01*
X0097000Y0239937D02*
X0096609Y0239937D01*
X0095837Y0239815D01*
X0095093Y0239573D01*
X0094396Y0239218D01*
X0093763Y0238758D01*
X0093210Y0238205D01*
X0092751Y0237573D01*
X0092396Y0236876D01*
X0092154Y0236132D01*
X0092031Y0235360D01*
X0092031Y0232000D01*
X0092031Y0228640D01*
X0092154Y0227868D01*
X0092396Y0227124D01*
X0092751Y0226427D01*
X0093210Y0225795D01*
X0093763Y0225242D01*
X0094396Y0224782D01*
X0095093Y0224427D01*
X0095837Y0224185D01*
X0096609Y0224063D01*
X0097000Y0224063D01*
X0097391Y0224063D01*
X0098163Y0224185D01*
X0098907Y0224427D01*
X0099604Y0224782D01*
X0100237Y0225242D01*
X0100790Y0225795D01*
X0101249Y0226427D01*
X0101604Y0227124D01*
X0101846Y0227868D01*
X0101968Y0228640D01*
X0101968Y0232000D01*
X0097000Y0232000D01*
X0097000Y0232000D01*
X0097000Y0232000D01*
X0092031Y0232000D01*
X0097000Y0232000D01*
X0097000Y0239937D01*
X0095888Y0239823D02*
X0092000Y0239823D01*
X0092000Y0241821D02*
X0112200Y0241821D01*
X0112558Y0243820D02*
X0092000Y0243820D01*
X0092000Y0245818D02*
X0113800Y0245818D01*
X0113800Y0247817D02*
X0092000Y0247817D01*
X0092000Y0249815D02*
X0113800Y0249815D01*
X0113800Y0251814D02*
X0092000Y0251814D01*
X0092000Y0253812D02*
X0113800Y0253812D01*
X0113664Y0255811D02*
X0092000Y0255811D01*
X0092000Y0257809D02*
X0111665Y0257809D01*
X0109667Y0259808D02*
X0092000Y0259808D01*
X0092000Y0261806D02*
X0107668Y0261806D01*
X0105670Y0263805D02*
X0092000Y0263805D01*
X0092000Y0265803D02*
X0104032Y0265803D01*
X0103800Y0267802D02*
X0092000Y0267802D01*
X0092000Y0269801D02*
X0103800Y0269801D01*
X0103800Y0271799D02*
X0092000Y0271799D01*
X0092000Y0273798D02*
X0103800Y0273798D01*
X0103678Y0275796D02*
X0092000Y0275796D01*
X0092000Y0277795D02*
X0101680Y0277795D01*
X0099681Y0279793D02*
X0092000Y0279793D01*
X0092000Y0281792D02*
X0098800Y0281792D01*
X0098800Y0283790D02*
X0092000Y0283790D01*
X0092000Y0285789D02*
X0098800Y0285789D01*
X0098800Y0287787D02*
X0092000Y0287787D01*
X0092000Y0289786D02*
X0098800Y0289786D01*
X0098800Y0291784D02*
X0092000Y0291784D01*
X0092000Y0293783D02*
X0099275Y0293783D01*
X0101256Y0295781D02*
X0092000Y0295781D01*
X0092000Y0297780D02*
X0103254Y0297780D01*
X0104404Y0299778D02*
X0099596Y0299778D01*
X0097000Y0299778D02*
X0097000Y0299778D01*
X0097000Y0299063D02*
X0097000Y0307000D01*
X0101968Y0307000D01*
X0097000Y0307000D01*
X0097000Y0307000D01*
X0097000Y0307000D01*
X0097000Y0307000D01*
X0092031Y0307000D01*
X0097000Y0307000D01*
X0097000Y0299063D01*
X0094404Y0299778D02*
X0092000Y0299778D01*
X0092000Y0301777D02*
X0092573Y0301777D01*
X0092031Y0303775D02*
X0092000Y0303775D01*
X0092000Y0305774D02*
X0092031Y0305774D01*
X0092000Y0307772D02*
X0092031Y0307772D01*
X0092000Y0309771D02*
X0092031Y0309771D01*
X0092000Y0311769D02*
X0092361Y0311769D01*
X0097000Y0305774D02*
X0097000Y0305774D01*
X0097000Y0303775D02*
X0097000Y0303775D01*
X0097000Y0301777D02*
X0097000Y0301777D01*
X0101427Y0301777D02*
X0102573Y0301777D01*
X0102031Y0303775D02*
X0101968Y0303775D01*
X0101968Y0305774D02*
X0102031Y0305774D01*
X0102031Y0307000D02*
X0107000Y0307000D01*
X0111968Y0307000D01*
X0107000Y0307000D01*
X0107000Y0307000D01*
X0107000Y0307000D01*
X0102031Y0307000D01*
X0102031Y0307772D02*
X0101968Y0307772D01*
X0101968Y0309771D02*
X0102031Y0309771D01*
X0102361Y0311769D02*
X0101639Y0311769D01*
X0111639Y0311769D02*
X0138371Y0311769D01*
X0135383Y0309771D02*
X0111968Y0309771D01*
X0111968Y0307772D02*
X0134600Y0307772D01*
X0134712Y0305774D02*
X0111968Y0305774D01*
X0111968Y0303775D02*
X0135837Y0303775D01*
X0133905Y0301600D02*
X0132000Y0301600D01*
X0132000Y0297000D01*
X0136600Y0297000D01*
X0136600Y0298905D01*
X0133905Y0301600D01*
X0132000Y0301600D02*
X0130095Y0301600D01*
X0127400Y0298905D01*
X0127400Y0297000D01*
X0132000Y0297000D01*
X0132000Y0297000D01*
X0132000Y0297000D01*
X0132000Y0297000D01*
X0132000Y0301600D01*
X0132000Y0299778D02*
X0132000Y0299778D01*
X0132000Y0297780D02*
X0132000Y0297780D01*
X0132000Y0297000D02*
X0136600Y0297000D01*
X0136600Y0295095D01*
X0133905Y0292400D01*
X0132000Y0292400D01*
X0132000Y0297000D01*
X0132000Y0297000D01*
X0132000Y0292400D01*
X0130095Y0292400D01*
X0127400Y0295095D01*
X0127400Y0297000D01*
X0132000Y0297000D01*
X0132000Y0295781D02*
X0132000Y0295781D01*
X0132000Y0293783D02*
X0132000Y0293783D01*
X0134004Y0291784D02*
X0172076Y0291784D01*
X0169939Y0293783D02*
X0155571Y0293783D01*
X0152000Y0297000D02*
X0177000Y0297000D01*
X0175677Y0302513D02*
X0174962Y0302400D01*
X0172000Y0302400D01*
X0172000Y0307000D01*
X0172000Y0307000D01*
X0172000Y0311600D01*
X0174962Y0311600D01*
X0175677Y0311487D01*
X0176366Y0311263D01*
X0177011Y0310934D01*
X0177597Y0310509D01*
X0178109Y0309997D01*
X0178534Y0309411D01*
X0178863Y0308766D01*
X0179087Y0308077D01*
X0179200Y0307362D01*
X0179200Y0307000D01*
X0172000Y0307000D01*
X0172000Y0307000D01*
X0172000Y0307000D01*
X0172000Y0307000D01*
X0164800Y0307000D01*
X0164800Y0307362D01*
X0164913Y0308077D01*
X0165137Y0308766D01*
X0165466Y0309411D01*
X0165891Y0309997D01*
X0166403Y0310509D01*
X0166989Y0310934D01*
X0167634Y0311263D01*
X0168323Y0311487D01*
X0169038Y0311600D01*
X0172000Y0311600D01*
X0172000Y0307000D01*
X0179200Y0307000D01*
X0179200Y0306638D01*
X0179087Y0305923D01*
X0178863Y0305234D01*
X0178534Y0304589D01*
X0178109Y0304003D01*
X0177597Y0303491D01*
X0177011Y0303066D01*
X0176366Y0302737D01*
X0175677Y0302513D01*
X0177881Y0303775D02*
X0185701Y0303775D01*
X0185701Y0301777D02*
X0181942Y0301777D01*
X0184412Y0299778D02*
X0185701Y0299778D01*
X0185701Y0297780D02*
X0185137Y0297780D01*
X0185058Y0295781D02*
X0185701Y0295781D01*
X0185701Y0293783D02*
X0184061Y0293783D01*
X0185701Y0291784D02*
X0181924Y0291784D01*
X0184409Y0289786D02*
X0185701Y0289786D01*
X0185701Y0287787D02*
X0185137Y0287787D01*
X0185061Y0285789D02*
X0185701Y0285789D01*
X0185701Y0283790D02*
X0184068Y0283790D01*
X0185701Y0281792D02*
X0181907Y0281792D01*
X0184406Y0279793D02*
X0185701Y0279793D01*
X0185701Y0277795D02*
X0185137Y0277795D01*
X0185064Y0275796D02*
X0185701Y0275796D01*
X0185701Y0273798D02*
X0184075Y0273798D01*
X0185701Y0271799D02*
X0181889Y0271799D01*
X0184403Y0269801D02*
X0185701Y0269801D01*
X0185701Y0267802D02*
X0185137Y0267802D01*
X0185067Y0265803D02*
X0185701Y0265803D01*
X0185701Y0263805D02*
X0184083Y0263805D01*
X0185701Y0261806D02*
X0181254Y0261806D01*
X0184070Y0259808D02*
X0185701Y0259808D01*
X0185701Y0257809D02*
X0184871Y0257809D01*
X0184937Y0257000D02*
X0177000Y0257000D01*
X0177000Y0257000D01*
X0177000Y0257000D01*
X0169063Y0257000D01*
X0169063Y0257391D01*
X0169185Y0258163D01*
X0169427Y0258907D01*
X0169782Y0259604D01*
X0170242Y0260237D01*
X0170795Y0260790D01*
X0171427Y0261249D01*
X0172124Y0261604D01*
X0172726Y0261800D01*
X0156886Y0261800D01*
X0157896Y0261382D01*
X0159350Y0259928D01*
X0160137Y0258028D01*
X0160137Y0256217D01*
X0161408Y0254946D01*
X0164154Y0252200D01*
X0172726Y0252200D01*
X0172124Y0252396D01*
X0171427Y0252751D01*
X0170795Y0253210D01*
X0170242Y0253763D01*
X0169782Y0254396D01*
X0169427Y0255093D01*
X0169185Y0255837D01*
X0169063Y0256609D01*
X0169063Y0257000D01*
X0177000Y0257000D01*
X0184937Y0257000D01*
X0184806Y0255811D02*
X0185701Y0255811D01*
X0185701Y0253812D02*
X0183794Y0253812D01*
X0185701Y0251814D02*
X0179750Y0251814D01*
X0181787Y0249815D02*
X0185701Y0249815D01*
X0185701Y0247817D02*
X0182500Y0247817D01*
X0182464Y0245818D02*
X0185701Y0245818D01*
X0185701Y0243820D02*
X0181598Y0243820D01*
X0178870Y0241821D02*
X0185701Y0241821D01*
X0185701Y0239823D02*
X0168337Y0239823D01*
X0167000Y0239823D02*
X0167000Y0239823D01*
X0165663Y0239823D02*
X0162200Y0239823D01*
X0162200Y0237824D02*
X0162872Y0237824D01*
X0167000Y0237824D02*
X0167000Y0237824D01*
X0167000Y0235826D02*
X0167000Y0235826D01*
X0167000Y0233827D02*
X0167000Y0233827D01*
X0167000Y0232000D02*
X0167000Y0224000D01*
X0167000Y0232000D01*
X0167000Y0232000D01*
X0167000Y0231829D02*
X0167000Y0231829D01*
X0167000Y0229830D02*
X0167000Y0229830D01*
X0167000Y0227832D02*
X0167000Y0227832D01*
X0167000Y0225833D02*
X0167000Y0225833D01*
X0170880Y0225833D02*
X0185701Y0225833D01*
X0185701Y0223835D02*
X0158118Y0223835D01*
X0155882Y0223835D02*
X0148118Y0223835D01*
X0145882Y0223835D02*
X0142720Y0223835D01*
X0151187Y0225833D02*
X0152813Y0225833D01*
X0161187Y0225833D02*
X0163120Y0225833D01*
X0171877Y0227832D02*
X0185701Y0227832D01*
X0185701Y0229830D02*
X0172000Y0229830D01*
X0172000Y0231829D02*
X0185701Y0231829D01*
X0185701Y0233827D02*
X0172000Y0233827D01*
X0171932Y0235826D02*
X0185701Y0235826D01*
X0185701Y0237824D02*
X0171128Y0237824D01*
X0170206Y0253812D02*
X0162541Y0253812D01*
X0160543Y0255811D02*
X0169194Y0255811D01*
X0169129Y0257809D02*
X0160137Y0257809D01*
X0159400Y0259808D02*
X0169930Y0259808D01*
X0169925Y0273798D02*
X0155586Y0273798D01*
X0152000Y0277000D02*
X0177000Y0277000D01*
X0172093Y0281792D02*
X0153997Y0281792D01*
X0150003Y0281792D02*
X0130200Y0281792D01*
X0131121Y0279793D02*
X0138288Y0279793D01*
X0137400Y0278905D02*
X0137400Y0277000D01*
X0142000Y0277000D01*
X0142000Y0277000D01*
X0142000Y0281600D01*
X0143905Y0281600D01*
X0146600Y0278905D01*
X0146600Y0277000D01*
X0142000Y0277000D01*
X0142000Y0277000D01*
X0142000Y0277000D01*
X0142000Y0281600D01*
X0140095Y0281600D01*
X0137400Y0278905D01*
X0137400Y0277795D02*
X0131800Y0277795D01*
X0131800Y0275796D02*
X0137400Y0275796D01*
X0137400Y0275095D02*
X0140095Y0272400D01*
X0142000Y0272400D01*
X0143905Y0272400D01*
X0146600Y0275095D01*
X0146600Y0277000D01*
X0142000Y0277000D01*
X0142000Y0272400D01*
X0142000Y0277000D01*
X0142000Y0277000D01*
X0137400Y0277000D01*
X0137400Y0275095D01*
X0138697Y0273798D02*
X0131800Y0273798D01*
X0131800Y0271799D02*
X0139998Y0271799D01*
X0142000Y0273798D02*
X0142000Y0273798D01*
X0142000Y0275796D02*
X0142000Y0275796D01*
X0142000Y0277795D02*
X0142000Y0277795D01*
X0142000Y0279793D02*
X0142000Y0279793D01*
X0145712Y0279793D02*
X0148005Y0279793D01*
X0147200Y0277795D02*
X0146600Y0277795D01*
X0146600Y0275796D02*
X0147200Y0275796D01*
X0148414Y0273798D02*
X0145303Y0273798D01*
X0137447Y0269801D02*
X0131284Y0269801D01*
X0129408Y0267802D02*
X0135448Y0267802D01*
X0134054Y0266408D02*
X0134054Y0266408D01*
X0127000Y0272000D02*
X0127000Y0282000D01*
X0122000Y0287000D01*
X0112000Y0287000D01*
X0115578Y0283790D02*
X0120684Y0283790D01*
X0117000Y0279793D02*
X0117000Y0279793D01*
X0117000Y0277795D02*
X0117000Y0277795D01*
X0117000Y0275796D02*
X0117000Y0275796D01*
X0117000Y0273798D02*
X0117000Y0273798D01*
X0117000Y0271799D02*
X0117000Y0271799D01*
X0117000Y0269801D02*
X0117000Y0269801D01*
X0112958Y0269801D02*
X0110200Y0269801D01*
X0110200Y0271799D02*
X0112400Y0271799D01*
X0112400Y0273798D02*
X0110200Y0273798D01*
X0110200Y0275796D02*
X0112400Y0275796D01*
X0112437Y0277795D02*
X0110135Y0277795D01*
X0108732Y0279793D02*
X0113198Y0279793D01*
X0123637Y0289786D02*
X0127997Y0289786D01*
X0127200Y0287787D02*
X0125738Y0287787D01*
X0129996Y0291784D02*
X0114004Y0291784D01*
X0115571Y0293783D02*
X0128712Y0293783D01*
X0127400Y0295781D02*
X0116800Y0295781D01*
X0116800Y0297780D02*
X0127400Y0297780D01*
X0128273Y0299778D02*
X0116010Y0299778D01*
X0114012Y0301777D02*
X0138800Y0301777D01*
X0137990Y0299778D02*
X0135727Y0299778D01*
X0136600Y0297780D02*
X0137200Y0297780D01*
X0137200Y0295781D02*
X0136600Y0295781D01*
X0135288Y0293783D02*
X0138429Y0293783D01*
X0142000Y0297000D02*
X0142000Y0307000D01*
X0145629Y0311769D02*
X0185701Y0311769D01*
X0185701Y0309771D02*
X0178273Y0309771D01*
X0179135Y0307772D02*
X0185701Y0307772D01*
X0185701Y0305774D02*
X0179038Y0305774D01*
X0172000Y0305774D02*
X0172000Y0305774D01*
X0172000Y0307000D02*
X0172000Y0302400D01*
X0169038Y0302400D01*
X0168323Y0302513D01*
X0167634Y0302737D01*
X0166989Y0303066D01*
X0166403Y0303491D01*
X0165891Y0304003D01*
X0165466Y0304589D01*
X0165137Y0305234D01*
X0164913Y0305923D01*
X0164800Y0306638D01*
X0164800Y0307000D01*
X0172000Y0307000D01*
X0172000Y0307772D02*
X0172000Y0307772D01*
X0172000Y0309771D02*
X0172000Y0309771D01*
X0172000Y0303775D02*
X0172000Y0303775D01*
X0172058Y0301777D02*
X0154012Y0301777D01*
X0149988Y0301777D02*
X0145200Y0301777D01*
X0148163Y0303775D02*
X0166119Y0303775D01*
X0164962Y0305774D02*
X0149288Y0305774D01*
X0149400Y0307772D02*
X0164865Y0307772D01*
X0165727Y0309771D02*
X0148617Y0309771D01*
X0152000Y0297000D02*
X0142000Y0297000D01*
X0145571Y0293783D02*
X0148429Y0293783D01*
X0135578Y0283790D02*
X0169932Y0283790D01*
X0177000Y0287000D02*
X0132000Y0287000D01*
X0112000Y0297000D02*
X0107000Y0297000D01*
X0142200Y0259808D02*
X0144600Y0259808D01*
X0143863Y0257809D02*
X0142200Y0257809D01*
X0142200Y0255811D02*
X0143930Y0255811D01*
X0144910Y0253812D02*
X0142200Y0253812D01*
X0142200Y0251814D02*
X0146800Y0251814D01*
X0146800Y0249815D02*
X0142200Y0249815D01*
X0142500Y0247817D02*
X0146800Y0247817D01*
X0146861Y0245818D02*
X0142464Y0245818D01*
X0141598Y0243820D02*
X0147826Y0243820D01*
X0149825Y0241821D02*
X0138870Y0241821D01*
X0142541Y0237824D02*
X0131800Y0237824D01*
X0131792Y0235826D02*
X0141800Y0235826D01*
X0141800Y0233827D02*
X0130816Y0233827D01*
X0132177Y0239823D02*
X0145055Y0239823D01*
X0148945Y0239823D02*
X0151800Y0239823D01*
X0151800Y0237824D02*
X0151459Y0237824D01*
X0107000Y0237824D02*
X0107000Y0237824D01*
X0107000Y0235826D02*
X0107000Y0235826D01*
X0107000Y0233827D02*
X0107000Y0233827D01*
X0107000Y0232000D02*
X0107000Y0224063D01*
X0107000Y0232000D01*
X0107000Y0232000D01*
X0107000Y0231829D02*
X0107000Y0231829D01*
X0107000Y0229830D02*
X0107000Y0229830D01*
X0107000Y0227832D02*
X0107000Y0227832D01*
X0107000Y0225833D02*
X0107000Y0225833D01*
X0103182Y0225833D02*
X0100818Y0225833D01*
X0101834Y0227832D02*
X0102166Y0227832D01*
X0102031Y0229830D02*
X0101968Y0229830D01*
X0101968Y0231829D02*
X0102031Y0231829D01*
X0101968Y0233827D02*
X0102031Y0233827D01*
X0102105Y0235826D02*
X0101895Y0235826D01*
X0101067Y0237824D02*
X0102933Y0237824D01*
X0097000Y0237824D02*
X0097000Y0237824D01*
X0097000Y0235826D02*
X0097000Y0235826D01*
X0097000Y0233827D02*
X0097000Y0233827D01*
X0097000Y0232000D02*
X0097000Y0224063D01*
X0097000Y0232000D01*
X0097000Y0232000D01*
X0097000Y0231829D02*
X0097000Y0231829D01*
X0097000Y0229830D02*
X0097000Y0229830D01*
X0097000Y0227832D02*
X0097000Y0227832D01*
X0097000Y0225833D02*
X0097000Y0225833D01*
X0093182Y0225833D02*
X0092000Y0225833D01*
X0092000Y0227832D02*
X0092166Y0227832D01*
X0092031Y0229830D02*
X0092000Y0229830D01*
X0092000Y0231829D02*
X0092031Y0231829D01*
X0092000Y0233827D02*
X0092031Y0233827D01*
X0092000Y0235826D02*
X0092105Y0235826D01*
X0092000Y0237824D02*
X0092933Y0237824D01*
M02*
