%
M48
M72
T01C0.03200
T02C0.03937
T03C0.04000
T04C0.04400
%
T01
X117000Y242000
X127000Y242000
X127000Y272000
X117000Y272000
X112000Y287000
X112000Y297000
X132000Y297000
X142000Y297000
X142000Y307000
X152000Y297000
X132000Y287000
X142000Y277000
X152000Y277000
X172000Y307000
T02
X97000Y232000
X107000Y232000
X152000Y257000
X152000Y267000
X177000Y267000
X177000Y257000
X177000Y277000
X177000Y287000
X177000Y297000
X107000Y307000
X97000Y307000
T03
X147000Y232000
X157000Y232000
X167000Y232000
T04
X177000Y247000
X137000Y247000
M30
