G75*
%MOIN*%
%OFA0B0*%
%FSLAX25Y25*%
%IPPOS*%
%LPD*%
%AMOC8*
5,1,8,0,0,1.08239X$1,22.5*
%
%ADD10C,0.05150*%
%ADD11C,0.05200*%
%ADD12OC8,0.05200*%
%ADD13C,0.06000*%
%ADD14OC8,0.06300*%
%ADD15R,0.05906X0.05118*%
%ADD16OC8,0.05600*%
%ADD17R,0.06300X0.04600*%
%ADD18R,0.05118X0.05906*%
%ADD19C,0.05937*%
%ADD20C,0.01200*%
%ADD21C,0.05000*%
%ADD22C,0.04000*%
%ADD23C,0.01600*%
%ADD24C,0.03200*%
%ADD25C,0.02000*%
%ADD26C,0.02978*%
D10*
X0064025Y0111600D02*
X0069175Y0111600D01*
X0069175Y0121600D02*
X0064025Y0121600D01*
X0064025Y0131600D02*
X0069175Y0131600D01*
X0069175Y0141600D02*
X0064025Y0141600D01*
X0064025Y0151600D02*
X0069175Y0151600D01*
X0069175Y0161600D02*
X0064025Y0161600D01*
X0064025Y0171600D02*
X0069175Y0171600D01*
X0069175Y0181600D02*
X0064025Y0181600D01*
X0064025Y0191600D02*
X0069175Y0191600D01*
X0069175Y0201600D02*
X0064025Y0201600D01*
X0064025Y0211600D02*
X0069175Y0211600D01*
X0069175Y0221600D02*
X0064025Y0221600D01*
X0064025Y0231600D02*
X0069175Y0231600D01*
X0069175Y0241600D02*
X0064025Y0241600D01*
X0064025Y0251600D02*
X0069175Y0251600D01*
X0124025Y0251600D02*
X0129175Y0251600D01*
X0129175Y0241600D02*
X0124025Y0241600D01*
X0124025Y0231600D02*
X0129175Y0231600D01*
X0129175Y0221600D02*
X0124025Y0221600D01*
X0124025Y0211600D02*
X0129175Y0211600D01*
X0129175Y0201600D02*
X0124025Y0201600D01*
X0124025Y0191600D02*
X0129175Y0191600D01*
X0129175Y0181600D02*
X0124025Y0181600D01*
X0124025Y0171600D02*
X0129175Y0171600D01*
X0129175Y0161600D02*
X0124025Y0161600D01*
X0124025Y0151600D02*
X0129175Y0151600D01*
X0129175Y0141600D02*
X0124025Y0141600D01*
X0124025Y0131600D02*
X0129175Y0131600D01*
X0129175Y0121600D02*
X0124025Y0121600D01*
X0124025Y0111600D02*
X0129175Y0111600D01*
D11*
X0144000Y0111600D02*
X0149200Y0111600D01*
X0149200Y0121600D02*
X0144000Y0121600D01*
X0144000Y0131600D02*
X0149200Y0131600D01*
X0149200Y0141600D02*
X0144000Y0141600D01*
X0144000Y0151600D02*
X0149200Y0151600D01*
X0149200Y0161600D02*
X0144000Y0161600D01*
X0144000Y0171600D02*
X0149200Y0171600D01*
X0149200Y0181600D02*
X0144000Y0181600D01*
X0144000Y0191600D02*
X0149200Y0191600D01*
X0149200Y0201600D02*
X0144000Y0201600D01*
X0144000Y0211600D02*
X0149200Y0211600D01*
X0149200Y0221600D02*
X0144000Y0221600D01*
X0144000Y0231600D02*
X0149200Y0231600D01*
X0149200Y0241600D02*
X0144000Y0241600D01*
X0144000Y0251600D02*
X0149200Y0251600D01*
X0041600Y0319000D02*
X0041600Y0324200D01*
X0041600Y0349000D02*
X0041600Y0354200D01*
X0029200Y0251600D02*
X0024000Y0251600D01*
X0024000Y0241600D02*
X0029200Y0241600D01*
X0029200Y0231600D02*
X0024000Y0231600D01*
X0024000Y0221600D02*
X0029200Y0221600D01*
X0029200Y0211600D02*
X0024000Y0211600D01*
X0024000Y0201600D02*
X0029200Y0201600D01*
X0029200Y0191600D02*
X0024000Y0191600D01*
X0024000Y0181600D02*
X0029200Y0181600D01*
X0029200Y0171600D02*
X0024000Y0171600D01*
X0024000Y0161600D02*
X0029200Y0161600D01*
X0029200Y0151600D02*
X0024000Y0151600D01*
X0024000Y0141600D02*
X0029200Y0141600D01*
X0029200Y0131600D02*
X0024000Y0131600D01*
X0024000Y0121600D02*
X0029200Y0121600D01*
X0029200Y0111600D02*
X0024000Y0111600D01*
D12*
X0041600Y0151600D03*
X0051600Y0151600D03*
X0051600Y0161600D03*
X0041600Y0161600D03*
X0041600Y0171600D03*
X0051600Y0171600D03*
X0051600Y0181600D03*
X0051600Y0191600D03*
X0041600Y0191600D03*
X0041600Y0181600D03*
X0041600Y0201600D03*
X0051600Y0201600D03*
X0051600Y0211600D03*
X0051600Y0221600D03*
X0041600Y0221600D03*
X0041600Y0211600D03*
X0051600Y0236600D03*
X0051600Y0256600D03*
X0076600Y0211600D03*
X0076600Y0201600D03*
X0076600Y0191600D03*
X0076600Y0181600D03*
X0076600Y0171600D03*
X0076600Y0161600D03*
X0076600Y0151600D03*
X0096600Y0151600D03*
X0096600Y0161600D03*
X0096600Y0171600D03*
X0096600Y0181600D03*
X0096600Y0191600D03*
X0096600Y0201600D03*
X0096600Y0211600D03*
X0141600Y0320100D03*
X0134100Y0325100D03*
X0141600Y0330100D03*
X0076600Y0331600D03*
X0056600Y0331600D03*
X0031600Y0331600D03*
X0031600Y0341600D03*
D13*
X0056600Y0343600D02*
X0056600Y0349600D01*
X0066600Y0349600D02*
X0066600Y0343600D01*
X0076600Y0343600D02*
X0076600Y0349600D01*
X0076600Y0318100D02*
X0076600Y0312100D01*
X0076600Y0304100D02*
X0076600Y0298100D01*
X0076600Y0290600D02*
X0076600Y0284600D01*
X0076600Y0277100D02*
X0076600Y0271100D01*
X0086600Y0271100D02*
X0086600Y0277100D01*
X0086600Y0284600D02*
X0086600Y0290600D01*
X0086600Y0298100D02*
X0086600Y0304100D01*
X0086600Y0312100D02*
X0086600Y0318100D01*
X0096600Y0318100D02*
X0096600Y0312100D01*
X0096600Y0304100D02*
X0096600Y0298100D01*
X0096600Y0290600D02*
X0096600Y0284600D01*
X0096600Y0277100D02*
X0096600Y0271100D01*
X0106600Y0271100D02*
X0106600Y0277100D01*
X0106600Y0284600D02*
X0106600Y0290600D01*
X0106600Y0298100D02*
X0106600Y0304100D01*
X0106600Y0312100D02*
X0106600Y0318100D01*
X0116600Y0318100D02*
X0116600Y0312100D01*
X0116600Y0304100D02*
X0116600Y0298100D01*
X0116600Y0290600D02*
X0116600Y0284600D01*
X0116600Y0277100D02*
X0116600Y0271100D01*
X0126100Y0281100D02*
X0132100Y0281100D01*
X0132100Y0291100D02*
X0126100Y0291100D01*
X0126100Y0301100D02*
X0132100Y0301100D01*
X0132100Y0311100D02*
X0126100Y0311100D01*
X0066600Y0312100D02*
X0066600Y0318100D01*
X0056600Y0318100D02*
X0056600Y0312100D01*
X0056600Y0304100D02*
X0056600Y0298100D01*
X0056600Y0290600D02*
X0056600Y0284600D01*
X0056600Y0277100D02*
X0056600Y0271100D01*
X0066600Y0271100D02*
X0066600Y0277100D01*
X0066600Y0284600D02*
X0066600Y0290600D01*
X0066600Y0298100D02*
X0066600Y0304100D01*
X0079600Y0253600D02*
X0079600Y0247600D01*
X0089600Y0247600D02*
X0089600Y0253600D01*
X0099600Y0253600D02*
X0099600Y0247600D01*
X0109600Y0247600D02*
X0109600Y0253600D01*
X0049100Y0137100D02*
X0043100Y0137100D01*
X0043100Y0127100D02*
X0049100Y0127100D01*
X0049100Y0117100D02*
X0043100Y0117100D01*
X0049500Y0101400D02*
X0049500Y0095400D01*
X0031700Y0095400D02*
X0031700Y0101400D01*
X0031700Y0075800D02*
X0031700Y0069800D01*
X0049500Y0069800D02*
X0049500Y0075800D01*
X0071700Y0075300D02*
X0071700Y0069300D01*
X0089500Y0069300D02*
X0089500Y0075300D01*
X0103700Y0075300D02*
X0103700Y0069300D01*
X0121500Y0069300D02*
X0121500Y0075300D01*
X0121500Y0094900D02*
X0121500Y0100900D01*
X0103700Y0100900D02*
X0103700Y0094900D01*
X0089500Y0094900D02*
X0089500Y0100900D01*
X0071700Y0100900D02*
X0071700Y0094900D01*
D14*
X0141600Y0341600D03*
X0141600Y0351600D03*
X0104600Y0350100D03*
X0094600Y0350100D03*
X0031600Y0351600D03*
X0021600Y0351600D03*
D15*
X0094600Y0340293D03*
X0094600Y0333600D03*
X0094600Y0326907D03*
D16*
X0106600Y0333600D03*
X0126600Y0333600D03*
D17*
X0086600Y0332600D03*
X0086600Y0338600D03*
X0021600Y0335600D03*
X0021600Y0341600D03*
X0041600Y0245100D03*
X0041600Y0239100D03*
D18*
X0089907Y0227100D03*
X0096600Y0227100D03*
X0103293Y0227100D03*
X0102907Y0237600D03*
X0109600Y0237600D03*
X0116293Y0237600D03*
D19*
X0143631Y0262600D02*
X0149569Y0262600D01*
X0149569Y0272600D02*
X0143631Y0272600D01*
X0126600Y0345631D02*
X0126600Y0351569D01*
X0116600Y0351569D02*
X0116600Y0345631D01*
D20*
X0014700Y0221126D02*
X0014700Y0051200D01*
X0170701Y0051200D01*
X0170701Y0356961D01*
X0045062Y0356961D01*
X0045330Y0356692D01*
X0045865Y0355400D01*
X0052356Y0355400D01*
X0053753Y0354821D01*
X0054605Y0353969D01*
X0055645Y0354400D01*
X0057555Y0354400D01*
X0059319Y0353669D01*
X0060669Y0352319D01*
X0061400Y0350555D01*
X0061400Y0342645D01*
X0060900Y0341438D01*
X0060900Y0333523D01*
X0061000Y0333423D01*
X0061000Y0329777D01*
X0060123Y0328900D01*
X0073077Y0328900D01*
X0072200Y0329777D01*
X0072200Y0333423D01*
X0073200Y0334423D01*
X0073200Y0340212D01*
X0072531Y0340881D01*
X0071800Y0342645D01*
X0071800Y0350555D01*
X0072531Y0352319D01*
X0073881Y0353669D01*
X0075645Y0354400D01*
X0077555Y0354400D01*
X0079319Y0353669D01*
X0080669Y0352319D01*
X0081400Y0350555D01*
X0081400Y0350000D01*
X0089650Y0350000D01*
X0089650Y0352150D01*
X0092550Y0355050D01*
X0096650Y0355050D01*
X0099550Y0352150D01*
X0099550Y0348050D01*
X0096650Y0345150D01*
X0094458Y0345150D01*
X0093960Y0344652D01*
X0094391Y0344652D01*
X0095231Y0345000D01*
X0110776Y0345000D01*
X0112026Y0344482D01*
X0112239Y0344269D01*
X0112144Y0344562D01*
X0112031Y0345272D01*
X0112031Y0348216D01*
X0116216Y0348216D01*
X0116216Y0348984D01*
X0112031Y0348984D01*
X0112031Y0351928D01*
X0112144Y0352638D01*
X0112366Y0353322D01*
X0112693Y0353963D01*
X0113115Y0354545D01*
X0113624Y0355053D01*
X0114206Y0355476D01*
X0114846Y0355802D01*
X0115530Y0356025D01*
X0116216Y0356133D01*
X0116216Y0348984D01*
X0116984Y0348984D01*
X0116984Y0356133D01*
X0117670Y0356025D01*
X0118354Y0355802D01*
X0118994Y0355476D01*
X0119576Y0355053D01*
X0120085Y0354545D01*
X0120507Y0353963D01*
X0120834Y0353322D01*
X0121056Y0352638D01*
X0121168Y0351928D01*
X0121168Y0348984D01*
X0116984Y0348984D01*
X0116984Y0348216D01*
X0116984Y0341067D01*
X0117670Y0341175D01*
X0118354Y0341398D01*
X0118994Y0341724D01*
X0119576Y0342147D01*
X0120085Y0342655D01*
X0120507Y0343237D01*
X0120834Y0343878D01*
X0121056Y0344562D01*
X0121168Y0345272D01*
X0121168Y0348216D01*
X0116984Y0348216D01*
X0116216Y0348216D01*
X0116216Y0341067D01*
X0115530Y0341175D01*
X0115238Y0341270D01*
X0117526Y0338982D01*
X0118482Y0338026D01*
X0119000Y0336776D01*
X0119000Y0334508D01*
X0125008Y0328500D01*
X0131277Y0328500D01*
X0132277Y0329500D01*
X0135923Y0329500D01*
X0138500Y0326923D01*
X0138500Y0323277D01*
X0136191Y0320969D01*
X0136474Y0320686D01*
X0137400Y0319760D01*
X0137400Y0319900D01*
X0141400Y0319900D01*
X0141400Y0320300D01*
X0141400Y0324300D01*
X0139860Y0324300D01*
X0137400Y0321840D01*
X0137400Y0320300D01*
X0141400Y0320300D01*
X0141800Y0320300D01*
X0141800Y0324300D01*
X0143340Y0324300D01*
X0145800Y0321840D01*
X0145800Y0320300D01*
X0141800Y0320300D01*
X0141800Y0319900D01*
X0145800Y0319900D01*
X0145800Y0318360D01*
X0143340Y0315900D01*
X0141800Y0315900D01*
X0141800Y0319900D01*
X0141400Y0319900D01*
X0141400Y0315900D01*
X0141260Y0315900D01*
X0141856Y0315900D01*
X0143253Y0315321D01*
X0154821Y0303753D01*
X0155400Y0302356D01*
X0155400Y0288174D01*
X0161253Y0282321D01*
X0162321Y0281253D01*
X0162900Y0279856D01*
X0162900Y0223674D01*
X0168753Y0217821D01*
X0169821Y0216753D01*
X0170400Y0215356D01*
X0170400Y0090844D01*
X0169821Y0089447D01*
X0139821Y0059447D01*
X0138753Y0058379D01*
X0137356Y0057800D01*
X0065844Y0057800D01*
X0064447Y0058379D01*
X0059447Y0063379D01*
X0026110Y0063379D01*
X0025321Y0064169D02*
X0022907Y0065168D01*
X0020293Y0065168D01*
X0017879Y0064169D01*
X0016031Y0062321D01*
X0015031Y0059907D01*
X0015031Y0057293D01*
X0016031Y0054879D01*
X0017879Y0053031D01*
X0020293Y0052031D01*
X0022907Y0052031D01*
X0025321Y0053031D01*
X0027169Y0054879D01*
X0028168Y0057293D01*
X0028168Y0059907D01*
X0027169Y0062321D01*
X0025321Y0064169D01*
X0024333Y0064578D02*
X0058325Y0064578D01*
X0058379Y0064447D02*
X0059447Y0063379D01*
X0058379Y0064447D02*
X0057800Y0065844D01*
X0057800Y0104526D01*
X0055026Y0107300D01*
X0054174Y0107300D01*
X0053821Y0106947D01*
X0053821Y0106947D01*
X0052753Y0105879D01*
X0051992Y0105563D01*
X0052219Y0105469D01*
X0053569Y0104119D01*
X0054300Y0102355D01*
X0054300Y0094445D01*
X0053569Y0092681D01*
X0052219Y0091331D01*
X0050455Y0090600D01*
X0048545Y0090600D01*
X0046781Y0091331D01*
X0045431Y0092681D01*
X0044700Y0094445D01*
X0044700Y0102355D01*
X0045431Y0104119D01*
X0046612Y0105300D01*
X0041344Y0105300D01*
X0039947Y0105879D01*
X0038879Y0106947D01*
X0038879Y0106947D01*
X0038026Y0107800D01*
X0031524Y0107800D01*
X0030075Y0107200D01*
X0023125Y0107200D01*
X0021508Y0107870D01*
X0020270Y0109108D01*
X0019600Y0110725D01*
X0019600Y0112475D01*
X0020270Y0114092D01*
X0021508Y0115330D01*
X0023125Y0116000D01*
X0030075Y0116000D01*
X0031524Y0115400D01*
X0036926Y0115400D01*
X0033447Y0118879D01*
X0033447Y0118879D01*
X0032838Y0119488D01*
X0032792Y0119399D01*
X0032404Y0118864D01*
X0031936Y0118396D01*
X0031401Y0118008D01*
X0030812Y0117708D01*
X0030184Y0117503D01*
X0029531Y0117400D01*
X0026800Y0117400D01*
X0026800Y0121400D01*
X0026400Y0121400D01*
X0026400Y0117400D01*
X0023669Y0117400D01*
X0023016Y0117503D01*
X0022388Y0117708D01*
X0021799Y0118008D01*
X0021264Y0118396D01*
X0020796Y0118864D01*
X0020408Y0119399D01*
X0020108Y0119988D01*
X0019903Y0120616D01*
X0019800Y0121269D01*
X0019800Y0121400D01*
X0026400Y0121400D01*
X0026400Y0121800D01*
X0026400Y0125800D01*
X0023669Y0125800D01*
X0023016Y0125697D01*
X0022388Y0125492D01*
X0021799Y0125192D01*
X0021264Y0124804D01*
X0020796Y0124336D01*
X0020408Y0123801D01*
X0020108Y0123212D01*
X0019903Y0122584D01*
X0019800Y0121931D01*
X0019800Y0121800D01*
X0026400Y0121800D01*
X0026800Y0121800D01*
X0026800Y0125800D01*
X0029531Y0125800D01*
X0030184Y0125697D01*
X0030812Y0125492D01*
X0031401Y0125192D01*
X0031800Y0124902D01*
X0031800Y0127977D01*
X0031692Y0127870D01*
X0030075Y0127200D01*
X0023125Y0127200D01*
X0021508Y0127870D01*
X0020270Y0129108D01*
X0019600Y0130725D01*
X0019600Y0132475D01*
X0020270Y0134092D01*
X0021508Y0135330D01*
X0023125Y0136000D01*
X0030075Y0136000D01*
X0031692Y0135330D01*
X0031800Y0135223D01*
X0031800Y0137526D01*
X0031526Y0137800D01*
X0031524Y0137800D01*
X0030075Y0137200D01*
X0023125Y0137200D01*
X0021508Y0137870D01*
X0020270Y0139108D01*
X0019600Y0140725D01*
X0019600Y0142475D01*
X0020270Y0144092D01*
X0021508Y0145330D01*
X0023125Y0146000D01*
X0030075Y0146000D01*
X0031524Y0145400D01*
X0033856Y0145400D01*
X0035253Y0144821D01*
X0038821Y0141253D01*
X0039303Y0140091D01*
X0040381Y0141169D01*
X0042145Y0141900D01*
X0042800Y0141900D01*
X0042800Y0142356D01*
X0043379Y0143753D01*
X0047800Y0148174D01*
X0047800Y0149177D01*
X0047200Y0149777D01*
X0047200Y0153423D01*
X0049777Y0156000D01*
X0053423Y0156000D01*
X0054023Y0155400D01*
X0061767Y0155400D01*
X0063155Y0155975D01*
X0070045Y0155975D01*
X0071653Y0155309D01*
X0072870Y0154092D01*
X0074777Y0156000D01*
X0078423Y0156000D01*
X0081000Y0153423D01*
X0081000Y0149777D01*
X0078423Y0147200D01*
X0074777Y0147200D01*
X0072870Y0149108D01*
X0071653Y0147891D01*
X0070045Y0147225D01*
X0063155Y0147225D01*
X0061767Y0147800D01*
X0058174Y0147800D01*
X0054821Y0144447D01*
X0051624Y0141250D01*
X0051819Y0141169D01*
X0053169Y0139819D01*
X0053641Y0138680D01*
X0053879Y0139253D01*
X0059447Y0144821D01*
X0060844Y0145400D01*
X0061767Y0145400D01*
X0063155Y0145975D01*
X0070045Y0145975D01*
X0071653Y0145309D01*
X0072884Y0144078D01*
X0073550Y0142470D01*
X0073550Y0140730D01*
X0072884Y0139122D01*
X0071653Y0137891D01*
X0070045Y0137225D01*
X0063155Y0137225D01*
X0062762Y0137388D01*
X0060900Y0135526D01*
X0060900Y0134662D01*
X0061547Y0135309D01*
X0063155Y0135975D01*
X0070045Y0135975D01*
X0071653Y0135309D01*
X0072884Y0134078D01*
X0073550Y0132470D01*
X0073550Y0130730D01*
X0072884Y0129122D01*
X0071653Y0127891D01*
X0070045Y0127225D01*
X0063155Y0127225D01*
X0061547Y0127891D01*
X0060900Y0128538D01*
X0060900Y0124379D01*
X0061305Y0124784D01*
X0061837Y0125171D01*
X0062423Y0125469D01*
X0063048Y0125672D01*
X0063697Y0125775D01*
X0066413Y0125775D01*
X0066413Y0121787D01*
X0066413Y0121413D01*
X0066787Y0121413D01*
X0066787Y0117425D01*
X0069503Y0117425D01*
X0070152Y0117528D01*
X0070777Y0117731D01*
X0071363Y0118029D01*
X0071895Y0118416D01*
X0072359Y0118880D01*
X0072745Y0119412D01*
X0073044Y0119997D01*
X0073247Y0120622D01*
X0073350Y0121271D01*
X0073350Y0121413D01*
X0066787Y0121413D01*
X0066787Y0121787D01*
X0066413Y0121787D01*
X0060161Y0121787D01*
X0053462Y0115088D01*
X0053384Y0114900D01*
X0061138Y0114900D01*
X0061547Y0115309D01*
X0063155Y0115975D01*
X0070045Y0115975D01*
X0071653Y0115309D01*
X0072884Y0114078D01*
X0073550Y0112470D01*
X0073550Y0110730D01*
X0072884Y0109122D01*
X0071653Y0107891D01*
X0070045Y0107225D01*
X0067599Y0107225D01*
X0065400Y0105026D01*
X0065400Y0068174D01*
X0068174Y0065400D01*
X0068812Y0065400D01*
X0067631Y0066581D01*
X0066900Y0068345D01*
X0066900Y0076255D01*
X0067631Y0078019D01*
X0068981Y0079369D01*
X0070745Y0080100D01*
X0072655Y0080100D01*
X0074419Y0079369D01*
X0075769Y0078019D01*
X0076500Y0076255D01*
X0076500Y0068345D01*
X0075769Y0066581D01*
X0074588Y0065400D01*
X0086612Y0065400D01*
X0085431Y0066581D01*
X0084700Y0068345D01*
X0084700Y0076255D01*
X0085431Y0078019D01*
X0086781Y0079369D01*
X0087200Y0079543D01*
X0087200Y0080077D01*
X0087565Y0080959D01*
X0088241Y0081635D01*
X0095241Y0088635D01*
X0096123Y0089000D01*
X0145606Y0089000D01*
X0154200Y0097594D01*
X0154200Y0205606D01*
X0151814Y0207992D01*
X0151692Y0207870D01*
X0150075Y0207200D01*
X0143125Y0207200D01*
X0141676Y0207800D01*
X0131433Y0207800D01*
X0130045Y0207225D01*
X0123155Y0207225D01*
X0121547Y0207891D01*
X0120316Y0209122D01*
X0119650Y0210730D01*
X0119650Y0212470D01*
X0120316Y0214078D01*
X0121547Y0215309D01*
X0123155Y0215975D01*
X0130045Y0215975D01*
X0131433Y0215400D01*
X0141676Y0215400D01*
X0143125Y0216000D01*
X0150075Y0216000D01*
X0151692Y0215330D01*
X0152930Y0214092D01*
X0153233Y0213361D01*
X0153635Y0212959D01*
X0157959Y0208635D01*
X0158635Y0207959D01*
X0159000Y0207077D01*
X0159000Y0097394D01*
X0159200Y0097594D01*
X0159200Y0210606D01*
X0151814Y0217992D01*
X0151692Y0217870D01*
X0150075Y0217200D01*
X0143125Y0217200D01*
X0141676Y0217800D01*
X0131433Y0217800D01*
X0130045Y0217225D01*
X0123155Y0217225D01*
X0121547Y0217891D01*
X0120316Y0219122D01*
X0119650Y0220730D01*
X0119650Y0222470D01*
X0120316Y0224078D01*
X0121547Y0225309D01*
X0123155Y0225975D01*
X0130045Y0225975D01*
X0131433Y0225400D01*
X0141676Y0225400D01*
X0143125Y0226000D01*
X0150075Y0226000D01*
X0151692Y0225330D01*
X0152930Y0224092D01*
X0153233Y0223361D01*
X0155335Y0221259D01*
X0155300Y0221344D01*
X0155300Y0277526D01*
X0148379Y0284447D01*
X0147800Y0285844D01*
X0147800Y0300026D01*
X0137879Y0309947D01*
X0137300Y0311344D01*
X0137300Y0311940D01*
X0136698Y0312542D01*
X0136900Y0312055D01*
X0136900Y0310145D01*
X0136169Y0308381D01*
X0134819Y0307031D01*
X0133055Y0306300D01*
X0125145Y0306300D01*
X0123381Y0307031D01*
X0122031Y0308381D01*
X0121531Y0309588D01*
X0120982Y0310137D01*
X0120669Y0309381D01*
X0119388Y0308100D01*
X0120669Y0306819D01*
X0121257Y0305400D01*
X0123938Y0305400D01*
X0125145Y0305900D01*
X0133055Y0305900D01*
X0134819Y0305169D01*
X0136169Y0303819D01*
X0136900Y0302055D01*
X0136900Y0300145D01*
X0136169Y0298381D01*
X0134819Y0297031D01*
X0133055Y0296300D01*
X0125145Y0296300D01*
X0123938Y0296800D01*
X0121257Y0296800D01*
X0120669Y0295381D01*
X0119638Y0294350D01*
X0119954Y0294035D01*
X0120164Y0294245D01*
X0121745Y0294900D01*
X0123112Y0294900D01*
X0123381Y0295169D01*
X0125145Y0295900D01*
X0133055Y0295900D01*
X0134819Y0295169D01*
X0136169Y0293819D01*
X0136900Y0292055D01*
X0136900Y0290145D01*
X0136169Y0288381D01*
X0134819Y0287031D01*
X0133055Y0286300D01*
X0124381Y0286300D01*
X0123245Y0285164D01*
X0122036Y0283955D01*
X0121400Y0283691D01*
X0121400Y0283645D01*
X0120669Y0281881D01*
X0119481Y0280693D01*
X0119597Y0280609D01*
X0120109Y0280097D01*
X0120534Y0279511D01*
X0120863Y0278866D01*
X0121087Y0278177D01*
X0121200Y0277462D01*
X0121200Y0274500D01*
X0117000Y0274500D01*
X0117000Y0273700D01*
X0121200Y0273700D01*
X0121200Y0270738D01*
X0121087Y0270023D01*
X0120863Y0269334D01*
X0120534Y0268689D01*
X0120109Y0268103D01*
X0119597Y0267591D01*
X0119011Y0267166D01*
X0118366Y0266837D01*
X0117677Y0266613D01*
X0117000Y0266506D01*
X0117000Y0273700D01*
X0116200Y0273700D01*
X0116200Y0266506D01*
X0115523Y0266613D01*
X0114834Y0266837D01*
X0114189Y0267166D01*
X0113603Y0267591D01*
X0113091Y0268103D01*
X0112666Y0268689D01*
X0112337Y0269334D01*
X0112113Y0270023D01*
X0112000Y0270738D01*
X0112000Y0273700D01*
X0116200Y0273700D01*
X0116200Y0274500D01*
X0112000Y0274500D01*
X0112000Y0277462D01*
X0112113Y0278177D01*
X0112337Y0278866D01*
X0112666Y0279511D01*
X0113091Y0280097D01*
X0113603Y0280609D01*
X0113719Y0280693D01*
X0112531Y0281881D01*
X0111943Y0283300D01*
X0111257Y0283300D01*
X0110669Y0281881D01*
X0109481Y0280693D01*
X0109597Y0280609D01*
X0110109Y0280097D01*
X0110534Y0279511D01*
X0110863Y0278866D01*
X0111087Y0278177D01*
X0111200Y0277462D01*
X0111200Y0274500D01*
X0107000Y0274500D01*
X0107000Y0273700D01*
X0111200Y0273700D01*
X0111200Y0270738D01*
X0111087Y0270023D01*
X0110863Y0269334D01*
X0110534Y0268689D01*
X0110109Y0268103D01*
X0109597Y0267591D01*
X0109011Y0267166D01*
X0108366Y0266837D01*
X0107677Y0266613D01*
X0107000Y0266506D01*
X0107000Y0273700D01*
X0106200Y0273700D01*
X0106200Y0266506D01*
X0105523Y0266613D01*
X0104834Y0266837D01*
X0104189Y0267166D01*
X0103603Y0267591D01*
X0103091Y0268103D01*
X0102666Y0268689D01*
X0102337Y0269334D01*
X0102113Y0270023D01*
X0102000Y0270738D01*
X0102000Y0273700D01*
X0106200Y0273700D01*
X0106200Y0274500D01*
X0102000Y0274500D01*
X0102000Y0277462D01*
X0102113Y0278177D01*
X0102337Y0278866D01*
X0102666Y0279511D01*
X0103091Y0280097D01*
X0103603Y0280609D01*
X0103719Y0280693D01*
X0102531Y0281881D01*
X0101943Y0283300D01*
X0101257Y0283300D01*
X0100669Y0281881D01*
X0099481Y0280693D01*
X0099597Y0280609D01*
X0100109Y0280097D01*
X0100534Y0279511D01*
X0100863Y0278866D01*
X0101087Y0278177D01*
X0101200Y0277462D01*
X0101200Y0274500D01*
X0097000Y0274500D01*
X0097000Y0273700D01*
X0101200Y0273700D01*
X0101200Y0270738D01*
X0101087Y0270023D01*
X0100863Y0269334D01*
X0100534Y0268689D01*
X0100109Y0268103D01*
X0099597Y0267591D01*
X0099011Y0267166D01*
X0098366Y0266837D01*
X0097677Y0266613D01*
X0097000Y0266506D01*
X0097000Y0273700D01*
X0096200Y0273700D01*
X0096200Y0266506D01*
X0095523Y0266613D01*
X0094834Y0266837D01*
X0094189Y0267166D01*
X0093603Y0267591D01*
X0093091Y0268103D01*
X0092666Y0268689D01*
X0092337Y0269334D01*
X0092113Y0270023D01*
X0092000Y0270738D01*
X0092000Y0273700D01*
X0096200Y0273700D01*
X0096200Y0274500D01*
X0092000Y0274500D01*
X0092000Y0277462D01*
X0092113Y0278177D01*
X0092337Y0278866D01*
X0092666Y0279511D01*
X0093091Y0280097D01*
X0093603Y0280609D01*
X0093719Y0280693D01*
X0092531Y0281881D01*
X0091943Y0283300D01*
X0091257Y0283300D01*
X0090669Y0281881D01*
X0089481Y0280693D01*
X0089597Y0280609D01*
X0090109Y0280097D01*
X0090534Y0279511D01*
X0090863Y0278866D01*
X0091087Y0278177D01*
X0091200Y0277462D01*
X0091200Y0274500D01*
X0087000Y0274500D01*
X0087000Y0273700D01*
X0091200Y0273700D01*
X0091200Y0270738D01*
X0091087Y0270023D01*
X0090863Y0269334D01*
X0090534Y0268689D01*
X0090109Y0268103D01*
X0089597Y0267591D01*
X0089011Y0267166D01*
X0088366Y0266837D01*
X0087677Y0266613D01*
X0087000Y0266506D01*
X0087000Y0273700D01*
X0086200Y0273700D01*
X0086200Y0266506D01*
X0085523Y0266613D01*
X0084834Y0266837D01*
X0084189Y0267166D01*
X0083603Y0267591D01*
X0083091Y0268103D01*
X0082666Y0268689D01*
X0082337Y0269334D01*
X0082113Y0270023D01*
X0082000Y0270738D01*
X0082000Y0273700D01*
X0086200Y0273700D01*
X0086200Y0274500D01*
X0082000Y0274500D01*
X0082000Y0277462D01*
X0082113Y0278177D01*
X0082337Y0278866D01*
X0082666Y0279511D01*
X0083091Y0280097D01*
X0083603Y0280609D01*
X0083719Y0280693D01*
X0082531Y0281881D01*
X0081943Y0283300D01*
X0081257Y0283300D01*
X0080669Y0281881D01*
X0079481Y0280693D01*
X0079597Y0280609D01*
X0080109Y0280097D01*
X0080534Y0279511D01*
X0080863Y0278866D01*
X0081087Y0278177D01*
X0081200Y0277462D01*
X0081200Y0274500D01*
X0077000Y0274500D01*
X0077000Y0273700D01*
X0081200Y0273700D01*
X0081200Y0270738D01*
X0081087Y0270023D01*
X0080863Y0269334D01*
X0080534Y0268689D01*
X0080109Y0268103D01*
X0079597Y0267591D01*
X0079011Y0267166D01*
X0078366Y0266837D01*
X0077677Y0266613D01*
X0077000Y0266506D01*
X0077000Y0273700D01*
X0076200Y0273700D01*
X0076200Y0266506D01*
X0075523Y0266613D01*
X0074834Y0266837D01*
X0074189Y0267166D01*
X0073603Y0267591D01*
X0073091Y0268103D01*
X0072666Y0268689D01*
X0072337Y0269334D01*
X0072113Y0270023D01*
X0072000Y0270738D01*
X0072000Y0273700D01*
X0076200Y0273700D01*
X0076200Y0274500D01*
X0072000Y0274500D01*
X0072000Y0277462D01*
X0072113Y0278177D01*
X0072337Y0278866D01*
X0072666Y0279511D01*
X0073091Y0280097D01*
X0073603Y0280609D01*
X0073719Y0280693D01*
X0072531Y0281881D01*
X0071943Y0283300D01*
X0071257Y0283300D01*
X0070669Y0281881D01*
X0069481Y0280693D01*
X0069597Y0280609D01*
X0070109Y0280097D01*
X0070534Y0279511D01*
X0070863Y0278866D01*
X0071087Y0278177D01*
X0071200Y0277462D01*
X0071200Y0274500D01*
X0067000Y0274500D01*
X0067000Y0273700D01*
X0071200Y0273700D01*
X0071200Y0270738D01*
X0071087Y0270023D01*
X0070863Y0269334D01*
X0070534Y0268689D01*
X0070109Y0268103D01*
X0069597Y0267591D01*
X0069011Y0267166D01*
X0068366Y0266837D01*
X0067677Y0266613D01*
X0067000Y0266506D01*
X0067000Y0273700D01*
X0066200Y0273700D01*
X0066200Y0266506D01*
X0065523Y0266613D01*
X0064834Y0266837D01*
X0064189Y0267166D01*
X0063603Y0267591D01*
X0063091Y0268103D01*
X0062666Y0268689D01*
X0062337Y0269334D01*
X0062113Y0270023D01*
X0062000Y0270738D01*
X0062000Y0273700D01*
X0066200Y0273700D01*
X0066200Y0274500D01*
X0062000Y0274500D01*
X0062000Y0277462D01*
X0062113Y0278177D01*
X0062337Y0278866D01*
X0062666Y0279511D01*
X0063091Y0280097D01*
X0063603Y0280609D01*
X0063719Y0280693D01*
X0062531Y0281881D01*
X0061943Y0283300D01*
X0061257Y0283300D01*
X0060669Y0281881D01*
X0059481Y0280693D01*
X0059597Y0280609D01*
X0060109Y0280097D01*
X0060534Y0279511D01*
X0060863Y0278866D01*
X0061087Y0278177D01*
X0061200Y0277462D01*
X0061200Y0274500D01*
X0057000Y0274500D01*
X0057000Y0273700D01*
X0061200Y0273700D01*
X0061200Y0270738D01*
X0061087Y0270023D01*
X0060863Y0269334D01*
X0060534Y0268689D01*
X0060109Y0268103D01*
X0059597Y0267591D01*
X0059011Y0267166D01*
X0058366Y0266837D01*
X0057677Y0266613D01*
X0057000Y0266506D01*
X0057000Y0273700D01*
X0056200Y0273700D01*
X0056200Y0266506D01*
X0055523Y0266613D01*
X0054834Y0266837D01*
X0054189Y0267166D01*
X0053603Y0267591D01*
X0053091Y0268103D01*
X0052666Y0268689D01*
X0052400Y0269211D01*
X0052400Y0267608D01*
X0054508Y0265500D01*
X0086776Y0265500D01*
X0088026Y0264982D01*
X0091526Y0261482D01*
X0092482Y0260526D01*
X0093000Y0259276D01*
X0093000Y0256988D01*
X0093669Y0256319D01*
X0094400Y0254555D01*
X0094400Y0246645D01*
X0093669Y0244881D01*
X0092319Y0243531D01*
X0091520Y0243200D01*
X0097680Y0243200D01*
X0096881Y0243531D01*
X0095531Y0244881D01*
X0094800Y0246645D01*
X0094800Y0254555D01*
X0095531Y0256319D01*
X0096881Y0257669D01*
X0098645Y0258400D01*
X0100555Y0258400D01*
X0102319Y0257669D01*
X0103669Y0256319D01*
X0104400Y0254555D01*
X0104400Y0246645D01*
X0103669Y0244881D01*
X0102319Y0243531D01*
X0100972Y0242973D01*
X0101380Y0242804D01*
X0101831Y0242353D01*
X0106212Y0242353D01*
X0106254Y0242311D01*
X0106295Y0242353D01*
X0107000Y0242353D01*
X0107000Y0243481D01*
X0106881Y0243531D01*
X0105531Y0244881D01*
X0104800Y0246645D01*
X0104800Y0254555D01*
X0105531Y0256319D01*
X0106881Y0257669D01*
X0108645Y0258400D01*
X0110555Y0258400D01*
X0112319Y0257669D01*
X0113669Y0256319D01*
X0114400Y0254555D01*
X0114400Y0246645D01*
X0113669Y0244881D01*
X0112319Y0243531D01*
X0112200Y0243481D01*
X0112200Y0242353D01*
X0112905Y0242353D01*
X0112946Y0242311D01*
X0112988Y0242353D01*
X0119598Y0242353D01*
X0119650Y0242300D01*
X0119650Y0242470D01*
X0120316Y0244078D01*
X0121547Y0245309D01*
X0123155Y0245975D01*
X0130045Y0245975D01*
X0131433Y0245400D01*
X0141676Y0245400D01*
X0143125Y0246000D01*
X0150075Y0246000D01*
X0151692Y0245330D01*
X0152930Y0244092D01*
X0153600Y0242475D01*
X0153600Y0240725D01*
X0152930Y0239108D01*
X0151692Y0237870D01*
X0150075Y0237200D01*
X0143125Y0237200D01*
X0141676Y0237800D01*
X0131433Y0237800D01*
X0130045Y0237225D01*
X0123155Y0237225D01*
X0121547Y0237891D01*
X0120652Y0238786D01*
X0120652Y0234414D01*
X0121547Y0235309D01*
X0123155Y0235975D01*
X0130045Y0235975D01*
X0131433Y0235400D01*
X0141676Y0235400D01*
X0143125Y0236000D01*
X0150075Y0236000D01*
X0151692Y0235330D01*
X0152930Y0234092D01*
X0153600Y0232475D01*
X0153600Y0230725D01*
X0152930Y0229108D01*
X0151692Y0227870D01*
X0150075Y0227200D01*
X0143125Y0227200D01*
X0141676Y0227800D01*
X0131433Y0227800D01*
X0130045Y0227225D01*
X0123155Y0227225D01*
X0121547Y0227891D01*
X0120316Y0229122D01*
X0119650Y0230730D01*
X0119650Y0232470D01*
X0119954Y0233204D01*
X0119598Y0232847D01*
X0118893Y0232847D01*
X0118893Y0207984D01*
X0121562Y0205315D01*
X0123155Y0205975D01*
X0130045Y0205975D01*
X0131433Y0205400D01*
X0141676Y0205400D01*
X0143125Y0206000D01*
X0150075Y0206000D01*
X0151692Y0205330D01*
X0152930Y0204092D01*
X0153600Y0202475D01*
X0153600Y0200725D01*
X0152930Y0199108D01*
X0151692Y0197870D01*
X0150075Y0197200D01*
X0143125Y0197200D01*
X0141676Y0197800D01*
X0131433Y0197800D01*
X0130045Y0197225D01*
X0123155Y0197225D01*
X0121547Y0197891D01*
X0120316Y0199122D01*
X0120219Y0199358D01*
X0120127Y0199396D01*
X0119396Y0200127D01*
X0114200Y0205323D01*
X0114200Y0162677D01*
X0121562Y0155315D01*
X0123155Y0155975D01*
X0130045Y0155975D01*
X0131433Y0155400D01*
X0141676Y0155400D01*
X0143125Y0156000D01*
X0150075Y0156000D01*
X0151692Y0155330D01*
X0152930Y0154092D01*
X0153600Y0152475D01*
X0153600Y0150725D01*
X0152930Y0149108D01*
X0151692Y0147870D01*
X0150075Y0147200D01*
X0143125Y0147200D01*
X0141676Y0147800D01*
X0131433Y0147800D01*
X0130045Y0147225D01*
X0123155Y0147225D01*
X0121547Y0147891D01*
X0120316Y0149122D01*
X0120219Y0149358D01*
X0120127Y0149396D01*
X0119396Y0150127D01*
X0109396Y0160127D01*
X0109000Y0161083D01*
X0109000Y0217716D01*
X0104369Y0222347D01*
X0099988Y0222347D01*
X0099946Y0222389D01*
X0099905Y0222347D01*
X0093295Y0222347D01*
X0093254Y0222389D01*
X0093212Y0222347D01*
X0091200Y0222347D01*
X0091200Y0172583D01*
X0090804Y0171627D01*
X0090073Y0170896D01*
X0088573Y0169396D01*
X0087617Y0169000D01*
X0080223Y0169000D01*
X0078423Y0167200D01*
X0074777Y0167200D01*
X0072870Y0169108D01*
X0071653Y0167891D01*
X0070045Y0167225D01*
X0063155Y0167225D01*
X0061767Y0167800D01*
X0054023Y0167800D01*
X0053423Y0167200D01*
X0049777Y0167200D01*
X0047200Y0169777D01*
X0047200Y0173423D01*
X0049777Y0176000D01*
X0053423Y0176000D01*
X0054023Y0175400D01*
X0061767Y0175400D01*
X0063155Y0175975D01*
X0070045Y0175975D01*
X0071653Y0175309D01*
X0072870Y0174092D01*
X0074777Y0176000D01*
X0078423Y0176000D01*
X0080223Y0174200D01*
X0086000Y0174200D01*
X0086000Y0222950D01*
X0085700Y0223250D01*
X0085700Y0182583D01*
X0085304Y0181627D01*
X0084573Y0180896D01*
X0084573Y0180896D01*
X0083073Y0179396D01*
X0082117Y0179000D01*
X0080223Y0179000D01*
X0078423Y0177200D01*
X0074777Y0177200D01*
X0072870Y0179108D01*
X0071653Y0177891D01*
X0070045Y0177225D01*
X0063155Y0177225D01*
X0061767Y0177800D01*
X0054023Y0177800D01*
X0053423Y0177200D01*
X0049777Y0177200D01*
X0047200Y0179777D01*
X0047200Y0183423D01*
X0049777Y0186000D01*
X0053423Y0186000D01*
X0054023Y0185400D01*
X0061767Y0185400D01*
X0063155Y0185975D01*
X0070045Y0185975D01*
X0071653Y0185309D01*
X0072870Y0184092D01*
X0074777Y0186000D01*
X0078423Y0186000D01*
X0080223Y0184200D01*
X0080500Y0184200D01*
X0080500Y0189277D01*
X0078423Y0187200D01*
X0074777Y0187200D01*
X0072870Y0189108D01*
X0071653Y0187891D01*
X0070045Y0187225D01*
X0063155Y0187225D01*
X0061767Y0187800D01*
X0054023Y0187800D01*
X0053423Y0187200D01*
X0049777Y0187200D01*
X0047200Y0189777D01*
X0047200Y0193423D01*
X0049777Y0196000D01*
X0053423Y0196000D01*
X0054023Y0195400D01*
X0061767Y0195400D01*
X0063155Y0195975D01*
X0070045Y0195975D01*
X0071653Y0195309D01*
X0072870Y0194092D01*
X0074777Y0196000D01*
X0078423Y0196000D01*
X0080500Y0193923D01*
X0080500Y0199277D01*
X0078423Y0197200D01*
X0074777Y0197200D01*
X0072870Y0199108D01*
X0071653Y0197891D01*
X0070045Y0197225D01*
X0063155Y0197225D01*
X0061767Y0197800D01*
X0054023Y0197800D01*
X0053423Y0197200D01*
X0049777Y0197200D01*
X0047200Y0199777D01*
X0047200Y0203423D01*
X0049777Y0206000D01*
X0053423Y0206000D01*
X0054023Y0205400D01*
X0061767Y0205400D01*
X0063155Y0205975D01*
X0070045Y0205975D01*
X0071653Y0205309D01*
X0072870Y0204092D01*
X0074777Y0206000D01*
X0078423Y0206000D01*
X0080500Y0203923D01*
X0080500Y0209277D01*
X0078423Y0207200D01*
X0074777Y0207200D01*
X0072870Y0209108D01*
X0071653Y0207891D01*
X0070045Y0207225D01*
X0063155Y0207225D01*
X0061767Y0207800D01*
X0054023Y0207800D01*
X0053423Y0207200D01*
X0049777Y0207200D01*
X0047200Y0209777D01*
X0047200Y0213423D01*
X0049777Y0216000D01*
X0053423Y0216000D01*
X0054023Y0215400D01*
X0061767Y0215400D01*
X0063155Y0215975D01*
X0070045Y0215975D01*
X0071653Y0215309D01*
X0072870Y0214092D01*
X0074777Y0216000D01*
X0078423Y0216000D01*
X0080500Y0213923D01*
X0080500Y0234117D01*
X0080896Y0235073D01*
X0081627Y0235804D01*
X0087896Y0242073D01*
X0088627Y0242804D01*
X0088631Y0242806D01*
X0086881Y0243531D01*
X0085531Y0244881D01*
X0084800Y0246645D01*
X0084800Y0254555D01*
X0085531Y0256319D01*
X0086200Y0256988D01*
X0086200Y0257192D01*
X0084692Y0258700D01*
X0055440Y0258700D01*
X0055800Y0258340D01*
X0055800Y0256800D01*
X0051800Y0256800D01*
X0051800Y0256400D01*
X0055800Y0256400D01*
X0055800Y0254860D01*
X0053340Y0252400D01*
X0051800Y0252400D01*
X0051800Y0256400D01*
X0051400Y0256400D01*
X0051400Y0252400D01*
X0049860Y0252400D01*
X0047400Y0254860D01*
X0047400Y0255526D01*
X0045400Y0253526D01*
X0045400Y0249200D01*
X0045496Y0249200D01*
X0046550Y0248146D01*
X0046550Y0236054D01*
X0045496Y0235000D01*
X0042874Y0235000D01*
X0037321Y0229447D01*
X0036253Y0228379D01*
X0034856Y0227800D01*
X0031524Y0227800D01*
X0030075Y0227200D01*
X0023125Y0227200D01*
X0021508Y0227870D01*
X0020270Y0229108D01*
X0019900Y0230001D01*
X0019900Y0226674D01*
X0021174Y0225400D01*
X0021676Y0225400D01*
X0023125Y0226000D01*
X0030075Y0226000D01*
X0031524Y0225400D01*
X0039177Y0225400D01*
X0039777Y0226000D01*
X0043423Y0226000D01*
X0046000Y0223423D01*
X0046000Y0219777D01*
X0043423Y0217200D01*
X0039777Y0217200D01*
X0039177Y0217800D01*
X0031524Y0217800D01*
X0030075Y0217200D01*
X0023125Y0217200D01*
X0021676Y0217800D01*
X0018844Y0217800D01*
X0017447Y0218379D01*
X0014700Y0221126D01*
X0014700Y0220384D02*
X0015442Y0220384D01*
X0014700Y0219186D02*
X0016640Y0219186D01*
X0018392Y0217987D02*
X0014700Y0217987D01*
X0014700Y0216789D02*
X0080500Y0216789D01*
X0080500Y0217987D02*
X0071749Y0217987D01*
X0071653Y0217891D02*
X0072884Y0219122D01*
X0073550Y0220730D01*
X0073550Y0222470D01*
X0072884Y0224078D01*
X0071653Y0225309D01*
X0070045Y0225975D01*
X0063155Y0225975D01*
X0061767Y0225400D01*
X0055400Y0225400D01*
X0055400Y0234177D01*
X0056000Y0234777D01*
X0056000Y0238423D01*
X0053423Y0241000D01*
X0049777Y0241000D01*
X0047200Y0238423D01*
X0047200Y0234777D01*
X0047800Y0234177D01*
X0047800Y0224023D01*
X0047200Y0223423D01*
X0047200Y0219777D01*
X0049777Y0217200D01*
X0053423Y0217200D01*
X0054023Y0217800D01*
X0061767Y0217800D01*
X0063155Y0217225D01*
X0070045Y0217225D01*
X0071653Y0217891D01*
X0072910Y0219186D02*
X0080500Y0219186D01*
X0080500Y0220384D02*
X0073406Y0220384D01*
X0073550Y0221583D02*
X0080500Y0221583D01*
X0080500Y0222781D02*
X0073421Y0222781D01*
X0072924Y0223980D02*
X0080500Y0223980D01*
X0080500Y0225178D02*
X0071784Y0225178D01*
X0070890Y0227575D02*
X0080500Y0227575D01*
X0080500Y0226377D02*
X0055400Y0226377D01*
X0055400Y0227575D02*
X0062310Y0227575D01*
X0061547Y0227891D02*
X0063155Y0227225D01*
X0070045Y0227225D01*
X0071653Y0227891D01*
X0072884Y0229122D01*
X0073550Y0230730D01*
X0073550Y0232470D01*
X0072884Y0234078D01*
X0071653Y0235309D01*
X0070045Y0235975D01*
X0063155Y0235975D01*
X0061547Y0235309D01*
X0060316Y0234078D01*
X0059650Y0232470D01*
X0059650Y0230730D01*
X0060316Y0229122D01*
X0061547Y0227891D01*
X0060665Y0228774D02*
X0055400Y0228774D01*
X0055400Y0229972D02*
X0059964Y0229972D01*
X0059650Y0231171D02*
X0055400Y0231171D01*
X0055400Y0232369D02*
X0059650Y0232369D01*
X0060105Y0233568D02*
X0055400Y0233568D01*
X0055989Y0234766D02*
X0061005Y0234766D01*
X0063131Y0235965D02*
X0056000Y0235965D01*
X0056000Y0237163D02*
X0082986Y0237163D01*
X0081788Y0235965D02*
X0070069Y0235965D01*
X0070045Y0237225D02*
X0063155Y0237225D01*
X0061547Y0237891D01*
X0060316Y0239122D01*
X0059650Y0240730D01*
X0059650Y0242470D01*
X0060316Y0244078D01*
X0061547Y0245309D01*
X0063155Y0245975D01*
X0070045Y0245975D01*
X0071653Y0245309D01*
X0072884Y0244078D01*
X0073550Y0242470D01*
X0073550Y0240730D01*
X0072884Y0239122D01*
X0071653Y0237891D01*
X0070045Y0237225D01*
X0072124Y0238362D02*
X0084185Y0238362D01*
X0085383Y0239560D02*
X0073065Y0239560D01*
X0073550Y0240759D02*
X0086582Y0240759D01*
X0087780Y0241957D02*
X0073550Y0241957D01*
X0073266Y0243156D02*
X0078392Y0243156D01*
X0078523Y0243113D02*
X0079200Y0243006D01*
X0079200Y0250200D01*
X0080000Y0250200D01*
X0080000Y0251000D01*
X0084200Y0251000D01*
X0084200Y0253962D01*
X0084087Y0254677D01*
X0083863Y0255366D01*
X0083534Y0256011D01*
X0083109Y0256597D01*
X0082597Y0257109D01*
X0082011Y0257534D01*
X0081366Y0257863D01*
X0080677Y0258087D01*
X0080000Y0258194D01*
X0080000Y0251000D01*
X0079200Y0251000D01*
X0079200Y0258194D01*
X0078523Y0258087D01*
X0077834Y0257863D01*
X0077189Y0257534D01*
X0076603Y0257109D01*
X0076091Y0256597D01*
X0075666Y0256011D01*
X0075337Y0255366D01*
X0075113Y0254677D01*
X0075000Y0253962D01*
X0075000Y0251000D01*
X0079200Y0251000D01*
X0079200Y0250200D01*
X0075000Y0250200D01*
X0075000Y0247238D01*
X0075113Y0246523D01*
X0075337Y0245834D01*
X0075666Y0245189D01*
X0076091Y0244603D01*
X0076603Y0244091D01*
X0077189Y0243666D01*
X0077834Y0243337D01*
X0078523Y0243113D01*
X0079200Y0243156D02*
X0080000Y0243156D01*
X0080000Y0243006D02*
X0080677Y0243113D01*
X0081366Y0243337D01*
X0082011Y0243666D01*
X0082597Y0244091D01*
X0083109Y0244603D01*
X0083534Y0245189D01*
X0083863Y0245834D01*
X0084087Y0246523D01*
X0084200Y0247238D01*
X0084200Y0250200D01*
X0080000Y0250200D01*
X0080000Y0243006D01*
X0080808Y0243156D02*
X0087786Y0243156D01*
X0086057Y0244354D02*
X0082860Y0244354D01*
X0083720Y0245553D02*
X0085252Y0245553D01*
X0084800Y0246751D02*
X0084123Y0246751D01*
X0084200Y0247950D02*
X0084800Y0247950D01*
X0084800Y0249148D02*
X0084200Y0249148D01*
X0084800Y0250347D02*
X0080000Y0250347D01*
X0079200Y0250347D02*
X0073391Y0250347D01*
X0073550Y0250730D02*
X0073550Y0252470D01*
X0072884Y0254078D01*
X0071653Y0255309D01*
X0070045Y0255975D01*
X0063155Y0255975D01*
X0061547Y0255309D01*
X0060316Y0254078D01*
X0059650Y0252470D01*
X0059650Y0250730D01*
X0060316Y0249122D01*
X0061547Y0247891D01*
X0063155Y0247225D01*
X0070045Y0247225D01*
X0071653Y0247891D01*
X0072884Y0249122D01*
X0073550Y0250730D01*
X0073550Y0251545D02*
X0075000Y0251545D01*
X0075000Y0252744D02*
X0073436Y0252744D01*
X0072940Y0253942D02*
X0075000Y0253942D01*
X0075264Y0255141D02*
X0071821Y0255141D01*
X0075904Y0256339D02*
X0055800Y0256339D01*
X0055800Y0255141D02*
X0061379Y0255141D01*
X0060260Y0253942D02*
X0054882Y0253942D01*
X0053684Y0252744D02*
X0059764Y0252744D01*
X0059650Y0251545D02*
X0045400Y0251545D01*
X0045400Y0250347D02*
X0059809Y0250347D01*
X0060305Y0249148D02*
X0045547Y0249148D01*
X0046550Y0247950D02*
X0061488Y0247950D01*
X0062136Y0245553D02*
X0046550Y0245553D01*
X0046550Y0246751D02*
X0075077Y0246751D01*
X0075000Y0247950D02*
X0071712Y0247950D01*
X0072895Y0249148D02*
X0075000Y0249148D01*
X0075480Y0245553D02*
X0071064Y0245553D01*
X0072607Y0244354D02*
X0076340Y0244354D01*
X0079200Y0244354D02*
X0080000Y0244354D01*
X0080000Y0245553D02*
X0079200Y0245553D01*
X0079200Y0246751D02*
X0080000Y0246751D01*
X0080000Y0247950D02*
X0079200Y0247950D01*
X0079200Y0249148D02*
X0080000Y0249148D01*
X0080000Y0251545D02*
X0079200Y0251545D01*
X0079200Y0252744D02*
X0080000Y0252744D01*
X0080000Y0253942D02*
X0079200Y0253942D01*
X0079200Y0255141D02*
X0080000Y0255141D01*
X0080000Y0256339D02*
X0079200Y0256339D01*
X0079200Y0257538D02*
X0080000Y0257538D01*
X0082004Y0257538D02*
X0085854Y0257538D01*
X0085551Y0256339D02*
X0083296Y0256339D01*
X0083936Y0255141D02*
X0085043Y0255141D01*
X0084800Y0253942D02*
X0084200Y0253942D01*
X0084200Y0252744D02*
X0084800Y0252744D01*
X0084800Y0251545D02*
X0084200Y0251545D01*
X0077196Y0257538D02*
X0055800Y0257538D01*
X0051800Y0256339D02*
X0051400Y0256339D01*
X0051400Y0255141D02*
X0051800Y0255141D01*
X0051800Y0253942D02*
X0051400Y0253942D01*
X0051400Y0252744D02*
X0051800Y0252744D01*
X0049516Y0252744D02*
X0045400Y0252744D01*
X0045816Y0253942D02*
X0048318Y0253942D01*
X0047400Y0255141D02*
X0047015Y0255141D01*
X0039863Y0258737D02*
X0019900Y0258737D01*
X0019900Y0259935D02*
X0041061Y0259935D01*
X0042260Y0261134D02*
X0019900Y0261134D01*
X0019900Y0262332D02*
X0043458Y0262332D01*
X0044657Y0263531D02*
X0019900Y0263531D01*
X0019900Y0264729D02*
X0044800Y0264729D01*
X0044800Y0263674D02*
X0038379Y0257253D01*
X0037800Y0255856D01*
X0037800Y0249200D01*
X0037704Y0249200D01*
X0036650Y0248146D01*
X0036650Y0239524D01*
X0032526Y0235400D01*
X0031524Y0235400D01*
X0030075Y0236000D01*
X0023125Y0236000D01*
X0021508Y0235330D01*
X0020270Y0234092D01*
X0019900Y0233199D01*
X0019900Y0240001D01*
X0020270Y0239108D01*
X0021508Y0237870D01*
X0023125Y0237200D01*
X0030075Y0237200D01*
X0031692Y0237870D01*
X0032930Y0239108D01*
X0033600Y0240725D01*
X0033600Y0242475D01*
X0032930Y0244092D01*
X0031692Y0245330D01*
X0030075Y0246000D01*
X0023125Y0246000D01*
X0021508Y0245330D01*
X0020270Y0244092D01*
X0019900Y0243199D01*
X0019900Y0250001D01*
X0020270Y0249108D01*
X0021508Y0247870D01*
X0023125Y0247200D01*
X0030075Y0247200D01*
X0031692Y0247870D01*
X0032930Y0249108D01*
X0033600Y0250725D01*
X0033600Y0252475D01*
X0032930Y0254092D01*
X0031692Y0255330D01*
X0030075Y0256000D01*
X0023125Y0256000D01*
X0021508Y0255330D01*
X0020270Y0254092D01*
X0019900Y0253199D01*
X0019900Y0319526D01*
X0023753Y0323379D01*
X0024821Y0324447D01*
X0025400Y0325844D01*
X0025400Y0331500D01*
X0025496Y0331500D01*
X0026550Y0332554D01*
X0026550Y0337300D01*
X0029677Y0337300D01*
X0029777Y0337200D01*
X0033423Y0337200D01*
X0036000Y0339777D01*
X0036000Y0343423D01*
X0033423Y0346000D01*
X0029777Y0346000D01*
X0029677Y0345900D01*
X0020745Y0345900D01*
X0020262Y0345700D01*
X0017704Y0345700D01*
X0016650Y0344646D01*
X0016650Y0332554D01*
X0017704Y0331500D01*
X0017800Y0331500D01*
X0017800Y0328174D01*
X0014700Y0325074D01*
X0014700Y0356961D01*
X0038138Y0356961D01*
X0037870Y0356692D01*
X0037335Y0355400D01*
X0034800Y0355400D01*
X0033650Y0356550D01*
X0029550Y0356550D01*
X0026650Y0353650D01*
X0026650Y0349550D01*
X0029550Y0346650D01*
X0033650Y0346650D01*
X0034800Y0347800D01*
X0037335Y0347800D01*
X0037870Y0346508D01*
X0039108Y0345270D01*
X0040725Y0344600D01*
X0042475Y0344600D01*
X0044092Y0345270D01*
X0045330Y0346508D01*
X0045865Y0347800D01*
X0050026Y0347800D01*
X0051800Y0346026D01*
X0051800Y0342645D01*
X0052300Y0341438D01*
X0052300Y0333523D01*
X0052200Y0333423D01*
X0052200Y0329777D01*
X0053077Y0328900D01*
X0051344Y0328900D01*
X0049947Y0328321D01*
X0045947Y0324321D01*
X0045800Y0324174D01*
X0045800Y0324531D01*
X0045697Y0325184D01*
X0045492Y0325812D01*
X0045192Y0326401D01*
X0044804Y0326936D01*
X0044336Y0327404D01*
X0043801Y0327792D01*
X0043212Y0328092D01*
X0042584Y0328297D01*
X0041931Y0328400D01*
X0041800Y0328400D01*
X0041800Y0321800D01*
X0041400Y0321800D01*
X0041400Y0328400D01*
X0041269Y0328400D01*
X0040616Y0328297D01*
X0039988Y0328092D01*
X0039399Y0327792D01*
X0038864Y0327404D01*
X0038396Y0326936D01*
X0038008Y0326401D01*
X0037708Y0325812D01*
X0037503Y0325184D01*
X0037400Y0324531D01*
X0037400Y0321800D01*
X0041400Y0321800D01*
X0041400Y0321400D01*
X0037400Y0321400D01*
X0037400Y0318669D01*
X0037503Y0318016D01*
X0037708Y0317388D01*
X0038008Y0316799D01*
X0038396Y0316264D01*
X0038864Y0315796D01*
X0039399Y0315408D01*
X0039988Y0315108D01*
X0040616Y0314903D01*
X0041269Y0314800D01*
X0041400Y0314800D01*
X0041400Y0321400D01*
X0041800Y0321400D01*
X0041800Y0314800D01*
X0041931Y0314800D01*
X0042584Y0314903D01*
X0043212Y0315108D01*
X0043801Y0315408D01*
X0044300Y0315770D01*
X0044300Y0306344D01*
X0044879Y0304947D01*
X0045947Y0303879D01*
X0045947Y0303879D01*
X0050879Y0298947D01*
X0051800Y0298026D01*
X0051800Y0297145D01*
X0052531Y0295381D01*
X0053562Y0294350D01*
X0052531Y0293319D01*
X0051800Y0291555D01*
X0051800Y0291400D01*
X0051344Y0291400D01*
X0049947Y0290821D01*
X0045379Y0286253D01*
X0044800Y0284856D01*
X0044800Y0263674D01*
X0044800Y0265928D02*
X0019900Y0265928D01*
X0019900Y0267126D02*
X0044800Y0267126D01*
X0044800Y0268325D02*
X0019900Y0268325D01*
X0019900Y0269523D02*
X0044800Y0269523D01*
X0044800Y0270722D02*
X0019900Y0270722D01*
X0019900Y0271920D02*
X0044800Y0271920D01*
X0044800Y0273119D02*
X0019900Y0273119D01*
X0019900Y0274317D02*
X0044800Y0274317D01*
X0044800Y0275516D02*
X0019900Y0275516D01*
X0019900Y0276714D02*
X0044800Y0276714D01*
X0044800Y0277913D02*
X0019900Y0277913D01*
X0019900Y0279111D02*
X0044800Y0279111D01*
X0044800Y0280310D02*
X0019900Y0280310D01*
X0019900Y0281508D02*
X0044800Y0281508D01*
X0044800Y0282707D02*
X0019900Y0282707D01*
X0019900Y0283905D02*
X0044800Y0283905D01*
X0044903Y0285104D02*
X0019900Y0285104D01*
X0019900Y0286302D02*
X0045428Y0286302D01*
X0046627Y0287501D02*
X0019900Y0287501D01*
X0019900Y0288699D02*
X0047825Y0288699D01*
X0049024Y0289898D02*
X0019900Y0289898D01*
X0019900Y0291096D02*
X0031314Y0291096D01*
X0031379Y0291031D02*
X0033793Y0290031D01*
X0036407Y0290031D01*
X0038821Y0291031D01*
X0040669Y0292879D01*
X0041668Y0295293D01*
X0041668Y0297907D01*
X0040669Y0300321D01*
X0038821Y0302169D01*
X0036407Y0303168D01*
X0033793Y0303168D01*
X0031379Y0302169D01*
X0029531Y0300321D01*
X0028531Y0297907D01*
X0028531Y0295293D01*
X0029531Y0292879D01*
X0031379Y0291031D01*
X0030116Y0292295D02*
X0019900Y0292295D01*
X0019900Y0293493D02*
X0029277Y0293493D01*
X0028781Y0294692D02*
X0019900Y0294692D01*
X0019900Y0295890D02*
X0028531Y0295890D01*
X0028531Y0297089D02*
X0019900Y0297089D01*
X0019900Y0298287D02*
X0028689Y0298287D01*
X0029186Y0299486D02*
X0019900Y0299486D01*
X0019900Y0300684D02*
X0029895Y0300684D01*
X0031094Y0301883D02*
X0019900Y0301883D01*
X0019900Y0303081D02*
X0033583Y0303081D01*
X0036617Y0303081D02*
X0046745Y0303081D01*
X0047943Y0301883D02*
X0039106Y0301883D01*
X0040305Y0300684D02*
X0049142Y0300684D01*
X0050340Y0299486D02*
X0041014Y0299486D01*
X0041511Y0298287D02*
X0051539Y0298287D01*
X0050879Y0298947D02*
X0050879Y0298947D01*
X0051823Y0297089D02*
X0041668Y0297089D01*
X0041668Y0295890D02*
X0052320Y0295890D01*
X0053220Y0294692D02*
X0041419Y0294692D01*
X0040923Y0293493D02*
X0052705Y0293493D01*
X0052107Y0292295D02*
X0040084Y0292295D01*
X0038886Y0291096D02*
X0050611Y0291096D01*
X0061011Y0282707D02*
X0062189Y0282707D01*
X0062904Y0281508D02*
X0060296Y0281508D01*
X0059896Y0280310D02*
X0063304Y0280310D01*
X0062462Y0279111D02*
X0060738Y0279111D01*
X0061129Y0277913D02*
X0062071Y0277913D01*
X0062000Y0276714D02*
X0061200Y0276714D01*
X0061200Y0275516D02*
X0062000Y0275516D01*
X0062000Y0273119D02*
X0061200Y0273119D01*
X0061200Y0271920D02*
X0062000Y0271920D01*
X0062003Y0270722D02*
X0061197Y0270722D01*
X0060924Y0269523D02*
X0062276Y0269523D01*
X0062931Y0268325D02*
X0060269Y0268325D01*
X0058933Y0267126D02*
X0064267Y0267126D01*
X0066200Y0267126D02*
X0067000Y0267126D01*
X0067000Y0268325D02*
X0066200Y0268325D01*
X0066200Y0269523D02*
X0067000Y0269523D01*
X0067000Y0270722D02*
X0066200Y0270722D01*
X0066200Y0271920D02*
X0067000Y0271920D01*
X0067000Y0273119D02*
X0066200Y0273119D01*
X0066200Y0274317D02*
X0057000Y0274317D01*
X0057000Y0273119D02*
X0056200Y0273119D01*
X0056200Y0271920D02*
X0057000Y0271920D01*
X0057000Y0270722D02*
X0056200Y0270722D01*
X0056200Y0269523D02*
X0057000Y0269523D01*
X0057000Y0268325D02*
X0056200Y0268325D01*
X0056200Y0267126D02*
X0057000Y0267126D01*
X0054267Y0267126D02*
X0052882Y0267126D01*
X0052931Y0268325D02*
X0052400Y0268325D01*
X0054081Y0265928D02*
X0140215Y0265928D01*
X0139589Y0265301D02*
X0138863Y0263549D01*
X0138863Y0261651D01*
X0139589Y0259899D01*
X0140930Y0258557D01*
X0142683Y0257831D01*
X0150517Y0257831D01*
X0152270Y0258557D01*
X0153611Y0259899D01*
X0154337Y0261651D01*
X0154337Y0263549D01*
X0153611Y0265301D01*
X0152270Y0266643D01*
X0150517Y0267368D01*
X0142683Y0267368D01*
X0140930Y0266643D01*
X0139589Y0265301D01*
X0139352Y0264729D02*
X0088279Y0264729D01*
X0089478Y0263531D02*
X0138863Y0263531D01*
X0138863Y0262332D02*
X0090676Y0262332D01*
X0091875Y0261134D02*
X0139078Y0261134D01*
X0139574Y0259935D02*
X0092727Y0259935D01*
X0093000Y0258737D02*
X0140751Y0258737D01*
X0141676Y0255400D02*
X0143125Y0256000D01*
X0150075Y0256000D01*
X0151692Y0255330D01*
X0152930Y0254092D01*
X0153600Y0252475D01*
X0153600Y0250725D01*
X0152930Y0249108D01*
X0151692Y0247870D01*
X0150075Y0247200D01*
X0143125Y0247200D01*
X0141676Y0247800D01*
X0131433Y0247800D01*
X0130045Y0247225D01*
X0123155Y0247225D01*
X0121547Y0247891D01*
X0120316Y0249122D01*
X0119650Y0250730D01*
X0119650Y0252470D01*
X0120316Y0254078D01*
X0121547Y0255309D01*
X0123155Y0255975D01*
X0130045Y0255975D01*
X0131433Y0255400D01*
X0141676Y0255400D01*
X0142045Y0245553D02*
X0131064Y0245553D01*
X0122136Y0245553D02*
X0113948Y0245553D01*
X0114400Y0246751D02*
X0155300Y0246751D01*
X0155300Y0245553D02*
X0151155Y0245553D01*
X0152668Y0244354D02*
X0155300Y0244354D01*
X0155300Y0243156D02*
X0153318Y0243156D01*
X0153600Y0241957D02*
X0155300Y0241957D01*
X0155300Y0240759D02*
X0153600Y0240759D01*
X0153118Y0239560D02*
X0155300Y0239560D01*
X0155300Y0238362D02*
X0152184Y0238362D01*
X0150160Y0235965D02*
X0155300Y0235965D01*
X0155300Y0237163D02*
X0120652Y0237163D01*
X0120652Y0235965D02*
X0123131Y0235965D01*
X0121005Y0234766D02*
X0120652Y0234766D01*
X0119650Y0232369D02*
X0118893Y0232369D01*
X0118893Y0231171D02*
X0119650Y0231171D01*
X0119964Y0229972D02*
X0118893Y0229972D01*
X0118893Y0228774D02*
X0120665Y0228774D01*
X0122310Y0227575D02*
X0118893Y0227575D01*
X0118893Y0226377D02*
X0155300Y0226377D01*
X0155300Y0227575D02*
X0150981Y0227575D01*
X0152596Y0228774D02*
X0155300Y0228774D01*
X0155300Y0229972D02*
X0153288Y0229972D01*
X0153600Y0231171D02*
X0155300Y0231171D01*
X0155300Y0232369D02*
X0153600Y0232369D01*
X0153147Y0233568D02*
X0155300Y0233568D01*
X0155300Y0234766D02*
X0152256Y0234766D01*
X0143040Y0235965D02*
X0130069Y0235965D01*
X0130890Y0227575D02*
X0142219Y0227575D01*
X0146600Y0221600D02*
X0151600Y0221600D01*
X0161600Y0211600D01*
X0161600Y0096600D01*
X0146600Y0081600D01*
X0106600Y0081600D01*
X0103700Y0078700D01*
X0103700Y0072300D01*
X0108500Y0071769D02*
X0116900Y0071769D01*
X0116900Y0071900D02*
X0116900Y0068938D01*
X0117013Y0068223D01*
X0117237Y0067534D01*
X0117566Y0066889D01*
X0117991Y0066303D01*
X0118503Y0065791D01*
X0119042Y0065400D01*
X0106588Y0065400D01*
X0107769Y0066581D01*
X0108500Y0068345D01*
X0108500Y0076255D01*
X0107769Y0078019D01*
X0107091Y0078697D01*
X0107594Y0079200D01*
X0119042Y0079200D01*
X0118503Y0078809D01*
X0117991Y0078297D01*
X0117566Y0077711D01*
X0117237Y0077066D01*
X0117013Y0076377D01*
X0116900Y0075662D01*
X0116900Y0072700D01*
X0121100Y0072700D01*
X0121100Y0071900D01*
X0116900Y0071900D01*
X0116900Y0072967D02*
X0108500Y0072967D01*
X0108500Y0074166D02*
X0116900Y0074166D01*
X0116900Y0075364D02*
X0108500Y0075364D01*
X0108372Y0076563D02*
X0117074Y0076563D01*
X0117602Y0077761D02*
X0107876Y0077761D01*
X0107354Y0078960D02*
X0118711Y0078960D01*
X0123958Y0079200D02*
X0147077Y0079200D01*
X0147959Y0079565D01*
X0148635Y0080241D01*
X0162800Y0094406D01*
X0162800Y0093174D01*
X0135026Y0065400D01*
X0123958Y0065400D01*
X0124497Y0065791D01*
X0125009Y0066303D01*
X0125434Y0066889D01*
X0125763Y0067534D01*
X0125987Y0068223D01*
X0126100Y0068938D01*
X0126100Y0071900D01*
X0121900Y0071900D01*
X0121900Y0072700D01*
X0126100Y0072700D01*
X0126100Y0075662D01*
X0125987Y0076377D01*
X0125763Y0077066D01*
X0125434Y0077711D01*
X0125009Y0078297D01*
X0124497Y0078809D01*
X0123958Y0079200D01*
X0124289Y0078960D02*
X0148586Y0078960D01*
X0148552Y0080158D02*
X0149784Y0080158D01*
X0149751Y0081357D02*
X0150983Y0081357D01*
X0150949Y0082555D02*
X0152181Y0082555D01*
X0152148Y0083754D02*
X0153380Y0083754D01*
X0153346Y0084952D02*
X0154578Y0084952D01*
X0154545Y0086151D02*
X0155777Y0086151D01*
X0155743Y0087349D02*
X0156975Y0087349D01*
X0156942Y0088548D02*
X0158174Y0088548D01*
X0158141Y0089746D02*
X0159372Y0089746D01*
X0159339Y0090945D02*
X0160571Y0090945D01*
X0160538Y0092143D02*
X0161769Y0092143D01*
X0161736Y0093342D02*
X0162800Y0093342D01*
X0159200Y0098136D02*
X0159000Y0098136D01*
X0159000Y0099334D02*
X0159200Y0099334D01*
X0159200Y0100533D02*
X0159000Y0100533D01*
X0159000Y0101732D02*
X0159200Y0101732D01*
X0159200Y0102930D02*
X0159000Y0102930D01*
X0159000Y0104129D02*
X0159200Y0104129D01*
X0159200Y0105327D02*
X0159000Y0105327D01*
X0159000Y0106526D02*
X0159200Y0106526D01*
X0159200Y0107724D02*
X0159000Y0107724D01*
X0159000Y0108923D02*
X0159200Y0108923D01*
X0159200Y0110121D02*
X0159000Y0110121D01*
X0159000Y0111320D02*
X0159200Y0111320D01*
X0159200Y0112518D02*
X0159000Y0112518D01*
X0159000Y0113717D02*
X0159200Y0113717D01*
X0159200Y0114915D02*
X0159000Y0114915D01*
X0159000Y0116114D02*
X0159200Y0116114D01*
X0159200Y0117312D02*
X0159000Y0117312D01*
X0159000Y0118511D02*
X0159200Y0118511D01*
X0159200Y0119709D02*
X0159000Y0119709D01*
X0159000Y0120908D02*
X0159200Y0120908D01*
X0159200Y0122106D02*
X0159000Y0122106D01*
X0159000Y0123305D02*
X0159200Y0123305D01*
X0159200Y0124503D02*
X0159000Y0124503D01*
X0159000Y0125702D02*
X0159200Y0125702D01*
X0159200Y0126900D02*
X0159000Y0126900D01*
X0159000Y0128099D02*
X0159200Y0128099D01*
X0159200Y0129297D02*
X0159000Y0129297D01*
X0159000Y0130496D02*
X0159200Y0130496D01*
X0159200Y0131694D02*
X0159000Y0131694D01*
X0159000Y0132893D02*
X0159200Y0132893D01*
X0159200Y0134091D02*
X0159000Y0134091D01*
X0159000Y0135290D02*
X0159200Y0135290D01*
X0159200Y0136488D02*
X0159000Y0136488D01*
X0159000Y0137687D02*
X0159200Y0137687D01*
X0159200Y0138885D02*
X0159000Y0138885D01*
X0159000Y0140084D02*
X0159200Y0140084D01*
X0159200Y0141282D02*
X0159000Y0141282D01*
X0159000Y0142481D02*
X0159200Y0142481D01*
X0159200Y0143679D02*
X0159000Y0143679D01*
X0159000Y0144878D02*
X0159200Y0144878D01*
X0159200Y0146076D02*
X0159000Y0146076D01*
X0159000Y0147275D02*
X0159200Y0147275D01*
X0159200Y0148473D02*
X0159000Y0148473D01*
X0159000Y0149672D02*
X0159200Y0149672D01*
X0159200Y0150870D02*
X0159000Y0150870D01*
X0159000Y0152069D02*
X0159200Y0152069D01*
X0159200Y0153268D02*
X0159000Y0153268D01*
X0159000Y0154466D02*
X0159200Y0154466D01*
X0159200Y0155665D02*
X0159000Y0155665D01*
X0159000Y0156863D02*
X0159200Y0156863D01*
X0159200Y0158062D02*
X0159000Y0158062D01*
X0159000Y0159260D02*
X0159200Y0159260D01*
X0159200Y0160459D02*
X0159000Y0160459D01*
X0159000Y0161657D02*
X0159200Y0161657D01*
X0159200Y0162856D02*
X0159000Y0162856D01*
X0159000Y0164054D02*
X0159200Y0164054D01*
X0159200Y0165253D02*
X0159000Y0165253D01*
X0159000Y0166451D02*
X0159200Y0166451D01*
X0159200Y0167650D02*
X0159000Y0167650D01*
X0159000Y0168848D02*
X0159200Y0168848D01*
X0159200Y0170047D02*
X0159000Y0170047D01*
X0159000Y0171245D02*
X0159200Y0171245D01*
X0159200Y0172444D02*
X0159000Y0172444D01*
X0159000Y0173642D02*
X0159200Y0173642D01*
X0159200Y0174841D02*
X0159000Y0174841D01*
X0159000Y0176039D02*
X0159200Y0176039D01*
X0159200Y0177238D02*
X0159000Y0177238D01*
X0159000Y0178436D02*
X0159200Y0178436D01*
X0159200Y0179635D02*
X0159000Y0179635D01*
X0159000Y0180833D02*
X0159200Y0180833D01*
X0159200Y0182032D02*
X0159000Y0182032D01*
X0159000Y0183230D02*
X0159200Y0183230D01*
X0159200Y0184429D02*
X0159000Y0184429D01*
X0159000Y0185627D02*
X0159200Y0185627D01*
X0159200Y0186826D02*
X0159000Y0186826D01*
X0159000Y0188024D02*
X0159200Y0188024D01*
X0159200Y0189223D02*
X0159000Y0189223D01*
X0159000Y0190421D02*
X0159200Y0190421D01*
X0159200Y0191620D02*
X0159000Y0191620D01*
X0159000Y0192818D02*
X0159200Y0192818D01*
X0159200Y0194017D02*
X0159000Y0194017D01*
X0159000Y0195215D02*
X0159200Y0195215D01*
X0159200Y0196414D02*
X0159000Y0196414D01*
X0159000Y0197612D02*
X0159200Y0197612D01*
X0159200Y0198811D02*
X0159000Y0198811D01*
X0159000Y0200009D02*
X0159200Y0200009D01*
X0159200Y0201208D02*
X0159000Y0201208D01*
X0159000Y0202406D02*
X0159200Y0202406D01*
X0159200Y0203605D02*
X0159000Y0203605D01*
X0159000Y0204803D02*
X0159200Y0204803D01*
X0159200Y0206002D02*
X0159000Y0206002D01*
X0158949Y0207201D02*
X0159200Y0207201D01*
X0159200Y0208399D02*
X0158195Y0208399D01*
X0159200Y0209598D02*
X0156997Y0209598D01*
X0155798Y0210796D02*
X0159010Y0210796D01*
X0157811Y0211995D02*
X0154600Y0211995D01*
X0153401Y0213193D02*
X0156613Y0213193D01*
X0155414Y0214392D02*
X0152631Y0214392D01*
X0151065Y0215590D02*
X0154216Y0215590D01*
X0153017Y0216789D02*
X0118893Y0216789D01*
X0118893Y0217987D02*
X0121451Y0217987D01*
X0120290Y0219186D02*
X0118893Y0219186D01*
X0118893Y0220384D02*
X0119794Y0220384D01*
X0119650Y0221583D02*
X0118893Y0221583D01*
X0118893Y0222781D02*
X0119779Y0222781D01*
X0120276Y0223980D02*
X0118893Y0223980D01*
X0118893Y0225178D02*
X0121416Y0225178D01*
X0122226Y0215590D02*
X0118893Y0215590D01*
X0118893Y0214392D02*
X0120630Y0214392D01*
X0119950Y0213193D02*
X0118893Y0213193D01*
X0118893Y0211995D02*
X0119650Y0211995D01*
X0119650Y0210796D02*
X0118893Y0210796D01*
X0118893Y0209598D02*
X0120119Y0209598D01*
X0121039Y0208399D02*
X0118893Y0208399D01*
X0119676Y0207201D02*
X0143124Y0207201D01*
X0146600Y0211600D02*
X0151600Y0211600D01*
X0156600Y0206600D01*
X0156600Y0096600D01*
X0146600Y0086600D01*
X0096600Y0086600D01*
X0089600Y0079600D01*
X0089600Y0078600D01*
X0089500Y0078500D01*
X0089500Y0072300D01*
X0084700Y0071769D02*
X0076500Y0071769D01*
X0076500Y0072967D02*
X0084700Y0072967D01*
X0084700Y0074166D02*
X0076500Y0074166D01*
X0076500Y0075364D02*
X0084700Y0075364D01*
X0084828Y0076563D02*
X0076372Y0076563D01*
X0075876Y0077761D02*
X0085324Y0077761D01*
X0086372Y0078960D02*
X0074828Y0078960D01*
X0068572Y0078960D02*
X0065400Y0078960D01*
X0065400Y0080158D02*
X0087234Y0080158D01*
X0087963Y0081357D02*
X0065400Y0081357D01*
X0065400Y0082555D02*
X0089161Y0082555D01*
X0090360Y0083754D02*
X0065400Y0083754D01*
X0065400Y0084952D02*
X0091558Y0084952D01*
X0092757Y0086151D02*
X0065400Y0086151D01*
X0065400Y0087349D02*
X0093955Y0087349D01*
X0095154Y0088548D02*
X0065400Y0088548D01*
X0065400Y0089746D02*
X0146352Y0089746D01*
X0147551Y0090945D02*
X0124333Y0090945D01*
X0124219Y0090831D02*
X0125569Y0092181D01*
X0126300Y0093945D01*
X0126300Y0101855D01*
X0125569Y0103619D01*
X0124219Y0104969D01*
X0122455Y0105700D01*
X0120545Y0105700D01*
X0118781Y0104969D01*
X0117431Y0103619D01*
X0116700Y0101855D01*
X0116700Y0093945D01*
X0117431Y0092181D01*
X0118781Y0090831D01*
X0120545Y0090100D01*
X0122455Y0090100D01*
X0124219Y0090831D01*
X0125532Y0092143D02*
X0148749Y0092143D01*
X0149948Y0093342D02*
X0126050Y0093342D01*
X0126300Y0094540D02*
X0151146Y0094540D01*
X0152345Y0095739D02*
X0126300Y0095739D01*
X0126300Y0096937D02*
X0153543Y0096937D01*
X0154200Y0098136D02*
X0126300Y0098136D01*
X0126300Y0099334D02*
X0154200Y0099334D01*
X0154200Y0100533D02*
X0126300Y0100533D01*
X0126300Y0101732D02*
X0154200Y0101732D01*
X0154200Y0102930D02*
X0125855Y0102930D01*
X0125060Y0104129D02*
X0154200Y0104129D01*
X0154200Y0105327D02*
X0123355Y0105327D01*
X0123155Y0107225D02*
X0130045Y0107225D01*
X0131433Y0107800D01*
X0141676Y0107800D01*
X0143125Y0107200D01*
X0150075Y0107200D01*
X0151692Y0107870D01*
X0152930Y0109108D01*
X0153600Y0110725D01*
X0153600Y0112475D01*
X0152930Y0114092D01*
X0151692Y0115330D01*
X0150075Y0116000D01*
X0143125Y0116000D01*
X0141676Y0115400D01*
X0131433Y0115400D01*
X0130045Y0115975D01*
X0123155Y0115975D01*
X0121547Y0115309D01*
X0120316Y0114078D01*
X0119650Y0112470D01*
X0119650Y0110730D01*
X0120316Y0109122D01*
X0121547Y0107891D01*
X0123155Y0107225D01*
X0121951Y0107724D02*
X0071249Y0107724D01*
X0072684Y0108923D02*
X0120516Y0108923D01*
X0119903Y0110121D02*
X0073297Y0110121D01*
X0073550Y0111320D02*
X0119650Y0111320D01*
X0119670Y0112518D02*
X0073530Y0112518D01*
X0073033Y0113717D02*
X0120167Y0113717D01*
X0121153Y0114915D02*
X0072047Y0114915D01*
X0071990Y0118511D02*
X0120928Y0118511D01*
X0120316Y0119122D02*
X0121547Y0117891D01*
X0123155Y0117225D01*
X0130045Y0117225D01*
X0131433Y0117800D01*
X0141676Y0117800D01*
X0143125Y0117200D01*
X0150075Y0117200D01*
X0151692Y0117870D01*
X0152930Y0119108D01*
X0153600Y0120725D01*
X0153600Y0122475D01*
X0152930Y0124092D01*
X0151692Y0125330D01*
X0150075Y0126000D01*
X0143125Y0126000D01*
X0141676Y0125400D01*
X0131433Y0125400D01*
X0130045Y0125975D01*
X0123155Y0125975D01*
X0121547Y0125309D01*
X0120316Y0124078D01*
X0119650Y0122470D01*
X0119650Y0120730D01*
X0120316Y0119122D01*
X0120073Y0119709D02*
X0072897Y0119709D01*
X0073292Y0120908D02*
X0119650Y0120908D01*
X0119650Y0122106D02*
X0073321Y0122106D01*
X0073350Y0121929D02*
X0073247Y0122578D01*
X0073044Y0123203D01*
X0072745Y0123788D01*
X0072359Y0124320D01*
X0071895Y0124784D01*
X0071363Y0125171D01*
X0070777Y0125469D01*
X0070152Y0125672D01*
X0069503Y0125775D01*
X0066787Y0125775D01*
X0066787Y0121787D01*
X0073350Y0121787D01*
X0073350Y0121929D01*
X0072992Y0123305D02*
X0119996Y0123305D01*
X0120742Y0124503D02*
X0072176Y0124503D01*
X0069965Y0125702D02*
X0122496Y0125702D01*
X0123155Y0127225D02*
X0130045Y0127225D01*
X0131433Y0127800D01*
X0141676Y0127800D01*
X0143125Y0127200D01*
X0150075Y0127200D01*
X0151692Y0127870D01*
X0152930Y0129108D01*
X0153600Y0130725D01*
X0153600Y0132475D01*
X0152930Y0134092D01*
X0151692Y0135330D01*
X0150075Y0136000D01*
X0143125Y0136000D01*
X0141676Y0135400D01*
X0131433Y0135400D01*
X0130045Y0135975D01*
X0123155Y0135975D01*
X0121547Y0135309D01*
X0120316Y0134078D01*
X0119650Y0132470D01*
X0119650Y0130730D01*
X0120316Y0129122D01*
X0121547Y0127891D01*
X0123155Y0127225D01*
X0121340Y0128099D02*
X0071860Y0128099D01*
X0072956Y0129297D02*
X0120244Y0129297D01*
X0119747Y0130496D02*
X0073453Y0130496D01*
X0073550Y0131694D02*
X0119650Y0131694D01*
X0119825Y0132893D02*
X0073375Y0132893D01*
X0072870Y0134091D02*
X0120330Y0134091D01*
X0121528Y0135290D02*
X0071672Y0135290D01*
X0071160Y0137687D02*
X0122559Y0137687D01*
X0122423Y0137731D02*
X0123048Y0137528D01*
X0123697Y0137425D01*
X0126413Y0137425D01*
X0126413Y0141413D01*
X0126787Y0141413D01*
X0126787Y0137425D01*
X0129503Y0137425D01*
X0130152Y0137528D01*
X0130777Y0137731D01*
X0131363Y0138029D01*
X0131895Y0138416D01*
X0132359Y0138880D01*
X0132745Y0139412D01*
X0133044Y0139997D01*
X0133247Y0140622D01*
X0133350Y0141271D01*
X0133350Y0141413D01*
X0126787Y0141413D01*
X0126787Y0141787D01*
X0126413Y0141787D01*
X0126413Y0141413D01*
X0119850Y0141413D01*
X0119850Y0141271D01*
X0119953Y0140622D01*
X0120156Y0139997D01*
X0120455Y0139412D01*
X0120841Y0138880D01*
X0121305Y0138416D01*
X0121837Y0138029D01*
X0122423Y0137731D01*
X0120837Y0138885D02*
X0072647Y0138885D01*
X0073282Y0140084D02*
X0120128Y0140084D01*
X0119850Y0141282D02*
X0073550Y0141282D01*
X0073545Y0142481D02*
X0119938Y0142481D01*
X0119953Y0142578D02*
X0119850Y0141929D01*
X0119850Y0141787D01*
X0126413Y0141787D01*
X0126413Y0145775D01*
X0123697Y0145775D01*
X0123048Y0145672D01*
X0122423Y0145469D01*
X0121837Y0145171D01*
X0121305Y0144784D01*
X0120841Y0144320D01*
X0120455Y0143788D01*
X0120156Y0143203D01*
X0119953Y0142578D01*
X0120399Y0143679D02*
X0073049Y0143679D01*
X0072084Y0144878D02*
X0121434Y0144878D01*
X0123035Y0147275D02*
X0078497Y0147275D01*
X0079696Y0148473D02*
X0093787Y0148473D01*
X0094860Y0147400D02*
X0092400Y0149860D01*
X0092400Y0151400D01*
X0096400Y0151400D01*
X0096800Y0151400D01*
X0096800Y0151800D01*
X0100800Y0151800D01*
X0100800Y0153340D01*
X0098340Y0155800D01*
X0096800Y0155800D01*
X0096800Y0151800D01*
X0096400Y0151800D01*
X0096400Y0155800D01*
X0094860Y0155800D01*
X0092400Y0153340D01*
X0092400Y0151800D01*
X0096400Y0151800D01*
X0096400Y0151400D01*
X0096400Y0147400D01*
X0094860Y0147400D01*
X0096400Y0148473D02*
X0096800Y0148473D01*
X0096800Y0147400D02*
X0096800Y0151400D01*
X0100800Y0151400D01*
X0100800Y0149860D01*
X0098340Y0147400D01*
X0096800Y0147400D01*
X0096800Y0149672D02*
X0096400Y0149672D01*
X0096400Y0150870D02*
X0096800Y0150870D01*
X0096800Y0152069D02*
X0096400Y0152069D01*
X0096400Y0153268D02*
X0096800Y0153268D01*
X0096800Y0154466D02*
X0096400Y0154466D01*
X0096400Y0155665D02*
X0096800Y0155665D01*
X0098475Y0155665D02*
X0113859Y0155665D01*
X0115057Y0154466D02*
X0099674Y0154466D01*
X0100800Y0153268D02*
X0116256Y0153268D01*
X0117454Y0152069D02*
X0100800Y0152069D01*
X0100800Y0150870D02*
X0118653Y0150870D01*
X0119851Y0149672D02*
X0100612Y0149672D01*
X0099413Y0148473D02*
X0120965Y0148473D01*
X0126407Y0151793D02*
X0126600Y0151600D01*
X0130165Y0147275D02*
X0142944Y0147275D01*
X0143016Y0145697D02*
X0142388Y0145492D01*
X0141799Y0145192D01*
X0141264Y0144804D01*
X0140796Y0144336D01*
X0140408Y0143801D01*
X0140108Y0143212D01*
X0139903Y0142584D01*
X0139800Y0141931D01*
X0139800Y0141800D01*
X0146400Y0141800D01*
X0146400Y0145800D01*
X0143669Y0145800D01*
X0143016Y0145697D01*
X0141366Y0144878D02*
X0131766Y0144878D01*
X0131895Y0144784D02*
X0131363Y0145171D01*
X0130777Y0145469D01*
X0130152Y0145672D01*
X0129503Y0145775D01*
X0126787Y0145775D01*
X0126787Y0141787D01*
X0133350Y0141787D01*
X0133350Y0141929D01*
X0133247Y0142578D01*
X0133044Y0143203D01*
X0132745Y0143788D01*
X0132359Y0144320D01*
X0131895Y0144784D01*
X0132801Y0143679D02*
X0140346Y0143679D01*
X0139887Y0142481D02*
X0133262Y0142481D01*
X0133350Y0141282D02*
X0139800Y0141282D01*
X0139800Y0141269D02*
X0139903Y0140616D01*
X0140108Y0139988D01*
X0140408Y0139399D01*
X0140796Y0138864D01*
X0141264Y0138396D01*
X0141799Y0138008D01*
X0142388Y0137708D01*
X0143016Y0137503D01*
X0143669Y0137400D01*
X0146400Y0137400D01*
X0146400Y0141400D01*
X0146800Y0141400D01*
X0146800Y0141800D01*
X0146400Y0141800D01*
X0146400Y0141400D01*
X0139800Y0141400D01*
X0139800Y0141269D01*
X0140076Y0140084D02*
X0133072Y0140084D01*
X0132363Y0138885D02*
X0140781Y0138885D01*
X0142452Y0137687D02*
X0130641Y0137687D01*
X0126787Y0137687D02*
X0126413Y0137687D01*
X0126413Y0138885D02*
X0126787Y0138885D01*
X0126787Y0140084D02*
X0126413Y0140084D01*
X0126413Y0141282D02*
X0126787Y0141282D01*
X0126787Y0142481D02*
X0126413Y0142481D01*
X0126413Y0143679D02*
X0126787Y0143679D01*
X0126787Y0144878D02*
X0126413Y0144878D01*
X0122406Y0155665D02*
X0121212Y0155665D01*
X0120014Y0156863D02*
X0154200Y0156863D01*
X0154200Y0155665D02*
X0150885Y0155665D01*
X0150075Y0157200D02*
X0151692Y0157870D01*
X0152930Y0159108D01*
X0153600Y0160725D01*
X0153600Y0162475D01*
X0152930Y0164092D01*
X0151692Y0165330D01*
X0150075Y0166000D01*
X0143125Y0166000D01*
X0141676Y0165400D01*
X0131433Y0165400D01*
X0130045Y0165975D01*
X0123155Y0165975D01*
X0121547Y0165309D01*
X0120316Y0164078D01*
X0119650Y0162470D01*
X0119650Y0160730D01*
X0120316Y0159122D01*
X0121547Y0157891D01*
X0123155Y0157225D01*
X0130045Y0157225D01*
X0131433Y0157800D01*
X0141676Y0157800D01*
X0143125Y0157200D01*
X0150075Y0157200D01*
X0151884Y0158062D02*
X0154200Y0158062D01*
X0154200Y0159260D02*
X0152993Y0159260D01*
X0153490Y0160459D02*
X0154200Y0160459D01*
X0154200Y0161657D02*
X0153600Y0161657D01*
X0153442Y0162856D02*
X0154200Y0162856D01*
X0154200Y0164054D02*
X0152946Y0164054D01*
X0151770Y0165253D02*
X0154200Y0165253D01*
X0154200Y0166451D02*
X0114200Y0166451D01*
X0114200Y0165253D02*
X0121491Y0165253D01*
X0120306Y0164054D02*
X0114200Y0164054D01*
X0114200Y0162856D02*
X0119810Y0162856D01*
X0119650Y0161657D02*
X0115220Y0161657D01*
X0116418Y0160459D02*
X0119763Y0160459D01*
X0120259Y0159260D02*
X0117617Y0159260D01*
X0118815Y0158062D02*
X0121377Y0158062D01*
X0112660Y0156863D02*
X0014700Y0156863D01*
X0014700Y0155665D02*
X0022315Y0155665D01*
X0021508Y0155330D02*
X0023125Y0156000D01*
X0030075Y0156000D01*
X0031524Y0155400D01*
X0039177Y0155400D01*
X0039777Y0156000D01*
X0043423Y0156000D01*
X0046000Y0153423D01*
X0046000Y0149777D01*
X0043423Y0147200D01*
X0039777Y0147200D01*
X0039177Y0147800D01*
X0031524Y0147800D01*
X0030075Y0147200D01*
X0023125Y0147200D01*
X0021508Y0147870D01*
X0020270Y0149108D01*
X0019600Y0150725D01*
X0019600Y0152475D01*
X0020270Y0154092D01*
X0021508Y0155330D01*
X0020643Y0154466D02*
X0014700Y0154466D01*
X0014700Y0153268D02*
X0019928Y0153268D01*
X0019600Y0152069D02*
X0014700Y0152069D01*
X0014700Y0150870D02*
X0019600Y0150870D01*
X0020036Y0149672D02*
X0014700Y0149672D01*
X0014700Y0148473D02*
X0020904Y0148473D01*
X0022944Y0147275D02*
X0014700Y0147275D01*
X0014700Y0146076D02*
X0045702Y0146076D01*
X0044504Y0144878D02*
X0035116Y0144878D01*
X0036395Y0143679D02*
X0043348Y0143679D01*
X0042852Y0142481D02*
X0037593Y0142481D01*
X0038792Y0141282D02*
X0040654Y0141282D01*
X0039703Y0147275D02*
X0030256Y0147275D01*
X0021055Y0144878D02*
X0014700Y0144878D01*
X0014700Y0143679D02*
X0020099Y0143679D01*
X0019602Y0142481D02*
X0014700Y0142481D01*
X0014700Y0141282D02*
X0019600Y0141282D01*
X0019865Y0140084D02*
X0014700Y0140084D01*
X0014700Y0138885D02*
X0020492Y0138885D01*
X0021949Y0137687D02*
X0014700Y0137687D01*
X0014700Y0136488D02*
X0031800Y0136488D01*
X0031800Y0135290D02*
X0031733Y0135290D01*
X0031639Y0137687D02*
X0031251Y0137687D01*
X0039400Y0134012D02*
X0040381Y0133031D01*
X0042145Y0132300D01*
X0050055Y0132300D01*
X0051819Y0133031D01*
X0053169Y0134381D01*
X0053300Y0134697D01*
X0053300Y0128989D01*
X0053034Y0129511D01*
X0052609Y0130097D01*
X0052097Y0130609D01*
X0051511Y0131034D01*
X0050866Y0131363D01*
X0050177Y0131587D01*
X0049462Y0131700D01*
X0046500Y0131700D01*
X0046500Y0127500D01*
X0045700Y0127500D01*
X0045700Y0131700D01*
X0042738Y0131700D01*
X0042023Y0131587D01*
X0041334Y0131363D01*
X0040689Y0131034D01*
X0040103Y0130609D01*
X0039591Y0130097D01*
X0039400Y0129833D01*
X0039400Y0134012D01*
X0039400Y0132893D02*
X0040714Y0132893D01*
X0039400Y0131694D02*
X0042702Y0131694D01*
X0039990Y0130496D02*
X0039400Y0130496D01*
X0045700Y0130496D02*
X0046500Y0130496D01*
X0046500Y0131694D02*
X0045700Y0131694D01*
X0045700Y0129297D02*
X0046500Y0129297D01*
X0046500Y0128099D02*
X0045700Y0128099D01*
X0045700Y0126700D02*
X0046500Y0126700D01*
X0046500Y0122500D01*
X0049462Y0122500D01*
X0050177Y0122613D01*
X0050269Y0122643D01*
X0049526Y0121900D01*
X0042145Y0121900D01*
X0041458Y0121616D01*
X0039400Y0123674D01*
X0039400Y0124367D01*
X0039591Y0124103D01*
X0040103Y0123591D01*
X0040689Y0123166D01*
X0041334Y0122837D01*
X0042023Y0122613D01*
X0042738Y0122500D01*
X0045700Y0122500D01*
X0045700Y0126700D01*
X0045700Y0125702D02*
X0046500Y0125702D01*
X0046500Y0124503D02*
X0045700Y0124503D01*
X0045700Y0123305D02*
X0046500Y0123305D01*
X0049732Y0122106D02*
X0040968Y0122106D01*
X0040498Y0123305D02*
X0039769Y0123305D01*
X0033815Y0118511D02*
X0032050Y0118511D01*
X0035014Y0117312D02*
X0014700Y0117312D01*
X0014700Y0116114D02*
X0036212Y0116114D01*
X0038102Y0107724D02*
X0031340Y0107724D01*
X0031300Y0105994D02*
X0030623Y0105887D01*
X0029934Y0105663D01*
X0029289Y0105334D01*
X0028703Y0104909D01*
X0028191Y0104397D01*
X0027766Y0103811D01*
X0027437Y0103166D01*
X0027213Y0102477D01*
X0027100Y0101762D01*
X0027100Y0098800D01*
X0031300Y0098800D01*
X0031300Y0105994D01*
X0031300Y0105327D02*
X0032100Y0105327D01*
X0032100Y0105994D02*
X0032100Y0098800D01*
X0036300Y0098800D01*
X0036300Y0101762D01*
X0036187Y0102477D01*
X0035963Y0103166D01*
X0035634Y0103811D01*
X0035209Y0104397D01*
X0034697Y0104909D01*
X0034111Y0105334D01*
X0033466Y0105663D01*
X0032777Y0105887D01*
X0032100Y0105994D01*
X0032100Y0104129D02*
X0031300Y0104129D01*
X0031300Y0102930D02*
X0032100Y0102930D01*
X0032100Y0101732D02*
X0031300Y0101732D01*
X0031300Y0100533D02*
X0032100Y0100533D01*
X0032100Y0099334D02*
X0031300Y0099334D01*
X0031300Y0098800D02*
X0032100Y0098800D01*
X0032100Y0098000D01*
X0036300Y0098000D01*
X0036300Y0095038D01*
X0036187Y0094323D01*
X0035963Y0093634D01*
X0035634Y0092989D01*
X0035209Y0092403D01*
X0034697Y0091891D01*
X0034111Y0091466D01*
X0033466Y0091137D01*
X0032777Y0090913D01*
X0032100Y0090806D01*
X0032100Y0098000D01*
X0031300Y0098000D01*
X0031300Y0090806D01*
X0030623Y0090913D01*
X0029934Y0091137D01*
X0029289Y0091466D01*
X0028703Y0091891D01*
X0028191Y0092403D01*
X0027766Y0092989D01*
X0027437Y0093634D01*
X0027213Y0094323D01*
X0027100Y0095038D01*
X0027100Y0098000D01*
X0031300Y0098000D01*
X0031300Y0098800D01*
X0031300Y0098136D02*
X0014700Y0098136D01*
X0014700Y0099334D02*
X0027100Y0099334D01*
X0027100Y0100533D02*
X0014700Y0100533D01*
X0014700Y0101732D02*
X0027100Y0101732D01*
X0027360Y0102930D02*
X0014700Y0102930D01*
X0014700Y0104129D02*
X0027997Y0104129D01*
X0029279Y0105327D02*
X0014700Y0105327D01*
X0014700Y0106526D02*
X0039300Y0106526D01*
X0041279Y0105327D02*
X0034121Y0105327D01*
X0035403Y0104129D02*
X0045440Y0104129D01*
X0044938Y0102930D02*
X0036040Y0102930D01*
X0036300Y0101732D02*
X0044700Y0101732D01*
X0044700Y0100533D02*
X0036300Y0100533D01*
X0036300Y0099334D02*
X0044700Y0099334D01*
X0044700Y0098136D02*
X0032100Y0098136D01*
X0032100Y0096937D02*
X0031300Y0096937D01*
X0031300Y0095739D02*
X0032100Y0095739D01*
X0032100Y0094540D02*
X0031300Y0094540D01*
X0031300Y0093342D02*
X0032100Y0093342D01*
X0032100Y0092143D02*
X0031300Y0092143D01*
X0031300Y0090945D02*
X0032100Y0090945D01*
X0032875Y0090945D02*
X0047712Y0090945D01*
X0045968Y0092143D02*
X0034949Y0092143D01*
X0035814Y0093342D02*
X0045157Y0093342D01*
X0044700Y0094540D02*
X0036221Y0094540D01*
X0036300Y0095739D02*
X0044700Y0095739D01*
X0044700Y0096937D02*
X0036300Y0096937D01*
X0030525Y0090945D02*
X0014700Y0090945D01*
X0014700Y0092143D02*
X0028451Y0092143D01*
X0027586Y0093342D02*
X0014700Y0093342D01*
X0014700Y0094540D02*
X0027179Y0094540D01*
X0027100Y0095739D02*
X0014700Y0095739D01*
X0014700Y0096937D02*
X0027100Y0096937D01*
X0014700Y0089746D02*
X0057800Y0089746D01*
X0057800Y0088548D02*
X0014700Y0088548D01*
X0014700Y0087349D02*
X0057800Y0087349D01*
X0057800Y0086151D02*
X0014700Y0086151D01*
X0014700Y0084952D02*
X0057800Y0084952D01*
X0057800Y0083754D02*
X0014700Y0083754D01*
X0014700Y0082555D02*
X0057800Y0082555D01*
X0057800Y0081357D02*
X0014700Y0081357D01*
X0014700Y0080158D02*
X0029679Y0080158D01*
X0028981Y0079869D02*
X0027631Y0078519D01*
X0026900Y0076755D01*
X0026900Y0068845D01*
X0027631Y0067081D01*
X0028981Y0065731D01*
X0030745Y0065000D01*
X0032655Y0065000D01*
X0034419Y0065731D01*
X0035769Y0067081D01*
X0036500Y0068845D01*
X0036500Y0076755D01*
X0035769Y0078519D01*
X0034419Y0079869D01*
X0032655Y0080600D01*
X0030745Y0080600D01*
X0028981Y0079869D01*
X0028072Y0078960D02*
X0014700Y0078960D01*
X0014700Y0077761D02*
X0027317Y0077761D01*
X0026900Y0076563D02*
X0014700Y0076563D01*
X0014700Y0075364D02*
X0026900Y0075364D01*
X0026900Y0074166D02*
X0014700Y0074166D01*
X0014700Y0072967D02*
X0026900Y0072967D01*
X0026900Y0071769D02*
X0014700Y0071769D01*
X0014700Y0070570D02*
X0026900Y0070570D01*
X0026900Y0069372D02*
X0014700Y0069372D01*
X0014700Y0068173D02*
X0027178Y0068173D01*
X0027737Y0066975D02*
X0014700Y0066975D01*
X0014700Y0065776D02*
X0028936Y0065776D01*
X0027227Y0062181D02*
X0060645Y0062181D01*
X0061844Y0060982D02*
X0027723Y0060982D01*
X0028168Y0059784D02*
X0063042Y0059784D01*
X0064241Y0058585D02*
X0028168Y0058585D01*
X0028168Y0057387D02*
X0155024Y0057387D01*
X0154531Y0057879D02*
X0156379Y0056031D01*
X0158793Y0055031D01*
X0161407Y0055031D01*
X0163821Y0056031D01*
X0165669Y0057879D01*
X0166668Y0060293D01*
X0166668Y0062907D01*
X0165669Y0065321D01*
X0163821Y0067169D01*
X0161407Y0068168D01*
X0158793Y0068168D01*
X0156379Y0067169D01*
X0154531Y0065321D01*
X0153531Y0062907D01*
X0153531Y0060293D01*
X0154531Y0057879D01*
X0154239Y0058585D02*
X0138959Y0058585D01*
X0140158Y0059784D02*
X0153743Y0059784D01*
X0153531Y0060982D02*
X0141356Y0060982D01*
X0142555Y0062181D02*
X0153531Y0062181D01*
X0153727Y0063379D02*
X0143753Y0063379D01*
X0144952Y0064578D02*
X0154224Y0064578D01*
X0154987Y0065776D02*
X0146150Y0065776D01*
X0147349Y0066975D02*
X0156185Y0066975D01*
X0152143Y0071769D02*
X0170701Y0071769D01*
X0170701Y0072967D02*
X0153341Y0072967D01*
X0154540Y0074166D02*
X0170701Y0074166D01*
X0170701Y0075364D02*
X0155738Y0075364D01*
X0156937Y0076563D02*
X0170701Y0076563D01*
X0170701Y0077761D02*
X0158135Y0077761D01*
X0159334Y0078960D02*
X0170701Y0078960D01*
X0170701Y0080158D02*
X0160532Y0080158D01*
X0161731Y0081357D02*
X0170701Y0081357D01*
X0170701Y0082555D02*
X0162929Y0082555D01*
X0164128Y0083754D02*
X0170701Y0083754D01*
X0170701Y0084952D02*
X0165326Y0084952D01*
X0166525Y0086151D02*
X0170701Y0086151D01*
X0170701Y0087349D02*
X0167723Y0087349D01*
X0168922Y0088548D02*
X0170701Y0088548D01*
X0170701Y0089746D02*
X0169945Y0089746D01*
X0170400Y0090945D02*
X0170701Y0090945D01*
X0170701Y0092143D02*
X0170400Y0092143D01*
X0170400Y0093342D02*
X0170701Y0093342D01*
X0170701Y0094540D02*
X0170400Y0094540D01*
X0170400Y0095739D02*
X0170701Y0095739D01*
X0170701Y0096937D02*
X0170400Y0096937D01*
X0170400Y0098136D02*
X0170701Y0098136D01*
X0170701Y0099334D02*
X0170400Y0099334D01*
X0170400Y0100533D02*
X0170701Y0100533D01*
X0170701Y0101732D02*
X0170400Y0101732D01*
X0170400Y0102930D02*
X0170701Y0102930D01*
X0170701Y0104129D02*
X0170400Y0104129D01*
X0170400Y0105327D02*
X0170701Y0105327D01*
X0170701Y0106526D02*
X0170400Y0106526D01*
X0170400Y0107724D02*
X0170701Y0107724D01*
X0170701Y0108923D02*
X0170400Y0108923D01*
X0170400Y0110121D02*
X0170701Y0110121D01*
X0170701Y0111320D02*
X0170400Y0111320D01*
X0170400Y0112518D02*
X0170701Y0112518D01*
X0170701Y0113717D02*
X0170400Y0113717D01*
X0170400Y0114915D02*
X0170701Y0114915D01*
X0170701Y0116114D02*
X0170400Y0116114D01*
X0170400Y0117312D02*
X0170701Y0117312D01*
X0170701Y0118511D02*
X0170400Y0118511D01*
X0170400Y0119709D02*
X0170701Y0119709D01*
X0170701Y0120908D02*
X0170400Y0120908D01*
X0170400Y0122106D02*
X0170701Y0122106D01*
X0170701Y0123305D02*
X0170400Y0123305D01*
X0170400Y0124503D02*
X0170701Y0124503D01*
X0170701Y0125702D02*
X0170400Y0125702D01*
X0170400Y0126900D02*
X0170701Y0126900D01*
X0170701Y0128099D02*
X0170400Y0128099D01*
X0170400Y0129297D02*
X0170701Y0129297D01*
X0170701Y0130496D02*
X0170400Y0130496D01*
X0170400Y0131694D02*
X0170701Y0131694D01*
X0170701Y0132893D02*
X0170400Y0132893D01*
X0170400Y0134091D02*
X0170701Y0134091D01*
X0170701Y0135290D02*
X0170400Y0135290D01*
X0170400Y0136488D02*
X0170701Y0136488D01*
X0170701Y0137687D02*
X0170400Y0137687D01*
X0170400Y0138885D02*
X0170701Y0138885D01*
X0170701Y0140084D02*
X0170400Y0140084D01*
X0170400Y0141282D02*
X0170701Y0141282D01*
X0170701Y0142481D02*
X0170400Y0142481D01*
X0170400Y0143679D02*
X0170701Y0143679D01*
X0170701Y0144878D02*
X0170400Y0144878D01*
X0170400Y0146076D02*
X0170701Y0146076D01*
X0170701Y0147275D02*
X0170400Y0147275D01*
X0170400Y0148473D02*
X0170701Y0148473D01*
X0170701Y0149672D02*
X0170400Y0149672D01*
X0170400Y0150870D02*
X0170701Y0150870D01*
X0170701Y0152069D02*
X0170400Y0152069D01*
X0170400Y0153268D02*
X0170701Y0153268D01*
X0170701Y0154466D02*
X0170400Y0154466D01*
X0170400Y0155665D02*
X0170701Y0155665D01*
X0170701Y0156863D02*
X0170400Y0156863D01*
X0170400Y0158062D02*
X0170701Y0158062D01*
X0170701Y0159260D02*
X0170400Y0159260D01*
X0170400Y0160459D02*
X0170701Y0160459D01*
X0170701Y0161657D02*
X0170400Y0161657D01*
X0170400Y0162856D02*
X0170701Y0162856D01*
X0170701Y0164054D02*
X0170400Y0164054D01*
X0170400Y0165253D02*
X0170701Y0165253D01*
X0170701Y0166451D02*
X0170400Y0166451D01*
X0170400Y0167650D02*
X0170701Y0167650D01*
X0170701Y0168848D02*
X0170400Y0168848D01*
X0170400Y0170047D02*
X0170701Y0170047D01*
X0170701Y0171245D02*
X0170400Y0171245D01*
X0170400Y0172444D02*
X0170701Y0172444D01*
X0170701Y0173642D02*
X0170400Y0173642D01*
X0170400Y0174841D02*
X0170701Y0174841D01*
X0170701Y0176039D02*
X0170400Y0176039D01*
X0170400Y0177238D02*
X0170701Y0177238D01*
X0170701Y0178436D02*
X0170400Y0178436D01*
X0170400Y0179635D02*
X0170701Y0179635D01*
X0170701Y0180833D02*
X0170400Y0180833D01*
X0170400Y0182032D02*
X0170701Y0182032D01*
X0170701Y0183230D02*
X0170400Y0183230D01*
X0170400Y0184429D02*
X0170701Y0184429D01*
X0170701Y0185627D02*
X0170400Y0185627D01*
X0170400Y0186826D02*
X0170701Y0186826D01*
X0170701Y0188024D02*
X0170400Y0188024D01*
X0170400Y0189223D02*
X0170701Y0189223D01*
X0170701Y0190421D02*
X0170400Y0190421D01*
X0170400Y0191620D02*
X0170701Y0191620D01*
X0170701Y0192818D02*
X0170400Y0192818D01*
X0170400Y0194017D02*
X0170701Y0194017D01*
X0170701Y0195215D02*
X0170400Y0195215D01*
X0170400Y0196414D02*
X0170701Y0196414D01*
X0170701Y0197612D02*
X0170400Y0197612D01*
X0170400Y0198811D02*
X0170701Y0198811D01*
X0170701Y0200009D02*
X0170400Y0200009D01*
X0170400Y0201208D02*
X0170701Y0201208D01*
X0170701Y0202406D02*
X0170400Y0202406D01*
X0170400Y0203605D02*
X0170701Y0203605D01*
X0170701Y0204803D02*
X0170400Y0204803D01*
X0170400Y0206002D02*
X0170701Y0206002D01*
X0170701Y0207201D02*
X0170400Y0207201D01*
X0170400Y0208399D02*
X0170701Y0208399D01*
X0170701Y0209598D02*
X0170400Y0209598D01*
X0170400Y0210796D02*
X0170701Y0210796D01*
X0170701Y0211995D02*
X0170400Y0211995D01*
X0170400Y0213193D02*
X0170701Y0213193D01*
X0170701Y0214392D02*
X0170400Y0214392D01*
X0170303Y0215590D02*
X0170701Y0215590D01*
X0170701Y0216789D02*
X0169785Y0216789D01*
X0170701Y0217987D02*
X0168587Y0217987D01*
X0167388Y0219186D02*
X0170701Y0219186D01*
X0170701Y0220384D02*
X0166190Y0220384D01*
X0164991Y0221583D02*
X0170701Y0221583D01*
X0170701Y0222781D02*
X0163793Y0222781D01*
X0162900Y0223980D02*
X0170701Y0223980D01*
X0170701Y0225178D02*
X0162900Y0225178D01*
X0162900Y0226377D02*
X0170701Y0226377D01*
X0170701Y0227575D02*
X0162900Y0227575D01*
X0162900Y0228774D02*
X0170701Y0228774D01*
X0170701Y0229972D02*
X0162900Y0229972D01*
X0162900Y0231171D02*
X0170701Y0231171D01*
X0170701Y0232369D02*
X0162900Y0232369D01*
X0162900Y0233568D02*
X0170701Y0233568D01*
X0170701Y0234766D02*
X0162900Y0234766D01*
X0162900Y0235965D02*
X0170701Y0235965D01*
X0170701Y0237163D02*
X0162900Y0237163D01*
X0162900Y0238362D02*
X0170701Y0238362D01*
X0170701Y0239560D02*
X0162900Y0239560D01*
X0162900Y0240759D02*
X0170701Y0240759D01*
X0170701Y0241957D02*
X0162900Y0241957D01*
X0162900Y0243156D02*
X0170701Y0243156D01*
X0170701Y0244354D02*
X0162900Y0244354D01*
X0162900Y0245553D02*
X0170701Y0245553D01*
X0170701Y0246751D02*
X0162900Y0246751D01*
X0162900Y0247950D02*
X0170701Y0247950D01*
X0170701Y0249148D02*
X0162900Y0249148D01*
X0162900Y0250347D02*
X0170701Y0250347D01*
X0170701Y0251545D02*
X0162900Y0251545D01*
X0162900Y0252744D02*
X0170701Y0252744D01*
X0170701Y0253942D02*
X0162900Y0253942D01*
X0162900Y0255141D02*
X0170701Y0255141D01*
X0170701Y0256339D02*
X0162900Y0256339D01*
X0162900Y0257538D02*
X0170701Y0257538D01*
X0170701Y0258737D02*
X0162900Y0258737D01*
X0162900Y0259935D02*
X0170701Y0259935D01*
X0170701Y0261134D02*
X0162900Y0261134D01*
X0162900Y0262332D02*
X0170701Y0262332D01*
X0170701Y0263531D02*
X0162900Y0263531D01*
X0162900Y0264729D02*
X0170701Y0264729D01*
X0170701Y0265928D02*
X0162900Y0265928D01*
X0162900Y0267126D02*
X0170701Y0267126D01*
X0170701Y0268325D02*
X0162900Y0268325D01*
X0162900Y0269523D02*
X0170701Y0269523D01*
X0170701Y0270722D02*
X0162900Y0270722D01*
X0162900Y0271920D02*
X0170701Y0271920D01*
X0170701Y0273119D02*
X0162900Y0273119D01*
X0162900Y0274317D02*
X0170701Y0274317D01*
X0170701Y0275516D02*
X0162900Y0275516D01*
X0162900Y0276714D02*
X0170701Y0276714D01*
X0170701Y0277913D02*
X0162900Y0277913D01*
X0162900Y0279111D02*
X0170701Y0279111D01*
X0170701Y0280310D02*
X0162712Y0280310D01*
X0162066Y0281508D02*
X0170701Y0281508D01*
X0170701Y0282707D02*
X0160867Y0282707D01*
X0159669Y0283905D02*
X0170701Y0283905D01*
X0170701Y0285104D02*
X0158470Y0285104D01*
X0157272Y0286302D02*
X0170701Y0286302D01*
X0170701Y0287501D02*
X0156073Y0287501D01*
X0155400Y0288699D02*
X0170701Y0288699D01*
X0170701Y0289898D02*
X0155400Y0289898D01*
X0155400Y0291096D02*
X0170701Y0291096D01*
X0170701Y0292295D02*
X0155400Y0292295D01*
X0155400Y0293493D02*
X0170701Y0293493D01*
X0170701Y0294692D02*
X0155400Y0294692D01*
X0155400Y0295890D02*
X0170701Y0295890D01*
X0170701Y0297089D02*
X0155400Y0297089D01*
X0155400Y0298287D02*
X0170701Y0298287D01*
X0170701Y0299486D02*
X0155400Y0299486D01*
X0155400Y0300684D02*
X0170701Y0300684D01*
X0170701Y0301883D02*
X0155400Y0301883D01*
X0155099Y0303081D02*
X0170701Y0303081D01*
X0170701Y0304280D02*
X0154294Y0304280D01*
X0153096Y0305478D02*
X0170701Y0305478D01*
X0170701Y0306677D02*
X0151897Y0306677D01*
X0150699Y0307875D02*
X0170701Y0307875D01*
X0170701Y0309074D02*
X0149500Y0309074D01*
X0148302Y0310272D02*
X0170701Y0310272D01*
X0170701Y0311471D02*
X0147103Y0311471D01*
X0145904Y0312670D02*
X0170701Y0312670D01*
X0170701Y0313868D02*
X0144706Y0313868D01*
X0143507Y0315067D02*
X0170701Y0315067D01*
X0170701Y0316265D02*
X0143705Y0316265D01*
X0144903Y0317464D02*
X0170701Y0317464D01*
X0170701Y0318662D02*
X0145800Y0318662D01*
X0145800Y0319861D02*
X0170701Y0319861D01*
X0170701Y0321059D02*
X0145800Y0321059D01*
X0145382Y0322258D02*
X0170701Y0322258D01*
X0170701Y0323456D02*
X0144184Y0323456D01*
X0143423Y0325700D02*
X0146000Y0328277D01*
X0146000Y0331923D01*
X0145900Y0332023D01*
X0145900Y0338900D01*
X0146550Y0339550D01*
X0146550Y0343650D01*
X0143650Y0346550D01*
X0139550Y0346550D01*
X0136650Y0343650D01*
X0136650Y0339550D01*
X0137300Y0338900D01*
X0137300Y0332023D01*
X0137200Y0331923D01*
X0137200Y0328277D01*
X0139777Y0325700D01*
X0143423Y0325700D01*
X0143576Y0325853D02*
X0170701Y0325853D01*
X0170701Y0324655D02*
X0138500Y0324655D01*
X0138500Y0325853D02*
X0139624Y0325853D01*
X0138426Y0327052D02*
X0138371Y0327052D01*
X0137227Y0328250D02*
X0137172Y0328250D01*
X0137200Y0329449D02*
X0135974Y0329449D01*
X0137200Y0330647D02*
X0130153Y0330647D01*
X0131200Y0331695D02*
X0128505Y0329000D01*
X0124695Y0329000D01*
X0122000Y0331695D01*
X0122000Y0335505D01*
X0124695Y0338200D01*
X0128505Y0338200D01*
X0131200Y0335505D01*
X0131200Y0331695D01*
X0131200Y0331846D02*
X0137200Y0331846D01*
X0137300Y0333044D02*
X0131200Y0333044D01*
X0131200Y0334243D02*
X0137300Y0334243D01*
X0137300Y0335441D02*
X0131200Y0335441D01*
X0130066Y0336640D02*
X0137300Y0336640D01*
X0137300Y0337838D02*
X0128867Y0337838D01*
X0127549Y0340863D02*
X0129301Y0341589D01*
X0130643Y0342930D01*
X0131368Y0344683D01*
X0131368Y0352517D01*
X0130643Y0354270D01*
X0129301Y0355611D01*
X0127549Y0356337D01*
X0125651Y0356337D01*
X0123899Y0355611D01*
X0122557Y0354270D01*
X0121831Y0352517D01*
X0121831Y0344683D01*
X0122557Y0342930D01*
X0123899Y0341589D01*
X0125651Y0340863D01*
X0127549Y0340863D01*
X0128927Y0341434D02*
X0136650Y0341434D01*
X0136650Y0342632D02*
X0130344Y0342632D01*
X0131016Y0343831D02*
X0136830Y0343831D01*
X0138029Y0345029D02*
X0131368Y0345029D01*
X0131368Y0346228D02*
X0139227Y0346228D01*
X0139632Y0346850D02*
X0136850Y0349632D01*
X0136850Y0351400D01*
X0141400Y0351400D01*
X0141400Y0351800D01*
X0141400Y0356350D01*
X0139632Y0356350D01*
X0136850Y0353568D01*
X0136850Y0351800D01*
X0141400Y0351800D01*
X0141800Y0351800D01*
X0141800Y0356350D01*
X0143568Y0356350D01*
X0146350Y0353568D01*
X0146350Y0351800D01*
X0141800Y0351800D01*
X0141800Y0351400D01*
X0146350Y0351400D01*
X0146350Y0349632D01*
X0143568Y0346850D01*
X0141800Y0346850D01*
X0141800Y0351400D01*
X0141400Y0351400D01*
X0141400Y0346850D01*
X0139632Y0346850D01*
X0139056Y0347426D02*
X0131368Y0347426D01*
X0131368Y0348625D02*
X0137858Y0348625D01*
X0136850Y0349823D02*
X0131368Y0349823D01*
X0131368Y0351022D02*
X0136850Y0351022D01*
X0136850Y0352220D02*
X0131368Y0352220D01*
X0130995Y0353419D02*
X0136850Y0353419D01*
X0137900Y0354617D02*
X0130295Y0354617D01*
X0128807Y0355816D02*
X0139098Y0355816D01*
X0141400Y0355816D02*
X0141800Y0355816D01*
X0141800Y0354617D02*
X0141400Y0354617D01*
X0141400Y0353419D02*
X0141800Y0353419D01*
X0141800Y0352220D02*
X0141400Y0352220D01*
X0141400Y0351022D02*
X0141800Y0351022D01*
X0141800Y0349823D02*
X0141400Y0349823D01*
X0141400Y0348625D02*
X0141800Y0348625D01*
X0141800Y0347426D02*
X0141400Y0347426D01*
X0144144Y0347426D02*
X0153531Y0347426D01*
X0153531Y0347907D02*
X0153531Y0345293D01*
X0154531Y0342879D01*
X0156379Y0341031D01*
X0158793Y0340031D01*
X0161407Y0340031D01*
X0163821Y0341031D01*
X0165669Y0342879D01*
X0166668Y0345293D01*
X0166668Y0347907D01*
X0165669Y0350321D01*
X0163821Y0352169D01*
X0161407Y0353168D01*
X0158793Y0353168D01*
X0156379Y0352169D01*
X0154531Y0350321D01*
X0153531Y0347907D01*
X0153829Y0348625D02*
X0145342Y0348625D01*
X0146350Y0349823D02*
X0154325Y0349823D01*
X0155233Y0351022D02*
X0146350Y0351022D01*
X0146350Y0352220D02*
X0156504Y0352220D01*
X0153531Y0346228D02*
X0143973Y0346228D01*
X0145171Y0345029D02*
X0153641Y0345029D01*
X0154137Y0343831D02*
X0146370Y0343831D01*
X0146550Y0342632D02*
X0154778Y0342632D01*
X0155977Y0341434D02*
X0146550Y0341434D01*
X0146550Y0340235D02*
X0158301Y0340235D01*
X0161899Y0340235D02*
X0170701Y0340235D01*
X0170701Y0339037D02*
X0146037Y0339037D01*
X0145900Y0337838D02*
X0170701Y0337838D01*
X0170701Y0336640D02*
X0145900Y0336640D01*
X0145900Y0335441D02*
X0170701Y0335441D01*
X0170701Y0334243D02*
X0145900Y0334243D01*
X0145900Y0333044D02*
X0170701Y0333044D01*
X0170701Y0331846D02*
X0146000Y0331846D01*
X0146000Y0330647D02*
X0170701Y0330647D01*
X0170701Y0329449D02*
X0146000Y0329449D01*
X0145973Y0328250D02*
X0170701Y0328250D01*
X0170701Y0327052D02*
X0144774Y0327052D01*
X0141800Y0323456D02*
X0141400Y0323456D01*
X0141400Y0322258D02*
X0141800Y0322258D01*
X0141800Y0321059D02*
X0141400Y0321059D01*
X0141400Y0319861D02*
X0141800Y0319861D01*
X0141800Y0318662D02*
X0141400Y0318662D01*
X0141400Y0317464D02*
X0141800Y0317464D01*
X0141800Y0316265D02*
X0141400Y0316265D01*
X0137400Y0319861D02*
X0137299Y0319861D01*
X0137400Y0321059D02*
X0136282Y0321059D01*
X0137480Y0322258D02*
X0137818Y0322258D01*
X0138500Y0323456D02*
X0139016Y0323456D01*
X0132226Y0329449D02*
X0128954Y0329449D01*
X0124246Y0329449D02*
X0124060Y0329449D01*
X0123047Y0330647D02*
X0122861Y0330647D01*
X0122000Y0331846D02*
X0121663Y0331846D01*
X0122000Y0333044D02*
X0120464Y0333044D01*
X0119266Y0334243D02*
X0122000Y0334243D01*
X0122000Y0335441D02*
X0119000Y0335441D01*
X0119000Y0336640D02*
X0123134Y0336640D01*
X0124333Y0337838D02*
X0118560Y0337838D01*
X0117472Y0339037D02*
X0137163Y0339037D01*
X0136650Y0340235D02*
X0116273Y0340235D01*
X0116216Y0341434D02*
X0116984Y0341434D01*
X0116984Y0342632D02*
X0116216Y0342632D01*
X0116216Y0343831D02*
X0116984Y0343831D01*
X0116984Y0345029D02*
X0116216Y0345029D01*
X0116216Y0346228D02*
X0116984Y0346228D01*
X0116984Y0347426D02*
X0116216Y0347426D01*
X0116216Y0348625D02*
X0109350Y0348625D01*
X0109350Y0348132D02*
X0109350Y0349900D01*
X0104800Y0349900D01*
X0104800Y0350300D01*
X0109350Y0350300D01*
X0109350Y0352068D01*
X0106568Y0354850D01*
X0104800Y0354850D01*
X0104800Y0350300D01*
X0104400Y0350300D01*
X0104400Y0354850D01*
X0102632Y0354850D01*
X0099850Y0352068D01*
X0099850Y0350300D01*
X0104400Y0350300D01*
X0104400Y0349900D01*
X0104800Y0349900D01*
X0104800Y0345350D01*
X0106568Y0345350D01*
X0109350Y0348132D01*
X0108644Y0347426D02*
X0112031Y0347426D01*
X0112031Y0346228D02*
X0107445Y0346228D01*
X0104800Y0346228D02*
X0104400Y0346228D01*
X0104400Y0345350D02*
X0104400Y0349900D01*
X0099850Y0349900D01*
X0099850Y0348132D01*
X0102632Y0345350D01*
X0104400Y0345350D01*
X0104400Y0347426D02*
X0104800Y0347426D01*
X0104800Y0348625D02*
X0104400Y0348625D01*
X0104400Y0349823D02*
X0104800Y0349823D01*
X0104800Y0351022D02*
X0104400Y0351022D01*
X0104400Y0352220D02*
X0104800Y0352220D01*
X0104800Y0353419D02*
X0104400Y0353419D01*
X0104400Y0354617D02*
X0104800Y0354617D01*
X0106800Y0354617D02*
X0113188Y0354617D01*
X0112415Y0353419D02*
X0107999Y0353419D01*
X0109197Y0352220D02*
X0112078Y0352220D01*
X0112031Y0351022D02*
X0109350Y0351022D01*
X0109350Y0349823D02*
X0112031Y0349823D01*
X0116216Y0349823D02*
X0116984Y0349823D01*
X0116984Y0348625D02*
X0121831Y0348625D01*
X0121831Y0349823D02*
X0121168Y0349823D01*
X0121168Y0351022D02*
X0121831Y0351022D01*
X0121831Y0352220D02*
X0121122Y0352220D01*
X0120785Y0353419D02*
X0122205Y0353419D01*
X0122905Y0354617D02*
X0120012Y0354617D01*
X0118312Y0355816D02*
X0124393Y0355816D01*
X0116984Y0355816D02*
X0116216Y0355816D01*
X0116216Y0354617D02*
X0116984Y0354617D01*
X0116984Y0353419D02*
X0116216Y0353419D01*
X0116216Y0352220D02*
X0116984Y0352220D01*
X0116984Y0351022D02*
X0116216Y0351022D01*
X0121168Y0347426D02*
X0121831Y0347426D01*
X0121831Y0346228D02*
X0121168Y0346228D01*
X0121130Y0345029D02*
X0121831Y0345029D01*
X0122184Y0343831D02*
X0120810Y0343831D01*
X0120062Y0342632D02*
X0122856Y0342632D01*
X0124273Y0341434D02*
X0118425Y0341434D01*
X0112070Y0345029D02*
X0094338Y0345029D01*
X0097728Y0346228D02*
X0101755Y0346228D01*
X0100556Y0347426D02*
X0098927Y0347426D01*
X0099550Y0348625D02*
X0099850Y0348625D01*
X0099850Y0349823D02*
X0099550Y0349823D01*
X0099550Y0351022D02*
X0099850Y0351022D01*
X0100003Y0352220D02*
X0099480Y0352220D01*
X0098281Y0353419D02*
X0101201Y0353419D01*
X0102400Y0354617D02*
X0097083Y0354617D01*
X0092117Y0354617D02*
X0053957Y0354617D01*
X0059569Y0353419D02*
X0063631Y0353419D01*
X0063881Y0353669D02*
X0062531Y0352319D01*
X0061800Y0350555D01*
X0061800Y0342645D01*
X0062531Y0340881D01*
X0063881Y0339531D01*
X0065645Y0338800D01*
X0067555Y0338800D01*
X0069319Y0339531D01*
X0070669Y0340881D01*
X0071400Y0342645D01*
X0071400Y0350555D01*
X0070669Y0352319D01*
X0069319Y0353669D01*
X0067555Y0354400D01*
X0065645Y0354400D01*
X0063881Y0353669D01*
X0062490Y0352220D02*
X0060710Y0352220D01*
X0061207Y0351022D02*
X0061993Y0351022D01*
X0061800Y0349823D02*
X0061400Y0349823D01*
X0061400Y0348625D02*
X0061800Y0348625D01*
X0061800Y0347426D02*
X0061400Y0347426D01*
X0061400Y0346228D02*
X0061800Y0346228D01*
X0061800Y0345029D02*
X0061400Y0345029D01*
X0061400Y0343831D02*
X0061800Y0343831D01*
X0061805Y0342632D02*
X0061395Y0342632D01*
X0060900Y0341434D02*
X0062302Y0341434D01*
X0063177Y0340235D02*
X0060900Y0340235D01*
X0060900Y0339037D02*
X0065074Y0339037D01*
X0068126Y0339037D02*
X0073200Y0339037D01*
X0073177Y0340235D02*
X0070023Y0340235D01*
X0070898Y0341434D02*
X0072302Y0341434D01*
X0071805Y0342632D02*
X0071395Y0342632D01*
X0071400Y0343831D02*
X0071800Y0343831D01*
X0071800Y0345029D02*
X0071400Y0345029D01*
X0071400Y0346228D02*
X0071800Y0346228D01*
X0071800Y0347426D02*
X0071400Y0347426D01*
X0071400Y0348625D02*
X0071800Y0348625D01*
X0071800Y0349823D02*
X0071400Y0349823D01*
X0071207Y0351022D02*
X0071993Y0351022D01*
X0072490Y0352220D02*
X0070710Y0352220D01*
X0069569Y0353419D02*
X0073631Y0353419D01*
X0079569Y0353419D02*
X0090919Y0353419D01*
X0089720Y0352220D02*
X0080710Y0352220D01*
X0081207Y0351022D02*
X0089650Y0351022D01*
X0093850Y0349350D02*
X0094600Y0350100D01*
X0073200Y0337838D02*
X0060900Y0337838D01*
X0060900Y0336640D02*
X0073200Y0336640D01*
X0073200Y0335441D02*
X0060900Y0335441D01*
X0060900Y0334243D02*
X0073020Y0334243D01*
X0072200Y0333044D02*
X0061000Y0333044D01*
X0061000Y0331846D02*
X0072200Y0331846D01*
X0072200Y0330647D02*
X0061000Y0330647D01*
X0060671Y0329449D02*
X0072529Y0329449D01*
X0052529Y0329449D02*
X0035671Y0329449D01*
X0036000Y0329777D02*
X0033423Y0327200D01*
X0029777Y0327200D01*
X0027200Y0329777D01*
X0027200Y0333423D01*
X0029777Y0336000D01*
X0033423Y0336000D01*
X0036000Y0333423D01*
X0036000Y0329777D01*
X0036000Y0330647D02*
X0052200Y0330647D01*
X0052200Y0331846D02*
X0036000Y0331846D01*
X0036000Y0333044D02*
X0052200Y0333044D01*
X0052300Y0334243D02*
X0035180Y0334243D01*
X0033981Y0335441D02*
X0052300Y0335441D01*
X0052300Y0336640D02*
X0026550Y0336640D01*
X0026550Y0335441D02*
X0029219Y0335441D01*
X0028020Y0334243D02*
X0026550Y0334243D01*
X0026550Y0333044D02*
X0027200Y0333044D01*
X0027200Y0331846D02*
X0025841Y0331846D01*
X0025400Y0330647D02*
X0027200Y0330647D01*
X0027529Y0329449D02*
X0025400Y0329449D01*
X0025400Y0328250D02*
X0028727Y0328250D01*
X0025400Y0327052D02*
X0038512Y0327052D01*
X0037729Y0325853D02*
X0025400Y0325853D01*
X0024907Y0324655D02*
X0037420Y0324655D01*
X0037400Y0323456D02*
X0023830Y0323456D01*
X0022632Y0322258D02*
X0037400Y0322258D01*
X0037400Y0321059D02*
X0021433Y0321059D01*
X0020235Y0319861D02*
X0037400Y0319861D01*
X0037401Y0318662D02*
X0019900Y0318662D01*
X0019900Y0317464D02*
X0037683Y0317464D01*
X0038396Y0316265D02*
X0019900Y0316265D01*
X0019900Y0315067D02*
X0040114Y0315067D01*
X0041400Y0315067D02*
X0041800Y0315067D01*
X0041800Y0316265D02*
X0041400Y0316265D01*
X0041400Y0317464D02*
X0041800Y0317464D01*
X0041800Y0318662D02*
X0041400Y0318662D01*
X0041400Y0319861D02*
X0041800Y0319861D01*
X0041800Y0321059D02*
X0041400Y0321059D01*
X0041400Y0322258D02*
X0041800Y0322258D01*
X0041800Y0323456D02*
X0041400Y0323456D01*
X0041400Y0324655D02*
X0041800Y0324655D01*
X0041800Y0325853D02*
X0041400Y0325853D01*
X0041400Y0327052D02*
X0041800Y0327052D01*
X0041800Y0328250D02*
X0041400Y0328250D01*
X0040474Y0328250D02*
X0034473Y0328250D01*
X0042726Y0328250D02*
X0049876Y0328250D01*
X0048678Y0327052D02*
X0044688Y0327052D01*
X0045471Y0325853D02*
X0047479Y0325853D01*
X0046281Y0324655D02*
X0045780Y0324655D01*
X0044300Y0315067D02*
X0043086Y0315067D01*
X0044300Y0313868D02*
X0019900Y0313868D01*
X0019900Y0312670D02*
X0044300Y0312670D01*
X0044300Y0311471D02*
X0019900Y0311471D01*
X0019900Y0310272D02*
X0044300Y0310272D01*
X0044300Y0309074D02*
X0019900Y0309074D01*
X0019900Y0307875D02*
X0044300Y0307875D01*
X0044300Y0306677D02*
X0019900Y0306677D01*
X0019900Y0305478D02*
X0044659Y0305478D01*
X0045546Y0304280D02*
X0019900Y0304280D01*
X0015479Y0325853D02*
X0014700Y0325853D01*
X0014700Y0327052D02*
X0016678Y0327052D01*
X0017800Y0328250D02*
X0014700Y0328250D01*
X0014700Y0329449D02*
X0017800Y0329449D01*
X0017800Y0330647D02*
X0014700Y0330647D01*
X0014700Y0331846D02*
X0017359Y0331846D01*
X0016650Y0333044D02*
X0014700Y0333044D01*
X0014700Y0334243D02*
X0016650Y0334243D01*
X0016650Y0335441D02*
X0014700Y0335441D01*
X0014700Y0336640D02*
X0016650Y0336640D01*
X0016650Y0337838D02*
X0014700Y0337838D01*
X0014700Y0339037D02*
X0016650Y0339037D01*
X0016650Y0340235D02*
X0014700Y0340235D01*
X0014700Y0341434D02*
X0016650Y0341434D01*
X0016650Y0342632D02*
X0014700Y0342632D01*
X0014700Y0343831D02*
X0016650Y0343831D01*
X0017034Y0345029D02*
X0014700Y0345029D01*
X0014700Y0346228D02*
X0038150Y0346228D01*
X0037489Y0347426D02*
X0034427Y0347426D01*
X0034393Y0345029D02*
X0039688Y0345029D01*
X0043512Y0345029D02*
X0051800Y0345029D01*
X0051800Y0343831D02*
X0035592Y0343831D01*
X0036000Y0342632D02*
X0051805Y0342632D01*
X0052300Y0341434D02*
X0036000Y0341434D01*
X0036000Y0340235D02*
X0052300Y0340235D01*
X0052300Y0339037D02*
X0035259Y0339037D01*
X0034061Y0337838D02*
X0052300Y0337838D01*
X0051598Y0346228D02*
X0045050Y0346228D01*
X0045711Y0347426D02*
X0050400Y0347426D01*
X0045693Y0355816D02*
X0114888Y0355816D01*
X0144102Y0355816D02*
X0170701Y0355816D01*
X0170701Y0354617D02*
X0145300Y0354617D01*
X0146350Y0353419D02*
X0170701Y0353419D01*
X0170701Y0352220D02*
X0163696Y0352220D01*
X0164967Y0351022D02*
X0170701Y0351022D01*
X0170701Y0349823D02*
X0165875Y0349823D01*
X0166371Y0348625D02*
X0170701Y0348625D01*
X0170701Y0347426D02*
X0166668Y0347426D01*
X0166668Y0346228D02*
X0170701Y0346228D01*
X0170701Y0345029D02*
X0166559Y0345029D01*
X0166063Y0343831D02*
X0170701Y0343831D01*
X0170701Y0342632D02*
X0165422Y0342632D01*
X0164223Y0341434D02*
X0170701Y0341434D01*
X0137300Y0311471D02*
X0136900Y0311471D01*
X0136900Y0310272D02*
X0137744Y0310272D01*
X0138752Y0309074D02*
X0136456Y0309074D01*
X0135664Y0307875D02*
X0139951Y0307875D01*
X0141149Y0306677D02*
X0133965Y0306677D01*
X0134072Y0305478D02*
X0142348Y0305478D01*
X0143546Y0304280D02*
X0135708Y0304280D01*
X0136475Y0303081D02*
X0144745Y0303081D01*
X0145943Y0301883D02*
X0136900Y0301883D01*
X0136900Y0300684D02*
X0147142Y0300684D01*
X0147800Y0299486D02*
X0136627Y0299486D01*
X0136076Y0298287D02*
X0147800Y0298287D01*
X0147800Y0297089D02*
X0134877Y0297089D01*
X0133078Y0295890D02*
X0147800Y0295890D01*
X0147800Y0294692D02*
X0135296Y0294692D01*
X0136304Y0293493D02*
X0147800Y0293493D01*
X0147800Y0292295D02*
X0136801Y0292295D01*
X0136900Y0291096D02*
X0147800Y0291096D01*
X0147800Y0289898D02*
X0136798Y0289898D01*
X0136301Y0288699D02*
X0147800Y0288699D01*
X0147800Y0287501D02*
X0135289Y0287501D01*
X0133060Y0286302D02*
X0147800Y0286302D01*
X0148107Y0285104D02*
X0134375Y0285104D01*
X0134511Y0285034D02*
X0133866Y0285363D01*
X0133177Y0285587D01*
X0132462Y0285700D01*
X0129500Y0285700D01*
X0129500Y0281500D01*
X0128700Y0281500D01*
X0128700Y0285700D01*
X0125738Y0285700D01*
X0125023Y0285587D01*
X0124334Y0285363D01*
X0123689Y0285034D01*
X0123103Y0284609D01*
X0122591Y0284097D01*
X0122166Y0283511D01*
X0121837Y0282866D01*
X0121613Y0282177D01*
X0121506Y0281500D01*
X0128700Y0281500D01*
X0128700Y0280700D01*
X0129500Y0280700D01*
X0129500Y0281500D01*
X0136694Y0281500D01*
X0136587Y0282177D01*
X0136363Y0282866D01*
X0136034Y0283511D01*
X0135609Y0284097D01*
X0135097Y0284609D01*
X0134511Y0285034D01*
X0135748Y0283905D02*
X0148921Y0283905D01*
X0150119Y0282707D02*
X0136415Y0282707D01*
X0136693Y0281508D02*
X0151318Y0281508D01*
X0152516Y0280310D02*
X0136632Y0280310D01*
X0136587Y0280023D02*
X0136363Y0279334D01*
X0136034Y0278689D01*
X0135609Y0278103D01*
X0135097Y0277591D01*
X0134511Y0277166D01*
X0133866Y0276837D01*
X0133177Y0276613D01*
X0132462Y0276500D01*
X0129500Y0276500D01*
X0129500Y0280700D01*
X0136694Y0280700D01*
X0136587Y0280023D01*
X0136249Y0279111D02*
X0153715Y0279111D01*
X0154913Y0277913D02*
X0135418Y0277913D01*
X0133488Y0276714D02*
X0141643Y0276714D01*
X0141878Y0276834D02*
X0141237Y0276507D01*
X0140655Y0276085D01*
X0140147Y0275576D01*
X0139724Y0274994D01*
X0139398Y0274354D01*
X0139175Y0273670D01*
X0139067Y0272984D01*
X0146216Y0272984D01*
X0146216Y0272216D01*
X0146984Y0272216D01*
X0146984Y0268031D01*
X0149928Y0268031D01*
X0150638Y0268144D01*
X0151322Y0268366D01*
X0151963Y0268693D01*
X0152545Y0269115D01*
X0153053Y0269624D01*
X0153476Y0270206D01*
X0153802Y0270846D01*
X0154025Y0271530D01*
X0154133Y0272216D01*
X0146984Y0272216D01*
X0146984Y0272984D01*
X0146216Y0272984D01*
X0146216Y0277168D01*
X0143272Y0277168D01*
X0142562Y0277056D01*
X0141878Y0276834D01*
X0140103Y0275516D02*
X0121200Y0275516D01*
X0121200Y0276714D02*
X0124712Y0276714D01*
X0125023Y0276613D02*
X0125738Y0276500D01*
X0128700Y0276500D01*
X0128700Y0280700D01*
X0121506Y0280700D01*
X0121613Y0280023D01*
X0121837Y0279334D01*
X0122166Y0278689D01*
X0122591Y0278103D01*
X0123103Y0277591D01*
X0123689Y0277166D01*
X0124334Y0276837D01*
X0125023Y0276613D01*
X0122782Y0277913D02*
X0121129Y0277913D01*
X0120738Y0279111D02*
X0121951Y0279111D01*
X0121568Y0280310D02*
X0119896Y0280310D01*
X0120296Y0281508D02*
X0121507Y0281508D01*
X0121785Y0282707D02*
X0121011Y0282707D01*
X0121916Y0283905D02*
X0122452Y0283905D01*
X0123185Y0285104D02*
X0123825Y0285104D01*
X0128700Y0285104D02*
X0129500Y0285104D01*
X0129500Y0283905D02*
X0128700Y0283905D01*
X0128700Y0282707D02*
X0129500Y0282707D01*
X0129500Y0281508D02*
X0128700Y0281508D01*
X0128700Y0280310D02*
X0129500Y0280310D01*
X0129500Y0279111D02*
X0128700Y0279111D01*
X0128700Y0277913D02*
X0129500Y0277913D01*
X0129500Y0276714D02*
X0128700Y0276714D01*
X0121200Y0273119D02*
X0139088Y0273119D01*
X0139067Y0272216D02*
X0139175Y0271530D01*
X0139398Y0270846D01*
X0139724Y0270206D01*
X0140147Y0269624D01*
X0140655Y0269115D01*
X0141237Y0268693D01*
X0141878Y0268366D01*
X0142562Y0268144D01*
X0143272Y0268031D01*
X0146216Y0268031D01*
X0146216Y0272216D01*
X0139067Y0272216D01*
X0139114Y0271920D02*
X0121200Y0271920D01*
X0121197Y0270722D02*
X0139461Y0270722D01*
X0140248Y0269523D02*
X0120924Y0269523D01*
X0120269Y0268325D02*
X0142006Y0268325D01*
X0142098Y0267126D02*
X0118933Y0267126D01*
X0117000Y0267126D02*
X0116200Y0267126D01*
X0116200Y0268325D02*
X0117000Y0268325D01*
X0117000Y0269523D02*
X0116200Y0269523D01*
X0116200Y0270722D02*
X0117000Y0270722D01*
X0117000Y0271920D02*
X0116200Y0271920D01*
X0116200Y0273119D02*
X0117000Y0273119D01*
X0117000Y0274317D02*
X0139386Y0274317D01*
X0146216Y0274317D02*
X0146984Y0274317D01*
X0146984Y0273119D02*
X0146216Y0273119D01*
X0146984Y0272984D02*
X0146984Y0277168D01*
X0149928Y0277168D01*
X0150638Y0277056D01*
X0151322Y0276834D01*
X0151963Y0276507D01*
X0152545Y0276085D01*
X0153053Y0275576D01*
X0153476Y0274994D01*
X0153802Y0274354D01*
X0154025Y0273670D01*
X0154133Y0272984D01*
X0146984Y0272984D01*
X0146984Y0271920D02*
X0146216Y0271920D01*
X0146216Y0270722D02*
X0146984Y0270722D01*
X0146984Y0269523D02*
X0146216Y0269523D01*
X0146216Y0268325D02*
X0146984Y0268325D01*
X0151194Y0268325D02*
X0155300Y0268325D01*
X0155300Y0269523D02*
X0152952Y0269523D01*
X0153739Y0270722D02*
X0155300Y0270722D01*
X0155300Y0271920D02*
X0154086Y0271920D01*
X0154112Y0273119D02*
X0155300Y0273119D01*
X0155300Y0274317D02*
X0153814Y0274317D01*
X0153097Y0275516D02*
X0155300Y0275516D01*
X0155300Y0276714D02*
X0151557Y0276714D01*
X0146984Y0276714D02*
X0146216Y0276714D01*
X0146216Y0275516D02*
X0146984Y0275516D01*
X0151102Y0267126D02*
X0155300Y0267126D01*
X0155300Y0265928D02*
X0152985Y0265928D01*
X0153848Y0264729D02*
X0155300Y0264729D01*
X0155300Y0263531D02*
X0154337Y0263531D01*
X0154337Y0262332D02*
X0155300Y0262332D01*
X0155300Y0261134D02*
X0154122Y0261134D01*
X0153626Y0259935D02*
X0155300Y0259935D01*
X0155300Y0258737D02*
X0152449Y0258737D01*
X0155300Y0257538D02*
X0112450Y0257538D01*
X0113649Y0256339D02*
X0155300Y0256339D01*
X0155300Y0255141D02*
X0151882Y0255141D01*
X0152992Y0253942D02*
X0155300Y0253942D01*
X0155300Y0252744D02*
X0153489Y0252744D01*
X0153600Y0251545D02*
X0155300Y0251545D01*
X0155300Y0250347D02*
X0153443Y0250347D01*
X0152947Y0249148D02*
X0155300Y0249148D01*
X0155300Y0247950D02*
X0151772Y0247950D01*
X0151844Y0225178D02*
X0155300Y0225178D01*
X0155300Y0223980D02*
X0152977Y0223980D01*
X0153813Y0222781D02*
X0155300Y0222781D01*
X0155300Y0221583D02*
X0155011Y0221583D01*
X0151819Y0217987D02*
X0151810Y0217987D01*
X0142135Y0215590D02*
X0130974Y0215590D01*
X0120875Y0206002D02*
X0153804Y0206002D01*
X0154200Y0204803D02*
X0152219Y0204803D01*
X0153132Y0203605D02*
X0154200Y0203605D01*
X0154200Y0202406D02*
X0153600Y0202406D01*
X0153600Y0201208D02*
X0154200Y0201208D01*
X0154200Y0200009D02*
X0153304Y0200009D01*
X0152633Y0198811D02*
X0154200Y0198811D01*
X0154200Y0197612D02*
X0151071Y0197612D01*
X0150075Y0196000D02*
X0151692Y0195330D01*
X0152930Y0194092D01*
X0153600Y0192475D01*
X0153600Y0190725D01*
X0152930Y0189108D01*
X0151692Y0187870D01*
X0150075Y0187200D01*
X0143125Y0187200D01*
X0141508Y0187870D01*
X0140270Y0189108D01*
X0139600Y0190725D01*
X0139600Y0192475D01*
X0140270Y0194092D01*
X0141508Y0195330D01*
X0143125Y0196000D01*
X0150075Y0196000D01*
X0151807Y0195215D02*
X0154200Y0195215D01*
X0154200Y0194017D02*
X0152961Y0194017D01*
X0153458Y0192818D02*
X0154200Y0192818D01*
X0154200Y0191620D02*
X0153600Y0191620D01*
X0153474Y0190421D02*
X0154200Y0190421D01*
X0154200Y0189223D02*
X0152978Y0189223D01*
X0151847Y0188024D02*
X0154200Y0188024D01*
X0154200Y0186826D02*
X0114200Y0186826D01*
X0114200Y0188024D02*
X0121414Y0188024D01*
X0121547Y0187891D02*
X0123155Y0187225D01*
X0130045Y0187225D01*
X0131653Y0187891D01*
X0132884Y0189122D01*
X0133550Y0190730D01*
X0133550Y0192470D01*
X0132884Y0194078D01*
X0131653Y0195309D01*
X0130045Y0195975D01*
X0123155Y0195975D01*
X0121547Y0195309D01*
X0120316Y0194078D01*
X0119650Y0192470D01*
X0119650Y0190730D01*
X0120316Y0189122D01*
X0121547Y0187891D01*
X0120275Y0189223D02*
X0114200Y0189223D01*
X0114200Y0190421D02*
X0119778Y0190421D01*
X0119650Y0191620D02*
X0114200Y0191620D01*
X0114200Y0192818D02*
X0119795Y0192818D01*
X0120291Y0194017D02*
X0114200Y0194017D01*
X0114200Y0195215D02*
X0121454Y0195215D01*
X0122220Y0197612D02*
X0114200Y0197612D01*
X0114200Y0196414D02*
X0154200Y0196414D01*
X0152605Y0207201D02*
X0150076Y0207201D01*
X0142129Y0197612D02*
X0130980Y0197612D01*
X0131746Y0195215D02*
X0141393Y0195215D01*
X0140239Y0194017D02*
X0132909Y0194017D01*
X0133405Y0192818D02*
X0139742Y0192818D01*
X0139600Y0191620D02*
X0133550Y0191620D01*
X0133422Y0190421D02*
X0139726Y0190421D01*
X0140222Y0189223D02*
X0132925Y0189223D01*
X0131786Y0188024D02*
X0141353Y0188024D01*
X0142225Y0185627D02*
X0130884Y0185627D01*
X0131433Y0185400D02*
X0130045Y0185975D01*
X0123155Y0185975D01*
X0121547Y0185309D01*
X0120316Y0184078D01*
X0119650Y0182470D01*
X0119650Y0180730D01*
X0120316Y0179122D01*
X0121547Y0177891D01*
X0123155Y0177225D01*
X0130045Y0177225D01*
X0131433Y0177800D01*
X0141676Y0177800D01*
X0143125Y0177200D01*
X0150075Y0177200D01*
X0151692Y0177870D01*
X0152930Y0179108D01*
X0153600Y0180725D01*
X0153600Y0182475D01*
X0152930Y0184092D01*
X0151692Y0185330D01*
X0150075Y0186000D01*
X0143125Y0186000D01*
X0141676Y0185400D01*
X0131433Y0185400D01*
X0122316Y0185627D02*
X0114200Y0185627D01*
X0114200Y0184429D02*
X0120667Y0184429D01*
X0119965Y0183230D02*
X0114200Y0183230D01*
X0114200Y0182032D02*
X0119650Y0182032D01*
X0119650Y0180833D02*
X0114200Y0180833D01*
X0114200Y0179635D02*
X0120104Y0179635D01*
X0121002Y0178436D02*
X0114200Y0178436D01*
X0114200Y0177238D02*
X0123125Y0177238D01*
X0123155Y0175975D02*
X0121547Y0175309D01*
X0120316Y0174078D01*
X0119650Y0172470D01*
X0119650Y0170730D01*
X0120316Y0169122D01*
X0121547Y0167891D01*
X0123155Y0167225D01*
X0130045Y0167225D01*
X0131433Y0167800D01*
X0141676Y0167800D01*
X0143125Y0167200D01*
X0150075Y0167200D01*
X0151692Y0167870D01*
X0152930Y0169108D01*
X0153600Y0170725D01*
X0153600Y0172475D01*
X0152930Y0174092D01*
X0151692Y0175330D01*
X0150075Y0176000D01*
X0143125Y0176000D01*
X0141676Y0175400D01*
X0131433Y0175400D01*
X0130045Y0175975D01*
X0123155Y0175975D01*
X0121079Y0174841D02*
X0114200Y0174841D01*
X0114200Y0176039D02*
X0154200Y0176039D01*
X0154200Y0174841D02*
X0152182Y0174841D01*
X0153117Y0173642D02*
X0154200Y0173642D01*
X0154200Y0172444D02*
X0153600Y0172444D01*
X0153600Y0171245D02*
X0154200Y0171245D01*
X0154200Y0170047D02*
X0153319Y0170047D01*
X0152671Y0168848D02*
X0154200Y0168848D01*
X0154200Y0167650D02*
X0151161Y0167650D01*
X0142039Y0167650D02*
X0131070Y0167650D01*
X0122130Y0167650D02*
X0114200Y0167650D01*
X0114200Y0168848D02*
X0120590Y0168848D01*
X0119933Y0170047D02*
X0114200Y0170047D01*
X0114200Y0171245D02*
X0119650Y0171245D01*
X0119650Y0172444D02*
X0114200Y0172444D01*
X0114200Y0173642D02*
X0120136Y0173642D01*
X0130075Y0177238D02*
X0143034Y0177238D01*
X0150166Y0177238D02*
X0154200Y0177238D01*
X0154200Y0178436D02*
X0152259Y0178436D01*
X0153148Y0179635D02*
X0154200Y0179635D01*
X0154200Y0180833D02*
X0153600Y0180833D01*
X0153600Y0182032D02*
X0154200Y0182032D01*
X0154200Y0183230D02*
X0153287Y0183230D01*
X0152594Y0184429D02*
X0154200Y0184429D01*
X0154200Y0185627D02*
X0150975Y0185627D01*
X0126600Y0201600D02*
X0126407Y0201793D01*
X0120627Y0198811D02*
X0114200Y0198811D01*
X0114200Y0200009D02*
X0119514Y0200009D01*
X0118315Y0201208D02*
X0114200Y0201208D01*
X0114200Y0202406D02*
X0117117Y0202406D01*
X0115918Y0203605D02*
X0114200Y0203605D01*
X0114200Y0204803D02*
X0114720Y0204803D01*
X0109000Y0204803D02*
X0099336Y0204803D01*
X0098340Y0205800D02*
X0096800Y0205800D01*
X0096800Y0201800D01*
X0100800Y0201800D01*
X0100800Y0203340D01*
X0098340Y0205800D01*
X0098340Y0207400D02*
X0100800Y0209860D01*
X0100800Y0211400D01*
X0096800Y0211400D01*
X0096800Y0211800D01*
X0100800Y0211800D01*
X0100800Y0213340D01*
X0098340Y0215800D01*
X0096800Y0215800D01*
X0096800Y0211800D01*
X0096400Y0211800D01*
X0096400Y0215800D01*
X0094860Y0215800D01*
X0092400Y0213340D01*
X0092400Y0211800D01*
X0096400Y0211800D01*
X0096400Y0211400D01*
X0096800Y0211400D01*
X0096800Y0207400D01*
X0098340Y0207400D01*
X0099339Y0208399D02*
X0109000Y0208399D01*
X0109000Y0207201D02*
X0091200Y0207201D01*
X0091200Y0208399D02*
X0093861Y0208399D01*
X0094860Y0207400D02*
X0092400Y0209860D01*
X0092400Y0211400D01*
X0096400Y0211400D01*
X0096400Y0207400D01*
X0094860Y0207400D01*
X0094860Y0205800D02*
X0092400Y0203340D01*
X0092400Y0201800D01*
X0096400Y0201800D01*
X0096400Y0205800D01*
X0094860Y0205800D01*
X0093864Y0204803D02*
X0091200Y0204803D01*
X0091200Y0203605D02*
X0092665Y0203605D01*
X0092400Y0202406D02*
X0091200Y0202406D01*
X0091200Y0201208D02*
X0092400Y0201208D01*
X0092400Y0201400D02*
X0092400Y0199860D01*
X0094860Y0197400D01*
X0096400Y0197400D01*
X0096400Y0201400D01*
X0096800Y0201400D01*
X0096800Y0201800D01*
X0096400Y0201800D01*
X0096400Y0201400D01*
X0092400Y0201400D01*
X0092400Y0200009D02*
X0091200Y0200009D01*
X0091200Y0198811D02*
X0093449Y0198811D01*
X0094648Y0197612D02*
X0091200Y0197612D01*
X0091200Y0196414D02*
X0109000Y0196414D01*
X0109000Y0197612D02*
X0098552Y0197612D01*
X0098340Y0197400D02*
X0100800Y0199860D01*
X0100800Y0201400D01*
X0096800Y0201400D01*
X0096800Y0197400D01*
X0098340Y0197400D01*
X0096800Y0197612D02*
X0096400Y0197612D01*
X0096400Y0198811D02*
X0096800Y0198811D01*
X0096800Y0200009D02*
X0096400Y0200009D01*
X0096400Y0201208D02*
X0096800Y0201208D01*
X0096800Y0202406D02*
X0096400Y0202406D01*
X0096400Y0203605D02*
X0096800Y0203605D01*
X0096800Y0204803D02*
X0096400Y0204803D01*
X0096400Y0208399D02*
X0096800Y0208399D01*
X0096800Y0209598D02*
X0096400Y0209598D01*
X0096400Y0210796D02*
X0096800Y0210796D01*
X0096800Y0211995D02*
X0096400Y0211995D01*
X0096400Y0213193D02*
X0096800Y0213193D01*
X0096800Y0214392D02*
X0096400Y0214392D01*
X0096400Y0215590D02*
X0096800Y0215590D01*
X0098550Y0215590D02*
X0109000Y0215590D01*
X0109000Y0214392D02*
X0099748Y0214392D01*
X0100800Y0213193D02*
X0109000Y0213193D01*
X0109000Y0211995D02*
X0100800Y0211995D01*
X0100800Y0210796D02*
X0109000Y0210796D01*
X0109000Y0209598D02*
X0100537Y0209598D01*
X0109000Y0206002D02*
X0091200Y0206002D01*
X0091200Y0209598D02*
X0092663Y0209598D01*
X0092400Y0210796D02*
X0091200Y0210796D01*
X0091200Y0211995D02*
X0092400Y0211995D01*
X0092400Y0213193D02*
X0091200Y0213193D01*
X0091200Y0214392D02*
X0093452Y0214392D01*
X0094650Y0215590D02*
X0091200Y0215590D01*
X0091200Y0216789D02*
X0109000Y0216789D01*
X0108729Y0217987D02*
X0091200Y0217987D01*
X0091200Y0219186D02*
X0107530Y0219186D01*
X0106332Y0220384D02*
X0091200Y0220384D01*
X0091200Y0221583D02*
X0105133Y0221583D01*
X0096600Y0227100D02*
X0096600Y0232116D01*
X0096666Y0232050D01*
X0096666Y0231600D01*
X0096600Y0232116D02*
X0096600Y0236600D01*
X0096057Y0244354D02*
X0093143Y0244354D01*
X0093948Y0245553D02*
X0095252Y0245553D01*
X0094800Y0246751D02*
X0094400Y0246751D01*
X0094400Y0247950D02*
X0094800Y0247950D01*
X0094800Y0249148D02*
X0094400Y0249148D01*
X0094400Y0250347D02*
X0094800Y0250347D01*
X0094800Y0251545D02*
X0094400Y0251545D01*
X0094400Y0252744D02*
X0094800Y0252744D01*
X0094800Y0253942D02*
X0094400Y0253942D01*
X0094157Y0255141D02*
X0095043Y0255141D01*
X0095551Y0256339D02*
X0093649Y0256339D01*
X0093000Y0257538D02*
X0096750Y0257538D01*
X0102450Y0257538D02*
X0106750Y0257538D01*
X0105551Y0256339D02*
X0103649Y0256339D01*
X0104157Y0255141D02*
X0105043Y0255141D01*
X0104800Y0253942D02*
X0104400Y0253942D01*
X0104400Y0252744D02*
X0104800Y0252744D01*
X0104800Y0251545D02*
X0104400Y0251545D01*
X0104400Y0250347D02*
X0104800Y0250347D01*
X0104800Y0249148D02*
X0104400Y0249148D01*
X0104400Y0247950D02*
X0104800Y0247950D01*
X0104800Y0246751D02*
X0104400Y0246751D01*
X0103948Y0245553D02*
X0105252Y0245553D01*
X0106057Y0244354D02*
X0103143Y0244354D01*
X0101414Y0243156D02*
X0107000Y0243156D01*
X0112200Y0243156D02*
X0119934Y0243156D01*
X0120593Y0244354D02*
X0113143Y0244354D01*
X0114400Y0247950D02*
X0121488Y0247950D01*
X0120305Y0249148D02*
X0114400Y0249148D01*
X0114400Y0250347D02*
X0119809Y0250347D01*
X0119650Y0251545D02*
X0114400Y0251545D01*
X0114400Y0252744D02*
X0119764Y0252744D01*
X0120260Y0253942D02*
X0114400Y0253942D01*
X0114157Y0255141D02*
X0121379Y0255141D01*
X0114267Y0267126D02*
X0108933Y0267126D01*
X0110269Y0268325D02*
X0112931Y0268325D01*
X0112276Y0269523D02*
X0110924Y0269523D01*
X0111197Y0270722D02*
X0112003Y0270722D01*
X0112000Y0271920D02*
X0111200Y0271920D01*
X0111200Y0273119D02*
X0112000Y0273119D01*
X0112000Y0275516D02*
X0111200Y0275516D01*
X0111200Y0276714D02*
X0112000Y0276714D01*
X0112071Y0277913D02*
X0111129Y0277913D01*
X0110738Y0279111D02*
X0112462Y0279111D01*
X0113304Y0280310D02*
X0109896Y0280310D01*
X0110296Y0281508D02*
X0112904Y0281508D01*
X0112189Y0282707D02*
X0111011Y0282707D01*
X0103304Y0280310D02*
X0099896Y0280310D01*
X0100296Y0281508D02*
X0102904Y0281508D01*
X0102189Y0282707D02*
X0101011Y0282707D01*
X0100738Y0279111D02*
X0102462Y0279111D01*
X0102071Y0277913D02*
X0101129Y0277913D01*
X0101200Y0276714D02*
X0102000Y0276714D01*
X0102000Y0275516D02*
X0101200Y0275516D01*
X0101200Y0273119D02*
X0102000Y0273119D01*
X0102000Y0271920D02*
X0101200Y0271920D01*
X0101197Y0270722D02*
X0102003Y0270722D01*
X0102276Y0269523D02*
X0100924Y0269523D01*
X0100269Y0268325D02*
X0102931Y0268325D01*
X0104267Y0267126D02*
X0098933Y0267126D01*
X0097000Y0267126D02*
X0096200Y0267126D01*
X0096200Y0268325D02*
X0097000Y0268325D01*
X0097000Y0269523D02*
X0096200Y0269523D01*
X0096200Y0270722D02*
X0097000Y0270722D01*
X0097000Y0271920D02*
X0096200Y0271920D01*
X0096200Y0273119D02*
X0097000Y0273119D01*
X0097000Y0274317D02*
X0106200Y0274317D01*
X0107000Y0274317D02*
X0116200Y0274317D01*
X0107000Y0273119D02*
X0106200Y0273119D01*
X0106200Y0271920D02*
X0107000Y0271920D01*
X0107000Y0270722D02*
X0106200Y0270722D01*
X0106200Y0269523D02*
X0107000Y0269523D01*
X0107000Y0268325D02*
X0106200Y0268325D01*
X0106200Y0267126D02*
X0107000Y0267126D01*
X0096200Y0274317D02*
X0087000Y0274317D01*
X0086200Y0274317D02*
X0077000Y0274317D01*
X0076200Y0274317D02*
X0067000Y0274317D01*
X0071200Y0273119D02*
X0072000Y0273119D01*
X0072000Y0271920D02*
X0071200Y0271920D01*
X0071197Y0270722D02*
X0072003Y0270722D01*
X0072276Y0269523D02*
X0070924Y0269523D01*
X0070269Y0268325D02*
X0072931Y0268325D01*
X0074267Y0267126D02*
X0068933Y0267126D01*
X0076200Y0267126D02*
X0077000Y0267126D01*
X0077000Y0268325D02*
X0076200Y0268325D01*
X0076200Y0269523D02*
X0077000Y0269523D01*
X0077000Y0270722D02*
X0076200Y0270722D01*
X0076200Y0271920D02*
X0077000Y0271920D01*
X0077000Y0273119D02*
X0076200Y0273119D01*
X0072000Y0275516D02*
X0071200Y0275516D01*
X0071200Y0276714D02*
X0072000Y0276714D01*
X0072071Y0277913D02*
X0071129Y0277913D01*
X0070738Y0279111D02*
X0072462Y0279111D01*
X0073304Y0280310D02*
X0069896Y0280310D01*
X0070296Y0281508D02*
X0072904Y0281508D01*
X0072189Y0282707D02*
X0071011Y0282707D01*
X0079896Y0280310D02*
X0083304Y0280310D01*
X0082904Y0281508D02*
X0080296Y0281508D01*
X0081011Y0282707D02*
X0082189Y0282707D01*
X0082462Y0279111D02*
X0080738Y0279111D01*
X0081129Y0277913D02*
X0082071Y0277913D01*
X0082000Y0276714D02*
X0081200Y0276714D01*
X0081200Y0275516D02*
X0082000Y0275516D01*
X0082000Y0273119D02*
X0081200Y0273119D01*
X0081200Y0271920D02*
X0082000Y0271920D01*
X0082003Y0270722D02*
X0081197Y0270722D01*
X0080924Y0269523D02*
X0082276Y0269523D01*
X0082931Y0268325D02*
X0080269Y0268325D01*
X0078933Y0267126D02*
X0084267Y0267126D01*
X0086200Y0267126D02*
X0087000Y0267126D01*
X0087000Y0268325D02*
X0086200Y0268325D01*
X0086200Y0269523D02*
X0087000Y0269523D01*
X0087000Y0270722D02*
X0086200Y0270722D01*
X0086200Y0271920D02*
X0087000Y0271920D01*
X0087000Y0273119D02*
X0086200Y0273119D01*
X0091200Y0273119D02*
X0092000Y0273119D01*
X0092000Y0271920D02*
X0091200Y0271920D01*
X0091197Y0270722D02*
X0092003Y0270722D01*
X0092276Y0269523D02*
X0090924Y0269523D01*
X0090269Y0268325D02*
X0092931Y0268325D01*
X0094267Y0267126D02*
X0088933Y0267126D01*
X0091200Y0275516D02*
X0092000Y0275516D01*
X0092000Y0276714D02*
X0091200Y0276714D01*
X0091129Y0277913D02*
X0092071Y0277913D01*
X0092462Y0279111D02*
X0090738Y0279111D01*
X0089896Y0280310D02*
X0093304Y0280310D01*
X0092904Y0281508D02*
X0090296Y0281508D01*
X0091011Y0282707D02*
X0092189Y0282707D01*
X0119980Y0294692D02*
X0121242Y0294692D01*
X0120880Y0295890D02*
X0125122Y0295890D01*
X0124128Y0305478D02*
X0121224Y0305478D01*
X0120728Y0306677D02*
X0124235Y0306677D01*
X0122536Y0307875D02*
X0119613Y0307875D01*
X0120362Y0309074D02*
X0121744Y0309074D01*
X0038664Y0257538D02*
X0019900Y0257538D01*
X0019900Y0256339D02*
X0038000Y0256339D01*
X0037800Y0255141D02*
X0031882Y0255141D01*
X0032992Y0253942D02*
X0037800Y0253942D01*
X0037800Y0252744D02*
X0033489Y0252744D01*
X0033600Y0251545D02*
X0037800Y0251545D01*
X0037800Y0250347D02*
X0033443Y0250347D01*
X0032947Y0249148D02*
X0037653Y0249148D01*
X0036650Y0247950D02*
X0031772Y0247950D01*
X0031155Y0245553D02*
X0036650Y0245553D01*
X0036650Y0246751D02*
X0019900Y0246751D01*
X0019900Y0245553D02*
X0022045Y0245553D01*
X0020532Y0244354D02*
X0019900Y0244354D01*
X0019900Y0247950D02*
X0021428Y0247950D01*
X0020253Y0249148D02*
X0019900Y0249148D01*
X0019900Y0253942D02*
X0020208Y0253942D01*
X0019900Y0255141D02*
X0021318Y0255141D01*
X0032668Y0244354D02*
X0036650Y0244354D01*
X0036650Y0243156D02*
X0033318Y0243156D01*
X0033600Y0241957D02*
X0036650Y0241957D01*
X0036650Y0240759D02*
X0033600Y0240759D01*
X0033118Y0239560D02*
X0036650Y0239560D01*
X0035488Y0238362D02*
X0032184Y0238362D01*
X0034289Y0237163D02*
X0019900Y0237163D01*
X0019900Y0235965D02*
X0023040Y0235965D01*
X0020944Y0234766D02*
X0019900Y0234766D01*
X0019900Y0233568D02*
X0020053Y0233568D01*
X0019912Y0229972D02*
X0019900Y0229972D01*
X0019900Y0228774D02*
X0020604Y0228774D01*
X0019900Y0227575D02*
X0022219Y0227575D01*
X0020197Y0226377D02*
X0047800Y0226377D01*
X0047800Y0227575D02*
X0030981Y0227575D01*
X0036648Y0228774D02*
X0047800Y0228774D01*
X0047800Y0229972D02*
X0037846Y0229972D01*
X0039045Y0231171D02*
X0047800Y0231171D01*
X0047800Y0232369D02*
X0040243Y0232369D01*
X0041442Y0233568D02*
X0047800Y0233568D01*
X0047211Y0234766D02*
X0042640Y0234766D01*
X0046460Y0235965D02*
X0047200Y0235965D01*
X0047200Y0237163D02*
X0046550Y0237163D01*
X0046550Y0238362D02*
X0047200Y0238362D01*
X0046550Y0239560D02*
X0048338Y0239560D01*
X0049536Y0240759D02*
X0046550Y0240759D01*
X0046550Y0241957D02*
X0059650Y0241957D01*
X0059650Y0240759D02*
X0053664Y0240759D01*
X0054862Y0239560D02*
X0060135Y0239560D01*
X0061076Y0238362D02*
X0056000Y0238362D01*
X0059934Y0243156D02*
X0046550Y0243156D01*
X0046550Y0244354D02*
X0060593Y0244354D01*
X0072195Y0234766D02*
X0080769Y0234766D01*
X0080500Y0233568D02*
X0073095Y0233568D01*
X0073550Y0232369D02*
X0080500Y0232369D01*
X0080500Y0231171D02*
X0073550Y0231171D01*
X0073236Y0229972D02*
X0080500Y0229972D01*
X0080500Y0228774D02*
X0072535Y0228774D01*
X0085700Y0222781D02*
X0086000Y0222781D01*
X0086000Y0221583D02*
X0085700Y0221583D01*
X0085700Y0220384D02*
X0086000Y0220384D01*
X0086000Y0219186D02*
X0085700Y0219186D01*
X0085700Y0217987D02*
X0086000Y0217987D01*
X0086000Y0216789D02*
X0085700Y0216789D01*
X0085700Y0215590D02*
X0086000Y0215590D01*
X0086000Y0214392D02*
X0085700Y0214392D01*
X0085700Y0213193D02*
X0086000Y0213193D01*
X0086000Y0211995D02*
X0085700Y0211995D01*
X0085700Y0210796D02*
X0086000Y0210796D01*
X0086000Y0209598D02*
X0085700Y0209598D01*
X0085700Y0208399D02*
X0086000Y0208399D01*
X0086000Y0207201D02*
X0085700Y0207201D01*
X0085700Y0206002D02*
X0086000Y0206002D01*
X0086000Y0204803D02*
X0085700Y0204803D01*
X0085700Y0203605D02*
X0086000Y0203605D01*
X0086000Y0202406D02*
X0085700Y0202406D01*
X0085700Y0201208D02*
X0086000Y0201208D01*
X0086000Y0200009D02*
X0085700Y0200009D01*
X0085700Y0198811D02*
X0086000Y0198811D01*
X0086000Y0197612D02*
X0085700Y0197612D01*
X0085700Y0196414D02*
X0086000Y0196414D01*
X0086000Y0195215D02*
X0085700Y0195215D01*
X0085700Y0194017D02*
X0086000Y0194017D01*
X0086000Y0192818D02*
X0085700Y0192818D01*
X0085700Y0191620D02*
X0086000Y0191620D01*
X0086000Y0190421D02*
X0085700Y0190421D01*
X0085700Y0189223D02*
X0086000Y0189223D01*
X0086000Y0188024D02*
X0085700Y0188024D01*
X0085700Y0186826D02*
X0086000Y0186826D01*
X0086000Y0185627D02*
X0085700Y0185627D01*
X0085700Y0184429D02*
X0086000Y0184429D01*
X0086000Y0183230D02*
X0085700Y0183230D01*
X0085472Y0182032D02*
X0086000Y0182032D01*
X0086000Y0180833D02*
X0084510Y0180833D01*
X0083312Y0179635D02*
X0086000Y0179635D01*
X0086000Y0178436D02*
X0079659Y0178436D01*
X0078460Y0177238D02*
X0086000Y0177238D01*
X0086000Y0176039D02*
X0014700Y0176039D01*
X0014700Y0174841D02*
X0021018Y0174841D01*
X0021508Y0175330D02*
X0020270Y0174092D01*
X0019600Y0172475D01*
X0019600Y0170725D01*
X0020270Y0169108D01*
X0021508Y0167870D01*
X0023125Y0167200D01*
X0030075Y0167200D01*
X0031524Y0167800D01*
X0039177Y0167800D01*
X0039777Y0167200D01*
X0043423Y0167200D01*
X0046000Y0169777D01*
X0046000Y0173423D01*
X0043423Y0176000D01*
X0039777Y0176000D01*
X0039177Y0175400D01*
X0031524Y0175400D01*
X0030075Y0176000D01*
X0023125Y0176000D01*
X0021508Y0175330D01*
X0020083Y0173642D02*
X0014700Y0173642D01*
X0014700Y0172444D02*
X0019600Y0172444D01*
X0019600Y0171245D02*
X0014700Y0171245D01*
X0014700Y0170047D02*
X0019881Y0170047D01*
X0020529Y0168848D02*
X0014700Y0168848D01*
X0014700Y0167650D02*
X0022039Y0167650D01*
X0023125Y0166000D02*
X0021508Y0165330D01*
X0020270Y0164092D01*
X0019600Y0162475D01*
X0019600Y0160725D01*
X0020270Y0159108D01*
X0021508Y0157870D01*
X0023125Y0157200D01*
X0030075Y0157200D01*
X0031524Y0157800D01*
X0039177Y0157800D01*
X0039777Y0157200D01*
X0043423Y0157200D01*
X0046000Y0159777D01*
X0046000Y0163423D01*
X0043423Y0166000D01*
X0039777Y0166000D01*
X0039177Y0165400D01*
X0031524Y0165400D01*
X0030075Y0166000D01*
X0023125Y0166000D01*
X0021430Y0165253D02*
X0014700Y0165253D01*
X0014700Y0166451D02*
X0109000Y0166451D01*
X0109000Y0165253D02*
X0098887Y0165253D01*
X0098340Y0165800D02*
X0096800Y0165800D01*
X0096800Y0161800D01*
X0100800Y0161800D01*
X0100800Y0163340D01*
X0098340Y0165800D01*
X0098340Y0167400D02*
X0100800Y0169860D01*
X0100800Y0171400D01*
X0096800Y0171400D01*
X0096800Y0171800D01*
X0100800Y0171800D01*
X0100800Y0173340D01*
X0098340Y0175800D01*
X0096800Y0175800D01*
X0096800Y0171800D01*
X0096400Y0171800D01*
X0096400Y0175800D01*
X0094860Y0175800D01*
X0092400Y0173340D01*
X0092400Y0171800D01*
X0096400Y0171800D01*
X0096400Y0171400D01*
X0096800Y0171400D01*
X0096800Y0167400D01*
X0098340Y0167400D01*
X0098589Y0167650D02*
X0109000Y0167650D01*
X0109000Y0168848D02*
X0099788Y0168848D01*
X0100800Y0170047D02*
X0109000Y0170047D01*
X0109000Y0171245D02*
X0100800Y0171245D01*
X0100800Y0172444D02*
X0109000Y0172444D01*
X0109000Y0173642D02*
X0100497Y0173642D01*
X0099299Y0174841D02*
X0109000Y0174841D01*
X0109000Y0176039D02*
X0091200Y0176039D01*
X0091200Y0174841D02*
X0093901Y0174841D01*
X0092703Y0173642D02*
X0091200Y0173642D01*
X0091142Y0172444D02*
X0092400Y0172444D01*
X0092400Y0171400D02*
X0092400Y0169860D01*
X0094860Y0167400D01*
X0096400Y0167400D01*
X0096400Y0171400D01*
X0092400Y0171400D01*
X0092400Y0171245D02*
X0090422Y0171245D01*
X0089224Y0170047D02*
X0092400Y0170047D01*
X0093412Y0168848D02*
X0080071Y0168848D01*
X0078872Y0167650D02*
X0094611Y0167650D01*
X0096400Y0167650D02*
X0096800Y0167650D01*
X0096800Y0168848D02*
X0096400Y0168848D01*
X0096400Y0170047D02*
X0096800Y0170047D01*
X0096800Y0171245D02*
X0096400Y0171245D01*
X0096400Y0172444D02*
X0096800Y0172444D01*
X0096800Y0173642D02*
X0096400Y0173642D01*
X0096400Y0174841D02*
X0096800Y0174841D01*
X0096800Y0177400D02*
X0098340Y0177400D01*
X0100800Y0179860D01*
X0100800Y0181400D01*
X0096800Y0181400D01*
X0096800Y0181800D01*
X0100800Y0181800D01*
X0100800Y0183340D01*
X0098340Y0185800D01*
X0096800Y0185800D01*
X0096800Y0181800D01*
X0096400Y0181800D01*
X0096400Y0185800D01*
X0094860Y0185800D01*
X0092400Y0183340D01*
X0092400Y0181800D01*
X0096400Y0181800D01*
X0096400Y0181400D01*
X0096800Y0181400D01*
X0096800Y0177400D01*
X0096400Y0177400D02*
X0096400Y0181400D01*
X0092400Y0181400D01*
X0092400Y0179860D01*
X0094860Y0177400D01*
X0096400Y0177400D01*
X0096400Y0178436D02*
X0096800Y0178436D01*
X0096800Y0179635D02*
X0096400Y0179635D01*
X0096400Y0180833D02*
X0096800Y0180833D01*
X0096800Y0182032D02*
X0096400Y0182032D01*
X0096400Y0183230D02*
X0096800Y0183230D01*
X0096800Y0184429D02*
X0096400Y0184429D01*
X0096400Y0185627D02*
X0096800Y0185627D01*
X0098512Y0185627D02*
X0109000Y0185627D01*
X0109000Y0184429D02*
X0099711Y0184429D01*
X0100800Y0183230D02*
X0109000Y0183230D01*
X0109000Y0182032D02*
X0100800Y0182032D01*
X0100800Y0180833D02*
X0109000Y0180833D01*
X0109000Y0179635D02*
X0100574Y0179635D01*
X0099376Y0178436D02*
X0109000Y0178436D01*
X0109000Y0177238D02*
X0091200Y0177238D01*
X0091200Y0178436D02*
X0093824Y0178436D01*
X0092626Y0179635D02*
X0091200Y0179635D01*
X0091200Y0180833D02*
X0092400Y0180833D01*
X0092400Y0182032D02*
X0091200Y0182032D01*
X0091200Y0183230D02*
X0092400Y0183230D01*
X0093489Y0184429D02*
X0091200Y0184429D01*
X0091200Y0185627D02*
X0094688Y0185627D01*
X0094860Y0187400D02*
X0096400Y0187400D01*
X0096400Y0191400D01*
X0096800Y0191400D01*
X0096800Y0191800D01*
X0100800Y0191800D01*
X0100800Y0193340D01*
X0098340Y0195800D01*
X0096800Y0195800D01*
X0096800Y0191800D01*
X0096400Y0191800D01*
X0096400Y0195800D01*
X0094860Y0195800D01*
X0092400Y0193340D01*
X0092400Y0191800D01*
X0096400Y0191800D01*
X0096400Y0191400D01*
X0092400Y0191400D01*
X0092400Y0189860D01*
X0094860Y0187400D01*
X0094236Y0188024D02*
X0091200Y0188024D01*
X0091200Y0186826D02*
X0109000Y0186826D01*
X0109000Y0188024D02*
X0098964Y0188024D01*
X0098340Y0187400D02*
X0100800Y0189860D01*
X0100800Y0191400D01*
X0096800Y0191400D01*
X0096800Y0187400D01*
X0098340Y0187400D01*
X0096800Y0188024D02*
X0096400Y0188024D01*
X0096400Y0189223D02*
X0096800Y0189223D01*
X0096800Y0190421D02*
X0096400Y0190421D01*
X0096400Y0191620D02*
X0091200Y0191620D01*
X0091200Y0192818D02*
X0092400Y0192818D01*
X0093077Y0194017D02*
X0091200Y0194017D01*
X0091200Y0195215D02*
X0094276Y0195215D01*
X0096400Y0195215D02*
X0096800Y0195215D01*
X0096800Y0194017D02*
X0096400Y0194017D01*
X0096400Y0192818D02*
X0096800Y0192818D01*
X0096800Y0191620D02*
X0109000Y0191620D01*
X0109000Y0192818D02*
X0100800Y0192818D01*
X0100123Y0194017D02*
X0109000Y0194017D01*
X0109000Y0195215D02*
X0098924Y0195215D01*
X0099751Y0198811D02*
X0109000Y0198811D01*
X0109000Y0200009D02*
X0100800Y0200009D01*
X0100800Y0201208D02*
X0109000Y0201208D01*
X0109000Y0202406D02*
X0100800Y0202406D01*
X0100535Y0203605D02*
X0109000Y0203605D01*
X0109000Y0190421D02*
X0100800Y0190421D01*
X0100163Y0189223D02*
X0109000Y0189223D01*
X0093037Y0189223D02*
X0091200Y0189223D01*
X0091200Y0190421D02*
X0092400Y0190421D01*
X0080500Y0189223D02*
X0080445Y0189223D01*
X0080500Y0188024D02*
X0079247Y0188024D01*
X0080500Y0186826D02*
X0014700Y0186826D01*
X0014700Y0188024D02*
X0021353Y0188024D01*
X0021508Y0187870D02*
X0023125Y0187200D01*
X0030075Y0187200D01*
X0031524Y0187800D01*
X0039177Y0187800D01*
X0039777Y0187200D01*
X0043423Y0187200D01*
X0046000Y0189777D01*
X0046000Y0193423D01*
X0043423Y0196000D01*
X0039777Y0196000D01*
X0039177Y0195400D01*
X0031524Y0195400D01*
X0030075Y0196000D01*
X0023125Y0196000D01*
X0021508Y0195330D01*
X0020270Y0194092D01*
X0019600Y0192475D01*
X0019600Y0190725D01*
X0020270Y0189108D01*
X0021508Y0187870D01*
X0020222Y0189223D02*
X0014700Y0189223D01*
X0014700Y0190421D02*
X0019726Y0190421D01*
X0019600Y0191620D02*
X0014700Y0191620D01*
X0014700Y0192818D02*
X0019742Y0192818D01*
X0020239Y0194017D02*
X0014700Y0194017D01*
X0014700Y0195215D02*
X0021393Y0195215D01*
X0022129Y0197612D02*
X0014700Y0197612D01*
X0014700Y0196414D02*
X0080500Y0196414D01*
X0080500Y0197612D02*
X0078835Y0197612D01*
X0080033Y0198811D02*
X0080500Y0198811D01*
X0080500Y0195215D02*
X0079207Y0195215D01*
X0080406Y0194017D02*
X0080500Y0194017D01*
X0076600Y0191600D02*
X0066600Y0191600D01*
X0062316Y0185627D02*
X0053795Y0185627D01*
X0049405Y0185627D02*
X0043795Y0185627D01*
X0043423Y0186000D02*
X0039777Y0186000D01*
X0039177Y0185400D01*
X0031524Y0185400D01*
X0030075Y0186000D01*
X0023125Y0186000D01*
X0021508Y0185330D01*
X0020270Y0184092D01*
X0019600Y0182475D01*
X0019600Y0180725D01*
X0020270Y0179108D01*
X0021508Y0177870D01*
X0023125Y0177200D01*
X0030075Y0177200D01*
X0031524Y0177800D01*
X0039177Y0177800D01*
X0039777Y0177200D01*
X0043423Y0177200D01*
X0046000Y0179777D01*
X0046000Y0183423D01*
X0043423Y0186000D01*
X0044247Y0188024D02*
X0048953Y0188024D01*
X0047755Y0189223D02*
X0045445Y0189223D01*
X0046000Y0190421D02*
X0047200Y0190421D01*
X0047200Y0191620D02*
X0046000Y0191620D01*
X0046000Y0192818D02*
X0047200Y0192818D01*
X0047794Y0194017D02*
X0045406Y0194017D01*
X0044207Y0195215D02*
X0048993Y0195215D01*
X0049365Y0197612D02*
X0043835Y0197612D01*
X0043423Y0197200D02*
X0046000Y0199777D01*
X0046000Y0203423D01*
X0043423Y0206000D01*
X0039777Y0206000D01*
X0039177Y0205400D01*
X0031524Y0205400D01*
X0030075Y0206000D01*
X0023125Y0206000D01*
X0021508Y0205330D01*
X0020270Y0204092D01*
X0019600Y0202475D01*
X0019600Y0200725D01*
X0020270Y0199108D01*
X0021508Y0197870D01*
X0023125Y0197200D01*
X0030075Y0197200D01*
X0031524Y0197800D01*
X0039177Y0197800D01*
X0039777Y0197200D01*
X0043423Y0197200D01*
X0045033Y0198811D02*
X0048167Y0198811D01*
X0047200Y0200009D02*
X0046000Y0200009D01*
X0046000Y0201208D02*
X0047200Y0201208D01*
X0047200Y0202406D02*
X0046000Y0202406D01*
X0045818Y0203605D02*
X0047382Y0203605D01*
X0048581Y0204803D02*
X0044619Y0204803D01*
X0043423Y0207200D02*
X0046000Y0209777D01*
X0046000Y0213423D01*
X0043423Y0216000D01*
X0039777Y0216000D01*
X0039177Y0215400D01*
X0031524Y0215400D01*
X0030075Y0216000D01*
X0023125Y0216000D01*
X0021508Y0215330D01*
X0020270Y0214092D01*
X0019600Y0212475D01*
X0019600Y0210725D01*
X0020270Y0209108D01*
X0021508Y0207870D01*
X0023125Y0207200D01*
X0030075Y0207200D01*
X0031524Y0207800D01*
X0039177Y0207800D01*
X0039777Y0207200D01*
X0043423Y0207200D01*
X0043423Y0207201D02*
X0049777Y0207201D01*
X0048578Y0208399D02*
X0044622Y0208399D01*
X0045820Y0209598D02*
X0047380Y0209598D01*
X0047200Y0210796D02*
X0046000Y0210796D01*
X0046000Y0211995D02*
X0047200Y0211995D01*
X0047200Y0213193D02*
X0046000Y0213193D01*
X0045031Y0214392D02*
X0048169Y0214392D01*
X0049368Y0215590D02*
X0043832Y0215590D01*
X0044210Y0217987D02*
X0048990Y0217987D01*
X0047792Y0219186D02*
X0045408Y0219186D01*
X0046000Y0220384D02*
X0047200Y0220384D01*
X0047200Y0221583D02*
X0046000Y0221583D01*
X0046000Y0222781D02*
X0047200Y0222781D01*
X0047757Y0223980D02*
X0045443Y0223980D01*
X0044244Y0225178D02*
X0047800Y0225178D01*
X0053832Y0215590D02*
X0062226Y0215590D01*
X0066600Y0211600D02*
X0076600Y0211600D01*
X0079622Y0208399D02*
X0080500Y0208399D01*
X0080500Y0207201D02*
X0078423Y0207201D01*
X0080500Y0206002D02*
X0014700Y0206002D01*
X0014700Y0207201D02*
X0023124Y0207201D01*
X0020978Y0208399D02*
X0014700Y0208399D01*
X0014700Y0209598D02*
X0020067Y0209598D01*
X0019600Y0210796D02*
X0014700Y0210796D01*
X0014700Y0211995D02*
X0019600Y0211995D01*
X0019897Y0213193D02*
X0014700Y0213193D01*
X0014700Y0214392D02*
X0020569Y0214392D01*
X0022135Y0215590D02*
X0014700Y0215590D01*
X0014700Y0204803D02*
X0020981Y0204803D01*
X0020068Y0203605D02*
X0014700Y0203605D01*
X0014700Y0202406D02*
X0019600Y0202406D01*
X0019600Y0201208D02*
X0014700Y0201208D01*
X0014700Y0200009D02*
X0019896Y0200009D01*
X0020567Y0198811D02*
X0014700Y0198811D01*
X0014700Y0185627D02*
X0022225Y0185627D01*
X0020606Y0184429D02*
X0014700Y0184429D01*
X0014700Y0183230D02*
X0019913Y0183230D01*
X0019600Y0182032D02*
X0014700Y0182032D01*
X0014700Y0180833D02*
X0019600Y0180833D01*
X0020051Y0179635D02*
X0014700Y0179635D01*
X0014700Y0178436D02*
X0020941Y0178436D01*
X0023034Y0177238D02*
X0014700Y0177238D01*
X0014700Y0164054D02*
X0020254Y0164054D01*
X0019758Y0162856D02*
X0014700Y0162856D01*
X0014700Y0161657D02*
X0019600Y0161657D01*
X0019710Y0160459D02*
X0014700Y0160459D01*
X0014700Y0159260D02*
X0020207Y0159260D01*
X0021316Y0158062D02*
X0014700Y0158062D01*
X0030885Y0155665D02*
X0039442Y0155665D01*
X0043758Y0155665D02*
X0049442Y0155665D01*
X0049777Y0157200D02*
X0053423Y0157200D01*
X0054023Y0157800D01*
X0061767Y0157800D01*
X0063155Y0157225D01*
X0070045Y0157225D01*
X0071653Y0157891D01*
X0072870Y0159108D01*
X0074777Y0157200D01*
X0078423Y0157200D01*
X0081000Y0159777D01*
X0081000Y0163423D01*
X0078423Y0166000D01*
X0074777Y0166000D01*
X0072870Y0164092D01*
X0071653Y0165309D01*
X0070045Y0165975D01*
X0063155Y0165975D01*
X0061767Y0165400D01*
X0054023Y0165400D01*
X0053423Y0166000D01*
X0049777Y0166000D01*
X0047200Y0163423D01*
X0047200Y0159777D01*
X0049777Y0157200D01*
X0048916Y0158062D02*
X0044284Y0158062D01*
X0045483Y0159260D02*
X0047717Y0159260D01*
X0047200Y0160459D02*
X0046000Y0160459D01*
X0046000Y0161657D02*
X0047200Y0161657D01*
X0047200Y0162856D02*
X0046000Y0162856D01*
X0045368Y0164054D02*
X0047832Y0164054D01*
X0049030Y0165253D02*
X0044170Y0165253D01*
X0043872Y0167650D02*
X0049328Y0167650D01*
X0048129Y0168848D02*
X0045071Y0168848D01*
X0046000Y0170047D02*
X0047200Y0170047D01*
X0047200Y0171245D02*
X0046000Y0171245D01*
X0046000Y0172444D02*
X0047200Y0172444D01*
X0047420Y0173642D02*
X0045780Y0173642D01*
X0044582Y0174841D02*
X0048618Y0174841D01*
X0049740Y0177238D02*
X0043460Y0177238D01*
X0044659Y0178436D02*
X0048541Y0178436D01*
X0047343Y0179635D02*
X0045857Y0179635D01*
X0046000Y0180833D02*
X0047200Y0180833D01*
X0047200Y0182032D02*
X0046000Y0182032D01*
X0046000Y0183230D02*
X0047200Y0183230D01*
X0048206Y0184429D02*
X0044994Y0184429D01*
X0039405Y0185627D02*
X0030975Y0185627D01*
X0030166Y0177238D02*
X0039740Y0177238D01*
X0039328Y0167650D02*
X0031161Y0167650D01*
X0044956Y0154466D02*
X0048243Y0154466D01*
X0047200Y0153268D02*
X0046000Y0153268D01*
X0046000Y0152069D02*
X0047200Y0152069D01*
X0047200Y0150870D02*
X0046000Y0150870D01*
X0045895Y0149672D02*
X0047305Y0149672D01*
X0047800Y0148473D02*
X0044696Y0148473D01*
X0043497Y0147275D02*
X0046901Y0147275D01*
X0051656Y0141282D02*
X0055908Y0141282D01*
X0054710Y0140084D02*
X0052904Y0140084D01*
X0053556Y0138885D02*
X0053726Y0138885D01*
X0052855Y0142481D02*
X0057107Y0142481D01*
X0058305Y0143679D02*
X0054053Y0143679D01*
X0055252Y0144878D02*
X0059584Y0144878D01*
X0057649Y0147275D02*
X0063035Y0147275D01*
X0066600Y0151600D02*
X0076600Y0151600D01*
X0073504Y0148473D02*
X0072235Y0148473D01*
X0070165Y0147275D02*
X0074703Y0147275D01*
X0080895Y0149672D02*
X0092588Y0149672D01*
X0092400Y0150870D02*
X0081000Y0150870D01*
X0081000Y0152069D02*
X0092400Y0152069D01*
X0092400Y0153268D02*
X0081000Y0153268D01*
X0079956Y0154466D02*
X0093526Y0154466D01*
X0094725Y0155665D02*
X0078758Y0155665D01*
X0079284Y0158062D02*
X0094199Y0158062D01*
X0094860Y0157400D02*
X0096400Y0157400D01*
X0096400Y0161400D01*
X0096800Y0161400D01*
X0096800Y0161800D01*
X0096400Y0161800D01*
X0096400Y0165800D01*
X0094860Y0165800D01*
X0092400Y0163340D01*
X0092400Y0161800D01*
X0096400Y0161800D01*
X0096400Y0161400D01*
X0092400Y0161400D01*
X0092400Y0159860D01*
X0094860Y0157400D01*
X0096400Y0158062D02*
X0096800Y0158062D01*
X0096800Y0157400D02*
X0098340Y0157400D01*
X0100800Y0159860D01*
X0100800Y0161400D01*
X0096800Y0161400D01*
X0096800Y0157400D01*
X0096800Y0159260D02*
X0096400Y0159260D01*
X0096400Y0160459D02*
X0096800Y0160459D01*
X0096800Y0161657D02*
X0109000Y0161657D01*
X0109000Y0162856D02*
X0100800Y0162856D01*
X0100086Y0164054D02*
X0109000Y0164054D01*
X0109259Y0160459D02*
X0100800Y0160459D01*
X0100200Y0159260D02*
X0110263Y0159260D01*
X0111461Y0158062D02*
X0099001Y0158062D01*
X0096400Y0161657D02*
X0081000Y0161657D01*
X0081000Y0160459D02*
X0092400Y0160459D01*
X0093000Y0159260D02*
X0080483Y0159260D01*
X0081000Y0162856D02*
X0092400Y0162856D01*
X0093114Y0164054D02*
X0080368Y0164054D01*
X0079170Y0165253D02*
X0094313Y0165253D01*
X0096400Y0165253D02*
X0096800Y0165253D01*
X0096800Y0164054D02*
X0096400Y0164054D01*
X0096400Y0162856D02*
X0096800Y0162856D01*
X0086000Y0174841D02*
X0079582Y0174841D01*
X0076600Y0171600D02*
X0066600Y0171600D01*
X0071070Y0167650D02*
X0074328Y0167650D01*
X0073129Y0168848D02*
X0072610Y0168848D01*
X0071709Y0165253D02*
X0074030Y0165253D01*
X0076600Y0161600D02*
X0066600Y0161600D01*
X0062406Y0155665D02*
X0053758Y0155665D01*
X0056450Y0146076D02*
X0154200Y0146076D01*
X0154200Y0144878D02*
X0151834Y0144878D01*
X0151936Y0144804D02*
X0151401Y0145192D01*
X0150812Y0145492D01*
X0150184Y0145697D01*
X0149531Y0145800D01*
X0146800Y0145800D01*
X0146800Y0141800D01*
X0153400Y0141800D01*
X0153400Y0141931D01*
X0153297Y0142584D01*
X0153092Y0143212D01*
X0152792Y0143801D01*
X0152404Y0144336D01*
X0151936Y0144804D01*
X0152854Y0143679D02*
X0154200Y0143679D01*
X0154200Y0142481D02*
X0153313Y0142481D01*
X0153400Y0141400D02*
X0146800Y0141400D01*
X0146800Y0137400D01*
X0149531Y0137400D01*
X0150184Y0137503D01*
X0150812Y0137708D01*
X0151401Y0138008D01*
X0151936Y0138396D01*
X0152404Y0138864D01*
X0152792Y0139399D01*
X0153092Y0139988D01*
X0153297Y0140616D01*
X0153400Y0141269D01*
X0153400Y0141400D01*
X0153400Y0141282D02*
X0154200Y0141282D01*
X0154200Y0140084D02*
X0153124Y0140084D01*
X0152419Y0138885D02*
X0154200Y0138885D01*
X0154200Y0137687D02*
X0150748Y0137687D01*
X0151733Y0135290D02*
X0154200Y0135290D01*
X0154200Y0136488D02*
X0061862Y0136488D01*
X0061528Y0135290D02*
X0060900Y0135290D01*
X0053300Y0134091D02*
X0052880Y0134091D01*
X0053300Y0132893D02*
X0051486Y0132893D01*
X0053300Y0131694D02*
X0049498Y0131694D01*
X0052210Y0130496D02*
X0053300Y0130496D01*
X0053300Y0129297D02*
X0053143Y0129297D01*
X0060900Y0128099D02*
X0061340Y0128099D01*
X0060900Y0126900D02*
X0154200Y0126900D01*
X0154200Y0125702D02*
X0150795Y0125702D01*
X0152519Y0124503D02*
X0154200Y0124503D01*
X0154200Y0123305D02*
X0153256Y0123305D01*
X0153600Y0122106D02*
X0154200Y0122106D01*
X0154200Y0120908D02*
X0153600Y0120908D01*
X0153179Y0119709D02*
X0154200Y0119709D01*
X0154200Y0118511D02*
X0152333Y0118511D01*
X0154200Y0117312D02*
X0150346Y0117312D01*
X0152107Y0114915D02*
X0154200Y0114915D01*
X0154200Y0113717D02*
X0153086Y0113717D01*
X0153582Y0112518D02*
X0154200Y0112518D01*
X0154200Y0111320D02*
X0153600Y0111320D01*
X0153350Y0110121D02*
X0154200Y0110121D01*
X0154200Y0108923D02*
X0152745Y0108923D01*
X0151340Y0107724D02*
X0154200Y0107724D01*
X0154200Y0106526D02*
X0066900Y0106526D01*
X0065701Y0105327D02*
X0070439Y0105327D01*
X0070623Y0105387D02*
X0069934Y0105163D01*
X0069289Y0104834D01*
X0068703Y0104409D01*
X0068191Y0103897D01*
X0067766Y0103311D01*
X0067437Y0102666D01*
X0067213Y0101977D01*
X0067100Y0101262D01*
X0067100Y0098300D01*
X0071300Y0098300D01*
X0071300Y0105494D01*
X0070623Y0105387D01*
X0071300Y0105327D02*
X0072100Y0105327D01*
X0072100Y0105494D02*
X0072100Y0098300D01*
X0076300Y0098300D01*
X0076300Y0101262D01*
X0076187Y0101977D01*
X0075963Y0102666D01*
X0075634Y0103311D01*
X0075209Y0103897D01*
X0074697Y0104409D01*
X0074111Y0104834D01*
X0073466Y0105163D01*
X0072777Y0105387D01*
X0072100Y0105494D01*
X0072961Y0105327D02*
X0087645Y0105327D01*
X0086781Y0104969D02*
X0085431Y0103619D01*
X0084700Y0101855D01*
X0084700Y0093945D01*
X0085431Y0092181D01*
X0086781Y0090831D01*
X0088545Y0090100D01*
X0090455Y0090100D01*
X0092219Y0090831D01*
X0093569Y0092181D01*
X0094300Y0093945D01*
X0094300Y0101855D01*
X0093569Y0103619D01*
X0092219Y0104969D01*
X0090455Y0105700D01*
X0088545Y0105700D01*
X0086781Y0104969D01*
X0085940Y0104129D02*
X0074977Y0104129D01*
X0075828Y0102930D02*
X0085145Y0102930D01*
X0084700Y0101732D02*
X0076226Y0101732D01*
X0076300Y0100533D02*
X0084700Y0100533D01*
X0084700Y0099334D02*
X0076300Y0099334D01*
X0076300Y0097500D02*
X0072100Y0097500D01*
X0072100Y0098300D01*
X0071300Y0098300D01*
X0071300Y0097500D01*
X0072100Y0097500D01*
X0072100Y0090306D01*
X0072777Y0090413D01*
X0073466Y0090637D01*
X0074111Y0090966D01*
X0074697Y0091391D01*
X0075209Y0091903D01*
X0075634Y0092489D01*
X0075963Y0093134D01*
X0076187Y0093823D01*
X0076300Y0094538D01*
X0076300Y0097500D01*
X0076300Y0096937D02*
X0084700Y0096937D01*
X0084700Y0095739D02*
X0076300Y0095739D01*
X0076300Y0094540D02*
X0084700Y0094540D01*
X0084950Y0093342D02*
X0076030Y0093342D01*
X0075383Y0092143D02*
X0085468Y0092143D01*
X0086667Y0090945D02*
X0074070Y0090945D01*
X0072100Y0090945D02*
X0071300Y0090945D01*
X0071300Y0090306D02*
X0071300Y0097500D01*
X0067100Y0097500D01*
X0067100Y0094538D01*
X0067213Y0093823D01*
X0067437Y0093134D01*
X0067766Y0092489D01*
X0068191Y0091903D01*
X0068703Y0091391D01*
X0069289Y0090966D01*
X0069934Y0090637D01*
X0070623Y0090413D01*
X0071300Y0090306D01*
X0071300Y0092143D02*
X0072100Y0092143D01*
X0072100Y0093342D02*
X0071300Y0093342D01*
X0071300Y0094540D02*
X0072100Y0094540D01*
X0072100Y0095739D02*
X0071300Y0095739D01*
X0071300Y0096937D02*
X0072100Y0096937D01*
X0072100Y0098136D02*
X0084700Y0098136D01*
X0094300Y0098136D02*
X0098900Y0098136D01*
X0098900Y0099334D02*
X0094300Y0099334D01*
X0094300Y0100533D02*
X0098900Y0100533D01*
X0098900Y0101732D02*
X0094300Y0101732D01*
X0093855Y0102930D02*
X0099345Y0102930D01*
X0099631Y0103619D02*
X0098900Y0101855D01*
X0098900Y0093945D01*
X0099631Y0092181D01*
X0100981Y0090831D01*
X0102745Y0090100D01*
X0104655Y0090100D01*
X0106419Y0090831D01*
X0107769Y0092181D01*
X0108500Y0093945D01*
X0108500Y0101855D01*
X0107769Y0103619D01*
X0106419Y0104969D01*
X0104655Y0105700D01*
X0102745Y0105700D01*
X0100981Y0104969D01*
X0099631Y0103619D01*
X0100140Y0104129D02*
X0093060Y0104129D01*
X0091355Y0105327D02*
X0101845Y0105327D01*
X0105555Y0105327D02*
X0119645Y0105327D01*
X0117940Y0104129D02*
X0107260Y0104129D01*
X0108055Y0102930D02*
X0117145Y0102930D01*
X0116700Y0101732D02*
X0108500Y0101732D01*
X0108500Y0100533D02*
X0116700Y0100533D01*
X0116700Y0099334D02*
X0108500Y0099334D01*
X0108500Y0098136D02*
X0116700Y0098136D01*
X0116700Y0096937D02*
X0108500Y0096937D01*
X0108500Y0095739D02*
X0116700Y0095739D01*
X0116700Y0094540D02*
X0108500Y0094540D01*
X0108250Y0093342D02*
X0116950Y0093342D01*
X0117468Y0092143D02*
X0107732Y0092143D01*
X0106533Y0090945D02*
X0118667Y0090945D01*
X0100867Y0090945D02*
X0092333Y0090945D01*
X0093532Y0092143D02*
X0099668Y0092143D01*
X0099150Y0093342D02*
X0094050Y0093342D01*
X0094300Y0094540D02*
X0098900Y0094540D01*
X0098900Y0095739D02*
X0094300Y0095739D01*
X0094300Y0096937D02*
X0098900Y0096937D01*
X0072100Y0099334D02*
X0071300Y0099334D01*
X0071300Y0098136D02*
X0065400Y0098136D01*
X0065400Y0099334D02*
X0067100Y0099334D01*
X0067100Y0100533D02*
X0065400Y0100533D01*
X0065400Y0101732D02*
X0067174Y0101732D01*
X0067572Y0102930D02*
X0065400Y0102930D01*
X0065400Y0104129D02*
X0068423Y0104129D01*
X0071300Y0104129D02*
X0072100Y0104129D01*
X0072100Y0102930D02*
X0071300Y0102930D01*
X0071300Y0101732D02*
X0072100Y0101732D01*
X0072100Y0100533D02*
X0071300Y0100533D01*
X0067100Y0096937D02*
X0065400Y0096937D01*
X0065400Y0095739D02*
X0067100Y0095739D01*
X0067100Y0094540D02*
X0065400Y0094540D01*
X0065400Y0093342D02*
X0067370Y0093342D01*
X0068017Y0092143D02*
X0065400Y0092143D01*
X0065400Y0090945D02*
X0069330Y0090945D01*
X0057800Y0090945D02*
X0051287Y0090945D01*
X0053032Y0092143D02*
X0057800Y0092143D01*
X0057800Y0093342D02*
X0053843Y0093342D01*
X0054300Y0094540D02*
X0057800Y0094540D01*
X0057800Y0095739D02*
X0054300Y0095739D01*
X0054300Y0096937D02*
X0057800Y0096937D01*
X0057800Y0098136D02*
X0054300Y0098136D01*
X0054300Y0099334D02*
X0057800Y0099334D01*
X0057800Y0100533D02*
X0054300Y0100533D01*
X0054300Y0101732D02*
X0057800Y0101732D01*
X0057800Y0102930D02*
X0054062Y0102930D01*
X0053560Y0104129D02*
X0057800Y0104129D01*
X0056999Y0105327D02*
X0052361Y0105327D01*
X0053400Y0106526D02*
X0055800Y0106526D01*
X0053390Y0114915D02*
X0061153Y0114915D01*
X0062423Y0117731D02*
X0061837Y0118029D01*
X0061305Y0118416D01*
X0060841Y0118880D01*
X0060455Y0119412D01*
X0060156Y0119997D01*
X0059953Y0120622D01*
X0059850Y0121271D01*
X0059850Y0121413D01*
X0066413Y0121413D01*
X0066413Y0117425D01*
X0063697Y0117425D01*
X0063048Y0117528D01*
X0062423Y0117731D01*
X0061210Y0118511D02*
X0056885Y0118511D01*
X0058083Y0119709D02*
X0060303Y0119709D01*
X0059908Y0120908D02*
X0059282Y0120908D01*
X0060900Y0124503D02*
X0061024Y0124503D01*
X0060900Y0125702D02*
X0063235Y0125702D01*
X0066413Y0125702D02*
X0066787Y0125702D01*
X0066787Y0124503D02*
X0066413Y0124503D01*
X0066413Y0123305D02*
X0066787Y0123305D01*
X0066787Y0122106D02*
X0066413Y0122106D01*
X0066413Y0120908D02*
X0066787Y0120908D01*
X0066787Y0119709D02*
X0066413Y0119709D01*
X0066413Y0118511D02*
X0066787Y0118511D01*
X0055686Y0117312D02*
X0122945Y0117312D01*
X0130255Y0117312D02*
X0142854Y0117312D01*
X0142405Y0125702D02*
X0130704Y0125702D01*
X0131249Y0107724D02*
X0141860Y0107724D01*
X0154200Y0116114D02*
X0054488Y0116114D01*
X0031800Y0125702D02*
X0030151Y0125702D01*
X0031800Y0126900D02*
X0014700Y0126900D01*
X0014700Y0125702D02*
X0023049Y0125702D01*
X0020964Y0124503D02*
X0014700Y0124503D01*
X0014700Y0123305D02*
X0020155Y0123305D01*
X0019828Y0122106D02*
X0014700Y0122106D01*
X0014700Y0120908D02*
X0019857Y0120908D01*
X0020250Y0119709D02*
X0014700Y0119709D01*
X0014700Y0118511D02*
X0021150Y0118511D01*
X0021093Y0114915D02*
X0014700Y0114915D01*
X0014700Y0113717D02*
X0020114Y0113717D01*
X0019618Y0112518D02*
X0014700Y0112518D01*
X0014700Y0111320D02*
X0019600Y0111320D01*
X0019850Y0110121D02*
X0014700Y0110121D01*
X0014700Y0108923D02*
X0020455Y0108923D01*
X0021860Y0107724D02*
X0014700Y0107724D01*
X0026400Y0118511D02*
X0026800Y0118511D01*
X0026800Y0119709D02*
X0026400Y0119709D01*
X0026400Y0120908D02*
X0026800Y0120908D01*
X0026800Y0122106D02*
X0026400Y0122106D01*
X0026400Y0123305D02*
X0026800Y0123305D01*
X0026800Y0124503D02*
X0026400Y0124503D01*
X0026400Y0125702D02*
X0026800Y0125702D01*
X0021279Y0128099D02*
X0014700Y0128099D01*
X0014700Y0129297D02*
X0020191Y0129297D01*
X0019695Y0130496D02*
X0014700Y0130496D01*
X0014700Y0131694D02*
X0019600Y0131694D01*
X0019773Y0132893D02*
X0014700Y0132893D01*
X0014700Y0134091D02*
X0020269Y0134091D01*
X0021467Y0135290D02*
X0014700Y0135290D01*
X0053872Y0167650D02*
X0062130Y0167650D01*
X0063125Y0177238D02*
X0053460Y0177238D01*
X0066600Y0181600D02*
X0076600Y0181600D01*
X0073541Y0178436D02*
X0072198Y0178436D01*
X0070075Y0177238D02*
X0074740Y0177238D01*
X0073618Y0174841D02*
X0072121Y0174841D01*
X0072533Y0184429D02*
X0073206Y0184429D01*
X0074405Y0185627D02*
X0070884Y0185627D01*
X0071786Y0188024D02*
X0073953Y0188024D01*
X0078795Y0185627D02*
X0080500Y0185627D01*
X0080500Y0184429D02*
X0079994Y0184429D01*
X0073993Y0195215D02*
X0071746Y0195215D01*
X0070980Y0197612D02*
X0074365Y0197612D01*
X0073167Y0198811D02*
X0072573Y0198811D01*
X0076600Y0201600D02*
X0066600Y0201600D01*
X0062220Y0197612D02*
X0053835Y0197612D01*
X0053423Y0207201D02*
X0074777Y0207201D01*
X0073578Y0208399D02*
X0072161Y0208399D01*
X0072158Y0204803D02*
X0073581Y0204803D01*
X0079619Y0204803D02*
X0080500Y0204803D01*
X0080500Y0214392D02*
X0080031Y0214392D01*
X0080500Y0215590D02*
X0078832Y0215590D01*
X0074368Y0215590D02*
X0070974Y0215590D01*
X0072570Y0214392D02*
X0073169Y0214392D01*
X0039368Y0215590D02*
X0031065Y0215590D01*
X0030076Y0207201D02*
X0039777Y0207201D01*
X0039365Y0197612D02*
X0031071Y0197612D01*
X0030160Y0235965D02*
X0033091Y0235965D01*
X0021016Y0238362D02*
X0019900Y0238362D01*
X0019900Y0239560D02*
X0020082Y0239560D01*
X0120652Y0238362D02*
X0121076Y0238362D01*
X0130794Y0155665D02*
X0142315Y0155665D01*
X0152557Y0154466D02*
X0154200Y0154466D01*
X0154200Y0153268D02*
X0153272Y0153268D01*
X0153600Y0152069D02*
X0154200Y0152069D01*
X0154200Y0150870D02*
X0153600Y0150870D01*
X0153164Y0149672D02*
X0154200Y0149672D01*
X0154200Y0148473D02*
X0152296Y0148473D01*
X0154200Y0147275D02*
X0150256Y0147275D01*
X0146800Y0144878D02*
X0146400Y0144878D01*
X0146400Y0143679D02*
X0146800Y0143679D01*
X0146800Y0142481D02*
X0146400Y0142481D01*
X0146400Y0141282D02*
X0146800Y0141282D01*
X0146800Y0140084D02*
X0146400Y0140084D01*
X0146400Y0138885D02*
X0146800Y0138885D01*
X0146800Y0137687D02*
X0146400Y0137687D01*
X0152931Y0134091D02*
X0154200Y0134091D01*
X0154200Y0132893D02*
X0153427Y0132893D01*
X0153600Y0131694D02*
X0154200Y0131694D01*
X0154200Y0130496D02*
X0153505Y0130496D01*
X0153009Y0129297D02*
X0154200Y0129297D01*
X0154200Y0128099D02*
X0151921Y0128099D01*
X0147387Y0077761D02*
X0125398Y0077761D01*
X0125926Y0076563D02*
X0146189Y0076563D01*
X0144990Y0075364D02*
X0126100Y0075364D01*
X0126100Y0074166D02*
X0143792Y0074166D01*
X0142593Y0072967D02*
X0126100Y0072967D01*
X0126100Y0071769D02*
X0141395Y0071769D01*
X0140196Y0070570D02*
X0126100Y0070570D01*
X0126100Y0069372D02*
X0138998Y0069372D01*
X0137799Y0068173D02*
X0125971Y0068173D01*
X0125478Y0066975D02*
X0136601Y0066975D01*
X0135402Y0065776D02*
X0124476Y0065776D01*
X0118524Y0065776D02*
X0106964Y0065776D01*
X0107932Y0066975D02*
X0117522Y0066975D01*
X0117029Y0068173D02*
X0108429Y0068173D01*
X0108500Y0069372D02*
X0116900Y0069372D01*
X0116900Y0070570D02*
X0108500Y0070570D01*
X0086236Y0065776D02*
X0074964Y0065776D01*
X0075932Y0066975D02*
X0085268Y0066975D01*
X0084771Y0068173D02*
X0076429Y0068173D01*
X0076500Y0069372D02*
X0084700Y0069372D01*
X0084700Y0070570D02*
X0076500Y0070570D01*
X0067468Y0066975D02*
X0066599Y0066975D01*
X0066971Y0068173D02*
X0065401Y0068173D01*
X0065400Y0069372D02*
X0066900Y0069372D01*
X0066900Y0070570D02*
X0065400Y0070570D01*
X0065400Y0071769D02*
X0066900Y0071769D01*
X0066900Y0072967D02*
X0065400Y0072967D01*
X0065400Y0074166D02*
X0066900Y0074166D01*
X0066900Y0075364D02*
X0065400Y0075364D01*
X0065400Y0076563D02*
X0067028Y0076563D01*
X0067524Y0077761D02*
X0065400Y0077761D01*
X0057800Y0077761D02*
X0053883Y0077761D01*
X0053569Y0078519D02*
X0054300Y0076755D01*
X0054300Y0068845D01*
X0053569Y0067081D01*
X0052219Y0065731D01*
X0050455Y0065000D01*
X0048545Y0065000D01*
X0046781Y0065731D01*
X0045431Y0067081D01*
X0044700Y0068845D01*
X0044700Y0076755D01*
X0045431Y0078519D01*
X0046781Y0079869D01*
X0048545Y0080600D01*
X0050455Y0080600D01*
X0052219Y0079869D01*
X0053569Y0078519D01*
X0053128Y0078960D02*
X0057800Y0078960D01*
X0057800Y0080158D02*
X0051521Y0080158D01*
X0047479Y0080158D02*
X0033721Y0080158D01*
X0035328Y0078960D02*
X0045872Y0078960D01*
X0045117Y0077761D02*
X0036083Y0077761D01*
X0036500Y0076563D02*
X0044700Y0076563D01*
X0044700Y0075364D02*
X0036500Y0075364D01*
X0036500Y0074166D02*
X0044700Y0074166D01*
X0044700Y0072967D02*
X0036500Y0072967D01*
X0036500Y0071769D02*
X0044700Y0071769D01*
X0044700Y0070570D02*
X0036500Y0070570D01*
X0036500Y0069372D02*
X0044700Y0069372D01*
X0044978Y0068173D02*
X0036222Y0068173D01*
X0035663Y0066975D02*
X0045537Y0066975D01*
X0046736Y0065776D02*
X0034464Y0065776D01*
X0027711Y0056188D02*
X0156223Y0056188D01*
X0163977Y0056188D02*
X0170701Y0056188D01*
X0170701Y0054990D02*
X0027214Y0054990D01*
X0026080Y0053791D02*
X0170701Y0053791D01*
X0170701Y0052593D02*
X0024261Y0052593D01*
X0018939Y0052593D02*
X0014700Y0052593D01*
X0014700Y0053791D02*
X0017120Y0053791D01*
X0015986Y0054990D02*
X0014700Y0054990D01*
X0014700Y0056188D02*
X0015489Y0056188D01*
X0015031Y0057387D02*
X0014700Y0057387D01*
X0014700Y0058585D02*
X0015031Y0058585D01*
X0015031Y0059784D02*
X0014700Y0059784D01*
X0014700Y0060982D02*
X0015477Y0060982D01*
X0015973Y0062181D02*
X0014700Y0062181D01*
X0014700Y0063379D02*
X0017090Y0063379D01*
X0018867Y0064578D02*
X0014700Y0064578D01*
X0014700Y0051394D02*
X0170701Y0051394D01*
X0170701Y0057387D02*
X0165176Y0057387D01*
X0165961Y0058585D02*
X0170701Y0058585D01*
X0170701Y0059784D02*
X0166457Y0059784D01*
X0166668Y0060982D02*
X0170701Y0060982D01*
X0170701Y0062181D02*
X0166668Y0062181D01*
X0166473Y0063379D02*
X0170701Y0063379D01*
X0170701Y0064578D02*
X0165976Y0064578D01*
X0165213Y0065776D02*
X0170701Y0065776D01*
X0170701Y0066975D02*
X0164015Y0066975D01*
X0170701Y0068173D02*
X0148547Y0068173D01*
X0149746Y0069372D02*
X0170701Y0069372D01*
X0170701Y0070570D02*
X0150944Y0070570D01*
X0068436Y0065776D02*
X0067798Y0065776D01*
X0057828Y0065776D02*
X0052264Y0065776D01*
X0053463Y0066975D02*
X0057800Y0066975D01*
X0057800Y0068173D02*
X0054022Y0068173D01*
X0054300Y0069372D02*
X0057800Y0069372D01*
X0057800Y0070570D02*
X0054300Y0070570D01*
X0054300Y0071769D02*
X0057800Y0071769D01*
X0057800Y0072967D02*
X0054300Y0072967D01*
X0054300Y0074166D02*
X0057800Y0074166D01*
X0057800Y0075364D02*
X0054300Y0075364D01*
X0054300Y0076563D02*
X0057800Y0076563D01*
X0072496Y0154466D02*
X0073244Y0154466D01*
X0074442Y0155665D02*
X0070794Y0155665D01*
X0071823Y0158062D02*
X0073916Y0158062D01*
X0028773Y0347426D02*
X0024144Y0347426D01*
X0023568Y0346850D02*
X0026350Y0349632D01*
X0026350Y0351400D01*
X0021800Y0351400D01*
X0021800Y0351800D01*
X0026350Y0351800D01*
X0026350Y0353568D01*
X0023568Y0356350D01*
X0021800Y0356350D01*
X0021800Y0351800D01*
X0021400Y0351800D01*
X0021400Y0356350D01*
X0019632Y0356350D01*
X0016850Y0353568D01*
X0016850Y0351800D01*
X0021400Y0351800D01*
X0021400Y0351400D01*
X0021800Y0351400D01*
X0021800Y0346850D01*
X0023568Y0346850D01*
X0021800Y0347426D02*
X0021400Y0347426D01*
X0021400Y0346850D02*
X0021400Y0351400D01*
X0016850Y0351400D01*
X0016850Y0349632D01*
X0019632Y0346850D01*
X0021400Y0346850D01*
X0021400Y0348625D02*
X0021800Y0348625D01*
X0021800Y0349823D02*
X0021400Y0349823D01*
X0021400Y0351022D02*
X0021800Y0351022D01*
X0021800Y0352220D02*
X0021400Y0352220D01*
X0021400Y0353419D02*
X0021800Y0353419D01*
X0021800Y0354617D02*
X0021400Y0354617D01*
X0021400Y0355816D02*
X0021800Y0355816D01*
X0024102Y0355816D02*
X0028816Y0355816D01*
X0027617Y0354617D02*
X0025300Y0354617D01*
X0026350Y0353419D02*
X0026650Y0353419D01*
X0026650Y0352220D02*
X0026350Y0352220D01*
X0026350Y0351022D02*
X0026650Y0351022D01*
X0026650Y0349823D02*
X0026350Y0349823D01*
X0025342Y0348625D02*
X0027575Y0348625D01*
X0019056Y0347426D02*
X0014700Y0347426D01*
X0014700Y0348625D02*
X0017858Y0348625D01*
X0016850Y0349823D02*
X0014700Y0349823D01*
X0014700Y0351022D02*
X0016850Y0351022D01*
X0016850Y0352220D02*
X0014700Y0352220D01*
X0014700Y0353419D02*
X0016850Y0353419D01*
X0017900Y0354617D02*
X0014700Y0354617D01*
X0014700Y0355816D02*
X0019098Y0355816D01*
X0034384Y0355816D02*
X0037507Y0355816D01*
D21*
X0031600Y0341600D02*
X0021600Y0341600D01*
X0056600Y0346600D02*
X0056600Y0331600D01*
X0056600Y0315100D02*
X0066600Y0315100D01*
X0076600Y0315100D01*
X0086600Y0315100D01*
X0096600Y0315100D01*
X0106600Y0315100D01*
X0116600Y0315100D01*
X0122100Y0315100D01*
X0126100Y0311100D01*
X0129100Y0311100D01*
X0129100Y0301100D02*
X0116600Y0301100D01*
X0106600Y0301100D01*
X0096600Y0301100D01*
X0086600Y0301100D01*
X0076600Y0301100D01*
X0066600Y0301100D01*
X0056600Y0301100D01*
X0056600Y0287600D02*
X0066600Y0287600D01*
X0076600Y0287600D01*
X0086600Y0287600D01*
X0096600Y0287600D01*
X0106600Y0287600D01*
X0116600Y0287600D01*
X0119600Y0287600D01*
X0122600Y0290600D01*
X0128600Y0290600D01*
X0129100Y0291100D01*
X0126100Y0291100D01*
X0106600Y0311600D02*
X0106600Y0315100D01*
X0141600Y0330100D02*
X0141600Y0341600D01*
X0057600Y0286600D02*
X0056600Y0287600D01*
D22*
X0052100Y0287600D01*
X0048600Y0284100D01*
X0048600Y0266600D01*
X0048600Y0262100D01*
X0041600Y0255100D01*
X0041600Y0245100D01*
X0041600Y0239100D02*
X0034100Y0231600D01*
X0026600Y0231600D01*
X0019600Y0221600D02*
X0016100Y0225100D01*
X0016100Y0321100D01*
X0021600Y0326600D01*
X0021600Y0335600D01*
X0031600Y0351600D02*
X0041600Y0351600D01*
X0051600Y0351600D01*
X0056600Y0346600D01*
X0052100Y0325100D02*
X0085100Y0325100D01*
X0086600Y0326600D01*
X0086600Y0332600D01*
X0052100Y0325100D02*
X0048100Y0321100D01*
X0048100Y0307100D01*
X0054100Y0301100D01*
X0056600Y0301100D01*
X0126600Y0251600D02*
X0146600Y0251600D01*
X0146600Y0241600D02*
X0126600Y0241600D01*
X0126600Y0231600D02*
X0146600Y0231600D01*
X0146600Y0221600D02*
X0126600Y0221600D01*
X0126600Y0211600D02*
X0146600Y0211600D01*
X0146600Y0201600D02*
X0126600Y0201600D01*
X0126600Y0181600D02*
X0146600Y0181600D01*
X0146600Y0171600D02*
X0126600Y0171600D01*
X0126600Y0161600D02*
X0146600Y0161600D01*
X0146600Y0151600D02*
X0126600Y0151600D01*
X0126600Y0131600D02*
X0146600Y0131600D01*
X0146600Y0121600D02*
X0126600Y0121600D01*
X0126600Y0111600D02*
X0146600Y0111600D01*
X0166600Y0091600D02*
X0136600Y0061600D01*
X0066600Y0061600D01*
X0061600Y0066600D01*
X0061600Y0106600D01*
X0061100Y0106600D01*
X0056600Y0111100D01*
X0052600Y0111100D01*
X0050600Y0109100D01*
X0042100Y0109100D01*
X0039600Y0111600D01*
X0026600Y0111600D01*
X0035600Y0122100D02*
X0035600Y0139100D01*
X0033100Y0141600D01*
X0026600Y0141600D01*
X0026600Y0151600D02*
X0041600Y0151600D01*
X0051600Y0151600D02*
X0051600Y0146600D01*
X0046600Y0141600D01*
X0046600Y0137600D01*
X0046100Y0137100D01*
X0051600Y0146600D02*
X0056600Y0151600D01*
X0051600Y0151600D01*
X0056600Y0151600D02*
X0066600Y0151600D01*
X0066600Y0141600D02*
X0061600Y0141600D01*
X0057100Y0137100D01*
X0057100Y0124100D01*
X0050100Y0117100D01*
X0046100Y0117100D01*
X0040600Y0117100D01*
X0035600Y0122100D01*
X0056600Y0111100D02*
X0066100Y0111100D01*
X0066600Y0111600D01*
X0061600Y0106600D01*
X0066600Y0161600D02*
X0051600Y0161600D01*
X0041600Y0161600D02*
X0026600Y0161600D01*
X0026600Y0171600D02*
X0041600Y0171600D01*
X0051600Y0171600D02*
X0066600Y0171600D01*
X0066600Y0181600D02*
X0051600Y0181600D01*
X0051600Y0191600D02*
X0066600Y0191600D01*
X0066600Y0201600D02*
X0051600Y0201600D01*
X0041600Y0201600D02*
X0026600Y0201600D01*
X0026600Y0191600D02*
X0041600Y0191600D01*
X0041600Y0181600D02*
X0026600Y0181600D01*
X0026600Y0211600D02*
X0041600Y0211600D01*
X0041600Y0221600D02*
X0026600Y0221600D01*
X0019600Y0221600D01*
X0051600Y0221600D02*
X0051600Y0236600D01*
X0051600Y0221600D02*
X0066600Y0221600D01*
X0066600Y0211600D02*
X0051600Y0211600D01*
X0151600Y0286600D02*
X0159100Y0279100D01*
X0159100Y0222100D01*
X0166600Y0214600D01*
X0166600Y0091600D01*
X0151600Y0286600D02*
X0151600Y0301600D01*
X0141100Y0312100D01*
D23*
X0109600Y0250600D02*
X0109600Y0237600D01*
X0102907Y0237600D02*
X0099907Y0240600D01*
X0090100Y0240600D01*
X0083100Y0233600D01*
X0083100Y0183100D01*
X0081600Y0181600D01*
X0076600Y0181600D01*
X0076600Y0171600D02*
X0087100Y0171600D01*
X0088600Y0173100D01*
X0088600Y0225793D01*
X0089907Y0227100D01*
X0103293Y0227100D02*
X0111600Y0218793D01*
X0111600Y0161600D01*
X0121600Y0151600D01*
X0126600Y0151600D01*
X0126600Y0201600D02*
X0121600Y0201600D01*
X0116293Y0206907D01*
X0116293Y0237600D01*
X0053600Y0262100D02*
X0051600Y0262100D01*
X0048600Y0265100D01*
X0048600Y0266600D01*
X0048600Y0262100D02*
X0051600Y0262100D01*
D24*
X0053100Y0262100D02*
X0048600Y0262100D01*
X0048600Y0266600D02*
X0053100Y0262100D01*
X0053600Y0262100D01*
X0086100Y0262100D01*
X0089600Y0258600D01*
X0089600Y0250600D01*
X0123600Y0325100D02*
X0134100Y0325100D01*
X0123600Y0325100D02*
X0115600Y0333100D01*
X0115600Y0336100D01*
X0110100Y0341600D01*
X0095907Y0341600D01*
X0094600Y0340293D01*
X0094600Y0333600D02*
X0093600Y0332600D01*
X0086600Y0332600D01*
X0086600Y0338600D02*
X0078600Y0346600D01*
X0076600Y0346600D01*
X0091100Y0346600D01*
X0093850Y0349350D01*
X0076600Y0346600D02*
X0076600Y0331600D01*
D25*
X0094600Y0326907D02*
X0116793Y0326907D01*
X0124600Y0319100D01*
X0134100Y0319100D01*
X0141100Y0312100D01*
D26*
X0096600Y0236600D03*
M02*
