G75*
%MOIN*%
%OFA0B0*%
%FSLAX25Y25*%
%IPPOS*%
%LPD*%
%AMOC8*
5,1,8,0,0,1.08239X$1,22.5*
%
%ADD10C,0.04737*%
%ADD11C,0.05950*%
%ADD12C,0.06000*%
%ADD13OC8,0.06000*%
%ADD14C,0.06800*%
%ADD15OC8,0.07100*%
%ADD16R,0.06706X0.05918*%
%ADD17OC8,0.06400*%
%ADD18R,0.07100X0.05400*%
%ADD19R,0.07200X0.00600*%
%ADD20R,0.05918X0.06706*%
%ADD21C,0.06737*%
%ADD22C,0.03778*%
D10*
X0021600Y0058600D03*
X0160100Y0061600D03*
X0035100Y0296600D03*
X0160100Y0346600D03*
D11*
X0129175Y0251600D02*
X0124025Y0251600D01*
X0124025Y0241600D02*
X0129175Y0241600D01*
X0129175Y0231600D02*
X0124025Y0231600D01*
X0124025Y0221600D02*
X0129175Y0221600D01*
X0129175Y0211600D02*
X0124025Y0211600D01*
X0124025Y0201600D02*
X0129175Y0201600D01*
X0129175Y0191600D02*
X0124025Y0191600D01*
X0124025Y0181600D02*
X0129175Y0181600D01*
X0129175Y0171600D02*
X0124025Y0171600D01*
X0124025Y0161600D02*
X0129175Y0161600D01*
X0129175Y0151600D02*
X0124025Y0151600D01*
X0124025Y0141600D02*
X0129175Y0141600D01*
X0129175Y0131600D02*
X0124025Y0131600D01*
X0124025Y0121600D02*
X0129175Y0121600D01*
X0129175Y0111600D02*
X0124025Y0111600D01*
X0069175Y0111600D02*
X0064025Y0111600D01*
X0064025Y0121600D02*
X0069175Y0121600D01*
X0069175Y0131600D02*
X0064025Y0131600D01*
X0064025Y0141600D02*
X0069175Y0141600D01*
X0069175Y0151600D02*
X0064025Y0151600D01*
X0064025Y0161600D02*
X0069175Y0161600D01*
X0069175Y0171600D02*
X0064025Y0171600D01*
X0064025Y0181600D02*
X0069175Y0181600D01*
X0069175Y0191600D02*
X0064025Y0191600D01*
X0064025Y0201600D02*
X0069175Y0201600D01*
X0069175Y0211600D02*
X0064025Y0211600D01*
X0064025Y0221600D02*
X0069175Y0221600D01*
X0069175Y0231600D02*
X0064025Y0231600D01*
X0064025Y0241600D02*
X0069175Y0241600D01*
X0069175Y0251600D02*
X0064025Y0251600D01*
D12*
X0029200Y0251600D02*
X0024000Y0251600D01*
X0024000Y0241600D02*
X0029200Y0241600D01*
X0029200Y0231600D02*
X0024000Y0231600D01*
X0024000Y0221600D02*
X0029200Y0221600D01*
X0029200Y0211600D02*
X0024000Y0211600D01*
X0024000Y0201600D02*
X0029200Y0201600D01*
X0029200Y0191600D02*
X0024000Y0191600D01*
X0024000Y0181600D02*
X0029200Y0181600D01*
X0029200Y0171600D02*
X0024000Y0171600D01*
X0024000Y0161600D02*
X0029200Y0161600D01*
X0029200Y0151600D02*
X0024000Y0151600D01*
X0024000Y0141600D02*
X0029200Y0141600D01*
X0029200Y0131600D02*
X0024000Y0131600D01*
X0024000Y0121600D02*
X0029200Y0121600D01*
X0029200Y0111600D02*
X0024000Y0111600D01*
X0144000Y0111600D02*
X0149200Y0111600D01*
X0149200Y0121600D02*
X0144000Y0121600D01*
X0144000Y0131600D02*
X0149200Y0131600D01*
X0149200Y0141600D02*
X0144000Y0141600D01*
X0144000Y0151600D02*
X0149200Y0151600D01*
X0149200Y0161600D02*
X0144000Y0161600D01*
X0144000Y0171600D02*
X0149200Y0171600D01*
X0149200Y0181600D02*
X0144000Y0181600D01*
X0144000Y0191600D02*
X0149200Y0191600D01*
X0149200Y0201600D02*
X0144000Y0201600D01*
X0144000Y0211600D02*
X0149200Y0211600D01*
X0149200Y0221600D02*
X0144000Y0221600D01*
X0144000Y0231600D02*
X0149200Y0231600D01*
X0149200Y0241600D02*
X0144000Y0241600D01*
X0144000Y0251600D02*
X0149200Y0251600D01*
X0041600Y0319000D02*
X0041600Y0324200D01*
X0041600Y0349000D02*
X0041600Y0354200D01*
D13*
X0031600Y0341600D03*
X0031600Y0331600D03*
X0056600Y0331600D03*
X0076600Y0331600D03*
X0134100Y0325100D03*
X0141600Y0320100D03*
X0141600Y0330100D03*
X0051600Y0256600D03*
X0051600Y0236600D03*
X0051600Y0221600D03*
X0051600Y0211600D03*
X0041600Y0211600D03*
X0041600Y0221600D03*
X0041600Y0201600D03*
X0051600Y0201600D03*
X0051600Y0191600D03*
X0051600Y0181600D03*
X0041600Y0181600D03*
X0041600Y0191600D03*
X0041600Y0171600D03*
X0051600Y0171600D03*
X0051600Y0161600D03*
X0041600Y0161600D03*
X0041600Y0151600D03*
X0051600Y0151600D03*
X0076600Y0151600D03*
X0076600Y0161600D03*
X0076600Y0171600D03*
X0076600Y0181600D03*
X0076600Y0191600D03*
X0076600Y0201600D03*
X0076600Y0211600D03*
X0096600Y0211600D03*
X0096600Y0201600D03*
X0096600Y0191600D03*
X0096600Y0181600D03*
X0096600Y0171600D03*
X0096600Y0161600D03*
X0096600Y0151600D03*
D14*
X0049100Y0137100D02*
X0043100Y0137100D01*
X0043100Y0127100D02*
X0049100Y0127100D01*
X0049100Y0117100D02*
X0043100Y0117100D01*
X0049500Y0101400D02*
X0049500Y0095400D01*
X0031700Y0095400D02*
X0031700Y0101400D01*
X0031700Y0075800D02*
X0031700Y0069800D01*
X0049500Y0069800D02*
X0049500Y0075800D01*
X0071700Y0075300D02*
X0071700Y0069300D01*
X0089500Y0069300D02*
X0089500Y0075300D01*
X0103700Y0075300D02*
X0103700Y0069300D01*
X0121500Y0069300D02*
X0121500Y0075300D01*
X0121500Y0094900D02*
X0121500Y0100900D01*
X0103700Y0100900D02*
X0103700Y0094900D01*
X0089500Y0094900D02*
X0089500Y0100900D01*
X0071700Y0100900D02*
X0071700Y0094900D01*
X0079600Y0247600D02*
X0079600Y0253600D01*
X0089600Y0253600D02*
X0089600Y0247600D01*
X0099600Y0247600D02*
X0099600Y0253600D01*
X0109600Y0253600D02*
X0109600Y0247600D01*
X0106600Y0271100D02*
X0106600Y0277100D01*
X0106600Y0284600D02*
X0106600Y0290600D01*
X0106600Y0298100D02*
X0106600Y0304100D01*
X0106600Y0312100D02*
X0106600Y0318100D01*
X0096600Y0318100D02*
X0096600Y0312100D01*
X0096600Y0304100D02*
X0096600Y0298100D01*
X0096600Y0290600D02*
X0096600Y0284600D01*
X0096600Y0277100D02*
X0096600Y0271100D01*
X0086600Y0271100D02*
X0086600Y0277100D01*
X0086600Y0284600D02*
X0086600Y0290600D01*
X0086600Y0298100D02*
X0086600Y0304100D01*
X0086600Y0312100D02*
X0086600Y0318100D01*
X0076600Y0318100D02*
X0076600Y0312100D01*
X0076600Y0304100D02*
X0076600Y0298100D01*
X0076600Y0290600D02*
X0076600Y0284600D01*
X0076600Y0277100D02*
X0076600Y0271100D01*
X0066600Y0271100D02*
X0066600Y0277100D01*
X0066600Y0284600D02*
X0066600Y0290600D01*
X0066600Y0298100D02*
X0066600Y0304100D01*
X0066600Y0312100D02*
X0066600Y0318100D01*
X0056600Y0318100D02*
X0056600Y0312100D01*
X0056600Y0304100D02*
X0056600Y0298100D01*
X0056600Y0290600D02*
X0056600Y0284600D01*
X0056600Y0277100D02*
X0056600Y0271100D01*
X0116600Y0271100D02*
X0116600Y0277100D01*
X0116600Y0284600D02*
X0116600Y0290600D01*
X0116600Y0298100D02*
X0116600Y0304100D01*
X0116600Y0312100D02*
X0116600Y0318100D01*
X0126100Y0311100D02*
X0132100Y0311100D01*
X0132100Y0301100D02*
X0126100Y0301100D01*
X0126100Y0291100D02*
X0132100Y0291100D01*
X0132100Y0281100D02*
X0126100Y0281100D01*
X0076600Y0343600D02*
X0076600Y0349600D01*
X0066600Y0349600D02*
X0066600Y0343600D01*
X0056600Y0343600D02*
X0056600Y0349600D01*
D15*
X0031600Y0351600D03*
X0021600Y0351600D03*
X0094600Y0350100D03*
X0104600Y0350100D03*
X0141600Y0351600D03*
X0141600Y0341600D03*
D16*
X0094600Y0340293D03*
X0094600Y0333600D03*
X0094600Y0326907D03*
D17*
X0106600Y0333600D03*
X0126600Y0333600D03*
D18*
X0086600Y0332600D03*
X0086600Y0338600D03*
X0021600Y0335600D03*
X0021600Y0341600D03*
X0041600Y0245100D03*
X0041600Y0239100D03*
D19*
X0041600Y0242100D03*
X0086600Y0335600D03*
X0021600Y0338600D03*
D20*
X0102907Y0237600D03*
X0109600Y0237600D03*
X0116293Y0237600D03*
X0103293Y0227100D03*
X0096600Y0227100D03*
X0089907Y0227100D03*
D21*
X0143631Y0262600D02*
X0149569Y0262600D01*
X0149569Y0272600D02*
X0143631Y0272600D01*
X0126600Y0345631D02*
X0126600Y0351569D01*
X0116600Y0351569D02*
X0116600Y0345631D01*
D22*
X0096600Y0236600D03*
M02*
