%
M48
M72
T01C0.01378
T02C0.03150
T03C0.03200
T04C0.03937
T05C0.04000
%
T01
X96600Y236600
T02
X126600Y231600
X126600Y221600
X126600Y211600
X126600Y201600
X126600Y191600
X126600Y181600
X126600Y171600
X126600Y161600
X126600Y151600
X126600Y141600
X126600Y131600
X126600Y121600
X126600Y111600
X66600Y111600
X66600Y121600
X66600Y131600
X66600Y141600
X66600Y151600
X66600Y161600
X66600Y171600
X66600Y181600
X66600Y191600
X66600Y201600
X66600Y211600
X66600Y221600
X66600Y231600
X66600Y241600
X66600Y251600
X126600Y251600
X126600Y241600
X126600Y333600
X106600Y333600
T03
X104600Y350100
X94600Y350100
X76600Y331600
X56600Y331600
X41600Y321600
X31600Y331600
X31600Y341600
X31600Y351600
X21600Y351600
X41600Y351600
X134100Y325100
X141600Y320100
X141600Y330100
X141600Y341600
X141600Y351600
X51600Y256600
X26600Y251600
X26600Y241600
X26600Y231600
X26600Y221600
X26600Y211600
X26600Y201600
X26600Y191600
X26600Y181600
X26600Y171600
X26600Y161600
X26600Y151600
X26600Y141600
X26600Y131600
X26600Y121600
X26600Y111600
X41600Y151600
X51600Y151600
X51600Y161600
X41600Y161600
X41600Y171600
X51600Y171600
X51600Y181600
X51600Y191600
X41600Y191600
X41600Y181600
X41600Y201600
X51600Y201600
X51600Y211600
X51600Y221600
X41600Y221600
X41600Y211600
X51600Y236600
X76600Y211600
X76600Y201600
X76600Y191600
X76600Y181600
X76600Y171600
X76600Y161600
X76600Y151600
X96600Y151600
X96600Y161600
X96600Y171600
X96600Y181600
X96600Y191600
X96600Y201600
X96600Y211600
X146600Y211600
X146600Y221600
X146600Y231600
X146600Y241600
X146600Y251600
X146600Y201600
X146600Y191600
X146600Y181600
X146600Y171600
X146600Y161600
X146600Y151600
X146600Y141600
X146600Y131600
X146600Y121600
X146600Y111600
T04
X21600Y58600
X160100Y61600
X146600Y262600
X146600Y272600
X160100Y346600
X126600Y348600
X116600Y348600
X35100Y296600
T05
X56600Y301100
X66600Y301100
X76600Y301100
X86600Y301100
X96600Y301100
X106600Y301100
X116600Y301100
X129100Y301100
X129100Y311100
X116600Y315100
X106600Y315100
X96600Y315100
X86600Y315100
X76600Y315100
X66600Y315100
X56600Y315100
X56600Y287600
X66600Y287600
X76600Y287600
X86600Y287600
X96600Y287600
X106600Y287600
X116600Y287600
X129100Y291100
X129100Y281100
X116600Y274100
X106600Y274100
X96600Y274100
X86600Y274100
X76600Y274100
X66600Y274100
X56600Y274100
X79600Y250600
X89600Y250600
X99600Y250600
X109600Y250600
X76600Y346600
X66600Y346600
X56600Y346600
X46100Y137100
X46100Y127100
X46100Y117100
X49500Y98400
X31700Y98400
X31700Y72800
X49500Y72800
X71700Y72300
X89500Y72300
X103700Y72300
X121500Y72300
X121500Y97900
X103700Y97900
X89500Y97900
X71700Y97900
M30
