G75*
%MOIN*%
%OFA0B0*%
%FSLAX25Y25*%
%IPPOS*%
%LPD*%
%AMOC8*
5,1,8,0,0,1.08239X$1,22.5*
%
%ADD10C,0.06000*%
%ADD11OC8,0.06000*%
%ADD12C,0.06737*%
%ADD13C,0.06800*%
%ADD14C,0.07400*%
D10*
X0117000Y0236800D02*
X0117000Y0242000D01*
X0127000Y0242000D02*
X0127000Y0236800D01*
X0127000Y0272000D02*
X0127000Y0277200D01*
X0117000Y0277200D02*
X0117000Y0272000D01*
X0139400Y0307000D02*
X0144600Y0307000D01*
X0169400Y0307000D02*
X0174600Y0307000D01*
D11*
X0152000Y0297000D03*
X0142000Y0297000D03*
X0132000Y0297000D03*
X0132000Y0287000D03*
X0142000Y0277000D03*
X0152000Y0277000D03*
X0112000Y0287000D03*
X0112000Y0297000D03*
D12*
X0097000Y0234969D02*
X0097000Y0229031D01*
X0107000Y0229031D02*
X0107000Y0234969D01*
X0149031Y0257000D02*
X0154969Y0257000D01*
X0154969Y0267000D02*
X0149031Y0267000D01*
X0174031Y0267000D02*
X0179969Y0267000D01*
X0179969Y0257000D02*
X0174031Y0257000D01*
X0174031Y0277000D02*
X0179969Y0277000D01*
X0179969Y0287000D02*
X0174031Y0287000D01*
X0174031Y0297000D02*
X0179969Y0297000D01*
X0107000Y0304031D02*
X0107000Y0309969D01*
X0097000Y0309969D02*
X0097000Y0304031D01*
D13*
X0147000Y0235000D02*
X0147000Y0229000D01*
X0157000Y0229000D02*
X0157000Y0235000D01*
X0167000Y0235000D02*
X0167000Y0229000D01*
D14*
X0177000Y0247000D03*
X0137000Y0247000D03*
M02*
